<?xml version="1.0" standalone="no"?>
<!DOCTYPE svg PUBLIC "-//W3C//DTD SVG 1.1//EN" "http://www.w3.org/Graphics/SVG/1.1/DTD/svg11.dtd" >
<svg xmlns="http://www.w3.org/2000/svg" xmlns:xlink="http://www.w3.org/1999/xlink" version="1.1">
<metadata>
Created by FontForge 20170731 at Thu Jun 15 14:37:00 2023
 By Aleksey,,,
Copyright 2014 by Joel Carrouche. All rights reserved.
</metadata>
<defs>
<font id="Linotte-Heavy" horiz-adv-x="1134" >
  <font-face 
    font-family="Linotte-Heavy"
    font-weight="400"
    font-stretch="normal"
    units-per-em="2048"
    panose-1="0 0 0 0 0 0 0 0 0 0"
    ascent="1548"
    descent="-500"
    x-height="948"
    cap-height="1403"
    bbox="-201 -500 2392 1919"
    underline-thickness="102"
    underline-position="-204"
    unicode-range="U+000D-1F426"
  />
<missing-glyph horiz-adv-x="1368" 
d="M164 0v1393h1040v-1393h-1040zM256 1300v-1208h856v1208h-856z" />
    <glyph glyph-name="f_f" unicode="ff" horiz-adv-x="1499" 
d="M885 653l-340 -2q0 -114 2 -512q0 -67 -41 -108t-119 -41q-168 0 -168 145q0 96 1 246q1 200 -1 268h-67q-80 0 -115 35t-35 115q0 63 36 102t95 39l88 2v98q5 208 117 338q113 131 348 131q162 0 162 -155q0 -57 -29 -97q-28 -38 -71 -38q-24 0 -40 1t-32 1
q-54 0 -91 -52q-36 -51 -36 -122q0 -30 -1 -52t-1 -51h340q0 94 9 169q9 76 39 155t80 132q48 51 138 86q87 34 207 34q82 0 149 -45q47 -33 47 -119q0 -48 -29 -90q-30 -43 -73 -43q-20 0 -62 5q-38 5 -65 3q-38 -1 -64 -26q-26 -24 -36 -70q-11 -50 -14 -87
q-3 -41 -3 -104h146q131 0 131 -139q0 -87 -37 -121q-38 -35 -117 -35h-123q0 -82 1 -185t1 -329q0 -145 -159 -145q-168 0 -168 141v36v71v151v264z" />
    <glyph glyph-name="fi" unicode="fi" horiz-adv-x="1259" 
d="M813 946q142 8 195 0q66 -10 104 -62q39 -52 37 -126q-4 -104 -4 -623q0 -67 -45 -105q-46 -39 -117 -40q-71 -2 -119 29q-49 31 -49 112v518h-84h-184v-518q0 -141 -162 -141q-166 0 -166 137q0 129 1 243t1 283h-63q-83 0 -117 34q-36 36 -37 112q-2 66 35 104
q37 39 98 39h86v37q17 528 520 528q120 0 209 -47q72 -39 70 -131q-1 -48 -37 -93q-35 -44 -86 -44q-36 0 -96 10t-98 10q-65 0 -111 -44q-45 -44 -47 -113v-113q210 0 266 4z" />
    <glyph glyph-name="fl" unicode="fl" horiz-adv-x="1353" 
d="M678 651h-131v-332q0 -53 1 -91t1 -97q0 -69 -46 -105q-47 -36 -114 -36q-70 0 -120 32q-49 32 -48 105l2 180q0 82 -1 155t-1 193h-65q-82 0 -117 33q-36 34 -37 111q-2 64 38 105q41 42 99 42h84v72q0 216 150 350q149 133 418 133q181 0 258 -12q74 -12 116 -41
q29 -19 52 -60q24 -42 24 -83q0 -157 -3 -462t-3 -464q0 -37 3 -116q3 -73 1 -116q-4 -76 -38 -111q-35 -37 -122 -44q-92 -11 -140 41q-49 52 -50 182q-7 303 0 985q-46 6 -144 6q-93 0 -145 -54q-53 -55 -53 -136v-70h121q134 0 139 -137q2 -71 -31 -115t-98 -43z" />
    <glyph glyph-name="f_f_i" unicode="ffi" horiz-adv-x="1927" 
d="M1483 946q134 2 172 2q84 0 126 -55q42 -56 38 -135q-4 -84 -4 -623q0 -67 -46 -105q-46 -39 -116 -40q-71 -2 -119 29q-49 31 -49 112v518h-277v-518q0 -141 -161 -141q-166 0 -166 137v526l-336 -2q0 -114 2 -512q0 -67 -41 -108t-119 -41q-168 0 -168 145q0 96 1 246
q1 200 -1 268h-67q-80 0 -115 35t-35 115q0 63 36 102t95 39h88v100q5 208 117 338q113 131 348 131q162 0 162 -155q0 -57 -29 -97q-28 -38 -71 -38q-24 0 -40 1t-32 1q-54 0 -92 -52q-37 -50 -37 -122v-105h334v64q1 219 126 360t394 141q126 0 205 -43q66 -37 65 -135
q-1 -50 -35 -94q-33 -43 -84 -43q-35 0 -92 10t-94 10q-65 0 -112 -47q-46 -46 -46 -116v-105q149 0 275 2z" />
    <glyph glyph-name="f_f_l" unicode="ffl" horiz-adv-x="2000" 
d="M1333 651h-131q0 -120 2 -518q0 -143 -160 -143q-167 0 -167 137v526q-94 0 -166 -1t-166 -1q-1 -55 0 -210q2 -206 2 -302q0 -67 -41 -108t-119 -41q-168 0 -168 145q0 96 1 246q1 200 -1 268h-67q-80 0 -115 35t-35 115q0 87 52 114q53 27 167 27v94q5 206 115 333
q111 128 344 128q162 0 162 -152q0 -59 -30 -99t-75 -40q-23 0 -35 1t-26 1q-55 0 -85 -41q-29 -40 -37 -92q-7 -48 -7 -131h332v82q0 211 149 344t416 133q196 0 262 -10q71 -11 109 -37q26 -17 50 -61q23 -42 23 -84q0 -158 -3 -464t-3 -466q0 -33 3 -113q3 -73 1 -119
q-5 -54 -16 -81q-37 -76 -146 -76q-89 0 -138 49q-50 50 -50 176q-7 303 0 985q-46 6 -141 6q-91 0 -142 -52t-51 -134v-76h117q133 0 139 -135q4 -66 -27 -112t-98 -46z" />
    <glyph glyph-name="f_f_j" unicode="ffj" horiz-adv-x="1933" 
d="M1489 649h-281v-518q0 -141 -161 -141q-166 0 -166 137v526l-336 -2q0 -114 2 -512q0 -67 -41 -108t-119 -41q-168 0 -168 145q0 96 1 246q1 200 -1 268h-67q-80 0 -115 35t-35 115q0 60 35 100q35 39 96 39l88 2v100q5 208 117 338q113 131 348 131q162 0 162 -155
q0 -57 -29 -97q-28 -38 -71 -38q-24 0 -40 1t-32 1q-54 0 -92 -52q-37 -50 -37 -122v-105h334v64q1 219 126 360t394 141q127 0 205 -39q69 -34 67 -135q-1 -50 -36 -94q-34 -43 -85 -43q-28 0 -92 8t-94 8q-65 0 -112 -47q-46 -46 -46 -116v-105q153 0 279 2q20 0 40.5 0.5
t31 1t14.5 0.5h12q133 0 185 -63q53 -64 53 -217l-2 -754q0 -184 -108 -292q-107 -107 -292 -107q-117 0 -181 35q-66 36 -66 143q0 90 61 133q27 18 59 18q13 0 51 -5q34 -4 56 -3q54 2 72 48q18 45 16 147v618z" />
    <glyph glyph-name="f_j" unicode="fj" horiz-adv-x="1275" 
d="M829 946q142 8 195 0q65 -12 103 -62t38 -126l-2 -844q0 -185 -107 -292t-292 -107q-117 0 -181 35q-67 37 -67 143q0 89 62 133q28 18 59 18q12 0 50 -5q34 -4 56 -3q54 2 72 48q18 45 16 147v618h-284v-518q0 -141 -162 -141q-166 0 -166 137q0 129 1 243t1 283h-63
q-83 0 -117 34q-36 36 -37 112q-2 95 51 120q51 25 168 25v68q0 217 127 357q126 140 369 138q155 0 225 -41t70 -137q0 -58 -35 -98q-35 -39 -94 -39q-31 0 -84 10t-94 10q-65 0 -112 -50q-46 -49 -48 -130v-88q242 0 282 2z" />
    <glyph glyph-name=".notdef" horiz-adv-x="1368" 
d="M164 0v1393h1040v-1393h-1040zM256 1300v-1208h856v1208h-856z" />
    <glyph glyph-name=".null" horiz-adv-x="0" 
 />
    <glyph glyph-name="nonmarkingreturn" horiz-adv-x="681" 
 />
    <glyph glyph-name="NULL" horiz-adv-x="0" 
 />
    <glyph glyph-name="CR" unicode="&#xd;" horiz-adv-x="512" 
 />
    <glyph glyph-name="space" unicode=" " horiz-adv-x="495" 
 />
    <glyph glyph-name="exclam" unicode="!" horiz-adv-x="555" 
d="M123 815l-27 432q-4 75 43 119q46 43 133 43q100 0 140 -46q41 -47 39 -149q-1 -243 -37 -641q-12 -122 -142 -122q-115 0 -127 116zM272 -18q-75 0 -124 46q-50 47 -50 119q0 75 54 132q52 55 129 55q79 0 128 -48q50 -48 50 -124q0 -82 -51 -131q-50 -49 -136 -49z" />
    <glyph glyph-name="quotedbl" unicode="&#x22;" horiz-adv-x="813" 
d="M70 1331q-2 65 32 106q34 42 117 42q55 0 96 -33t41 -86q0 -23 -18 -293q-12 -119 -125 -119q-51 0 -84 27t-37 69q-13 146 -22 287zM459 1364q0 55 43 85q44 30 102 30q59 0 99 -34t38 -85q-1 -56 -20 -289q-5 -53 -36 -86t-89 -33q-115 0 -121 90q-16 196 -16 322z" />
    <glyph glyph-name="numbersign" unicode="#" horiz-adv-x="1333" 
d="M643 150l23 137h-158l-23 -152q-21 -143 -155 -143q-72 0 -109 42t-22 116l22 137h-67q-113 0 -109 139q0 133 135 133h84l37 223h-72q-117 0 -112 142q1 60 39 98q37 37 104 37h86l31 190q23 154 153 154q63 0 101 -35q37 -34 26 -100l-32 -209h163l33 194
q24 150 154 150q60 0 97 -35q36 -35 26 -100l-33 -209h92q121 0 121 -144q0 -128 -131 -133h-123l-35 -223h94q115 0 111 -143q-1 -60 -38 -95q-35 -34 -99 -34h-109l-22 -152q-18 -143 -148 -143q-72 0 -110 42q-37 42 -25 116zM584 782l-35 -223h160l36 223h-161z" />
    <glyph glyph-name="dollar" unicode="$" horiz-adv-x="1114" 
d="M442 1458q-2 60 33 90q36 31 88 31q54 0 90 -28q35 -27 35 -83v-100q130 -21 227 -68q80 -38 80 -137q0 -49 -39 -98t-94 -49q-40 0 -131 35q-89 30 -156 30q-62 0 -109 -34q-48 -35 -48 -84q0 -48 51 -72t156 -45q198 -40 306 -132q107 -91 107 -272q0 -166 -94 -275
t-252 -147l2 -112q1 -61 -34 -88q-36 -27 -91 -27q-51 0 -90 25q-37 24 -37 76v114q-173 15 -270 74q-100 55 -100 149q0 66 42 114t97 48q54 0 125 -28q1 0 30 -13q28 -12 37 -15q15 -5 39 -12q26 -8 52 -11q27 -3 57 -3q63 0 113 36q49 36 49 87q0 91 -187 129
q-205 44 -317 131q-115 89 -115 248q0 148 97 263q98 116 251 155v98z" />
    <glyph glyph-name="percent" unicode="%" horiz-adv-x="1685" 
d="M1059 1315q32 54 82 71t100 -10q111 -66 49 -168q-14 -25 -136 -215q-136 -211 -179 -284q-27 -49 -121 -208q-20 -34 -40 -67.5t-28 -46.5t-8 -14l-194 -324q-27 -46 -82 -53q-56 -8 -92 14q-45 23 -59 70q-13 46 16 98l350 547zM41 999q0 182 88 289q89 109 242 109
t241 -105q88 -104 88 -278q0 -167 -95 -265t-234 -98q-133 0 -232 93q-98 92 -98 255zM371 1182q-101 0 -101 -166q0 -152 99 -152q44 0 71 51t27 115q0 152 -96 152zM977 336q0 179 86 285q85 104 244 104q155 0 246 -102q92 -103 92 -275q0 -169 -95 -267
q-94 -97 -241 -97q-138 0 -235 94t-97 258zM1309 522q-101 0 -101 -184q0 -152 95 -152q102 0 102 160q0 176 -96 176z" />
    <glyph glyph-name="ampersand" unicode="&#x26;" horiz-adv-x="1386" 
d="M860 1251q0 -51 -36 -94t-87 -43q-19 0 -73 16q-31 11 -74 11q-49 0 -85 -30t-36 -83q0 -20 3 -40q3 -17 11 -37q3 -7 8.5 -17.5t6.5 -11.5q7 -15 20 -30q5 -6 12 -14t9 -11q4 -5 24 -25l23 -23q146 -152 338 -321q10 14 10 22q8 111 -60 144q-108 30 -108 135
q0 123 147 123h125q34 0 84 3t76 3q137 0 137 -119q0 -97 -65 -119q-40 -16 -109 -18q51 -56 51 -168q0 -91 -47 -197l101 -69q63 -45 63 -111q0 -54 -41 -101q-40 -46 -96 -46q-78 0 -139 47l-80 63q-162 -110 -373 -110q-230 0 -381 120q-153 122 -153 324q0 232 200 356
q-84 119 -84 250q0 155 114 269t298 114q130 0 203 -45q63 -40 63 -117zM606 268q74 0 121 31q-113 105 -252 250l-41 43q-57 -51 -57 -150q0 -72 66 -123t163 -51z" />
    <glyph glyph-name="quotesingle" unicode="'" horiz-adv-x="464" 
d="M84 1343q0 132 154 132q63 0 104 -33t41 -94q0 -126 -18 -279q-10 -121 -140 -121q-57 0 -91 33q-33 32 -38 86q-10 159 -12 276z" />
    <glyph glyph-name="parenleft" unicode="(" horiz-adv-x="667" 
d="M342 1389q39 53 75 80q35 26 87 26q57 0 100 -43q44 -44 45 -100q0 -31 -14 -62q-95 -168 -150 -338q-55 -171 -55 -403q0 -145 33 -291t67 -227q30 -71 91 -197q28 -56 28 -90q0 -55 -48 -97t-109 -42q-64 0 -93 25q-30 26 -71 98q-70 121 -105 195q-43 92 -85 261
q-44 176 -44 357q0 468 248 848z" />
    <glyph glyph-name="parenright" unicode=")" horiz-adv-x="669" 
d="M330 1389q248 -380 248 -848q0 -181 -44 -357q-42 -169 -85 -261q-35 -74 -105 -195q-40 -71 -72 -98q-29 -25 -92 -25q-61 0 -109 42t-48 97q0 34 28 90q54 111 90 197t68 227q33 146 33 291q0 229 -56 403t-149 338q-14 31 -14 62q1 56 45 100q43 43 100 43
q52 0 87 -26q36 -27 75 -80z" />
    <glyph glyph-name="asterisk" unicode="*" horiz-adv-x="765" 
d="M231 989l-98 12q-94 12 -94 105q2 47 36 74q33 26 79 14l137 -37l-4 152q-1 39 26 62q29 24 74 24q42 0 73 -25q29 -23 27 -65l-8 -152l129 49q43 16 80 -10q37 -27 37 -80q0 -82 -66 -94l-127 -31l99 -121q20 -26 20 -59q0 -35 -31 -62q-30 -26 -71 -26q-34 0 -51 16
q-20 18 -43 56l-72 118l-61 -112q-37 -76 -103 -76q-36 0 -66 24t-30 58q0 40 20 67z" />
    <glyph glyph-name="plus" unicode="+" horiz-adv-x="1024" 
d="M150 414q-68 0 -103 41t-33 110q1 55 37 91q34 34 92 34q63 0 120 -1t116 -1v268q0 65 40 99q41 35 99 35q133 0 133 -129q0 -49 1 -123t1 -154q148 0 228 4q129 0 129 -137q0 -56 -32 -96t-93 -41h-61q-51 0 -89 1t-86 1v-97q0 -63 1 -101t1 -66q0 -126 -147 -121
q-58 1 -92 37q-33 34 -33 86v262q-74 0 -131 -1t-98 -1z" />
    <glyph glyph-name="comma" unicode="," horiz-adv-x="505" 
d="M55 -143q0 15 8 34q7 18 16 28q1 1 9.5 12t15.5 19q12 14 23 25q22 39 10 54q-23 28 -39 51q-26 36 -26 80q0 74 52 125t126 51q78 0 133 -52t55 -132q0 -90 -34 -161q-37 -77 -71 -111q-39 -39 -97 -81q-40 -28 -91 -28q-31 0 -60 26q-30 27 -30 60z" />
    <glyph glyph-name="hyphen" unicode="-" horiz-adv-x="757" 
d="M205 340q-71 0 -109 44q-37 43 -37 110q0 70 38 113q37 42 108 42h356q137 0 137 -157q0 -72 -45 -113q-46 -41 -121 -41q-92 0 -163 1t-164 1z" />
    <glyph glyph-name="period" unicode="." horiz-adv-x="505" 
d="M244 -16q-77 0 -130 50t-53 128q0 82 56 136q55 54 139 54q81 0 133 -49q53 -50 53 -131q0 -84 -54 -136q-53 -52 -144 -52z" />
    <glyph glyph-name="slash" unicode="/" horiz-adv-x="864" 
d="M526 1360q37 100 138 100q55 0 109 -39t54 -90q0 -49 -20 -98l-473 -1194q-34 -98 -127 -98q-58 0 -114 37t-56 92q0 40 18 90z" />
    <glyph glyph-name="zero" unicode="0" horiz-adv-x="1292" 
d="M80 649q0 349 149 553q150 205 420 205q265 0 415 -192t150 -525q0 -335 -160 -517q-160 -183 -403 -183t-407 174q-164 175 -164 485zM649 1098q-237 0 -237 -439q0 -166 61 -264t166 -98q115 0 179 102q65 103 65 281q0 186 -60 302t-174 116z" />
    <glyph glyph-name="one" unicode="1" horiz-adv-x="888" 
d="M274 887q-40 -23 -90 -23q-52 0 -97 54q-44 53 -44 108q0 49 22 80q21 30 68 65q212 148 286 190q77 44 122 42q63 0 98 -23q72 -44 72 -116v-367q0 -215 -1 -387t-1 -387q0 -60 -51 -97q-50 -36 -119 -36q-73 0 -119 40q-47 41 -47 113q0 73 4 241t4 323q0 72 1 131
t1 127q-44 -38 -109 -78z" />
    <glyph glyph-name="two" unicode="2" 
d="M526 1083q-78 0 -164 -86q-53 -53 -143 -53q-63 0 -106 48q-43 47 -43 112q0 100 127 194q143 110 315 111q220 4 376 -118q154 -121 154 -326q0 -67 -21 -130q-21 -62 -44 -104t-88 -105q-60 -58 -96 -91q-31 -28 -125 -107l-138 -113q84 -4 281 2l20 2q13 0 53 2
q20 1 50 1q61 0 100 -50t39 -112q0 -82 -44 -124q-43 -42 -116 -40h-227q-197 0 -457 4q-73 0 -120 50q-48 51 -48 128q0 66 24 115q24 50 83 106q26 26 141 127q118 103 180 164q147 147 175 191q26 39 26 75q0 58 -47 93q-46 34 -117 34z" />
    <glyph glyph-name="three" unicode="3" horiz-adv-x="1126" 
d="M705 459q0 147 -228 147q-28 0 -72 -2q-58 0 -96 47q-37 46 -37 111q0 73 64 131q7 6 16.5 14.5t25.5 22t27 23.5q10 9 40 34.5t44 38.5q33 29 68 64q-236 -7 -311 -7q-162 0 -162 154q0 68 36 113t116 45q42 0 99 -1t132 -1q114 0 205 1t207 1q66 0 104 -41
q37 -40 37 -103q0 -85 -62 -141l-260 -258q142 -18 244 -119q104 -102 105 -260q2 -237 -144 -362q-145 -124 -383 -129q-188 -2 -336 79q-108 60 -108 156q0 70 43 119t100 49q55 0 139 -41q96 -47 154 -47q87 0 139 40q54 42 54 122z" />
    <glyph glyph-name="four" unicode="4" horiz-adv-x="1212" 
d="M657 719q0 158 148 158q79 0 118 -31q38 -30 44 -94v-193h88q63 0 99 -38q36 -37 36 -105q0 -170 -131 -170h-90q0 -59 -2 -127q-5 -131 -158 -133q-72 -2 -112 30q-42 33 -42 101v131h-448q-72 0 -117 58t-45 128q0 116 66 217q68 114 370 662q53 96 154 96
q65 0 127 -45q61 -45 61 -98q0 -42 -22 -86q-45 -86 -142 -245q-94 -154 -116 -194l-111 -192l223 4z" />
    <glyph glyph-name="five" unicode="5" horiz-adv-x="1144" 
d="M174 1231q11 73 59 118q49 46 117 46h504q154 0 154 -158q0 -155 -162 -154l-371 7l-10 -60l-23 -143q15 10 72 23q52 12 88 12q210 0 340 -118q131 -119 131 -315q0 -220 -134 -363q-133 -142 -386 -142q-227 0 -373 82q-58 34 -78 66q-20 33 -20 87q0 61 45 114
q45 52 113 52q47 0 100 -29q106 -51 211 -51q77 0 126 41q48 40 48 123q0 71 -51 112q-50 40 -133 40q-45 0 -126 -27t-130 -27q-77 0 -137 51t-50 123q12 89 37 239q28 168 39 251z" />
    <glyph glyph-name="six" unicode="6" horiz-adv-x="1210" 
d="M678 1092q-87 0 -154 -58q-66 -57 -78 -147q-4 -19 -4 -47q32 31 105 56q69 24 127 24q207 0 342 -111t135 -330q0 -223 -141 -358t-381 -135q-434 0 -518 444q-19 101 -19 236q0 324 159 533q159 208 427 208q171 0 285 -51q100 -45 100 -152q0 -64 -40 -110
q-41 -47 -101 -47q-26 0 -95 18q-99 27 -149 27zM629 643q-87 2 -136 -43q-52 -47 -53 -133q-2 -80 52 -127q53 -47 131 -47q83 0 141 47q57 46 57 135q0 76 -54 121q-55 46 -138 47z" />
    <glyph glyph-name="seven" unicode="7" horiz-adv-x="1095" 
d="M401 1090q-17 0 -56.5 -1.5t-58.5 -1.5q-94 -2 -102 -2q-151 0 -151 166q0 72 44 108q43 36 111 36q200 0 360 1t361 1q75 0 113 -42q37 -41 37 -108q0 -73 -66 -180q-279 -425 -358 -659l-78 -263q-16 -76 -54 -114q-37 -37 -124 -37q-178 0 -178 156q0 19 3 40
q4 27 14 56q12 34 18 54q5 15 27 79q8 23 32 88q101 280 334 625q-84 0 -115 -1t-113 -1z" />
    <glyph glyph-name="eight" unicode="8" horiz-adv-x="1218" 
d="M1110 1010q0 -87 -47 -169q-47 -81 -121 -110q96 -27 149 -103q55 -77 56 -177q2 -233 -142 -351q-143 -118 -393 -118q-238 0 -388 114t-150 316q0 107 59 193q60 87 160 120q-65 23 -114 103q-50 82 -50 167q0 191 144 303q145 113 337 113q208 0 355 -112
q145 -111 145 -289zM618 600q-86 2 -141 -45q-55 -46 -53 -127q1 -67 51 -106q49 -39 129 -39q195 0 195 161q0 67 -50 111q-49 43 -131 45zM467 987q4 -59 41 -93t106 -34q73 0 113 40q41 41 41 104q0 46 -45 83q-44 37 -109 37q-61 0 -104 -37t-43 -100z" />
    <glyph glyph-name="nine" unicode="9" horiz-adv-x="1224" 
d="M549 319q91 0 164 61q71 59 71 169q-94 -78 -243 -78q-196 0 -332 115q-135 114 -135 338q0 216 152 350q153 135 382 135q275 0 401 -179q126 -178 126 -474q0 -399 -138 -586q-136 -184 -456 -184q-187 0 -316 65q-90 47 -90 154q0 61 41 114q42 54 103 54
q47 0 108 -21q102 -33 162 -33zM588 756q88 -1 142 45q54 47 54 131q0 77 -55 123q-56 47 -129 47q-79 0 -132 -46q-54 -46 -54 -132q0 -76 47 -121t127 -47z" />
    <glyph glyph-name="colon" unicode=":" horiz-adv-x="505" 
d="M244 586q-77 0 -130 50t-53 128q0 82 56 136q55 54 139 54q81 0 133 -49q53 -50 53 -131q0 -84 -54 -136q-53 -52 -144 -52zM244 -16q-77 0 -130 50t-53 128q0 82 56 136q55 54 139 54q81 0 133 -49q53 -50 53 -131q0 -84 -54 -136q-53 -52 -144 -52z" />
    <glyph glyph-name="semicolon" unicode=";" horiz-adv-x="505" 
d="M55 -143q0 15 8 34q7 18 16 28q1 1 9.5 12t15.5 19q12 14 23 25q22 39 10 54q-23 28 -39 51q-26 36 -26 80q0 74 52 125t126 51q78 0 133 -52t55 -132q0 -90 -34 -161q-37 -77 -71 -111q-39 -39 -97 -81q-40 -28 -91 -28q-31 0 -60 26q-30 27 -30 60zM244 584
q-77 0 -130 50t-53 128q0 82 56 136q55 54 139 54q81 0 133 -49q53 -50 53 -131q0 -84 -54 -136q-53 -52 -144 -52z" />
    <glyph glyph-name="less" unicode="&#x3c;" horiz-adv-x="1024" 
d="M891 813q-43 -25 -270 -140q-237 -120 -244 -124q10 -5 32 -15t62.5 -28.5t77.5 -35.5q167 -77 245 -115q108 -53 130 -70q37 -37 37 -80q0 -49 -36 -95q-36 -47 -85 -47t-95 23l-575 303q-109 51 -109 166q0 104 113 170q58 36 561 295q47 24 90 24q51 0 86 -48
q35 -49 35 -103q0 -47 -55 -80z" />
    <glyph glyph-name="equal" unicode="=" horiz-adv-x="1024" 
d="M178 618q-65 0 -97 47t-32 105q0 61 41 100q40 39 111 39q36 0 95 -1t146 -1q123 0 220 1t184 1q129 0 129 -149q0 -136 -125 -142h-672zM178 190q-65 0 -97 47t-32 105q0 61 41 100q40 39 111 39q36 0 95 -1t146 -1q123 0 220 1t184 1q129 0 129 -149q0 -136 -125 -142
q-66 -2 -186 -2q-191 0 -299 1t-187 1z" />
    <glyph glyph-name="greater" unicode="&#x3e;" horiz-adv-x="1024" 
d="M131 813q-55 33 -55 80q0 54 35 103q35 48 86 48q45 0 90 -24q503 -259 561 -295q113 -66 113 -170q0 -115 -109 -166l-576 -303q-46 -23 -94 -23q-49 0 -85 47q-36 46 -36 95q0 43 37 80q22 17 130 70q78 38 245 115q37 17 77.5 35.5t62.5 28.5t32 15q-7 4 -244 124
q-227 115 -270 140z" />
    <glyph glyph-name="question" unicode="?" horiz-adv-x="1009" 
d="M55 1163q0 87 88 144q157 106 340 106q202 0 335 -121q134 -122 134 -299q0 -206 -254 -334q-88 -45 -88 -102v-29q0 -56 -41 -94q-40 -37 -112 -37q-77 0 -127 52q-49 50 -49 141q0 139 145 221q2 1 12 6.5t18 9.5q7 4 17 10t13 8q7 4 29 17q19 12 29 20q3 3 10.5 8.5
t12.5 9.5q13 11 22 21q10 12 15 20q8 13 11 24q3 12 3 24q0 56 -39 88q-40 33 -100 33q-67 0 -145 -51q-73 -49 -135 -49q-51 0 -98 51q-46 50 -46 102zM268 145q0 73 54 121q53 47 137 47q79 0 131 -47q51 -46 51 -119q0 -79 -54 -123q-55 -44 -134 -44q-84 0 -134 43
q-51 43 -51 122z" />
    <glyph glyph-name="at" unicode="@" horiz-adv-x="1957" 
d="M1413 555l-22 -207q-17 -141 67 -141q75 0 112 100q38 102 38 275q0 225 -157 362t-431 137q-280 0 -475 -208q-195 -209 -195 -523q0 -234 158 -397q158 -162 422 -162q132 0 268 51q42 17 78 17q46 0 80 -43q35 -44 35 -97q0 -67 -66 -102q-166 -88 -391 -88
q-360 0 -607 231t-247 584q0 418 271 699q271 282 687 282q376 0 607 -219t231 -516q0 -319 -121 -471q-122 -154 -334 -154q-85 0 -155 47t-88 125q-24 -53 -101 -94t-153 -41q-167 0 -272 102t-105 254q0 198 112 329q113 132 314 132q57 0 110 -26q56 -27 86 -68
q6 17 19 41q30 47 112 47q66 0 101 -36t29 -93zM989 584q-79 0 -122 -55q-42 -54 -42 -134q0 -62 38 -106q37 -43 98 -43q81 0 124 56t43 142q0 62 -42 101t-97 39z" />
    <glyph glyph-name="A" unicode="A" horiz-adv-x="1370" 
d="M29 154q0 56 39 145q97 208 178 410l237 577q21 53 75 83t112 30q162 0 207 -121q78 -176 256 -627q8 -14 36 -76q101 -255 142 -342q24 -53 24 -102q0 -53 -54 -97q-55 -44 -136 -44q-117 0 -154 94q-69 165 -80 207q-58 2 -284 2h-183l-73 -201q-40 -100 -142 -100
q-81 0 -140 40q-60 40 -60 122zM678 991q-16 -53 -74 -230q-18 -56 -40 -122.5t-27 -81.5q159 0 280 4q-14 48 -62 192q-64 194 -77 238z" />
    <glyph glyph-name="B" unicode="B" horiz-adv-x="1265" 
d="M662 1395q210 0 343 -115q132 -114 132 -281q0 -94 -51 -170q-49 -73 -128 -102q107 -23 176 -101q70 -79 70 -192q0 -195 -102 -300q-103 -106 -281 -124q-108 -12 -360 -12l-176 2q-64 0 -106 42t-48 118l2 219l4 266q0 118 -4 287t-4 287q0 66 34 109q35 45 85 52
q96 15 414 15zM670 561l-197 -4l2 -274h205q82 2 130 35q50 35 50 104q0 139 -190 139zM813 977q0 57 -42 93q-41 35 -109 40h-54h-81h-54v-285q40 0 87 1t91 1q72 0 117 39t45 111z" />
    <glyph glyph-name="C" unicode="C" horiz-adv-x="1251" 
d="M1061 1352q61 -27 93 -62q31 -34 30 -94q-1 -71 -37 -116q-35 -44 -105 -44q-42 0 -112 29q-87 35 -187 35q-135 0 -234 -116q-100 -116 -101 -302q-1 -172 106 -275q109 -105 238 -106q88 -2 198 41q78 41 119 39q66 0 101 -56q36 -56 34 -126q-2 -87 -151 -153
q-151 -66 -332 -62q-123 1 -243 50q-118 48 -212 133t-148 218q-54 132 -52 293q5 220 108 388q105 172 261 257q158 86 327 82q187 -5 299 -53z" />
    <glyph glyph-name="D" unicode="D" horiz-adv-x="1417" 
d="M131 1217q0 55 25 96q23 38 71 55q49 17 90 23q43 6 103 6q46 0 93 1t83 1q321 0 539 -172q219 -173 219 -482q0 -737 -785 -743q-264 0 -309 6q-47 6 -87 49t-40 99v366zM600 1096q-59 0 -121 -2v-736q0 -12 1 -17q2 -7 3 -12q1 -1 2 -5t2 -5q1 -4 8 -6q6 -2 7 -3l10 -2
q5 -1 11 -1h15h15q459 0 459 414q0 185 -119 280t-293 95z" />
    <glyph glyph-name="E" unicode="E" 
d="M141 1247q5 69 50 107q47 39 116 39q58 0 74 -2q203 0 282 1q31 0 69.5 0.5t64 1t42.5 0.5q39 1 76 1q62 0 98 -38q37 -38 38 -93q5 -125 -80 -152q-22 -8 -436 -8h-54v-88l-4 -182v-3h47q15 0 65 1.5t85 1.5q29 0 59 0.5t46 1t22 0.5q90 0 132 -27t40 -119
q-5 -141 -142 -141h-360q-2 -40 -2 -98q0 -43 1 -78t1 -78q143 -2 320 2q113 4 151 4q129 0 129 -149q0 -148 -137 -156h-576q-118 0 -168 30t-57 111q-4 33 -4 62q0 2 0.5 13.5t1 36.5t0.5 52q0 28 1 65t2 89t2 88q3 147 3 256q0 125 1 224t1 224z" />
    <glyph glyph-name="F" unicode="F" horiz-adv-x="1101" 
d="M135 465l2 518l-8 238q-4 70 40 121q45 51 112 51h94q394 0 452 2q54 2 109 2q52 0 86 -37q35 -38 35 -98q0 -154 -123 -160h-105h-352v-119v-186h158l239 4q58 2 94 -40t36 -112q0 -153 -154 -153q-6 0 -116 2t-118 2h-147v-156l2 -203q0 -149 -164 -149q-97 0 -137 37
q-41 38 -41 123q0 2 0.5 9.5t1 22t0.5 29.5q2 70 2 84q0 55 1 83t1 85z" />
    <glyph glyph-name="G" unicode="G" horiz-adv-x="1470" 
d="M793 1413q215 0 372 -88q109 -62 109 -141q0 -60 -38 -110t-97 -50q-63 0 -142 43q-94 49 -206 49q-149 0 -261 -114q-112 -113 -112 -285q0 -197 98 -310q99 -114 262 -114q133 0 206 73t77 166h-115q-65 0 -101 39t-36 105q0 141 147 141h267q103 0 140 -56
q38 -58 38 -163q-1 -269 -173 -442q-171 -172 -493 -172q-275 0 -468 201q-193 200 -193 513q0 309 212 512t507 203z" />
    <glyph glyph-name="H" unicode="H" horiz-adv-x="1458" 
d="M1319 692l8 -555q1 -79 -44 -113q-46 -34 -136 -34q-79 0 -126 36q-46 35 -44 109v135l-2 250h-496l2 -399q0 -131 -182 -131q-166 0 -166 137q0 77 3 319q3 220 1 375l-8 428q-1 76 43 113t135 37q74 0 122 -31q46 -30 48 -94v-447q39 0 70 -1t67 -1q77 0 149 1t150 1
l64 2q0 156 -1 250t-1 189q6 133 178 133q77 0 124 -38q46 -37 46 -108q0 -306 -4 -563z" />
    <glyph glyph-name="I" unicode="I" horiz-adv-x="636" 
d="M150 874q0 115 -3 373q-1 81 50 119q50 37 127 37q72 0 118 -36q47 -36 47 -101q0 -62 3 -473q0 -12 -2 -114q-1 -51 -1 -120v-82l3 -342q1 -71 -50 -107t-125 -36q-77 0 -127 41q-49 40 -47 117q0 41 1 86t1 100z" />
    <glyph glyph-name="J" unicode="J" horiz-adv-x="1013" 
d="M530 676l-12 565q-2 73 47 119q50 47 127 47q83 0 135 -41t52 -123q0 -25 2 -225t2 -244q0 -100 -4 -239q-8 -254 -127 -402q-118 -147 -373 -147q-185 0 -303 100q-74 66 -74 145q0 67 42 114q42 46 103 46q67 0 127 -45q56 -39 111 -39q83 0 114 93q31 92 31 276z" />
    <glyph glyph-name="K" unicode="K" horiz-adv-x="1300" 
d="M477 844l389 467q74 90 152 90q64 0 122 -50q56 -49 56 -106q0 -70 -68 -147q-103 -118 -282 -295q-34 -34 -49 -53q124 -161 250 -304l131 -143q71 -77 71 -151q0 -68 -59 -117t-125 -49q-83 0 -139 75q-19 24 -76 99l-287 385q-34 -41 -48 -56q-35 -37 -42 -45l2 -313
q0 -139 -172 -143q-81 -2 -128 37q-48 39 -48 110q0 43 1 87t1 126q0 273 1 445t1 460q0 76 49 113t127 37q79 0 126 -38q46 -37 46 -108q0 -221 -2 -413z" />
    <glyph glyph-name="L" unicode="L" horiz-adv-x="1058" 
d="M133 1255q2 68 53 106q52 38 127 38q161 0 162 -139q0 -2 -6 -398v-346v-215q112 0 164 2l254 8q73 1 106 -37q33 -39 33 -106q0 -168 -147 -168l-226 2q-171 0 -247 -4q-151 -6 -208 27q-56 32 -71 137q-4 36 -4 76q0 66 6 226t6 247q0 148 -1 267t-1 277z" />
    <glyph glyph-name="M" unicode="M" horiz-adv-x="1775" 
d="M492 803q-12 -86 -42 -376t-34 -306q-22 -133 -172 -133q-78 0 -125 47t-39 123q64 418 166 1128q16 59 80 86q62 27 137 25q125 -2 176 -152l246 -731q0 -3 1 -6l1 -4l12 31l268 720q0 1 7 15q2 4 6 11t5 10q5 10 14 25t21 27q3 3 11 11.5t13 13.5q16 14 32 21
q21 9 39 10q60 4 88 0q105 -10 133 -70q7 -24 19 -92q11 -60 28 -189q17 -130 30 -235q26 -214 38 -318q12 -101 43 -352q6 -73 -48 -114q-55 -41 -124 -41q-73 0 -117 34q-46 35 -53 97q-38 372 -58 674l-237 -662q-45 -108 -191 -102q-36 1 -65 11q-27 9 -45 35
q-20 28 -26 38q-4 6 -23 53z" />
    <glyph glyph-name="N" unicode="N" horiz-adv-x="1482" 
d="M473 152q0 -84 -45 -123t-117 -39q-172 0 -178 143q0 33 2 457v424v241q1 66 67 104q65 38 140 38q102 0 182 -113l430 -600l56 -88q0 73 -1 141t-1 142l-4 342q-2 100 40 137q44 39 140 39q72 0 118 -39t46 -113q0 -196 -1 -351t-1 -349q0 -64 1 -145t1 -263
q0 -66 -62 -107q-61 -40 -141 -40q-59 0 -98 27t-78 87l-502 723q-2 -176 2 -368q4 -200 4 -307z" />
    <glyph glyph-name="O" unicode="O" horiz-adv-x="1523" 
d="M760 1409q284 0 492 -198t208 -500q0 -305 -204 -518t-500 -213q-275 0 -482 189q-206 188 -206 497q0 329 212 538t480 205zM1112 707q0 178 -106 283q-108 106 -258 106q-148 0 -240 -115t-92 -293q0 -177 98 -281q100 -106 250 -106q145 0 247 121q101 120 101 285z
" />
    <glyph glyph-name="P" unicode="P" horiz-adv-x="1206" 
d="M131 780q0 10 -0.5 30.5t-1 59t-0.5 72.5t-0.5 72.5t-1 59t-0.5 30.5q0 25 -1 45t-1 50q0 19 3 43q3 23 9 40q43 100 152 111q45 2 303 8q231 4 383 -92q207 -133 199 -398q-5 -167 -106 -298t-263 -164q-73 -15 -227 -15h-105q-1 -52 0 -154q2 -136 2 -145
q0 -145 -180 -145q-84 0 -127 37t-43 102q0 18 1.5 134.5t2.5 191.5q2 256 2 325zM477 838v-103h90q113 0 152 10q49 12 85 66q34 52 36 119q1 63 -30 103q-30 38 -75 54q-48 17 -129 17h-133q0 -19 1 -46q1 -15 1.5 -49.5t0.5 -52.5q1 -41 1 -118z" />
    <glyph glyph-name="Q" unicode="Q" horiz-adv-x="1566" 
d="M684 -8h-4q-118 18 -217 67q-103 51 -188 130q-87 81 -137 209q-50 129 -50 288q0 184 83 345q82 160 232 262q149 102 332 112q6 2 25 2q290 0 500 -188t210 -490q0 -245 -92 -405t-229 -226v-4q1 -1 8.5 -6.5t14.5 -10.5l10 -8t8 -6t4 -3q9 -6 19 -14q14 -11 20 -13
q1 0 3 -1.5t6 -4t7 -4.5q14 -9 19 -10t16 -6q10 -4 19 -6q3 -1 9 -1.5t9 -0.5q7 -1 20 -1q46 0 100 31q53 30 89 30q74 0 120 -42t46 -113q0 -118 -119 -187t-252 -65q-45 2 -90 15q-47 14 -107 52q-23 14 -51 32.5t-34 22.5q-16 10 -104 80q-24 19 -45 35.5t-32 25t-12 9.5
q-30 24 -39 29q-13 8 -47 20q-39 14 -80 19zM1114 707q0 168 -101 275q-102 108 -253 108q-139 0 -230 -118q-92 -119 -92 -282q0 -174 96 -287q94 -110 263 -110q317 30 317 414z" />
    <glyph glyph-name="R" unicode="R" horiz-adv-x="1267" 
d="M131 1210q0 82 57 128t146 51q73 5 131 6q35 0 72 1t96 1q233 0 382 -123q148 -123 148 -342q0 -124 -62 -226q-63 -104 -165 -153q78 -106 233 -305q39 -50 39 -105q0 -63 -53 -107q-54 -45 -129 -46q-34 0 -61 14q-30 16 -42 29q-13 14 -40 49q-5 8 -107 161
q-110 165 -153 222q-39 0 -77 1t-77 1q0 -11 2 -163t2 -154q0 -148 -139 -158q-106 -4 -153 32q-46 36 -46 132q1 399 0 870q0 9 -2 93t-2 91zM621 1106q-39 0 -77 -1t-75 -1l2 -354h125q95 0 162 44q65 43 67 130q1 88 -48 135q-50 47 -156 47z" />
    <glyph glyph-name="S" unicode="S" horiz-adv-x="1185" 
d="M977 1341q86 -39 86 -145q0 -54 -42 -103q-43 -51 -101 -51q-47 0 -138 35q-87 31 -168 31q-70 0 -119 -37q-51 -39 -51 -88q0 -52 57 -79q59 -28 165 -50q217 -43 331 -135q115 -92 115 -279q0 -210 -146 -331q-146 -120 -372 -125q-241 -2 -408 77q-102 46 -102 152
q0 69 42 122q42 52 101 52q51 0 133 -31q2 0 40 -15t57 -20q35 -9 57 -13q36 -7 76 -7q75 0 124 37q50 38 50 96q0 94 -203 135q-218 44 -340 133q-123 90 -123 256q0 191 152 323t366 132q216 0 361 -72z" />
    <glyph glyph-name="T" unicode="T" horiz-adv-x="1198" 
d="M629 1389q1 0 11 0.5t30 1t42 0.5q76 1 177 3q67 1 160 1q133 0 133 -142q0 -163 -133 -163l-277 2v-62q0 -366 6 -878q2 -80 -47 -120t-137 -40q-76 0 -119 37q-42 37 -41 116l6 721q0 53 -4 224q-144 -3 -284 -3q-136 0 -136 156q0 147 144 148q23 0 54 -1t153 -1h262z
" />
    <glyph glyph-name="U" unicode="U" horiz-adv-x="1433" 
d="M131 588q4 389 4 655q0 72 45 111t121 39q97 0 138 -41q40 -40 40 -135q-2 -178 -2 -619q0 -142 66 -219q66 -76 186 -76q115 0 172 84q58 85 62 213q8 25 4 326q-4 269 -4 307q0 162 176 162q91 0 131 -46q41 -47 41 -149l4 -569q-1 -284 -159 -464q-156 -179 -433 -179
q-269 0 -430 158q-162 159 -162 442z" />
    <glyph glyph-name="V" unicode="V" horiz-adv-x="1374" 
d="M72 1106q-41 120 -41 141q0 71 61 114q62 44 137 44q113 0 152 -100q63 -172 72 -199l233 -641q10 24 33 84q25 67 26 69l254 691q35 92 156 92q61 0 123 -45q61 -45 61 -111q0 -25 -39 -133q-46 -128 -149 -373q-8 -13 -15 -33q-11 -29 -36 -89q-18 -44 -68 -156
l-151 -340q-49 -127 -207 -127q-58 0 -97 23q-40 24 -58 51q-15 22 -44 79z" />
    <glyph glyph-name="W" unicode="W" horiz-adv-x="1792" 
d="M55 1223q-15 79 35 131q50 51 135 51q143 0 166 -123q55 -281 127 -690q10 27 27 84q37 126 62 210q7 23 43.5 141t56.5 187q37 123 190 123q59 0 104 -32q48 -34 66 -91l203 -618l98 586q21 125 59 170q39 47 123 47q81 0 137 -49t44 -127l-209 -1051q-22 -90 -62 -134
q-40 -45 -137 -46q-49 0 -83 14q-35 15 -58 45q-22 29 -35 57q-12 26 -27 66l-229 649l-232 -721q-16 -49 -69 -82q-52 -33 -123 -28q-107 6 -150 60q-42 52 -65 165q-146 700 -197 1006z" />
    <glyph glyph-name="X" unicode="X" horiz-adv-x="1325" 
d="M655 471l-32 -47l-263 -363q-50 -71 -137 -71q-66 0 -127 47q-59 46 -59 110q0 57 35 103l368 465q-5 11 -346 424q-37 49 -37 100q0 58 58 111t127 53q80 0 133 -66l282 -376l285 380q47 64 137 64q68 0 122 -51t54 -113q0 -50 -24 -80q-34 -48 -361 -444l342 -420
q70 -87 70 -141q0 -62 -61 -114t-136 -52q-88 0 -149 88l-246 348z" />
    <glyph glyph-name="Y" unicode="Y" horiz-adv-x="1277" 
d="M465 528l-43 62l-365 553q-32 51 -32 94q0 66 55 114t127 48q80 0 121 -62q76 -118 313 -508q1 4 299 494q46 78 141 78q59 0 115 -45q55 -45 55 -105q0 -56 -34 -102l-410 -621v-397q0 -64 -50 -102q-49 -37 -124 -37q-79 0 -125 45q-47 45 -47 115q0 5 2 79t2 84v213z
" />
    <glyph glyph-name="Z" unicode="Z" horiz-adv-x="1177" 
d="M215 1077q-67 0 -105 41t-38 113q0 71 39 115q39 43 112 43l424 2q79 0 150 1t155 1q76 0 121 -39t45 -109q0 -65 -67 -160l-27 -38q-68 -94 -161 -222q-115 -157 -198 -273q-85 -119 -155 -224q-12 -21 -12 -25q67 0 211 2q90 1 180 5q72 3 84 3q81 0 119 -45
q36 -43 36 -112q0 -63 -38 -107q-39 -45 -125 -45q-477 -4 -748 -4q-104 0 -143 80q-10 24 -15 63q1 57 20 100q18 41 64 107l140 189l387 532l8 8q-121 0 -251 -1t-212 -1z" />
    <glyph glyph-name="bracketleft" unicode="[" horiz-adv-x="698" 
d="M111 1335q2 69 50 110q47 40 122 40h243q136 0 136 -152q0 -143 -140 -143h-98q1 -166 0 -328v-346l-2 -594h102q72 2 105 -37t33 -106q0 -154 -150 -154l-205 -2q-107 -1 -153 42q-48 45 -48 149q0 16 8 394q7 354 3 472q2 128 -2 336q-4 211 -4 319z" />
    <glyph glyph-name="backslash" unicode="\" horiz-adv-x="864" 
d="M338 1360l471 -1200q18 -50 18 -90q0 -55 -56 -92t-114 -37q-93 0 -127 98l-473 1194q-20 49 -20 98q0 51 54 90t110 39q100 0 137 -100z" />
    <glyph glyph-name="bracketright" unicode="]" horiz-adv-x="698" 
d="M586 1335q0 -108 -4 -319q-4 -208 -2 -336q-4 -118 3 -472q7 -330 7 -394q0 -103 -49 -148t-156 -43l-201 2q-149 0 -149 154q0 67 33 106q33 38 104 37h102q-2 508 -2 594v346q-1 162 0 328h-98q-139 0 -139 143q0 152 135 152h244q75 0 122 -40q48 -41 50 -110z" />
    <glyph glyph-name="asciicircum" unicode="^" horiz-adv-x="1024" 
d="M770 567q-21 36 -140 271q-114 225 -124 243q-5 -10 -15 -32t-28.5 -62.5t-35.5 -77.5q-68 -147 -115 -244q-53 -108 -70 -130q-37 -37 -80 -37q-48 0 -95 36t-47 84q0 49 23 95l303 575q51 109 166 109q104 0 170 -113q36 -58 295 -561q24 -47 24 -90q0 -51 -48 -86
q-49 -35 -103 -35q-47 0 -80 55z" />
    <glyph glyph-name="underscore" unicode="_" horiz-adv-x="1024" 
d="M166 -307q-72 0 -109 43t-37 108q0 72 36 114t104 42q139 0 332 -1t372 -1q137 0 137 -156q0 -69 -44 -110t-121 -41q-150 0 -335 1t-335 1z" />
    <glyph glyph-name="grave" unicode="`" horiz-adv-x="577" 
d="M303 1094q-156 144 -197 188q-36 37 -36 90q0 44 50 88q49 43 99 43q69 0 113 -57q30 -40 53 -71q28 -37 58 -79q17 -23 38 -57q23 -29 23 -68t-37 -73q-38 -35 -74 -35q-51 0 -90 31z" />
    <glyph glyph-name="a" unicode="a" horiz-adv-x="1189" 
d="M1075 649v-309q0 -104 6 -209q0 -139 -172 -139q-105 0 -143 125q-80 -131 -246 -131q-209 0 -335 131q-126 130 -126 334q0 227 138 367q137 138 348 138q153 0 229 -108q7 29 25 53q37 51 123 51q155 0 155 -145zM399 459q0 -81 47 -137t119 -56q78 0 132 57
q55 58 55 150q0 91 -52 145t-125 54q-80 0 -128 -57t-48 -156z" />
    <glyph glyph-name="b" unicode="b" horiz-adv-x="1208" 
d="M115 1335q1 156 159 156q78 0 128 -31q48 -30 47 -112q-2 -134 -3.5 -258t-2.5 -179t-1 -63q74 115 252 115q199 0 327 -139t128 -339q0 -214 -136 -357q-137 -144 -351 -144q-82 0 -148 36q-70 38 -104 99l-7 -27q-24 -104 -159 -98t-131 172l6 346zM813 483
q0 87 -51 139t-123 52q-85 0 -138 -52q-55 -53 -55 -155q0 -87 53 -145t124 -58q73 0 132 64q58 62 58 155z" />
    <glyph glyph-name="c" unicode="c" horiz-adv-x="931" 
d="M819 899q58 -44 58 -113q0 -58 -38 -108q-37 -49 -98 -49q-30 0 -96 22q-35 15 -82 15q-72 0 -123 -65t-51 -142q0 -80 55 -132q56 -53 131 -53q43 0 109 33q52 25 86 25q55 0 92 -51q37 -50 37 -115q0 -70 -61 -109q-110 -77 -285 -77q-239 0 -366 140
q-128 142 -128 314q0 210 146 370q145 159 366 159q146 0 248 -64z" />
    <glyph glyph-name="d" unicode="d" horiz-adv-x="1200" 
d="M1096 1337l-6 -417q0 -126 -1 -226q-2 -200 -2 -233q0 -5 0.5 -41t2 -120t2.5 -173q0 -67 -43 -101t-117 -34q-112 0 -139 84l-15 47q-90 -137 -256 -137q-217 0 -339 134t-122 326q0 217 140 365q139 147 354 147q131 0 199 -81v448q0 81 44 125q43 43 120 43
q86 0 133 -36t45 -120zM399 457q0 -76 52 -133q51 -56 124 -56q85 0 138 55t53 144q0 99 -51 151q-52 54 -129 54q-84 0 -135 -57q-52 -58 -52 -158z" />
    <glyph glyph-name="e" unicode="e" horiz-adv-x="1054" 
d="M401 387q10 -55 61 -87q50 -32 105 -32q83 0 148 37q53 29 104 29q55 0 94 -47q39 -46 39 -111q0 -79 -75 -123q-117 -71 -330 -71q-204 0 -344 136q-142 137 -142 331q0 222 143 368t351 146q190 0 314 -118t124 -272q0 -98 -34 -138q-35 -41 -132 -42q-32 0 -67 -1
q-51 -1 -151 -3q-130 -2 -208 -2zM551 702q-62 0 -104 -36q-43 -38 -48 -84q8 0 254 6q25 0 25 10q0 45 -37 75q-36 29 -90 29z" />
    <glyph glyph-name="f" unicode="f" horiz-adv-x="825" 
d="M684 651h-137v-332q0 -53 1 -91t1 -97q0 -69 -46 -105q-47 -36 -114 -36q-70 0 -120 32q-49 32 -48 105l2 180q0 82 -1 155t-1 193h-67q-82 0 -114 33q-33 34 -34 111q-1 67 33 107t98 40h86q0 22 1 46t1 48q6 209 117 338t358 129q91 0 152 -49q39 -30 39 -115
q0 -47 -30 -88t-70 -41q-10 0 -62 4q-35 3 -65 1q-52 -1 -83 -49q-30 -46 -34 -119q-2 0 -2 -52l2 -53h129q75 0 107 -35q33 -36 34 -102q5 -158 -133 -158z" />
    <glyph glyph-name="g" unicode="g" horiz-adv-x="1183" 
d="M539 -168q71 0 135 47q63 46 63 115v80q-29 -38 -88 -66q-55 -26 -121 -26q-207 0 -337 139t-130 338q0 212 134 357t340 145q143 0 223 -109l4 14q11 41 52 64q42 24 104 24q69 0 113 -41t44 -104q0 -45 -2 -299t-2 -301l4 -221q5 -193 -147 -334t-377 -141
q-196 0 -301 57q-92 50 -92 147q0 67 42 116q42 50 101 50q24 0 94 -22q87 -29 144 -29zM399 467q0 -84 51 -138q50 -53 125 -53q68 0 121 51q52 50 52 148q0 96 -51 147q-50 50 -117 50q-80 0 -130 -55q-51 -56 -51 -150z" />
    <glyph glyph-name="h" unicode="h" horiz-adv-x="1167" 
d="M119 1331q0 164 174 164q77 0 121 -39q43 -39 43 -108q0 -10 -6 -496q30 50 97 81q66 30 134 30q189 0 285 -117t96 -309q0 -290 -2 -408q-1 -65 -52 -100q-50 -35 -130 -35q-70 0 -118 36q-47 36 -46 103q0 2 5 185t5 194q0 77 -34 117q-35 41 -95 41q-58 0 -101 -45
q-44 -46 -44 -125q0 -109 1 -191t1 -188q0 -64 -50 -99q-49 -34 -127 -34q-70 0 -116 36q-47 36 -47 105q0 29 3 129t3 133v940z" />
    <glyph glyph-name="i" unicode="i" horiz-adv-x="571" 
d="M117 819q1 71 51 106q47 33 113 33q173 0 174 -135v-226v-226l2 -236q1 -71 -47 -108q-49 -37 -123 -37q-71 0 -121 32q-49 31 -49 93v704zM276 1124q-89 0 -142 64q-52 63 -36 153q12 69 73 109q60 39 124 39q90 0 140 -53t50 -131q0 -89 -59 -135t-150 -46z" />
    <glyph glyph-name="j" unicode="j" horiz-adv-x="577" 
d="M119 831q0 58 53 93q52 34 125 34q72 0 118 -31t46 -98q0 -131 -1 -225t-1 -239q0 -86 1 -155t1 -192q0 -63 -2 -161q-5 -139 -123 -240q-118 -100 -281 -102q-252 -5 -252 178q0 66 35 110q34 43 84 43q16 0 52 -6q34 -6 59 -4q52 1 73 49q21 47 21 146q0 269 -4 489
q-6 165 -4 311zM268 1108q-86 0 -139 50t-53 140t60 139q61 50 147 50q94 0 148 -54t54 -139q0 -186 -217 -186z" />
    <glyph glyph-name="k" unicode="k" horiz-adv-x="1036" 
d="M723 512l242 -279q36 -43 36 -90q0 -55 -54 -105q-55 -50 -118 -50t-122 75l-215 281l-52 -47l-2 -168q-4 -139 -162 -139q-75 0 -121 40q-45 40 -44 111l4 197q0 8 -2 414q-2 305 0 485q0 30 -1 59t-1 60q0 63 52 100t118 37q75 0 122 -33q48 -34 48 -98q0 -52 -11 -721
l250 256q64 64 127 64q55 0 108 -53q52 -52 52 -105t-41 -94q-14 -14 -213 -197z" />
    <glyph glyph-name="l" unicode="l" horiz-adv-x="581" 
d="M121 1327q2 74 50 113t124 39q84 0 131 -38q46 -37 45 -114q-6 -318 -6 -948q0 -37 3 -116q3 -73 1 -116q-4 -76 -38 -111q-35 -37 -122 -44q-92 -11 -140 41q-49 52 -50 182q-8 334 2 1112z" />
    <glyph glyph-name="m" unicode="m" horiz-adv-x="1701" 
d="M115 514q2 127 1 150q-1 15 -1.5 44t-0.5 44q-1 30 -1 65q0 146 174 146q52 0 91 -28q37 -27 48 -69l8 -37q29 54 98 94q68 40 142 40q185 0 274 -148q47 65 123 105q80 42 152 43q188 1 281 -103q93 -105 93 -291l2 -229q0 -154 -4 -227q-6 -121 -168 -121
q-75 0 -121 36t-46 95q0 53 3 184t3 219q0 154 -105 154q-53 0 -91 -38t-38 -93q-2 -112 -2 -236q0 -108 -2 -196q-2 -64 -51 -95t-121 -30q-74 2 -117 36t-43 97q0 59 3 177q3 105 1 224q0 62 -30 110t-84 48q-142 0 -137 -213v-348q0 -65 -50 -98q-49 -33 -125 -33
q-70 0 -116 34q-47 35 -47 111q0 69 2 131z" />
    <glyph glyph-name="n" unicode="n" horiz-adv-x="1169" 
d="M117 674l-2 110q-4 172 168 172q131 0 149 -104l6 -37q28 65 103 105q77 41 155 41q177 0 273 -107q96 -106 96 -307q0 -72 -1 -122t-1 -128v-162q0 -141 -180 -141q-69 0 -115 35q-45 35 -45 104q0 5 2 157t2 167q0 104 -24 161q-25 59 -95 60q-98 1 -131 -62t-33 -210
l2 -281q0 -69 -48 -101q-49 -32 -113 -32q-84 0 -129 30t-45 109q0 87 4 252q4 160 2 291z" />
    <glyph glyph-name="o" unicode="o" 
d="M604 963q37 0 78 -9q191 -33 290 -167t99 -310q0 -215 -145 -354t-369 -139q-204 0 -349 131t-145 334q0 231 144 369q145 139 397 145zM739 485q0 69 -47 131t-117 60q-86 -2 -133 -61t-47 -162q0 -77 47 -132t111 -55q80 0 133 62t53 157z" />
    <glyph glyph-name="p" unicode="p" horiz-adv-x="1204" 
d="M113 819q2 142 168 142q110 0 137 -93l10 -41q39 64 112 100q72 36 156 36q206 0 327 -135q120 -134 120 -349q0 -216 -136 -356q-137 -141 -356 -141q-140 0 -209 84q0 -26 1 -56t1 -63q0 -5 0.5 -18t1 -38t0.5 -48q0 -22 1.5 -71.5t1.5 -70.5q0 -82 -47 -121
q-46 -39 -144 -39q-147 0 -147 152l4 790zM807 485q0 86 -53 139q-52 52 -123 52q-76 0 -132 -55q-57 -55 -57 -144q0 -211 185 -211q80 0 130 61t50 158z" />
    <glyph glyph-name="q" unicode="q" horiz-adv-x="1193" 
d="M1073 121q0 -24 2 -232t2 -231q-6 -131 -170 -131q-83 0 -130 38q-46 37 -44 111q4 244 4 406q-30 -43 -86 -72q-55 -28 -121 -28q-215 0 -345 136t-130 335q0 225 143 366q144 142 363 142q57 0 119 -31q56 -28 96 -76l19 39q35 68 139 68q63 0 105 -36t42 -96
q-4 -91 -4 -276zM395 451q0 -76 51 -133q50 -56 123 -56q78 0 129 59q52 60 52 148q0 91 -51 145t-119 54q-82 0 -134 -58q-51 -57 -51 -159z" />
    <glyph glyph-name="r" unicode="r" horiz-adv-x="794" 
d="M115 805q0 74 43 111q44 38 121 38q98 0 122 -86l15 -51q27 62 93 104t134 42q141 0 141 -154q0 -68 -33 -114q-35 -48 -96 -48h-26q-189 0 -189 -260q0 -22 3 -121q3 -91 1 -143q-1 -66 -49 -100q-47 -33 -121 -33q-163 0 -163 153q0 28 2 246t2 232v184z" />
    <glyph glyph-name="s" unicode="s" horiz-adv-x="937" 
d="M483 963q180 0 279 -43q80 -35 80 -109q0 -141 -125 -141q-37 0 -111 20q-78 21 -112 21q-111 0 -111 -58q0 -7 3 -15q3 -7 11 -12q2 -1 5 -3t5.5 -3.5t4.5 -2.5q7 -3 20 -6q4 -1 8.5 -1.5t9 -1.5t6.5 -1q9 -2 28 -3q4 0 30 -4q176 -24 268 -92t92 -201q0 -153 -108 -240
t-313 -87q-159 0 -267 45t-108 112q0 154 127 154q51 0 133 -24q79 -23 149 -23q84 0 84 55q0 28 -30 40q-25 10 -121 26q-338 50 -338 270q0 143 119 235q120 93 282 93z" />
    <glyph glyph-name="t" unicode="t" horiz-adv-x="808" 
d="M125 662q-119 0 -119 143q0 59 36 98t91 39h64l4 109q6 176 182 176q64 0 99 -34q36 -35 36 -93q0 -32 -4 -156h117q64 2 98 -34q35 -37 35 -105q0 -59 -29 -100t-82 -41h-141v-267q0 -110 68 -110q21 0 44 5t35 5q53 0 85 -39q32 -40 32 -92q0 -100 -55 -137
q-61 -41 -197 -41q-149 0 -240 94t-91 287q0 10 0.5 27.5t1 50t0.5 57.5q2 102 0 158h-70z" />
    <glyph glyph-name="u" unicode="u" horiz-adv-x="1179" 
d="M295 950q75 0 113 -39q36 -37 36 -131v-301q0 -98 24 -152q24 -55 99 -55q152 0 152 250v275q0 75 50 114q49 39 126 39t120 -37q44 -38 44 -110q0 -323 2 -451q0 -38 2 -112q1 -54 3 -88q1 -22 1 -43q0 -59 -49 -90t-117 -31q-120 0 -143 92q-5 25 -13 55
q-99 -153 -262 -153q-191 0 -282 118q-92 119 -92 322q0 102 1 188t1 185q0 155 184 155z" />
    <glyph glyph-name="v" unicode="v" horiz-adv-x="1060" 
d="M100 639q-7 12 -18 37q-14 32 -16 35q-4 6 -12 26q-7 17 -9 28q0 2 -1 6t-2 8.5t-1 8.5q-2 20 -2 27q1 66 60 105q57 38 124 38q57 0 89 -24q32 -25 55 -82q3 -13 70 -193q42 -113 100 -264q12 28 161 457q34 102 144 102q66 0 121 -36q58 -38 59 -93q1 -59 -21 -110
l-276 -604q-57 -121 -195 -121q-137 0 -192 127z" />
    <glyph glyph-name="w" unicode="w" horiz-adv-x="1552" 
d="M45 795v10q-1 4 -2 9v3q0 62 60 101q58 38 130 38q115 0 142 -104q1 -8 18 -84q14 -67 39 -175q21 -94 41 -161q16 44 62 193q49 160 73 221q39 94 164 94q122 0 172 -117l135 -389l60 254q16 86 45 170q33 88 143 88q66 0 124 -40q59 -41 60 -99q0 -18 -8 -53
q-78 -262 -135 -420l-72 -205q-23 -70 -66 -104q-44 -35 -136 -35q-136 0 -176 108q-23 51 -46 120q-42 125 -55 167q-10 33 -24.5 77t-18.5 56l-131 -354q-30 -91 -73 -134q-42 -42 -130 -42q-66 0 -106 22q-42 23 -58 48q-15 23 -34 77q-186 610 -197 660z" />
    <glyph glyph-name="x" unicode="x" horiz-adv-x="1021" 
d="M96 242l154 159l63 72l-26 31q-13 15 -90 97q-66 70 -105 118q-33 41 -33 94q0 51 53 95t107 48q78 5 125 -57l166 -209q16 21 36 45q7 8 24.5 30.5t28.5 37.5q53 67 67 84q52 69 127 69q63 0 118 -46q56 -47 56 -109q0 -21 -6 -40t-24 -42t-31 -37q-9 -10 -44 -45
q-25 -25 -45 -47l-110 -121l192 -197q37 -37 53 -64q15 -26 15 -69q0 -53 -53 -101q-52 -48 -117 -48q-74 0 -140 82l-145 180l-152 -197q-49 -67 -124 -67q-65 0 -121 48t-56 105q0 63 37 101z" />
    <glyph glyph-name="y" unicode="y" horiz-adv-x="1075" 
d="M543 391q19 45 34 87q34 95 58 160q58 158 74 200q43 114 137 114q67 0 127 -39q59 -38 59 -92q0 -58 -35 -133q-50 -104 -132 -286q-88 -193 -163 -353q-87 -185 -149 -307q-111 -205 -324 -205q-200 0 -200 162q0 72 40 112q39 39 109 39q49 0 79 27t58 88q19 38 32 63
l26 50l-33 63l-264 549q-37 73 -37 131q0 57 57 98q55 39 119 39q54 0 83 -16t50 -61q51 -125 114 -287q60 -153 81 -203z" />
    <glyph glyph-name="z" unicode="z" horiz-adv-x="952" 
d="M432 662q-8 0 -22 -0.5t-39.5 -1.5t-45.5 -2q-74 -3 -124 -1q-133 1 -133 154q0 61 33 98q35 39 106 39q111 0 202 -1t187 -1h4q3 0 10.5 0.5t17 0.5t24 0.5t30.5 0.5q85 2 86 -2q78 -6 102 -61q13 -30 17 -80q-10 -94 -88 -182q-41 -49 -147 -155q-113 -113 -140 -142
l-35 -41l144 2q20 0 74 3t73 3q63 0 99 -39t36 -107q0 -150 -155 -151l-96 2q-96 2 -111 2q-7 0 -22.5 -0.5t-44 -1t-53.5 -0.5q-126 -2 -179 -2q-176 0 -176 151q0 86 90 191l315 324h-39z" />
    <glyph glyph-name="braceleft" unicode="{" horiz-adv-x="647" 
d="M0 561q0 71 66 133q14 15 49 37q33 22 52 42q17 18 17 46q0 71 -30 178q-32 112 -33 183q0 141 110 232t265 91q66 0 100 -37q35 -38 35 -98q0 -56 -29 -100q-28 -43 -74 -43q-41 0 -68 -32q-28 -33 -28 -73q0 -66 34 -167q35 -102 36 -169q0 -158 -176 -221
q92 -45 138 -94t46 -123q0 -69 -37 -190t-37 -195q0 -42 22 -69q21 -25 56 -25q43 0 75 -38t32 -93q0 -63 -37 -101t-101 -38q-173 0 -271 102q-97 101 -97 246q0 62 35 182q34 119 36 186q0 21 -18 39q-19 19 -52 42t-50 40q-66 40 -66 127z" />
    <glyph glyph-name="bar" unicode="|" horiz-adv-x="604" 
d="M139 1358q1 73 46 108q44 35 110 35q156 0 166 -133v-275v-448v-274l2 -623q2 -72 -44 -109q-47 -38 -118 -38q-70 0 -116 34t-46 99v653v971z" />
    <glyph glyph-name="braceright" unicode="}" horiz-adv-x="651" 
d="M651 561q0 -87 -65 -127q-17 -17 -50 -40q-36 -25 -53 -42q-18 -18 -18 -39q1 -64 37 -186q35 -120 35 -182q0 -143 -98 -246q-97 -102 -271 -102q-63 0 -100 38t-37 101q0 56 30 94q30 37 76 37q36 0 57 25q21 26 21 69q0 74 -37 195t-37 190q0 74 46 123q45 48 139 94
q-176 63 -176 221q2 70 35 169q34 101 34 167q0 40 -28 73q-27 32 -68 32q-46 0 -74 43q-29 44 -29 100q0 62 35 99q34 36 101 36q154 0 264 -91t110 -232q-1 -75 -32 -183q-31 -110 -31 -178q0 -28 17 -46q17 -19 53 -42q35 -22 49 -37q65 -61 65 -133z" />
    <glyph glyph-name="asciitilde" unicode="~" horiz-adv-x="1024" 
d="M307 424q-44 -74 -133 -74q-56 0 -94 42q-37 41 -35 110q5 92 88 171q84 79 186 81q77 0 141 -33q63 -32 107 -67q42 -33 66 -33q55 0 84 57q33 63 129 63q55 0 94 -42t39 -97q0 -98 -80 -178t-192 -80q-60 0 -119 34q-74 42 -109 67q-49 34 -80 34q-59 0 -92 -55z" />
    <glyph glyph-name="uni00A0" unicode="&#xa0;" horiz-adv-x="495" 
 />
    <glyph glyph-name="exclamdown" unicode="&#xa1;" horiz-adv-x="569" 
d="M129 121l23 248q12 116 127 116q129 0 141 -123q36 -398 37 -641q1 -102 -39 -148t-139 -46q-88 0 -134 43q-47 44 -43 119zM279 954q85 0 135 -49q51 -49 51 -131q0 -76 -50 -124q-49 -48 -128 -48q-77 0 -129 55q-54 57 -54 131q0 72 51 120q49 46 124 46z" />
    <glyph glyph-name="cent" unicode="&#xa2;" horiz-adv-x="1009" 
d="M852 1114q59 -37 59 -113q0 -59 -38 -109t-99 -50q-30 0 -96 22q-34 15 -84 15q-76 0 -126 -63q-50 -64 -50 -146t55 -134q56 -53 133 -53q50 0 111 35q52 25 88 25q54 0 92 -53q37 -52 37 -115q0 -72 -62 -111q-74 -52 -174 -69v-113q2 -66 -36 -92q-39 -27 -89 -27
q-49 0 -89 24t-40 81v133q-176 41 -268 169t-92 275q0 174 99 318q97 142 259 192v141q-2 65 36 95t83 30q53 0 93 -24t40 -82l-2 -144q88 -12 160 -57z" />
    <glyph glyph-name="sterling" unicode="&#xa3;" horiz-adv-x="1128" 
d="M215 543q-57 0 -91 39q-34 38 -34 102q0 60 35 100q35 39 98 39h31q-10 57 -10 115q-6 206 118 333q125 128 312 128q144 0 231 -58q70 -50 70 -133q0 -47 -31 -98q-30 -49 -70 -57q-34 -8 -82 4q-50 12 -75 12q-127 0 -127 -170q0 -15 8 -76q44 0 82 1t78 1
q129 0 129 -135q0 -79 -37 -112q-38 -34 -125 -35h-76q24 -120 -20 -224q96 -30 139 -30q50 0 74 30q41 52 121 52q58 0 104 -44q45 -43 45 -106q-1 -116 -73 -181q-71 -65 -187 -65q-79 0 -256 35q-184 36 -190 37q-68 0 -97 -29q-4 -4 -8 -7q-2 -1 -3.5 -2.5l-2.5 -2.5
l-1 -2l-1 -2l-2.5 -2.5t-3.5 -2.5q-6 -5 -9 -6q-1 0 -2.5 -1t-4 -2t-4.5 -2q-4 -2 -12 -5q-10 -3 -14 -4q-2 0 -6 -1t-7 -1.5t-5 -0.5q-3 -1 -10 -1.5t-10 -0.5q-8 -1 -25 -1q-68 0 -115 45t-47 115q0 83 49 152q47 66 121 77q12 5 57 0q39 -4 46 -4q40 76 18 187h-92z" />
    <glyph glyph-name="currency" unicode="&#xa4;" horiz-adv-x="1216" 
d="M635 1071q72 2 172 -49l78 98q55 66 129 66q59 0 107 -48t48 -112q0 -20 -1 -28q-2 -13 -5 -22q-5 -12 -6 -18q-1 -4 -11 -17q-6 -8 -12 -14l-18 -18l-20 -20l-86 -92q32 -92 32 -148q0 -75 -43 -176l88 -88q38 -38 51 -64t13 -73q0 -56 -51 -105q-50 -49 -115 -49
q-69 0 -131 78l-76 84q-105 -45 -178 -45q-85 0 -168 37l-82 -92q-51 -68 -119 -68q-67 0 -119 46q-53 47 -53 108q0 65 33 102l125 123q-39 83 -39 162q0 77 35 168l-107 102q-61 52 -61 131q0 74 45 115q45 40 109 45q75 4 127 -60l100 -112q91 52 209 53zM750 655
q0 59 -39 103q-38 43 -97 41q-147 -5 -147 -166q0 -67 39 -104q40 -39 100 -40q69 -2 106 43q38 46 38 123z" />
    <glyph glyph-name="yen" unicode="&#xa5;" horiz-adv-x="1241" 
d="M326 428q-99 0 -99 113q0 45 27 72q28 28 70 28h84l-351 496q-32 42 -32 94q0 59 51 112q52 54 114 54q104 0 150 -76l281 -463l282 461q50 80 135 80q61 0 117 -47q55 -46 55 -103q0 -58 -47 -125q-242 -338 -340 -485h68q106 0 106 -104q0 -49 -26 -78q-28 -31 -72 -31
h-113v-45h103q108 0 108 -107q0 -100 -94 -100h-115v-41q0 -66 -50 -104q-49 -37 -124 -37q-83 0 -127 43q-45 44 -45 115v28h-110q-111 0 -111 111q0 94 107 94h118v43q-43 0 -70 1t-50 1z" />
    <glyph glyph-name="brokenbar" unicode="&#xa6;" horiz-adv-x="610" 
d="M147 309q1 73 47 109q44 35 107 35q153 0 164 -138v-272q0 -9 0.5 -25.5t1 -47.5t0.5 -56q2 -132 2 -168q2 -72 -44 -112t-118 -40q-70 0 -116 37t-46 101l5 299zM141 788v316l-2 256q1 70 50 108q47 37 116 37q160 0 160 -145l-2 -244v-325q2 -73 -46 -110
q-49 -38 -120 -38q-69 0 -112 40q-44 41 -44 105z" />
    <glyph glyph-name="section" unicode="&#xa7;" horiz-adv-x="1034" 
d="M68 596q-5 129 122 250q-70 59 -75 188q-2 159 127 280q130 122 297 122q170 0 286 -58q77 -38 78 -116q2 -53 -33 -100q-34 -46 -88 -48q-39 -1 -120 23q-80 24 -127 24q-48 0 -86 -28q-39 -28 -37 -78q0 -26 16 -43q17 -18 58 -33q33 -12 54 -17q34 -8 60 -14
q174 -38 265 -111q94 -76 100 -243q4 -152 -111 -275q39 -78 39 -147q0 -187 -115 -302q-114 -114 -295 -114q-136 0 -264 49q-119 45 -119 142q0 60 38 109q38 48 91 48q42 0 93 -18q87 -29 155 -29q58 0 95 16q34 15 34 68q0 41 -41 61q-39 19 -133 42l-24 6
q-164 40 -251 122q-85 80 -89 224zM494 698q-71 19 -89 25q-45 -49 -45 -94q0 -85 115 -115l174 -45q27 68 17 111q-21 88 -172 118z" />
    <glyph glyph-name="dieresis" unicode="&#xa8;" horiz-adv-x="825" 
d="M225 1092q-63 0 -105 43t-42 104q0 69 45 112q46 44 113 44q60 0 104 -42q43 -42 43 -106q0 -68 -43 -111q-44 -44 -115 -44zM592 1096q-64 0 -106 43t-42 104q0 65 44 111q43 45 112 45q66 0 109 -42t43 -106q0 -67 -44 -111t-116 -44z" />
    <glyph glyph-name="copyright" unicode="&#xa9;" horiz-adv-x="1560" 
d="M784 1411q286 0 491 -200q204 -199 204 -500q0 -304 -202 -520q-201 -214 -499 -214q-126 0 -253 49q-123 47 -223 134t-160 218q-60 132 -60 288q0 221 106 396q105 174 266 263q157 88 330 86zM1260 707q-4 222 -134 361q-129 138 -354 138q-197 0 -330 -151t-133 -371
q0 -222 131 -356q130 -133 348 -133q215 0 345 151q131 153 127 361zM995 1008q45 -33 45 -76q0 -105 -90 -105q-25 0 -76 21q-31 14 -59 14q-63 0 -104 -51q-41 -52 -41 -123t46 -114q47 -44 107 -44q20 0 84 29q40 19 62 19q40 0 66 -31t26 -74q0 -54 -49 -84
q-88 -61 -201 -61q-166 0 -262 108t-96 240q0 158 100 271q101 114 256 114q103 0 186 -53z" />
    <glyph glyph-name="ordfeminine" unicode="&#xaa;" horiz-adv-x="831" 
d="M772 922q0 -60 4 -148q0 -100 -125 -100q-52 0 -80 37q-13 23 -20 41q-52 -82 -172 -82q-150 0 -239 92t-89 235q0 167 97 264t249 97q104 0 160 -72q6 16 14 29q27 41 88 41q115 0 115 -107q-2 -84 -2 -327zM297 1010q0 -59 32 -97q30 -36 83 -36t90 37t37 102
q0 60 -35 97q-34 36 -84 36q-54 0 -89 -36q-34 -35 -34 -103z" />
    <glyph glyph-name="guillemotleft" unicode="&#xab;" horiz-adv-x="1173" 
d="M561 702l-190 -225l186 -215q35 -40 35 -88q0 -31 -34 -65q-36 -36 -69 -37q-50 -2 -81 24l-283 252q-59 59 -59 129q0 68 51 119q145 145 278 258q34 25 78 25q40 0 80 -35q39 -34 39 -74q0 -34 -31 -68zM1077 702l-190 -225l186 -215q35 -40 35 -88q0 -31 -34 -65
q-36 -36 -68 -37q-51 -2 -82 24l-283 252q-59 59 -59 129q0 68 51 119q145 145 278 258q34 25 78 25q40 0 80 -35q39 -34 39 -74q0 -34 -31 -68z" />
    <glyph glyph-name="logicalnot" unicode="&#xac;" horiz-adv-x="1024" 
d="M184 399q-61 0 -96 41t-35 109q0 143 162 143h619q61 0 94 -42t33 -105q0 -22 1 -49q1 -15 1.5 -55.5t0.5 -60.5q1 -50 1 -167q0 -67 -44 -100q-43 -33 -110 -31q-64 1 -104 37q-39 34 -39 92v195q-32 0 -274 -4q-182 -3 -210 -3z" />
    <glyph glyph-name="uni00AD" unicode="&#xad;" horiz-adv-x="757" 
d="M205 340q-71 0 -109 44q-37 43 -37 110q0 70 38 113q37 42 108 42h356q137 0 137 -157q0 -72 -45 -113q-46 -41 -121 -41q-92 0 -163 1t-164 1z" />
    <glyph glyph-name="registered" unicode="&#xae;" horiz-adv-x="1566" 
d="M784 1415q284 -5 492 -202q209 -198 209 -500q0 -310 -204 -523t-503 -213q-271 0 -484 193q-212 192 -212 500q0 169 61 312q62 145 161 238q98 92 225 145q124 52 255 50zM1264 707q-4 224 -136 363q-130 138 -360 138q-207 0 -334 -145t-127 -375q0 -225 132 -360
t349 -135q214 0 347 152q134 153 129 362zM520 981q0 45 32 71q31 25 77 27h6q7 0 13 1t26 1h48h75q112 0 190 -66t78 -184q0 -126 -107 -200l109 -137q23 -28 23 -64q0 -37 -29 -61q-30 -26 -72 -27q-47 0 -86 53l-123 189h-67q0 -79 4 -152q0 -88 -86 -90q-58 -2 -84 19
q-27 21 -27 73l-2 96q0 90 1 173t1 176v102zM791 907h-76q0 -44 1 -78t1 -77h53q97 0 98 73q2 40 -19 61t-58 21z" />
    <glyph glyph-name="macron" unicode="&#xaf;" horiz-adv-x="802" 
d="M219 1130q-69 0 -103 36q-34 35 -34 89q0 59 34 94t99 35q37 0 72 -1t78 -1q12 0 108 2t121 2q127 0 127 -129q0 -59 -41 -92q-39 -32 -117 -32h-170q-50 0 -89 -1q-78 -2 -85 -2z" />
    <glyph glyph-name="degree" unicode="&#xb0;" horiz-adv-x="595" 
d="M305 1401q112 0 181 -74q69 -73 69 -174q0 -109 -72 -179q-73 -71 -186 -71q-102 0 -180 67q-76 66 -76 169q0 116 73 189t191 73zM393 1155q0 42 -27 69t-67 27q-41 0 -68 -28q-26 -27 -26 -76q0 -42 28 -67t68 -25q39 0 66 27q26 26 26 73z" />
    <glyph glyph-name="plusminus" unicode="&#xb1;" horiz-adv-x="1024" 
d="M186 629q-67 0 -100 42q-32 41 -31 113q1 59 37 95q34 34 92 34h193v185q0 64 41 99q40 34 102 34q64 0 101 -34q36 -33 36 -95l2 -193l191 4q125 0 125 -141q0 -57 -31 -99q-30 -41 -90 -42h-47h-78h-74v-71v-68v-43q0 -125 -151 -121q-59 1 -95 37q-34 34 -34 86l2 182
q-24 0 -112 -2q-18 0 -37 -0.5t-29 -1t-13 -0.5zM172 6q-65 0 -95 43q-30 44 -30 103q0 61 41 100q40 39 111 39q34 0 91 -1t142 -1h385q129 0 129 -146q0 -133 -125 -139q-122 -2 -193 -2q-48 0 -262 2q-44 0 -90 0.5t-70.5 1t-33.5 0.5z" />
    <glyph glyph-name="twosuperior" unicode="&#xb2;" horiz-adv-x="669" 
d="M313 1331q-38 0 -73 -41q-30 -35 -95 -35q-40 0 -70 33t-30 76q0 65 86 131q89 57 174 57q132 4 221 -65q88 -69 88 -191q0 -49 -13 -85q-14 -40 -56 -83q-35 -37 -62 -61q-9 -8 -92 -76l-20 -14q68 0 93 1q9 0 21 0.5t18.5 1t10.5 0.5q8 1 18 1q99 0 99 -111
q0 -112 -109 -112h-38h-52h-29h-253q-45 0 -78 33t-33 86q0 79 70 143l157 145q10 10 25 21q83 77 84 96q0 19 -19 35q-17 14 -43 14z" />
    <glyph glyph-name="threesuperior" unicode="&#xb3;" horiz-adv-x="667" 
d="M383 1022q0 55 -102 55h-43q-39 0 -62 28q-22 26 -22 71q0 37 47 84q51 53 86 75q-33 0 -64 -1t-63 -1q-111 0 -111 105q0 44 25 77q24 31 76 31h133h229q43 0 66 -29q24 -30 24 -69q0 -56 -33 -84q-8 -10 -25 -28q-27 -27 -46 -45q-38 -36 -54 -52q70 -15 119 -69
q50 -54 51 -142q2 -135 -87 -206q-88 -70 -220 -70q-109 0 -186 39q-70 38 -70 106q0 46 32 81q31 34 67 34q28 0 90 -25q32 -16 61 -16q82 0 82 51z" />
    <glyph glyph-name="acute" unicode="&#xb4;" horiz-adv-x="575" 
d="M258 1081q-38 -28 -84 -28q-33 0 -76 37t-43 75q0 35 25 74l166 197q51 61 110 61q54 0 104 -47t50 -102q0 -45 -43 -88q-76 -76 -209 -179z" />
    <glyph glyph-name="mu" unicode="&#xb5;" horiz-adv-x="1179" 
d="M299 950q68 0 107 -39q38 -38 38 -102q0 -76 1 -146t1 -184q0 -54 7 -100q6 -40 35 -73q30 -34 83 -34q91 0 122 79q32 81 32 239q0 56 -1 102t-1 105q0 78 46 115q47 38 120 38q79 0 126 -38t48 -109v-52v-139v-163q0 -132 47 -179t47 -123q0 -62 -40 -109
q-41 -48 -107 -48q-96 0 -140 35q-31 22 -49 49q-16 23 -33 76q-40 -84 -100 -124q-59 -40 -164 -40q-53 0 -80 20q0 -98 -14 -192q-24 -260 -217 -260q-84 0 -132 38q-50 39 -50 121q0 78 43 185q44 108 45 202q2 174 -2 439q0 74 -1 131t-1 125q0 155 184 155z" />
    <glyph glyph-name="paragraph" unicode="&#xb6;" horiz-adv-x="1388" 
d="M948 154l4 946l-135 -2q0 -41 -1 -119t-1 -289v-553q0 -145 -162 -145q-155 0 -155 147v447h-29q-406 0 -412 375q-2 207 122 319q125 113 349 113h326h233q84 -2 130 -45q47 -44 47 -115q0 -93 1 -189t1 -256v-649q0 -71 -43 -107t-115 -36q-160 0 -160 158z" />
    <glyph glyph-name="periodcentered" unicode="&#xb7;" horiz-adv-x="505" 
d="M244 309q-77 0 -130 50t-53 128q0 83 56 137q55 54 139 54q81 0 133 -49q53 -50 53 -131q0 -84 -54 -137q-53 -52 -144 -52z" />
    <glyph glyph-name="cedilla" unicode="&#xb8;" horiz-adv-x="587" 
d="M166 -96l45 102l166 2l-25 -82q59 0 106 -46q48 -46 48 -132q0 -109 -68 -169t-176 -60q-64 0 -119 24q-61 27 -61 95q0 40 27 64t59 24q16 0 47 -14q29 -13 47 -13q55 0 55 41t-47 41l-43 2q-36 1 -56 42t-5 79z" />
    <glyph glyph-name="onesuperior" unicode="&#xb9;" horiz-adv-x="532" 
d="M176 1233q-25 -14 -59 -14q-40 0 -68 34q-29 35 -29 74q0 57 66 100q35 22 90 60q32 22 41 29q54 32 100 32t81 -29q36 -30 36 -65v-190q0 -118 -1 -210t-1 -210q0 -41 -34 -65q-33 -23 -81 -23q-112 0 -112 104q0 8 0.5 30.5t1 66t0.5 85.5q2 204 2 213q0 -1 -33 -22z
" />
    <glyph glyph-name="ordmasculine" unicode="&#xba;" horiz-adv-x="825" 
d="M772 1010q0 -148 -100 -244t-269 -96q-151 0 -251 93q-101 93 -101 234q0 163 103 263q101 98 254 98q162 -4 263 -94q101 -89 101 -254zM297 1010q0 -59 32 -97q30 -36 83 -36q51 0 85 37q33 36 33 102q0 59 -31 96t-79 37q-54 0 -89 -36q-34 -35 -34 -103z" />
    <glyph glyph-name="guillemotright" unicode="&#xbb;" horiz-adv-x="1173" 
d="M285 477l-191 225q-31 34 -31 68q0 40 39 74q40 35 80 35q44 0 78 -25q140 -118 279 -258q51 -51 51 -119q0 -69 -60 -129l-282 -252q-31 -26 -82 -24q-33 1 -69 37q-34 34 -34 65q0 48 35 88zM803 477l-191 225q-30 33 -30 68q0 40 39 74q40 35 79 35q44 0 78 -25
q140 -118 279 -258q51 -51 51 -119q0 -70 -59 -129l-283 -252q-31 -26 -82 -24q-33 1 -69 37q-33 33 -33 65q0 50 34 88z" />
    <glyph glyph-name="onequarter" unicode="&#xbc;" horiz-adv-x="1617" 
d="M1237 383q0 50 27 77t69 27q107 0 113 -71v-80h29q88 0 88 -96q0 -117 -86 -117h-29v-49q-1 -82 -111 -84q-100 -4 -100 82v53h-238q-41 0 -72 42q-32 43 -32 85q0 74 49 147l184 332q44 64 103 64q46 0 90 -32q43 -31 43 -69q0 -27 -16 -55l-185 -309l74 2v51zM995 1317
q45 78 101 78q43 0 74 -29q30 -28 30 -66q0 -32 -24 -75q-82 -134 -142 -231q-122 -195 -174 -285l-391 -658q-33 -57 -90 -57q-36 0 -70 29q-33 29 -33 71q0 31 31 84zM203 1081q-25 -14 -60 -14q-38 0 -67 35t-29 74q0 56 66 100q49 30 90 59q32 22 41 29q55 33 100 33
t81 -30t36 -64v-191q0 -118 -1 -210t-1 -210q0 -40 -34 -64q-35 -24 -81 -24q-113 0 -113 105q0 8 0.5 30.5t1 66t0.5 85.5q1 52 2 123t1 90q0 -2 -33 -23z" />
    <glyph glyph-name="onehalf" unicode="&#xbd;" horiz-adv-x="1617" 
d="M987 1317q45 78 100 78q44 0 75 -29q30 -28 30 -66q0 -30 -25 -75q-124 -204 -141 -231q-122 -195 -174 -285l-391 -658q-33 -57 -90 -57q-36 0 -70 29q-33 29 -33 71q0 31 31 84zM199 1081q-25 -14 -60 -14q-38 0 -67 35t-29 74q0 56 66 100q49 30 90 59q32 22 41 29
q56 33 100 33q45 0 81 -30t36 -64v-191q0 -118 -1 -210t-1 -210q0 -40 -34 -64q-35 -24 -81 -24q-113 0 -113 105q0 8 0.5 30.5t1 66t0.5 85.5q2 204 2 213q0 -3 -32 -23zM1231 573q-39 0 -74 -41q-30 -34 -94 -34q-42 0 -71 32t-29 76q0 65 86 131q90 58 174 58
q131 4 221 -66q88 -69 88 -190q0 -49 -13 -85q-14 -38 -57 -83q-52 -53 -61 -62q-9 -8 -92 -76l-21 -14q68 0 93 1q9 0 21.5 0.5t19 1t10.5 0.5q8 1 18 1q98 0 98 -110q0 -113 -108 -113h-119h-254q-45 0 -78 33t-33 86q0 79 70 143l158 146q9 9 24 20q83 77 84 96
q0 20 -18 35q-17 14 -43 14z" />
    <glyph glyph-name="threequarters" unicode="&#xbe;" horiz-adv-x="1679" 
d="M1294 383q0 50 27 77t70 27q106 0 112 -71v-80h29q88 0 88 -96q0 -117 -86 -117h-29v-49q-1 -82 -110 -84q-101 -5 -101 82v53h-237q-41 0 -73 42q-32 43 -32 85q0 74 49 147l185 332q44 64 102 64q46 0 90 -32q43 -31 43 -69q0 -27 -16 -55l-184 -309l73 2v51z
M1081 1317q45 78 101 78q43 0 74 -29q30 -28 30 -66q0 -32 -24 -75q-82 -134 -142 -231q-122 -195 -174 -285l-391 -658q-33 -57 -90 -57q-36 0 -70 29q-33 29 -33 71q0 31 31 84zM410 870q0 56 -103 56h-43q-38 0 -61 27q-23 28 -23 71q0 37 47 84q53 53 86 76
q-30 0 -63 -1t-64 -1q-110 0 -110 104q0 46 24 77q24 32 76 32h133h230q41 0 65 -30q25 -31 25 -69q0 -56 -33 -84q-2 -4 -26 -27q-27 -27 -46 -45l-53 -53q71 -15 119 -68q50 -54 51 -142q2 -135 -87 -206t-220 -71q-110 0 -187 39q-69 37 -69 106q0 46 32 81q31 34 66 34
q30 0 90 -24q34 -17 62 -17q82 0 82 51z" />
    <glyph glyph-name="questiondown" unicode="&#xbf;" horiz-adv-x="1009" 
d="M942 -223q0 -87 -88 -144q-157 -106 -340 -106q-202 0 -335 121q-134 122 -134 299q0 206 254 334q88 45 88 102v29q0 56 41 94q40 37 113 37q77 0 127 -51q49 -50 49 -142q0 -138 -146 -221q-2 -1 -11.5 -6.5t-17.5 -9.5q-6 -3 -12.5 -7t-11 -7t-7.5 -4q-7 -4 -29 -17
q-15 -9 -28 -20q-3 -2 -11 -8t-13 -10q-10 -8 -21 -21q-14 -17 -16 -20q-8 -13 -11 -24q-3 -12 -3 -24q0 -55 40 -88q41 -33 99 -33q68 0 146 51q73 49 135 49q51 0 97 -51q46 -50 46 -102zM729 795q0 -74 -53 -121t-137 -47q-79 0 -131 47t-52 119q0 79 55 123
q56 45 134 45q83 0 133 -43q51 -44 51 -123z" />
    <glyph glyph-name="Agrave" unicode="&#xc0;" horiz-adv-x="1370" 
d="M29 154q0 56 39 145q97 208 178 410l237 577q21 53 75 83t112 30q162 0 207 -121q78 -176 256 -627q8 -14 36 -76q101 -255 142 -342q24 -53 24 -102q0 -53 -54 -97q-55 -44 -136 -44q-117 0 -154 94q-69 165 -80 207q-58 2 -284 2h-183l-73 -201q-40 -100 -142 -100
q-81 0 -140 40q-60 40 -60 122zM678 991q-16 -53 -74 -230q-18 -56 -40 -122.5t-27 -81.5q159 0 280 4q-14 48 -62 192q-64 194 -77 238zM674 1483q-156 144 -197 188q-37 38 -37 90q0 44 50 88q49 43 100 43q68 0 112 -57q3 -4 22 -28.5t32 -42.5q28 -37 58 -79
q17 -23 38 -57q22 -28 22 -67q0 -41 -36 -74q-38 -35 -74 -35q-51 0 -90 31z" />
    <glyph glyph-name="Aacute" unicode="&#xc1;" horiz-adv-x="1370" 
d="M29 154q0 56 39 145q97 208 178 410l237 577q21 53 75 83t112 30q162 0 207 -121q78 -176 256 -627q8 -14 36 -76q101 -255 142 -342q24 -53 24 -102q0 -53 -54 -97q-55 -44 -136 -44q-117 0 -154 94q-69 165 -80 207q-58 2 -284 2h-183l-73 -201q-40 -100 -142 -100
q-81 0 -140 40q-60 40 -60 122zM678 991q-16 -53 -74 -230q-18 -56 -40 -122.5t-27 -81.5q159 0 280 4q-14 48 -62 192q-64 194 -77 238zM690 1470q-38 -28 -84 -28q-33 0 -76 37t-43 75q0 35 25 74l166 197q51 61 110 61q54 0 104 -47t50 -102q0 -45 -43 -88
q-76 -76 -209 -179z" />
    <glyph glyph-name="Acircumflex" unicode="&#xc2;" horiz-adv-x="1370" 
d="M29 154q0 56 39 145q97 208 178 410l237 577q21 53 75 83t112 30q162 0 207 -121q78 -176 256 -627q8 -14 36 -76q101 -255 142 -342q24 -53 24 -102q0 -53 -54 -97q-55 -44 -136 -44q-117 0 -154 94q-69 165 -80 207q-58 2 -284 2h-183l-73 -201q-40 -100 -142 -100
q-81 0 -140 40q-60 40 -60 122zM678 991q-16 -53 -74 -230q-18 -56 -40 -122.5t-27 -81.5q159 0 280 4q-14 48 -62 192q-64 194 -77 238zM887 1454q-39 -5 -80 33q-76 70 -125 127q-80 -91 -115 -123q-39 -39 -88 -39q-34 0 -71 34t-37 68q0 42 26 74q26 33 172 191
q41 47 115 47q62 0 107 -45q88 -88 176 -193q26 -32 26 -72q0 -28 -34 -65t-72 -37z" />
    <glyph glyph-name="Atilde" unicode="&#xc3;" horiz-adv-x="1370" 
d="M29 154q0 56 39 145q97 208 178 410l237 577q21 53 75 83t112 30q162 0 207 -121q78 -176 256 -627q8 -14 36 -76q101 -255 142 -342q24 -53 24 -102q0 -53 -54 -97q-55 -44 -136 -44q-117 0 -154 94q-69 165 -80 207q-58 2 -284 2h-183l-73 -201q-40 -100 -142 -100
q-81 0 -140 40q-60 40 -60 122zM678 991q-16 -53 -74 -230q-18 -56 -40 -122.5t-27 -81.5q159 0 280 4q-14 48 -62 192q-64 194 -77 238zM528 1542q-4 -27 -29 -47q-24 -20 -71 -20q-44 0 -79 30q-34 30 -36 92q6 95 65 153q57 56 154 56q60 0 104 -27q41 -26 75 -56
q31 -27 55 -29q36 0 41 39q10 73 106 73q42 0 74 -29q33 -30 33 -75q0 -115 -58 -174q-58 -60 -155 -60q-70 0 -139 55q-68 54 -97 56q-17 0 -28 -11q-14 -14 -15 -26z" />
    <glyph glyph-name="Adieresis" unicode="&#xc4;" horiz-adv-x="1370" 
d="M29 154q0 56 39 145q97 208 178 410l237 577q21 53 75 83t112 30q162 0 207 -121q78 -176 256 -627q8 -14 36 -76q101 -255 142 -342q24 -53 24 -102q0 -53 -54 -97q-55 -44 -136 -44q-117 0 -154 94q-69 165 -80 207q-58 2 -284 2h-183l-73 -201q-40 -100 -142 -100
q-81 0 -140 40q-60 40 -60 122zM678 991q-16 -53 -74 -230q-18 -56 -40 -122.5t-27 -81.5q159 0 280 4q-14 48 -62 192q-64 194 -77 238zM492 1481q-64 0 -106 43q-42 44 -42 104q0 68 45 112q46 44 113 44q60 0 104 -42q43 -42 43 -106q0 -68 -43 -111q-44 -44 -114 -44z
M858 1485q-63 0 -105 43t-42 104q0 65 44 111q43 45 111 45q66 0 109 -42t43 -106q0 -67 -44 -111t-116 -44z" />
    <glyph glyph-name="Aring" unicode="&#xc5;" horiz-adv-x="1370" 
d="M678 1743q105 0 178 -65q72 -65 72 -167q0 -106 -82 -182q24 -31 31 -51q78 -176 256 -627q8 -14 36 -76q101 -255 142 -342q24 -53 24 -102q0 -53 -54 -97q-55 -44 -136 -44q-117 0 -154 94q-69 165 -80 207q-58 2 -284 2h-183l-73 -201q-40 -100 -142 -100
q-81 0 -140 40q-60 40 -60 122q0 56 39 145q97 208 178 410l237 577q7 19 23 37q-84 66 -84 174t79 177t177 69zM678 991q-16 -53 -74 -230q-18 -56 -40 -122.5t-27 -81.5q159 0 280 4q-14 48 -62 192q-64 194 -77 238zM766 1509q0 38 -27 62t-67 24q-38 0 -63 -24t-25 -66
q0 -37 26 -63q27 -27 64 -27q38 0 65 29q27 28 27 65z" />
    <glyph glyph-name="AE" unicode="&#xc6;" horiz-adv-x="1888" 
d="M29 178q2 54 69 144q125 168 357 526q226 349 307 467q60 84 201 76l702 4q60 0 100 -38t41 -93q5 -123 -86 -152q-29 -10 -485 -10v-86l-4 -185v-2h47h305q72 0 107 -42q34 -41 34 -101q0 -141 -145 -141h-354q-2 -40 -2 -94q0 -43 1 -78t1 -78q94 -1 265 3q190 5 200 5
q62 0 100 -39q37 -38 37 -110q0 -74 -44 -116q-43 -41 -122 -46q-99 -2 -132 -1q-16 0 -40.5 0.5t-63 1t-68.5 0.5q-79 1 -192 1q-143 0 -206 30q-62 29 -72 117l-2 150h-373q-3 -5 -52 -85q-47 -77 -85 -134q-57 -89 -176 -84q-71 1 -123 55q-51 53 -47 135zM891 961
l-240 -398l240 4q0 25 1 46t1 49v137q0 45 -1 80t-1 82z" />
    <glyph glyph-name="Ccedilla" unicode="&#xc7;" horiz-adv-x="1251" 
d="M610 -96l37 86q-246 28 -417 213q-170 183 -164 475q5 220 108 388q105 172 261 257q158 86 327 82q187 -5 299 -53q61 -27 93 -62q31 -34 30 -94q-1 -71 -37 -116q-35 -44 -105 -44q-42 0 -112 29q-87 35 -187 35q-135 0 -234 -116q-100 -116 -101 -302
q-1 -172 106 -275q109 -105 238 -106q88 -2 198 41q78 41 119 39q66 0 101 -56q36 -56 34 -126q-2 -74 -117 -136q-111 -60 -272 -75l-18 -62q58 0 105 -46q48 -46 48 -132q0 -109 -67 -169q-68 -60 -176 -60q-63 0 -119 24q-62 27 -62 95q0 40 27 64t59 24q16 0 47 -14
q29 -13 48 -13q55 0 55 41t-47 41l-43 2q-38 1 -57 42q-20 41 -5 79z" />
    <glyph glyph-name="Egrave" unicode="&#xc8;" 
d="M141 1247q5 69 50 107q47 39 116 39q58 0 74 -2q203 0 282 1q31 0 69.5 0.5t64 1t42.5 0.5q39 1 76 1q62 0 98 -38q37 -38 38 -93q5 -125 -80 -152q-22 -8 -436 -8h-54v-88l-4 -182v-3h47q15 0 65 1.5t85 1.5q29 0 59 0.5t46 1t22 0.5q90 0 132 -27t40 -119
q-5 -141 -142 -141h-360q-2 -40 -2 -98q0 -43 1 -78t1 -78q143 -2 320 2q113 4 151 4q129 0 129 -149q0 -148 -137 -156h-576q-118 0 -168 30t-57 111q-4 33 -4 62q0 2 0.5 13.5t1 36.5t0.5 52q0 28 1 65t2 89t2 88q3 147 3 256q0 125 1 224t1 224zM614 1483
q-148 137 -196 188q-37 38 -37 90q0 44 50 88q49 43 99 43q70 0 113 -57q30 -40 53 -71q11 -15 31 -41t28 -37q12 -17 38 -58q22 -28 22 -67q0 -40 -37 -74q-38 -35 -73 -35q-52 0 -91 31z" />
    <glyph glyph-name="Eacute" unicode="&#xc9;" 
d="M141 1247q5 69 50 107q47 39 116 39q58 0 74 -2q203 0 282 1q31 0 69.5 0.5t64 1t42.5 0.5q39 1 76 1q62 0 98 -38q37 -38 38 -93q5 -125 -80 -152q-22 -8 -436 -8h-54v-88l-4 -182v-3h47q15 0 65 1.5t85 1.5q29 0 59 0.5t46 1t22 0.5q90 0 132 -27t40 -119
q-5 -141 -142 -141h-360q-2 -40 -2 -98q0 -43 1 -78t1 -78q143 -2 320 2q113 4 151 4q129 0 129 -149q0 -148 -137 -156h-576q-118 0 -168 30t-57 111q-4 33 -4 62q0 2 0.5 13.5t1 36.5t0.5 52q0 28 1 65t2 89t2 88q3 147 3 256q0 125 1 224t1 224zM631 1470
q-38 -28 -84 -28q-33 0 -76 37t-43 75q0 35 25 74l165 197q51 61 111 61q54 0 104 -47t50 -102q0 -45 -43 -88q-76 -76 -209 -179z" />
    <glyph glyph-name="Ecircumflex" unicode="&#xca;" 
d="M141 1247q5 69 50 107q47 39 116 39q58 0 74 -2q203 0 282 1q31 0 69.5 0.5t64 1t42.5 0.5q39 1 76 1q62 0 98 -38q37 -38 38 -93q5 -125 -80 -152q-22 -8 -436 -8h-54v-88l-4 -182v-3h47q15 0 65 1.5t85 1.5q29 0 59 0.5t46 1t22 0.5q90 0 132 -27t40 -119
q-5 -141 -142 -141h-360q-2 -40 -2 -98q0 -43 1 -78t1 -78q143 -2 320 2q113 4 151 4q129 0 129 -149q0 -148 -137 -156h-576q-118 0 -168 30t-57 111q-4 33 -4 62q0 2 0.5 13.5t1 36.5t0.5 52q0 28 1 65t2 89t2 88q3 147 3 256q0 125 1 224t1 224zM827 1454q-39 -4 -79 33
q-76 70 -125 127q-80 -91 -115 -123q-39 -39 -88 -39q-35 0 -72 34t-37 68q0 41 27 74q26 33 172 191q41 47 115 47q61 0 106 -45q88 -88 176 -193q27 -33 27 -72q0 -28 -34 -65t-73 -37z" />
    <glyph glyph-name="Edieresis" unicode="&#xcb;" 
d="M141 1247q5 69 50 107q47 39 116 39q58 0 74 -2q203 0 282 1q31 0 69.5 0.5t64 1t42.5 0.5q39 1 76 1q62 0 98 -38q37 -38 38 -93q5 -125 -80 -152q-22 -8 -436 -8h-54v-88l-4 -182v-3h47q15 0 65 1.5t85 1.5q29 0 59 0.5t46 1t22 0.5q90 0 132 -27t40 -119
q-5 -141 -142 -141h-360q-2 -40 -2 -98q0 -43 1 -78t1 -78q143 -2 320 2q113 4 151 4q129 0 129 -149q0 -148 -137 -156h-576q-118 0 -168 30t-57 111q-4 33 -4 62q0 2 0.5 13.5t1 36.5t0.5 52q0 28 1 65t2 89t2 88q3 147 3 256q0 125 1 224t1 224zM432 1481q-63 0 -105 43
q-42 44 -42 104q0 68 44 112t113 44q62 0 105 -42t43 -106q0 -68 -43 -111q-44 -44 -115 -44zM799 1485q-64 0 -106 43t-42 104q0 65 44 111q43 45 112 45q65 0 108 -42t43 -106q0 -67 -44 -111t-115 -44z" />
    <glyph glyph-name="Igrave" unicode="&#xcc;" horiz-adv-x="636" 
d="M150 874q0 115 -3 373q-1 81 50 119q50 37 127 37q72 0 118 -36q47 -36 47 -101q0 -62 3 -473q0 -12 -2 -114q-1 -51 -1 -120v-82l3 -342q1 -71 -50 -107t-125 -36q-77 0 -127 41q-49 40 -47 117q0 41 1 86t1 100zM317 1483q-148 137 -196 188q-37 38 -37 90q0 44 50 88
q49 43 99 43q69 0 113 -57q30 -40 53 -71q11 -15 31 -41t28 -37q12 -17 38 -58q22 -28 22 -67q0 -40 -37 -74q-38 -35 -73 -35q-52 0 -91 31z" />
    <glyph glyph-name="Iacute" unicode="&#xcd;" horiz-adv-x="636" 
d="M150 874q0 115 -3 373q-1 81 50 119q50 37 127 37q72 0 118 -36q47 -36 47 -101q0 -62 3 -473q0 -12 -2 -114q-1 -51 -1 -120v-82l3 -342q1 -71 -50 -107t-125 -36q-77 0 -127 41q-49 40 -47 117q0 41 1 86t1 100zM334 1470q-38 -28 -84 -28q-33 0 -76 37t-43 75
q0 35 25 74l166 197q51 61 110 61q54 0 104 -47t50 -102q0 -45 -43 -88q-76 -76 -209 -179z" />
    <glyph glyph-name="Icircumflex" unicode="&#xce;" horiz-adv-x="636" 
d="M150 874q0 115 -3 373q-1 81 50 119q50 37 127 37q72 0 118 -36q47 -36 47 -101q0 -62 3 -473q0 -12 -2 -114q-1 -51 -1 -120v-82l3 -342q1 -71 -50 -107t-125 -36q-77 0 -127 41q-49 40 -47 117q0 41 1 86t1 100zM530 1454q-39 -4 -79 33q-76 70 -125 127
q-80 -91 -115 -123q-39 -39 -88 -39q-35 0 -72 34t-37 68q0 41 27 74q26 33 172 191q41 47 115 47q61 0 106 -45q88 -88 176 -193q27 -33 27 -72q0 -28 -34 -65t-73 -37z" />
    <glyph glyph-name="Idieresis" unicode="&#xcf;" horiz-adv-x="636" 
d="M150 874q0 115 -3 373q-1 81 50 119q50 37 127 37q72 0 118 -36q47 -36 47 -101q0 -62 3 -473q0 -12 -2 -114q-1 -51 -1 -120v-82l3 -342q1 -71 -50 -107t-125 -36q-77 0 -127 41q-49 40 -47 117q0 41 1 86t1 100zM135 1481q-63 0 -105 43q-42 44 -42 104q0 68 45 112
q46 44 112 44q61 0 105 -42q43 -42 43 -106q0 -68 -43 -111q-44 -44 -115 -44zM502 1485q-64 0 -106 43q-42 44 -42 104q0 65 44 111q43 45 112 45q64 0 108 -42t44 -106q0 -66 -45 -111q-44 -44 -115 -44z" />
    <glyph glyph-name="Eth" unicode="&#xd0;" horiz-adv-x="1425" 
d="M139 1217q0 55 25 96q23 38 72 55t90 23q43 6 102 6q46 0 93 1t83 1q321 0 539 -172q219 -173 219 -482q0 -737 -784 -743q-265 0 -310 6q-47 6 -87 49t-40 99v376h-20q-135 0 -135 146q0 147 135 147h18v392zM608 1096q-59 0 -121 -2v-269h99q135 0 135 -149
q0 -146 -156 -146h-78v-172q0 -12 1 -17l4 -12q0 -1 2 -5t2 -5q1 -4 7 -6t7 -3l10 -2q5 -1 11 -1h15h15q459 0 459 414q0 185 -119 280t-293 95z" />
    <glyph glyph-name="Ntilde" unicode="&#xd1;" horiz-adv-x="1482" 
d="M473 152q0 -84 -45 -123t-117 -39q-172 0 -178 143q0 33 2 457v424v241q1 66 67 104q65 38 140 38q102 0 182 -113l430 -600l56 -88q0 73 -1 141t-1 142l-4 342q-2 100 40 137q44 39 140 39q72 0 118 -39t46 -113q0 -196 -1 -351t-1 -349q0 -64 1 -145t1 -263
q0 -66 -62 -107q-61 -40 -141 -40q-59 0 -98 27t-78 87l-502 723q-2 -176 2 -368q4 -200 4 -307zM590 1542q-4 -26 -30 -47q-24 -20 -71 -20q-43 0 -78 30q-34 30 -36 92q6 97 64 153q57 56 155 56q60 0 103 -27q41 -26 75 -56q31 -27 55 -29q37 0 41 39q10 73 107 73
q42 0 74 -29t32 -75q0 -115 -58 -174q-59 -60 -155 -60q-70 0 -139 55q-68 55 -96 56q-18 0 -29 -11q-13 -13 -14 -26z" />
    <glyph glyph-name="Ograve" unicode="&#xd2;" horiz-adv-x="1523" 
d="M760 1409q284 0 492 -198t208 -500q0 -305 -204 -518t-500 -213q-275 0 -482 189q-206 188 -206 497q0 329 212 538t480 205zM1112 707q0 178 -106 283q-108 106 -258 106q-148 0 -240 -115t-92 -293q0 -177 98 -281q100 -106 250 -106q145 0 247 121q101 120 101 285z
M750 1483q-156 144 -197 188q-37 38 -37 90q0 44 50 88q49 43 100 43q68 0 112 -57q30 -40 53 -71q11 -15 31 -41t28 -37q12 -17 38 -58q22 -28 22 -67q0 -40 -37 -74q-38 -35 -73 -35q-51 0 -90 31z" />
    <glyph glyph-name="Oacute" unicode="&#xd3;" horiz-adv-x="1523" 
d="M760 1409q284 0 492 -198t208 -500q0 -305 -204 -518t-500 -213q-275 0 -482 189q-206 188 -206 497q0 329 212 538t480 205zM1112 707q0 178 -106 283q-108 106 -258 106q-148 0 -240 -115t-92 -293q0 -177 98 -281q100 -106 250 -106q145 0 247 121q101 120 101 285z
M766 1470q-38 -28 -84 -28q-33 0 -76 37t-43 75q0 35 25 74l166 197q51 61 110 61q54 0 104 -47t50 -102q0 -45 -43 -88q-76 -76 -209 -179z" />
    <glyph glyph-name="Ocircumflex" unicode="&#xd4;" horiz-adv-x="1523" 
d="M760 1409q284 0 492 -198t208 -500q0 -305 -204 -518t-500 -213q-275 0 -482 189q-206 188 -206 497q0 329 212 538t480 205zM1112 707q0 178 -106 283q-108 106 -258 106q-148 0 -240 -115t-92 -293q0 -177 98 -281q100 -106 250 -106q145 0 247 121q101 120 101 285z
M963 1454q-39 -5 -80 33q-76 70 -125 127q-80 -91 -115 -123q-39 -39 -88 -39q-35 0 -72 34t-37 68q0 41 27 74q26 33 172 191q41 47 115 47q61 0 106 -45q88 -88 176 -193q27 -33 27 -72q0 -28 -34 -65t-72 -37z" />
    <glyph glyph-name="Otilde" unicode="&#xd5;" horiz-adv-x="1523" 
d="M760 1409q284 0 492 -198t208 -500q0 -305 -204 -518t-500 -213q-275 0 -482 189q-206 188 -206 497q0 329 212 538t480 205zM1112 707q0 178 -106 283q-108 106 -258 106q-148 0 -240 -115t-92 -293q0 -177 98 -281q100 -106 250 -106q145 0 247 121q101 120 101 285z
M604 1542q-4 -26 -30 -47q-24 -20 -70 -20q-44 0 -79 30q-34 30 -36 92q6 95 65 153q57 56 154 56q60 0 104 -27q38 -24 74 -56q30 -27 56 -29q36 0 41 39q10 73 106 73q42 0 74 -29q33 -30 33 -75q0 -113 -59 -174q-59 -60 -154 -60q-71 0 -140 55q-68 55 -96 56
q-18 0 -29 -11q-13 -13 -14 -26z" />
    <glyph glyph-name="Odieresis" unicode="&#xd6;" horiz-adv-x="1523" 
d="M760 1409q284 0 492 -198t208 -500q0 -305 -204 -518t-500 -213q-275 0 -482 189q-206 188 -206 497q0 329 212 538t480 205zM1112 707q0 178 -106 283q-108 106 -258 106q-148 0 -240 -115t-92 -293q0 -177 98 -281q100 -106 250 -106q145 0 247 121q101 120 101 285z
M567 1481q-63 0 -105 43q-42 44 -42 104q0 68 44 112t114 44q60 0 104 -42q43 -42 43 -106q0 -68 -43 -111q-44 -44 -115 -44zM934 1485q-64 0 -106 43t-42 104q0 65 44 111q44 45 112 45q66 0 109 -42t43 -106q0 -67 -44 -111t-116 -44z" />
    <glyph glyph-name="multiply" unicode="&#xd7;" horiz-adv-x="1024" 
d="M109 350l145 142l59 63l-209 209q-28 37 -28 88q0 49 49 94q50 46 100 47q66 2 125 -63l158 -176l154 168q61 73 120 73q62 0 114 -46t52 -105q0 -25 -13 -50q-13 -24 -26 -39q-12 -13 -49 -49l-51 -51l-104 -106l178 -168q35 -32 50 -59q13 -23 13 -68q0 -51 -50 -98
t-114 -47q-59 0 -131 81l-141 154l-148 -168q-67 -70 -118 -70q-63 0 -117 48q-53 47 -53 102q0 56 35 94z" />
    <glyph glyph-name="Oslash" unicode="&#xd8;" horiz-adv-x="1523" 
d="M760 1409q159 0 307 -70l43 64q21 37 70 37q33 0 63 -27q31 -28 31 -57q0 -25 -10 -39l-50 -74q246 -205 246 -532q0 -305 -204 -518t-500 -213q-176 0 -326 77l-55 -84q-22 -36 -64 -36q-33 0 -62 23q-30 24 -30 56q0 28 14 50l58 88q-223 196 -223 512q0 329 212 538
t480 205zM1112 707q0 155 -82 256l-418 -629q66 -33 152 -33q145 0 247 121q101 120 101 285zM416 688q0 -144 67 -244l408 623q-70 29 -143 29q-148 0 -240 -115t-92 -293z" />
    <glyph glyph-name="Ugrave" unicode="&#xd9;" horiz-adv-x="1433" 
d="M131 588q4 389 4 655q0 72 45 111t121 39q97 0 138 -41q40 -40 40 -135q-2 -178 -2 -619q0 -142 66 -219q66 -76 186 -76q115 0 172 84q58 85 62 213q8 25 4 326q-4 269 -4 307q0 162 176 162q91 0 131 -46q41 -47 41 -149l4 -569q-1 -284 -159 -464q-156 -179 -433 -179
q-269 0 -430 158q-162 159 -162 442zM721 1483q-156 144 -197 188q-37 38 -37 90q0 43 51 88q49 43 99 43q69 0 113 -57q30 -40 53 -71q7 -9 28 -37t30 -41q12 -17 38 -58q23 -29 23 -67q0 -40 -37 -74q-38 -35 -74 -35q-51 0 -90 31z" />
    <glyph glyph-name="Uacute" unicode="&#xda;" horiz-adv-x="1433" 
d="M131 588q4 389 4 655q0 72 45 111t121 39q97 0 138 -41q40 -40 40 -135q-2 -178 -2 -619q0 -142 66 -219q66 -76 186 -76q115 0 172 84q58 85 62 213q8 25 4 326q-4 269 -4 307q0 162 176 162q91 0 131 -46q41 -47 41 -149l4 -569q-1 -284 -159 -464q-156 -179 -433 -179
q-269 0 -430 158q-162 159 -162 442zM737 1470q-38 -28 -84 -28q-32 0 -75 37t-43 75q0 36 24 74l166 197q51 61 111 61q53 0 103 -47t50 -102q0 -45 -43 -88q-76 -76 -209 -179z" />
    <glyph glyph-name="Ucircumflex" unicode="&#xdb;" horiz-adv-x="1433" 
d="M131 588q4 389 4 655q0 72 45 111t121 39q97 0 138 -41q40 -40 40 -135q-2 -178 -2 -619q0 -142 66 -219q66 -76 186 -76q115 0 172 84q58 85 62 213q8 25 4 326q-4 269 -4 307q0 162 176 162q91 0 131 -46q41 -47 41 -149l4 -569q-1 -284 -159 -464q-156 -179 -433 -179
q-269 0 -430 158q-162 159 -162 442zM934 1454q-39 -5 -80 33q-76 70 -125 127q-80 -91 -115 -123q-39 -39 -88 -39q-34 0 -71 34t-37 68q0 42 26 74q26 33 172 191q41 47 115 47q62 0 107 -45q88 -88 176 -193q26 -32 26 -72q0 -29 -33 -65q-34 -37 -73 -37z" />
    <glyph glyph-name="Udieresis" unicode="&#xdc;" horiz-adv-x="1433" 
d="M131 588q4 389 4 655q0 72 45 111t121 39q97 0 138 -41q40 -40 40 -135q-2 -178 -2 -619q0 -142 66 -219q66 -76 186 -76q115 0 172 84q58 85 62 213q8 25 4 326q-4 269 -4 307q0 162 176 162q91 0 131 -46q41 -47 41 -149l4 -569q-1 -284 -159 -464q-156 -179 -433 -179
q-269 0 -430 158q-162 159 -162 442zM539 1481q-64 0 -106 43q-42 44 -42 104q0 68 44 112t114 44q61 0 104 -42t43 -106q0 -68 -43 -111q-44 -44 -114 -44zM905 1485q-63 0 -105 43t-42 104q0 65 44 111q44 45 111 45q65 0 109 -42q43 -42 43 -106q0 -67 -44 -111t-116 -44
z" />
    <glyph glyph-name="Yacute" unicode="&#xdd;" horiz-adv-x="1277" 
d="M465 528l-43 62l-365 553q-32 51 -32 94q0 66 55 114t127 48q80 0 121 -62q76 -118 313 -508q1 4 299 494q46 78 141 78q59 0 115 -45q55 -45 55 -105q0 -56 -34 -102l-410 -621v-397q0 -64 -50 -102q-49 -37 -124 -37q-79 0 -125 45q-47 45 -47 115q0 5 2 79t2 84v213z
M655 1470q-38 -28 -84 -28q-32 0 -75 37t-43 75q0 36 24 74l166 197q51 61 111 61q53 0 103 -47t50 -102q0 -45 -43 -88q-76 -76 -209 -179z" />
    <glyph glyph-name="Thorn" unicode="&#xde;" horiz-adv-x="1204" 
d="M121 580l-4 667q0 78 48 120t128 42q87 0 133 -43t45 -119v-96l125 4q118 4 219 -17q95 -20 178 -72q79 -49 123 -142q44 -92 39 -222q-5 -162 -107 -284q-104 -124 -270 -154q-50 -10 -268 -10h-47v-115q0 -70 -48 -111q-47 -40 -126 -40q-85 0 -128 40q-44 41 -44 105
q0 13 0.5 39t1 74t0.5 90q2 212 2 244zM469 866l2 -325q140 0 191 6q152 21 153 166q1 43 -13 72q-14 28 -37 46t-56 25q-40 9 -60 10q-32 2 -59 2t-60 -1t-61 -1z" />
    <glyph glyph-name="germandbls" unicode="&#xdf;" horiz-adv-x="1259" 
d="M588 682q0 74 77 163q76 88 76 128q0 123 -141 123q-140 0 -145 -232q0 -67 4 -286q4 -210 2 -402q-1 -106 -45 -145q-44 -40 -140 -41q-66 -1 -107 44q-43 47 -44 116v667q0 293 134 435q134 141 364 141q196 0 313 -105t117 -282q0 -63 -41 -127t-82 -108t-41 -58
q0 -24 21 -42q20 -17 69 -36q46 -18 53 -23q172 -88 172 -278q0 -160 -98 -257t-293 -97q-262 0 -262 137q0 157 123 157q38 0 81 -9t79 -9q30 0 50 18q19 18 19 48q0 75 -137 122q-178 63 -178 238z" />
    <glyph glyph-name="agrave" unicode="&#xe0;" horiz-adv-x="1189" 
d="M1075 649v-309q0 -104 6 -209q0 -139 -172 -139q-105 0 -143 125q-80 -131 -246 -131q-209 0 -335 131q-126 130 -126 334q0 227 138 367q137 138 348 138q153 0 229 -108q7 29 25 53q37 51 123 51q155 0 155 -145zM399 459q0 -81 47 -137t119 -56q78 0 132 57
q55 58 55 150q0 91 -52 145t-125 54q-80 0 -128 -57t-48 -156zM565 1094q-148 137 -196 188q-37 38 -37 90q0 44 50 88q49 43 99 43q69 0 113 -57q30 -40 53 -71q9 -13 29.5 -40t29.5 -39q10 -13 37 -57q23 -29 23 -68t-37 -73q-38 -35 -74 -35q-51 0 -90 31z" />
    <glyph glyph-name="aacute" unicode="&#xe1;" horiz-adv-x="1189" 
d="M1075 649v-309q0 -104 6 -209q0 -139 -172 -139q-105 0 -143 125q-80 -131 -246 -131q-209 0 -335 131q-126 130 -126 334q0 227 138 367q137 138 348 138q153 0 229 -108q7 29 25 53q37 51 123 51q155 0 155 -145zM399 459q0 -81 47 -137t119 -56q78 0 132 57
q55 58 55 150q0 91 -52 145t-125 54q-80 0 -128 -57t-48 -156zM582 1081q-38 -28 -84 -28q-33 0 -76 37t-43 75q0 37 24 74l166 197q51 61 111 61q53 0 103 -47q51 -48 51 -102q0 -45 -43 -88q-76 -76 -209 -179z" />
    <glyph glyph-name="acircumflex" unicode="&#xe2;" horiz-adv-x="1189" 
d="M1075 649v-309q0 -104 6 -209q0 -139 -172 -139q-105 0 -143 125q-80 -131 -246 -131q-209 0 -335 131q-126 130 -126 334q0 227 138 367q137 138 348 138q153 0 229 -108q7 29 25 53q37 51 123 51q155 0 155 -145zM399 459q0 -81 47 -137t119 -56q78 0 132 57
q55 58 55 150q0 91 -52 145t-125 54q-80 0 -128 -57t-48 -156zM778 1065q-39 -5 -80 33q-76 70 -125 127q-84 -96 -114 -123q-39 -39 -88 -39q-35 0 -72 34t-37 68q0 41 27 74q26 33 172 191q41 47 114 47q62 0 107 -45q88 -88 176 -193q27 -33 27 -72q0 -28 -34 -65
t-73 -37z" />
    <glyph glyph-name="atilde" unicode="&#xe3;" horiz-adv-x="1189" 
d="M1075 649v-309q0 -104 6 -209q0 -139 -172 -139q-105 0 -143 125q-80 -131 -246 -131q-209 0 -335 131q-126 130 -126 334q0 227 138 367q137 138 348 138q153 0 229 -108q7 29 25 53q37 51 123 51q155 0 155 -145zM399 459q0 -81 47 -137t119 -56q78 0 132 57
q55 58 55 150q0 91 -52 145t-125 54q-80 0 -128 -57t-48 -156zM420 1153q-4 -26 -30 -47q-25 -21 -71 -21q-42 0 -78 31q-34 30 -36 92q6 97 64 153q57 56 155 56q60 0 103 -27q41 -26 75 -56q31 -27 55 -29q37 0 41 38q11 74 107 74q42 0 74 -29t32 -75q0 -115 -58 -174
q-59 -60 -155 -60q-70 0 -139 55q-68 55 -96 56q-18 0 -29 -11q-13 -13 -14 -26z" />
    <glyph glyph-name="adieresis" unicode="&#xe4;" horiz-adv-x="1189" 
d="M1075 649v-309q0 -104 6 -209q0 -139 -172 -139q-105 0 -143 125q-80 -131 -246 -131q-209 0 -335 131q-126 130 -126 334q0 227 138 367q137 138 348 138q153 0 229 -108q7 29 25 53q37 51 123 51q155 0 155 -145zM399 459q0 -81 47 -137t119 -56q78 0 132 57
q55 58 55 150q0 91 -52 145t-125 54q-80 0 -128 -57t-48 -156zM383 1092q-63 0 -105 43t-42 104q0 68 44 112t113 44q61 0 105 -42q43 -42 43 -106q0 -68 -43 -111q-44 -44 -115 -44zM750 1096q-64 0 -106 43t-42 104q0 65 44 111q44 45 112 45q64 0 108 -42q43 -42 43 -106
q0 -67 -44 -111t-115 -44z" />
    <glyph glyph-name="aring" unicode="&#xe5;" horiz-adv-x="1189" 
d="M1075 649v-309q0 -104 6 -209q0 -139 -172 -139q-105 0 -143 125q-80 -131 -246 -131q-209 0 -335 131q-126 130 -126 334q0 227 138 367q137 138 348 138q153 0 229 -108q7 29 25 53q37 51 123 51q155 0 155 -145zM399 459q0 -81 47 -137t119 -56q78 0 132 57
q55 58 55 150q0 91 -52 145t-125 54q-80 0 -128 -57t-48 -156zM569 1520q105 0 177 -64q71 -63 71 -166q0 -101 -73 -174q-72 -72 -177 -72q-98 0 -176 64q-76 63 -76 168q0 108 78 176q79 68 176 68zM651 1288q0 36 -24 58q-23 22 -64 22q-33 0 -57 -26q-25 -27 -25 -62
q0 -31 25 -56q24 -24 59 -24q38 0 62 27t24 61z" />
    <glyph glyph-name="ae" unicode="&#xe6;" horiz-adv-x="1636" 
d="M1200 393h-201q10 -50 57 -85q46 -34 103 -34q88 0 152 29q70 31 106 31q51 0 90 -47q39 -46 39 -111q0 -81 -105 -137q-104 -55 -302 -55q-96 0 -191 46q-98 47 -137 107q-50 -63 -139 -110q-86 -45 -193 -45q-196 0 -307 77q-113 78 -113 226q0 133 106 213t290 80
q30 0 182 -11q-15 109 -164 109q-47 0 -123 -24q-73 -23 -104 -23q-55 0 -91 41q-36 40 -36 100q0 71 55 111q107 82 324 82q100 0 188 -39t135 -105q50 62 142 103q93 41 184 41q189 0 313 -119q123 -119 123 -273q0 -99 -34 -136q-35 -39 -134 -40q-49 0 -107 -1t-108 -1z
M1145 694q-63 0 -107 -37q-45 -37 -49 -86q148 0 236 2q41 0 41 15q0 47 -34 77q-33 29 -87 29zM489 246q106 0 144 92l10 45q-72 6 -164 6q-50 0 -79 -19t-29 -53q0 -71 118 -71z" />
    <glyph glyph-name="ccedilla" unicode="&#xe7;" horiz-adv-x="931" 
d="M395 -96l37 88q-180 34 -276 164q-97 130 -97 278q0 210 146 370q145 159 366 159q146 0 248 -64q58 -44 58 -113q0 -58 -38 -108q-37 -49 -98 -49q-30 0 -96 22q-35 15 -82 15q-72 0 -123 -65t-51 -142q0 -80 55 -132q56 -53 131 -53q43 0 109 33q52 25 86 25
q55 0 92 -51q37 -50 37 -115q0 -70 -61 -109q-96 -67 -240 -75l-16 -56q58 0 105 -46q48 -46 48 -132q0 -109 -67 -169q-68 -60 -176 -60q-64 0 -119 24q-62 27 -62 95q0 40 27 64t59 24q16 0 47 -14q29 -13 48 -13q55 0 55 41t-47 41l-43 2q-37 1 -57 42t-5 79z" />
    <glyph glyph-name="egrave" unicode="&#xe8;" horiz-adv-x="1054" 
d="M401 387q10 -55 61 -87q50 -32 105 -32q83 0 148 37q53 29 104 29q55 0 94 -47q39 -46 39 -111q0 -79 -75 -123q-117 -71 -330 -71q-204 0 -344 136q-142 137 -142 331q0 222 143 368t351 146q190 0 314 -118t124 -272q0 -98 -34 -138q-35 -41 -132 -42q-32 0 -67 -1
q-51 -1 -151 -3q-130 -2 -208 -2zM551 702q-62 0 -104 -36q-43 -38 -48 -84q8 0 254 6q25 0 25 10q0 45 -37 75q-36 29 -90 29zM541 1094q-156 144 -197 188q-37 38 -37 90q0 44 50 88q49 43 100 43q69 0 112 -57q3 -4 22 -28.5t32 -42.5q28 -37 58 -79q17 -23 38 -57
q22 -28 22 -68t-36 -73q-38 -35 -74 -35q-51 0 -90 31z" />
    <glyph glyph-name="eacute" unicode="&#xe9;" horiz-adv-x="1054" 
d="M401 387q10 -55 61 -87q50 -32 105 -32q83 0 148 37q53 29 104 29q55 0 94 -47q39 -46 39 -111q0 -79 -75 -123q-117 -71 -330 -71q-204 0 -344 136q-142 137 -142 331q0 222 143 368t351 146q190 0 314 -118t124 -272q0 -98 -34 -138q-35 -41 -132 -42q-32 0 -67 -1
q-51 -1 -151 -3q-130 -2 -208 -2zM551 702q-62 0 -104 -36q-43 -38 -48 -84q8 0 254 6q25 0 25 10q0 45 -37 75q-36 29 -90 29zM557 1081q-38 -28 -84 -28q-33 0 -76 37t-43 75q0 35 25 74l166 197q51 61 110 61q54 0 104 -47t50 -102q0 -45 -43 -88q-76 -76 -209 -179z" />
    <glyph glyph-name="ecircumflex" unicode="&#xea;" horiz-adv-x="1054" 
d="M401 387q10 -55 61 -87q50 -32 105 -32q83 0 148 37q53 29 104 29q55 0 94 -47q39 -46 39 -111q0 -79 -75 -123q-117 -71 -330 -71q-204 0 -344 136q-142 137 -142 331q0 222 143 368t351 146q190 0 314 -118t124 -272q0 -98 -34 -138q-35 -41 -132 -42q-32 0 -67 -1
q-51 -1 -151 -3q-130 -2 -208 -2zM551 702q-62 0 -104 -36q-43 -38 -48 -84q8 0 254 6q25 0 25 10q0 45 -37 75q-36 29 -90 29zM754 1065q-39 -5 -80 33q-76 70 -125 127q-80 -91 -115 -123q-39 -39 -88 -39q-35 0 -72 34q-36 33 -36 68q0 42 26 74q26 33 172 191
q41 47 115 47q61 0 106 -45q94 -94 177 -193q26 -32 26 -72q0 -28 -34 -65t-72 -37z" />
    <glyph glyph-name="edieresis" unicode="&#xeb;" horiz-adv-x="1054" 
d="M401 387q10 -55 61 -87q50 -32 105 -32q83 0 148 37q53 29 104 29q55 0 94 -47q39 -46 39 -111q0 -79 -75 -123q-117 -71 -330 -71q-204 0 -344 136q-142 137 -142 331q0 222 143 368t351 146q190 0 314 -118t124 -272q0 -98 -34 -138q-35 -41 -132 -42q-32 0 -67 -1
q-51 -1 -151 -3q-130 -2 -208 -2zM551 702q-62 0 -104 -36q-43 -38 -48 -84q8 0 254 6q25 0 25 10q0 45 -37 75q-36 29 -90 29zM358 1092q-63 0 -105 43t-42 104q0 68 44 112t114 44q61 0 104 -42t43 -106q0 -68 -43 -111q-44 -44 -115 -44zM725 1096q-63 0 -105 43t-42 104
q0 65 44 111q44 45 111 45q65 0 109 -42q43 -42 43 -106q0 -67 -44 -111t-116 -44z" />
    <glyph glyph-name="igrave" unicode="&#xec;" horiz-adv-x="563" 
d="M113 819q1 71 51 106q47 33 112 33q174 0 175 -135v-226v-226l2 -236q1 -71 -47 -108q-49 -37 -123 -37q-71 0 -121 32q-49 31 -49 93v704zM279 1094q-156 144 -197 188q-37 38 -37 90q0 44 50 88q49 43 100 43q69 0 112 -57q30 -40 53 -71q9 -13 29.5 -40t29.5 -39
q17 -23 38 -57q22 -28 22 -68q0 -39 -37 -73q-38 -35 -73 -35q-51 0 -90 31z" />
    <glyph glyph-name="iacute" unicode="&#xed;" horiz-adv-x="563" 
d="M113 819q1 71 51 106q47 33 112 33q174 0 175 -135v-226v-226l2 -236q1 -71 -47 -108q-49 -37 -123 -37q-71 0 -121 32q-49 31 -49 93v704zM295 1081q-38 -28 -84 -28q-33 0 -76 37t-43 75q0 35 25 74l166 197q51 61 110 61q54 0 104 -47t50 -102q0 -45 -43 -88
q-76 -76 -209 -179z" />
    <glyph glyph-name="icircumflex" unicode="&#xee;" horiz-adv-x="563" 
d="M113 819q1 71 51 106q47 33 112 33q174 0 175 -135v-226v-226l2 -236q1 -71 -47 -108q-49 -37 -123 -37q-71 0 -121 32q-49 31 -49 93v704zM492 1065q-39 -5 -80 33q-76 70 -125 127q-80 -91 -115 -123q-39 -39 -88 -39q-35 0 -72 34t-37 68q0 41 27 74q26 33 172 191
q41 47 115 47q61 0 106 -45q88 -88 176 -193q27 -33 27 -72q0 -28 -34 -65t-72 -37z" />
    <glyph glyph-name="idieresis" unicode="&#xef;" horiz-adv-x="563" 
d="M113 819q1 71 51 106q47 33 112 33q174 0 175 -135v-226v-226l2 -236q1 -71 -47 -108q-49 -37 -123 -37q-71 0 -121 32q-49 31 -49 93v704zM96 1092q-63 0 -105 43t-42 104q0 68 44 112t113 44q62 0 105 -42t43 -106q0 -68 -43 -111q-44 -44 -115 -44zM463 1096
q-64 0 -106 43t-42 104q0 65 44 111q44 45 112 45q65 0 109 -42q43 -42 43 -106q0 -67 -44 -111t-116 -44z" />
    <glyph glyph-name="eth" unicode="&#xf0;" horiz-adv-x="1171" 
d="M932 1225l-27 -19q182 -241 180 -581q0 -150 -6 -193q-34 -216 -173 -334q-137 -116 -345 -116q-217 0 -363 133q-147 133 -147 346q0 219 139 345q140 126 330 126q104 0 187 -76q-6 91 -82 176l-86 -53q-21 -14 -47 -14q-27 0 -54 28q-26 27 -26 58q0 44 47 71l33 21
q-63 36 -134 59q-67 21 -91 82q-24 60 7 117q73 144 261 86q128 -40 258 -156l79 51q21 15 43 15q32 0 57 -31q23 -29 23 -66q0 -30 -63 -75zM543 641q-65 -1 -114 -47q-48 -45 -48 -121q0 -91 46 -140q47 -50 118 -50q70 0 121 55t49 133q-2 79 -51 125t-121 45z" />
    <glyph glyph-name="ntilde" unicode="&#xf1;" horiz-adv-x="1169" 
d="M117 674l-2 110q-4 172 168 172q131 0 149 -104l6 -37q28 65 103 105q77 41 155 41q177 0 273 -107q96 -106 96 -307q0 -72 -1 -122t-1 -128v-162q0 -141 -180 -141q-69 0 -115 35q-45 35 -45 104q0 5 2 157t2 167q0 104 -24 161q-25 59 -95 60q-98 1 -131 -62t-33 -210
l2 -281q0 -69 -48 -101q-49 -32 -113 -32q-84 0 -129 30t-45 109q0 87 4 252q4 160 2 291zM449 1153q-4 -26 -30 -47t-71 -21q-43 0 -79 31q-34 30 -36 92q6 95 65 153q57 56 155 56q59 0 103 -27q41 -26 75 -56q31 -27 55 -29q37 0 41 38q11 74 107 74q41 0 73 -29
q33 -30 33 -75q0 -115 -58 -174q-58 -60 -155 -60q-70 0 -139 55q-68 55 -96 56q-18 0 -29 -11q-13 -13 -14 -26z" />
    <glyph glyph-name="ograve" unicode="&#xf2;" 
d="M604 963q37 0 78 -9q191 -33 290 -167t99 -310q0 -215 -145 -354t-369 -139q-204 0 -349 131t-145 334q0 231 144 369q145 139 397 145zM739 485q0 69 -47 131t-117 60q-86 -2 -133 -61t-47 -162q0 -77 47 -132t111 -55q80 0 133 62t53 157zM551 1094q-156 144 -197 188
q-37 38 -37 90q0 43 51 88q49 43 99 43q69 0 113 -57q30 -40 53 -71q28 -37 58 -79q17 -23 38 -57q23 -29 23 -68t-37 -73q-38 -35 -74 -35q-51 0 -90 31z" />
    <glyph glyph-name="oacute" unicode="&#xf3;" 
d="M604 963q37 0 78 -9q191 -33 290 -167t99 -310q0 -215 -145 -354t-369 -139q-204 0 -349 131t-145 334q0 231 144 369q145 139 397 145zM739 485q0 69 -47 131t-117 60q-86 -2 -133 -61t-47 -162q0 -77 47 -132t111 -55q80 0 133 62t53 157zM567 1081q-38 -28 -84 -28
q-32 0 -75 37t-43 75q0 37 24 74l166 197q51 61 111 61q53 0 103 -47t50 -102q0 -45 -43 -88q-76 -76 -209 -179z" />
    <glyph glyph-name="ocircumflex" unicode="&#xf4;" 
d="M604 963q37 0 78 -9q191 -33 290 -167t99 -310q0 -215 -145 -354t-369 -139q-204 0 -349 131t-145 334q0 231 144 369q145 139 397 145zM739 485q0 69 -47 131t-117 60q-86 -2 -133 -61t-47 -162q0 -77 47 -132t111 -55q80 0 133 62t53 157zM764 1065q-39 -5 -80 33
q-76 70 -125 127q-80 -91 -115 -123q-39 -39 -88 -39q-34 0 -71 34t-37 68q0 42 26 74q26 33 172 191q41 47 115 47q62 0 107 -45q88 -88 176 -193q26 -32 26 -72q0 -29 -33 -65q-34 -37 -73 -37z" />
    <glyph glyph-name="otilde" unicode="&#xf5;" 
d="M604 963q37 0 78 -9q191 -33 290 -167t99 -310q0 -215 -145 -354t-369 -139q-204 0 -349 131t-145 334q0 231 144 369q145 139 397 145zM739 485q0 69 -47 131t-117 60q-86 -2 -133 -61t-47 -162q0 -77 47 -132t111 -55q80 0 133 62t53 157zM406 1153q-4 -26 -30 -47
t-71 -21q-43 0 -79 31q-34 30 -36 92q6 95 65 153q57 56 155 56q60 0 103 -27q41 -26 75 -56q31 -27 55 -29q37 0 41 38q11 74 107 74q41 0 73 -29q33 -30 33 -75q0 -115 -58 -174q-59 -60 -155 -60q-70 0 -139 55q-68 55 -96 56q-18 0 -29 -11q-13 -13 -14 -26z" />
    <glyph glyph-name="odieresis" unicode="&#xf6;" 
d="M604 963q37 0 78 -9q191 -33 290 -167t99 -310q0 -215 -145 -354t-369 -139q-204 0 -349 131t-145 334q0 231 144 369q145 139 397 145zM739 485q0 69 -47 131t-117 60q-86 -2 -133 -61t-47 -162q0 -77 47 -132t111 -55q80 0 133 62t53 157zM369 1092q-64 0 -106 43
t-42 104q0 69 45 112q46 44 113 44q61 0 104 -42t43 -106q0 -68 -43 -111q-44 -44 -114 -44zM735 1096q-63 0 -105 43t-42 104q0 65 44 111q44 45 111 45q65 0 109 -42q43 -42 43 -106q0 -67 -44 -111t-116 -44z" />
    <glyph glyph-name="divide" unicode="&#xf7;" horiz-adv-x="1024" 
d="M174 414q-58 -2 -87 41q-30 43 -30 102q0 53 33 90q32 37 84 35l668 -4q62 0 93 -39q32 -40 32 -94q0 -56 -34 -93q-35 -39 -87 -40q-69 -2 -335 1t-337 1zM512 762q-69 0 -115 44q-45 43 -45 114q0 72 48 118q49 47 124 47q70 0 117 -44t47 -113q0 -74 -48 -120
q-47 -46 -128 -46zM500 18q-69 0 -112 43q-44 44 -44 111q0 71 47 118q46 46 121 46q68 0 114 -43t46 -113q0 -72 -47 -117t-125 -45z" />
    <glyph glyph-name="oslash" unicode="&#xf8;" 
d="M604 963q37 0 78 -9q56 -13 82 -24l31 47q22 37 63 37q23 0 54 -22q30 -21 30 -46q0 -27 -18 -57l-23 -37q170 -141 170 -375q0 -215 -145 -354t-369 -139q-96 0 -180 28l-37 -59q-22 -37 -57 -37q-24 0 -55 23q-29 22 -29 49q0 21 18 51l27 45q-181 136 -181 365
q0 231 144 369q145 139 397 145zM395 453q0 -54 21 -93l190 312q-19 4 -31 4q-86 -2 -133 -61t-47 -162zM739 485q0 39 -18 80l-184 -299h16q80 0 133 62t53 157z" />
    <glyph glyph-name="ugrave" unicode="&#xf9;" horiz-adv-x="1179" 
d="M295 950q75 0 113 -39q36 -37 36 -131v-301q0 -98 24 -152q24 -55 99 -55q152 0 152 250v275q0 75 50 114q49 39 126 39t120 -37q44 -38 44 -110q0 -323 2 -451q0 -38 2 -112q1 -54 3 -88q1 -22 1 -43q0 -59 -49 -90t-117 -31q-120 0 -143 92q-5 25 -13 55
q-99 -153 -262 -153q-191 0 -282 118q-92 119 -92 322q0 102 1 188t1 185q0 155 184 155zM575 1094q-148 137 -196 188q-37 38 -37 90q0 44 50 88q49 43 100 43q68 0 112 -57q30 -40 53 -71q9 -13 29.5 -40t29.5 -39q17 -23 38 -57q22 -28 22 -68q0 -39 -37 -73
q-38 -35 -73 -35q-52 0 -91 31z" />
    <glyph glyph-name="uacute" unicode="&#xfa;" horiz-adv-x="1179" 
d="M295 950q75 0 113 -39q36 -37 36 -131v-301q0 -98 24 -152q24 -55 99 -55q152 0 152 250v275q0 75 50 114q49 39 126 39t120 -37q44 -38 44 -110q0 -323 2 -451q0 -38 2 -112q1 -54 3 -88q1 -22 1 -43q0 -59 -49 -90t-117 -31q-120 0 -143 92q-5 25 -13 55
q-99 -153 -262 -153q-191 0 -282 118q-92 119 -92 322q0 102 1 188t1 185q0 155 184 155zM592 1081q-38 -28 -84 -28q-33 0 -76 37t-43 75q0 35 25 74l166 197q51 61 110 61q54 0 104 -47t50 -102q0 -45 -43 -88q-76 -76 -209 -179z" />
    <glyph glyph-name="ucircumflex" unicode="&#xfb;" horiz-adv-x="1179" 
d="M295 950q75 0 113 -39q36 -37 36 -131v-301q0 -98 24 -152q24 -55 99 -55q152 0 152 250v275q0 75 50 114q49 39 126 39t120 -37q44 -38 44 -110q0 -323 2 -451q0 -38 2 -112q1 -54 3 -88q1 -22 1 -43q0 -59 -49 -90t-117 -31q-120 0 -143 92q-5 25 -13 55
q-99 -153 -262 -153q-191 0 -282 118q-92 119 -92 322q0 102 1 188t1 185q0 155 184 155zM788 1065q-39 -4 -79 33q-76 70 -125 127q-80 -91 -115 -123q-39 -39 -88 -39q-35 0 -72 34t-37 68q0 41 27 74q26 33 172 191q41 47 115 47q61 0 106 -45q88 -88 176 -193
q27 -33 27 -72q0 -28 -34 -65t-73 -37z" />
    <glyph glyph-name="udieresis" unicode="&#xfc;" horiz-adv-x="1179" 
d="M295 950q75 0 113 -39q36 -37 36 -131v-301q0 -98 24 -152q24 -55 99 -55q152 0 152 250v275q0 75 50 114q49 39 126 39t120 -37q44 -38 44 -110q0 -323 2 -451q0 -38 2 -112q1 -54 3 -88q1 -22 1 -43q0 -59 -49 -90t-117 -31q-120 0 -143 92q-5 25 -13 55
q-99 -153 -262 -153q-191 0 -282 118q-92 119 -92 322q0 102 1 188t1 185q0 155 184 155zM393 1092q-63 0 -105 43t-42 104q0 69 45 112q46 44 112 44q61 0 105 -42q43 -42 43 -106q0 -68 -43 -111q-44 -44 -115 -44zM760 1096q-64 0 -106 43t-42 104q0 65 44 111
q44 45 112 45q66 0 109 -42t43 -106q0 -67 -44 -111t-116 -44z" />
    <glyph glyph-name="yacute" unicode="&#xfd;" horiz-adv-x="1075" 
d="M543 391q19 45 34 87q34 95 58 160q58 158 74 200q43 114 137 114q67 0 127 -39q59 -38 59 -92q0 -58 -35 -133q-50 -104 -132 -286q-88 -193 -163 -353q-87 -185 -149 -307q-111 -205 -324 -205q-200 0 -200 162q0 72 40 112q39 39 109 39q49 0 79 27t58 88q19 38 32 63
l26 50l-33 63l-264 549q-37 73 -37 131q0 57 57 98q55 39 119 39q54 0 83 -16t50 -61q51 -125 114 -287q60 -153 81 -203zM506 1081q-38 -28 -84 -28q-33 0 -76 37t-43 75q0 35 25 74l166 197q51 61 110 61q54 0 104 -47t50 -102q0 -45 -43 -88q-76 -76 -209 -179z" />
    <glyph glyph-name="thorn" unicode="&#xfe;" horiz-adv-x="1206" 
d="M424 -303q-1 -143 -170 -143q-89 0 -130 37q-42 37 -40 114l8 807l-4 803q2 81 45 121q44 41 113 41q78 0 129 -31q49 -29 47 -113q-6 -438 -6 -487q74 117 250 117q200 0 328 -139t128 -339q0 -211 -138 -356t-341 -145q-152 0 -219 116v-403zM786 483q0 86 -50 141
q-49 54 -124 54q-86 0 -139 -54q-53 -55 -53 -157q0 -88 50 -146q50 -57 126 -57q80 0 135 63q55 62 55 156z" />
    <glyph glyph-name="ydieresis" unicode="&#xff;" horiz-adv-x="1075" 
d="M543 391q19 45 34 87q34 95 58 160q58 158 74 200q43 114 137 114q67 0 127 -39q59 -38 59 -92q0 -58 -35 -133q-50 -104 -132 -286q-88 -193 -163 -353q-87 -185 -149 -307q-111 -205 -324 -205q-200 0 -200 162q0 72 40 112q39 39 109 39q49 0 79 27t58 88q19 38 32 63
l26 50l-33 63l-264 549q-37 73 -37 131q0 57 57 98q55 39 119 39q54 0 83 -16t50 -61q51 -125 114 -287q60 -153 81 -203zM307 1092q-63 0 -105 43t-42 104q0 69 45 112q46 44 112 44q61 0 105 -42q43 -42 43 -106q0 -68 -43 -111q-44 -44 -115 -44zM674 1096q-64 0 -106 43
t-42 104q0 65 44 111q44 45 112 45q66 0 109 -42t43 -106q0 -67 -44 -111t-116 -44z" />
    <glyph glyph-name="Amacron" unicode="&#x100;" horiz-adv-x="1370" 
d="M29 154q0 56 39 145q97 208 178 410l237 577q21 53 75 83t112 30q162 0 207 -121q78 -176 256 -627q8 -14 36 -76q101 -255 142 -342q24 -53 24 -102q0 -53 -54 -97q-55 -44 -136 -44q-117 0 -154 94q-69 165 -80 207q-58 2 -284 2h-183l-73 -201q-40 -100 -142 -100
q-81 0 -140 40q-60 40 -60 122zM678 991q-16 -53 -74 -230q-18 -56 -40 -122.5t-27 -81.5q159 0 280 4q-14 48 -62 192q-64 194 -77 238zM508 1520q-70 0 -104 35q-33 34 -33 90q0 59 33 93q34 36 100 36q36 0 71 -1t78 -1q17 0 109 2t121 2q127 0 127 -129q0 -60 -41 -93
q-39 -32 -117 -32h-170q-50 0 -89 -1t-85 -1z" />
    <glyph glyph-name="amacron" unicode="&#x101;" horiz-adv-x="1189" 
d="M1075 649v-309q0 -104 6 -209q0 -139 -172 -139q-105 0 -143 125q-80 -131 -246 -131q-209 0 -335 131q-126 130 -126 334q0 227 138 367q137 138 348 138q153 0 229 -108q7 29 25 53q37 51 123 51q155 0 155 -145zM399 459q0 -81 47 -137t119 -56q78 0 132 57
q55 58 55 150q0 91 -52 145t-125 54q-80 0 -128 -57t-48 -156zM399 1130q-69 0 -103 36q-34 35 -34 89q0 59 34 94t99 35q37 0 72 -1t78 -1q12 0 108 2t121 2q127 0 127 -129q0 -59 -41 -92q-39 -32 -117 -32h-170q-50 0 -89 -1q-78 -2 -85 -2z" />
    <glyph glyph-name="Abreve" unicode="&#x102;" horiz-adv-x="1370" 
d="M29 154q0 56 39 145q97 208 178 410l237 577q21 53 75 83t112 30q162 0 207 -121q78 -176 256 -627q8 -14 36 -76q101 -255 142 -342q24 -53 24 -102q0 -53 -54 -97q-55 -44 -136 -44q-117 0 -154 94q-69 165 -80 207q-58 2 -284 2h-183l-73 -201q-40 -100 -142 -100
q-81 0 -140 40q-60 40 -60 122zM678 991q-16 -53 -74 -230q-18 -56 -40 -122.5t-27 -81.5q159 0 280 4q-14 48 -62 192q-64 194 -77 238zM883 1833q48 0 78 -28q28 -27 28 -64q0 -129 -84 -212q-85 -83 -225 -83q-119 0 -207 76t-92 196q-1 45 30 79t78 34q44 0 71 -24
q28 -25 32 -58q6 -38 30 -62t56 -24q38 0 66 26t32 60q5 35 32 59q28 25 75 25z" />
    <glyph glyph-name="abreve" unicode="&#x103;" horiz-adv-x="1189" 
d="M1075 649v-309q0 -104 6 -209q0 -139 -172 -139q-105 0 -143 125q-80 -131 -246 -131q-209 0 -335 131q-126 130 -126 334q0 227 138 367q137 138 348 138q153 0 229 -108q7 29 25 53q37 51 123 51q155 0 155 -145zM399 459q0 -81 47 -137t119 -56q78 0 132 57
q55 58 55 150q0 91 -52 145t-125 54q-80 0 -128 -57t-48 -156zM774 1444q48 0 78 -28q29 -27 29 -64q0 -130 -84 -212q-85 -83 -226 -83q-118 0 -206 76q-89 77 -93 196q-1 45 30 79t79 34q44 0 71 -24t31 -58q6 -39 30 -63q23 -23 56 -23q41 0 67 25q27 26 32 61
q5 36 31 59q28 25 75 25z" />
    <glyph glyph-name="Aogonek" unicode="&#x104;" horiz-adv-x="1370" 
d="M1137 -184q0 -56 55 -56q14 0 29 3q20 4 30 4q39 0 62 -33q22 -32 22 -86q0 -59 -46 -93t-122 -34q-114 0 -187 53t-73 172q0 141 152 258q-45 22 -68 80q-69 165 -80 207q-58 2 -284 2h-183l-73 -201q-40 -100 -142 -100q-81 0 -140 40q-60 40 -60 122q0 56 39 145
q97 208 178 410l237 577q21 53 75 83t112 30q162 0 207 -121q78 -176 256 -627q8 -14 36 -76q101 -255 142 -342q24 -53 24 -102q0 -61 -69 -108q-129 -125 -129 -207zM678 991q-16 -53 -74 -230q-18 -56 -40 -122.5t-27 -81.5q159 0 280 4q-14 48 -62 192q-64 194 -77 238z
" />
    <glyph glyph-name="aogonek" unicode="&#x105;" horiz-adv-x="1189" 
d="M1075 649v-309q0 -102 6 -203q0 -86 -61 -125q-141 -113 -141 -196q0 -56 55 -56q7 0 27 2t30 2q39 0 63 -31q23 -30 23 -85q0 -61 -46 -94q-47 -33 -122 -33q-113 0 -186 54q-74 54 -74 175q0 144 176 266q-51 30 -59 101q-80 -131 -246 -131q-209 0 -335 131
q-126 130 -126 334q0 227 138 367q137 138 348 138q153 0 229 -108q1 3 8 29q10 33 51 54t89 21q155 0 155 -145zM399 459q0 -81 47 -137t121 -56q79 0 132 57q53 58 53 150q0 91 -51 145t-123 54q-80 0 -129 -57q-50 -58 -50 -156z" />
    <glyph glyph-name="Cacute" unicode="&#x106;" horiz-adv-x="1251" 
d="M1061 1352q61 -27 93 -62q31 -34 30 -94q-1 -71 -37 -116q-35 -44 -105 -44q-42 0 -112 29q-87 35 -187 35q-135 0 -234 -116q-100 -116 -101 -302q-1 -172 106 -275q109 -105 238 -106q88 -2 198 41q78 41 119 39q66 0 101 -56q36 -56 34 -126q-2 -87 -151 -153
q-151 -66 -332 -62q-123 1 -243 50q-118 48 -212 133t-148 218q-54 132 -52 293q5 220 108 388q105 172 261 257q158 86 327 82q187 -5 299 -53zM754 1470q-38 -28 -84 -28q-33 0 -76 37t-43 75q0 35 25 74l165 197q51 61 111 61q53 0 103 -47q51 -48 51 -102q0 -45 -43 -88
q-76 -76 -209 -179z" />
    <glyph glyph-name="cacute" unicode="&#x107;" horiz-adv-x="931" 
d="M819 899q58 -44 58 -113q0 -58 -38 -108q-37 -49 -98 -49q-30 0 -96 22q-35 15 -82 15q-72 0 -123 -65t-51 -142q0 -80 55 -132q56 -53 131 -53q43 0 109 33q52 25 86 25q55 0 92 -51q37 -50 37 -115q0 -70 -61 -109q-110 -77 -285 -77q-239 0 -366 140
q-128 142 -128 314q0 210 146 370q145 159 366 159q146 0 248 -64zM555 1081q-38 -28 -84 -28q-33 0 -76 37t-43 75q0 35 25 74l166 197q51 61 110 61q54 0 104 -47t50 -102q0 -45 -43 -88q-76 -76 -209 -179z" />
    <glyph glyph-name="Ccircumflex" unicode="&#x108;" horiz-adv-x="1251" 
d="M1061 1352q61 -27 93 -62q31 -34 30 -94q-1 -71 -37 -116q-35 -44 -105 -44q-42 0 -112 29q-87 35 -187 35q-135 0 -234 -116q-100 -116 -101 -302q-1 -172 106 -275q109 -105 238 -106q88 -2 198 41q78 41 119 39q66 0 101 -56q36 -56 34 -126q-2 -87 -151 -153
q-151 -66 -332 -62q-123 1 -243 50q-118 48 -212 133t-148 218q-54 132 -52 293q5 220 108 388q105 172 261 257q158 86 327 82q187 -5 299 -53zM950 1454q-39 -5 -80 33q-76 70 -125 127q-84 -96 -114 -123q-39 -39 -88 -39q-35 0 -72 34t-37 68q0 41 27 74q26 33 172 191
q41 47 115 47q61 0 106 -45q88 -88 176 -193q27 -33 27 -72q0 -28 -34 -65t-73 -37z" />
    <glyph glyph-name="ccircumflex" unicode="&#x109;" horiz-adv-x="931" 
d="M819 899q58 -44 58 -113q0 -58 -38 -108q-37 -49 -98 -49q-30 0 -96 22q-35 15 -82 15q-72 0 -123 -65t-51 -142q0 -80 55 -132q56 -53 131 -53q43 0 109 33q52 25 86 25q55 0 92 -51q37 -50 37 -115q0 -70 -61 -109q-110 -77 -285 -77q-239 0 -366 140
q-128 142 -128 314q0 210 146 370q145 159 366 159q146 0 248 -64zM752 1065q-39 -5 -80 33q-76 70 -125 127q-80 -91 -115 -123q-39 -39 -88 -39q-35 0 -72 34q-36 33 -36 68q0 42 26 74q26 33 172 191q41 47 115 47q61 0 106 -45q88 -88 176 -193q27 -33 27 -72
q0 -28 -34 -65t-72 -37z" />
    <glyph glyph-name="Cdotaccent" unicode="&#x10a;" horiz-adv-x="1251" 
d="M1061 1352q61 -27 93 -62q31 -34 30 -94q-1 -71 -37 -116q-35 -44 -105 -44q-42 0 -112 29q-87 35 -187 35q-135 0 -234 -116q-100 -116 -101 -302q-1 -172 106 -275q109 -105 238 -106q88 -2 198 41q78 41 119 39q66 0 101 -56q36 -56 34 -126q-2 -87 -151 -153
q-151 -66 -332 -62q-123 1 -243 50q-118 48 -212 133t-148 218q-54 132 -52 293q5 220 108 388q105 172 261 257q158 86 327 82q187 -5 299 -53zM737 1485q-82 0 -133 58t-39 140q8 66 65 107q58 41 122 41q84 0 130 -48q46 -47 46 -122q0 -83 -53 -130q-52 -46 -138 -46z
" />
    <glyph glyph-name="cdotaccent" unicode="&#x10b;" horiz-adv-x="931" 
d="M819 899q58 -44 58 -113q0 -58 -38 -108q-37 -49 -98 -49q-30 0 -96 22q-35 15 -82 15q-72 0 -123 -65t-51 -142q0 -80 55 -132q56 -53 131 -53q43 0 109 33q52 25 86 25q55 0 92 -51q37 -50 37 -115q0 -70 -61 -109q-110 -77 -285 -77q-239 0 -366 140
q-128 142 -128 314q0 210 146 370q145 159 366 159q146 0 248 -64zM539 1096q-82 0 -133 58t-39 140q8 67 64 107q58 41 122 41q83 0 130 -48q46 -47 46 -122q0 -83 -53 -130q-52 -46 -137 -46z" />
    <glyph glyph-name="Ccaron" unicode="&#x10c;" horiz-adv-x="1251" 
d="M1061 1352q61 -27 93 -62q31 -34 30 -94q-1 -71 -37 -116q-35 -44 -105 -44q-42 0 -112 29q-87 35 -187 35q-135 0 -234 -116q-100 -116 -101 -302q-1 -172 106 -275q109 -105 238 -106q88 -2 198 41q78 41 119 39q66 0 101 -56q36 -56 34 -126q-2 -87 -151 -153
q-151 -66 -332 -62q-123 1 -243 50q-118 48 -212 133t-148 218q-54 132 -52 293q5 220 108 388q105 172 261 257q158 86 327 82q187 -5 299 -53zM543 1860q41 0 78 -33q72 -66 124 -127q80 91 115 123q39 39 88 39q35 0 72 -34t37 -69q0 -40 -27 -73q-26 -33 -172 -191
q-39 -45 -115 -45q-63 0 -106 43q-88 88 -176 193q-27 33 -27 73q0 31 35 66t74 35z" />
    <glyph glyph-name="ccaron" unicode="&#x10d;" horiz-adv-x="931" 
d="M819 899q58 -44 58 -113q0 -58 -38 -108q-37 -49 -98 -49q-30 0 -96 22q-35 15 -82 15q-72 0 -123 -65t-51 -142q0 -80 55 -132q56 -53 131 -53q43 0 109 33q52 25 86 25q55 0 92 -51q37 -50 37 -115q0 -70 -61 -109q-110 -77 -285 -77q-239 0 -366 140
q-128 142 -128 314q0 210 146 370q145 159 366 159q146 0 248 -64zM344 1470q42 0 78 -32q76 -70 125 -127q80 91 115 123q39 39 88 39q34 0 71 -34t37 -69q0 -41 -27 -74q-20 -25 -172 -190q-39 -45 -114 -45q-64 0 -107 43q-93 93 -176 192q-26 32 -26 74q0 32 34 66
t74 34z" />
    <glyph glyph-name="Dcaron" unicode="&#x10e;" horiz-adv-x="1417" 
d="M131 1217q0 55 25 96q23 38 71 55q49 17 90 23q43 6 103 6q46 0 93 1t83 1q321 0 539 -172q219 -173 219 -482q0 -737 -785 -743q-264 0 -309 6q-47 6 -87 49t-40 99v366zM600 1096q-59 0 -121 -2v-736q0 -12 1 -17q2 -7 3 -12q1 -1 2 -5t2 -5q1 -4 8 -6q6 -2 7 -3l10 -2
q5 -1 11 -1h15h15q459 0 459 414q0 185 -119 280t-293 95zM500 1860q40 0 78 -33q72 -66 124 -127q80 91 115 123q39 39 88 39q35 0 72 -34t37 -69q0 -41 -27 -74q-20 -25 -172 -190q-39 -45 -115 -45q-63 0 -106 43q-93 93 -176 192q-27 33 -27 74q0 31 35 66t74 35z" />
    <glyph glyph-name="dcaron" unicode="&#x10f;" horiz-adv-x="1470" 
d="M1272 1217q-38 6 -64 38t-26 88q-2 63 43 106q46 44 104 44q75 0 122 -46q48 -46 48 -128q0 -87 -49 -164q-50 -79 -125 -123q-24 -18 -53 -18q-28 0 -52 21t-24 48q0 35 25 58q51 47 51 73v3zM1096 1337l-6 -417q0 -126 -1 -226q-2 -200 -2 -233q0 -5 0.5 -41t2 -120
t2.5 -173q0 -67 -43 -101t-117 -34q-112 0 -139 84l-15 47q-90 -137 -256 -137q-217 0 -339 134t-122 326q0 217 140 365q139 147 354 147q131 0 199 -81v448q0 81 44 125q43 43 120 43q86 0 133 -36t45 -120zM399 457q0 -76 52 -133q51 -56 124 -56q85 0 138 55t53 144
q0 99 -51 151q-52 54 -129 54q-84 0 -135 -57q-52 -58 -52 -158z" />
    <glyph glyph-name="Dcroat" unicode="&#x110;" horiz-adv-x="1425" 
d="M139 1217q0 55 25 96q23 38 72 55t90 23q43 6 102 6q46 0 93 1t83 1q321 0 539 -172q219 -173 219 -482q0 -737 -784 -743q-265 0 -310 6q-47 6 -87 49t-40 99v376h-20q-135 0 -135 146q0 147 135 147h18v392zM608 1096q-59 0 -121 -2v-269h99q135 0 135 -149
q0 -146 -156 -146h-78v-172q0 -12 1 -17l4 -12q0 -1 2 -5t2 -5q1 -4 7 -6t7 -3l10 -2q5 -1 11 -1h15h15q459 0 459 414q0 185 -119 280t-293 95z" />
    <glyph glyph-name="dcroat" unicode="&#x111;" horiz-adv-x="1200" 
d="M1090 1341v-45h32q127 0 127 -131q0 -129 -139 -129h-20v-116q0 -110 -1 -197q-2 -174 -2 -197v-65q0 -5 0.5 -41t2 -120t2.5 -173q0 -68 -43 -102q-44 -35 -117 -35q-112 0 -139 86l-15 47q-90 -137 -256 -137q-217 0 -339 134t-122 326q0 217 140 365q139 147 354 147
q131 0 199 -81v159h-90q-63 0 -101 33q-37 33 -37 98q0 129 140 129h88v41q0 148 176 148q74 0 117 -39t43 -105zM399 457q0 -76 52 -133q51 -56 124 -56q85 0 138 55t53 144q0 99 -51 151q-52 54 -129 54q-84 0 -135 -57q-52 -58 -52 -158z" />
    <glyph glyph-name="Emacron" unicode="&#x112;" 
d="M141 1247q5 69 50 107q47 39 116 39q58 0 74 -2q203 0 282 1q31 0 69.5 0.5t64 1t42.5 0.5q39 1 76 1q62 0 98 -38q37 -38 38 -93q5 -125 -80 -152q-22 -8 -436 -8h-54v-88l-4 -182v-3h47q15 0 65 1.5t85 1.5q29 0 59 0.5t46 1t22 0.5q90 0 132 -27t40 -119
q-5 -141 -142 -141h-360q-2 -40 -2 -98q0 -43 1 -78t1 -78q143 -2 320 2q113 4 151 4q129 0 129 -149q0 -148 -137 -156h-576q-118 0 -168 30t-57 111q-4 33 -4 62q0 2 0.5 13.5t1 36.5t0.5 52q0 28 1 65t2 89t2 88q3 147 3 256q0 125 1 224t1 224zM449 1520q-70 0 -104 35
t-34 90q0 58 34 93q35 36 99 36q37 0 72 -1t78 -1q12 0 108 2t121 2q127 0 127 -129q0 -60 -41 -93q-39 -32 -116 -32h-170q-50 0 -89 -1t-85 -1z" />
    <glyph glyph-name="emacron" unicode="&#x113;" horiz-adv-x="1054" 
d="M401 387q10 -55 61 -87q50 -32 105 -32q83 0 148 37q53 29 104 29q55 0 94 -47q39 -46 39 -111q0 -79 -75 -123q-117 -71 -330 -71q-204 0 -344 136q-142 137 -142 331q0 222 143 368t351 146q190 0 314 -118t124 -272q0 -98 -34 -138q-35 -41 -132 -42q-32 0 -67 -1
q-51 -1 -151 -3q-130 -2 -208 -2zM551 702q-62 0 -104 -36q-43 -38 -48 -84q8 0 254 6q25 0 25 10q0 45 -37 75q-36 29 -90 29zM375 1130q-69 0 -104 36q-33 34 -33 89q0 60 33 94q34 35 100 35q36 0 71 -1t78 -1q13 0 109 2t121 2q127 0 127 -129q0 -59 -41 -92
q-39 -32 -117 -32h-170q-50 0 -89 -1q-78 -2 -85 -2z" />
    <glyph glyph-name="Ebreve" unicode="&#x114;" 
d="M141 1247q5 69 50 107q47 39 116 39q58 0 74 -2q203 0 282 1q31 0 69.5 0.5t64 1t42.5 0.5q39 1 76 1q62 0 98 -38q37 -38 38 -93q5 -125 -80 -152q-22 -8 -436 -8h-54v-88l-4 -182v-3h47q15 0 65 1.5t85 1.5q29 0 59 0.5t46 1t22 0.5q90 0 132 -27t40 -119
q-5 -141 -142 -141h-360q-2 -40 -2 -98q0 -43 1 -78t1 -78q143 -2 320 2q113 4 151 4q129 0 129 -149q0 -148 -137 -156h-576q-118 0 -168 30t-57 111q-4 33 -4 62q0 2 0.5 13.5t1 36.5t0.5 52q0 28 1 65t2 89t2 88q3 147 3 256q0 125 1 224t1 224zM823 1833q48 0 78 -28
q29 -27 29 -64q0 -129 -84 -212q-85 -83 -225 -83q-119 0 -207 76t-92 196q-2 46 29 79q31 34 79 34q44 0 71 -24t31 -58q6 -38 30 -62t56 -24q39 0 67 26t32 60q5 35 32 59q28 25 74 25z" />
    <glyph glyph-name="ebreve" unicode="&#x115;" horiz-adv-x="1054" 
d="M401 387q10 -55 61 -87q50 -32 105 -32q83 0 148 37q53 29 104 29q55 0 94 -47q39 -46 39 -111q0 -79 -75 -123q-117 -71 -330 -71q-204 0 -344 136q-142 137 -142 331q0 222 143 368t351 146q190 0 314 -118t124 -272q0 -98 -34 -138q-35 -41 -132 -42q-32 0 -67 -1
q-51 -1 -151 -3q-130 -2 -208 -2zM551 702q-62 0 -104 -36q-43 -38 -48 -84q8 0 254 6q25 0 25 10q0 45 -37 75q-36 29 -90 29zM750 1444q47 0 77 -28q29 -27 29 -64q0 -130 -84 -212q-85 -83 -225 -83q-119 0 -207 76t-92 196q-1 45 30 79t78 34q44 0 71 -24q28 -25 32 -58
q6 -40 29 -63t57 -23q40 0 66 25q27 26 32 61t32 59q28 25 75 25z" />
    <glyph glyph-name="Edotaccent" unicode="&#x116;" 
d="M141 1247q5 69 50 107q47 39 116 39q58 0 74 -2q203 0 282 1q31 0 69.5 0.5t64 1t42.5 0.5q39 1 76 1q62 0 98 -38q37 -38 38 -93q5 -125 -80 -152q-22 -8 -436 -8h-54v-88l-4 -182v-3h47q15 0 65 1.5t85 1.5q29 0 59 0.5t46 1t22 0.5q90 0 132 -27t40 -119
q-5 -141 -142 -141h-360q-2 -40 -2 -98q0 -43 1 -78t1 -78q143 -2 320 2q113 4 151 4q129 0 129 -149q0 -148 -137 -156h-576q-118 0 -168 30t-57 111q-4 33 -4 62q0 2 0.5 13.5t1 36.5t0.5 52q0 28 1 65t2 89t2 88q3 147 3 256q0 125 1 224t1 224zM614 1485q-82 0 -133 58
t-39 140q8 66 65 107q58 41 122 41q83 0 130 -48q46 -47 46 -122q0 -83 -53 -130q-52 -46 -138 -46z" />
    <glyph glyph-name="edotaccent" unicode="&#x117;" horiz-adv-x="1054" 
d="M401 387q10 -55 61 -87q50 -32 105 -32q83 0 148 37q53 29 104 29q55 0 94 -47q39 -46 39 -111q0 -79 -75 -123q-117 -71 -330 -71q-204 0 -344 136q-142 137 -142 331q0 222 143 368t351 146q190 0 314 -118t124 -272q0 -98 -34 -138q-35 -41 -132 -42q-32 0 -67 -1
q-51 -1 -151 -3q-130 -2 -208 -2zM551 702q-62 0 -104 -36q-43 -38 -48 -84q8 0 254 6q25 0 25 10q0 45 -37 75q-36 29 -90 29zM541 1096q-82 0 -133 58t-39 140q8 67 64 107q58 41 122 41q83 0 130 -48q46 -47 46 -122q0 -83 -53 -130q-52 -46 -137 -46z" />
    <glyph glyph-name="Eogonek" unicode="&#x118;" 
d="M842 -184q0 -56 55 -56q10 0 30 2t31 2q82 0 82 -116q0 -92 -100 -119q-29 -8 -68 -8q-113 0 -187 55q-75 56 -75 176q0 145 140 244h-392q-118 0 -168 30t-57 111q-4 13 -4 62q0 2 0.5 13.5t1 36.5t0.5 52q0 28 1 65t2 89t2 88q3 147 3 256q0 125 1 224t1 224
q6 67 52 107q45 39 114 39q58 0 74 -2q203 0 282 1q31 0 69.5 0.5t64 1t42.5 0.5q39 1 76 1q62 0 98 -38q37 -38 38 -93q5 -125 -80 -152q-24 -8 -439 -8h-53q0 -18 -0.5 -52.5t-1 -98.5t-0.5 -119v-3h47q20 0 76 1.5t88 1.5q142 2 150 2q67 0 102 -32t35 -114
q0 -141 -162 -141h-340v-254q125 0 227 1t242 1q129 0 129 -145q0 -133 -106 -154q-60 -33 -92 -83q-31 -49 -31 -99z" />
    <glyph glyph-name="eogonek" unicode="&#x119;" horiz-adv-x="1054" 
d="M401 387q10 -55 61 -87q50 -32 105 -32q83 0 148 37q53 29 104 29q55 0 94 -47q39 -46 39 -111q0 -74 -75 -123q-172 -112 -172 -237q0 -56 55 -56q13 0 28 3q20 4 31 4q39 0 62 -33q22 -32 22 -86q0 -59 -46 -93t-122 -34q-114 0 -187 53t-73 174q0 134 127 236
q-24 -2 -55 -2q-204 0 -344 136q-142 137 -142 331q0 222 143 368t351 146q190 0 314 -118t124 -272q0 -98 -34 -138q-35 -41 -132 -42q-32 0 -67 -1q-51 -1 -151 -3q-130 -2 -208 -2zM551 702q-62 0 -104 -36q-43 -38 -48 -84q8 0 254 6q25 0 25 10q0 45 -37 75
q-36 29 -90 29z" />
    <glyph glyph-name="Ecaron" unicode="&#x11a;" 
d="M141 1247q5 69 50 107q47 39 116 39q58 0 74 -2q203 0 282 1q31 0 69.5 0.5t64 1t42.5 0.5q39 1 76 1q62 0 98 -38q37 -38 38 -93q5 -125 -80 -152q-22 -8 -436 -8h-54v-88l-4 -182v-3h47q15 0 65 1.5t85 1.5q29 0 59 0.5t46 1t22 0.5q90 0 132 -27t40 -119
q-5 -141 -142 -141h-360q-2 -40 -2 -98q0 -43 1 -78t1 -78q143 -2 320 2q113 4 151 4q129 0 129 -149q0 -148 -137 -156h-576q-118 0 -168 30t-57 111q-4 33 -4 62q0 2 0.5 13.5t1 36.5t0.5 52q0 28 1 65t2 89t2 88q3 147 3 256q0 125 1 224t1 224zM420 1860q40 0 78 -33
q76 -70 125 -127q84 96 114 123q39 39 88 39q35 0 72 -34t37 -69q0 -40 -27 -73q-26 -33 -172 -191q-39 -45 -114 -45q-64 0 -107 43q-88 88 -176 193q-27 33 -27 73q0 31 35 66t74 35z" />
    <glyph glyph-name="ecaron" unicode="&#x11b;" horiz-adv-x="1054" 
d="M401 387q10 -55 61 -87q50 -32 105 -32q83 0 148 37q53 29 104 29q55 0 94 -47q39 -46 39 -111q0 -79 -75 -123q-117 -71 -330 -71q-204 0 -344 136q-142 137 -142 331q0 222 143 368t351 146q190 0 314 -118t124 -272q0 -98 -34 -138q-35 -41 -132 -42q-32 0 -67 -1
q-51 -1 -151 -3q-130 -2 -208 -2zM551 702q-62 0 -104 -36q-43 -38 -48 -84q8 0 254 6q25 0 25 10q0 45 -37 75q-36 29 -90 29zM346 1470q42 0 78 -32q76 -70 125 -127q80 91 115 123q39 39 88 39q34 0 71 -34t37 -69q0 -42 -26 -74q-20 -25 -172 -190q-39 -45 -115 -45
q-64 0 -107 43q-93 93 -176 192q-26 32 -26 74q0 32 34 66t74 34z" />
    <glyph glyph-name="Gcircumflex" unicode="&#x11c;" horiz-adv-x="1470" 
d="M793 1413q215 0 372 -88q109 -62 109 -141q0 -60 -38 -110t-97 -50q-63 0 -142 43q-94 49 -206 49q-149 0 -261 -114q-112 -113 -112 -285q0 -197 98 -310q99 -114 262 -114q133 0 206 73t77 166h-115q-65 0 -101 39t-36 105q0 141 147 141h267q103 0 140 -56
q38 -58 38 -163q-1 -269 -173 -442q-171 -172 -493 -172q-275 0 -468 201q-193 200 -193 513q0 309 212 512t507 203zM993 1454q-39 -5 -80 33q-76 70 -125 127q-84 -96 -114 -123q-39 -39 -88 -39q-35 0 -72 34t-37 68q0 41 27 74q26 33 172 191q41 47 115 47q61 0 106 -45
q88 -88 176 -193q27 -33 27 -72q0 -28 -34 -65t-73 -37z" />
    <glyph glyph-name="gcircumflex" unicode="&#x11d;" horiz-adv-x="1183" 
d="M539 -168q71 0 135 47q63 46 63 115v80q-29 -38 -88 -66q-55 -26 -121 -26q-207 0 -337 139t-130 338q0 212 134 357t340 145q143 0 223 -109l4 14q11 41 52 64q42 24 104 24q69 0 113 -41t44 -104q0 -45 -2 -299t-2 -301l4 -221q5 -193 -147 -334t-377 -141
q-196 0 -301 57q-92 50 -92 147q0 67 42 116q42 50 101 50q24 0 94 -22q87 -29 144 -29zM399 467q0 -84 51 -138q50 -53 125 -53q68 0 121 51q52 50 52 148q0 96 -51 147q-50 50 -117 50q-80 0 -130 -55q-51 -56 -51 -150zM803 1065q-39 -5 -80 33q-76 70 -125 127
q-80 -91 -115 -123q-39 -39 -88 -39q-34 0 -71 34t-37 68q0 42 26 74q26 33 172 191q41 47 115 47q62 0 107 -45q88 -88 176 -193q26 -32 26 -72q0 -29 -33 -65q-34 -37 -73 -37z" />
    <glyph glyph-name="Gbreve" unicode="&#x11e;" horiz-adv-x="1470" 
d="M793 1413q215 0 372 -88q109 -62 109 -141q0 -60 -38 -110t-97 -50q-63 0 -142 43q-94 49 -206 49q-149 0 -261 -114q-112 -113 -112 -285q0 -197 98 -310q99 -114 262 -114q133 0 206 73t77 166h-115q-65 0 -101 39t-36 105q0 141 147 141h267q103 0 140 -56
q38 -58 38 -163q-1 -269 -173 -442q-171 -172 -493 -172q-275 0 -468 201q-193 200 -193 513q0 309 212 512t507 203zM989 1833q48 0 78 -28q29 -27 29 -64q0 -129 -84 -212q-85 -83 -226 -83q-118 0 -206 76q-89 77 -93 196q-1 45 30 79t79 34q44 0 71 -24t31 -58
q6 -38 30 -62t56 -24q39 0 67 26t32 60q5 36 31 59q28 25 75 25z" />
    <glyph glyph-name="gbreve" unicode="&#x11f;" horiz-adv-x="1183" 
d="M539 -168q71 0 135 47q63 46 63 115v80q-29 -38 -88 -66q-55 -26 -121 -26q-207 0 -337 139t-130 338q0 212 134 357t340 145q143 0 223 -109l4 14q11 41 52 64q42 24 104 24q69 0 113 -41t44 -104q0 -45 -2 -299t-2 -301l4 -221q5 -193 -147 -334t-377 -141
q-196 0 -301 57q-92 50 -92 147q0 67 42 116q42 50 101 50q24 0 94 -22q87 -29 144 -29zM399 467q0 -84 51 -138q50 -53 125 -53q68 0 121 51q52 50 52 148q0 96 -51 147q-50 50 -117 50q-80 0 -130 -55q-51 -56 -51 -150zM799 1444q48 0 78 -28q28 -27 28 -64
q0 -130 -84 -212q-85 -83 -225 -83q-119 0 -207 76t-92 196q-1 45 30 79t79 34q43 0 70 -24q28 -25 32 -58q6 -39 30 -63q23 -23 56 -23q40 0 66 25q27 26 32 61t32 59q28 25 75 25z" />
    <glyph glyph-name="Gdotaccent" unicode="&#x120;" horiz-adv-x="1470" 
d="M793 1413q215 0 372 -88q109 -62 109 -141q0 -60 -38 -110t-97 -50q-63 0 -142 43q-94 49 -206 49q-149 0 -261 -114q-112 -113 -112 -285q0 -197 98 -310q99 -114 262 -114q133 0 206 73t77 166h-115q-65 0 -101 39t-36 105q0 141 147 141h267q103 0 140 -56
q38 -58 38 -163q-1 -269 -173 -442q-171 -172 -493 -172q-275 0 -468 201q-193 200 -193 513q0 309 212 512t507 203zM780 1485q-82 0 -133 58t-39 140q8 66 65 107q58 41 122 41q83 0 130 -48q46 -47 46 -122q0 -83 -53 -130q-52 -46 -138 -46z" />
    <glyph glyph-name="gdotaccent" unicode="&#x121;" horiz-adv-x="1183" 
d="M539 -168q71 0 135 47q63 46 63 115v80q-29 -38 -88 -66q-55 -26 -121 -26q-207 0 -337 139t-130 338q0 212 134 357t340 145q143 0 223 -109l4 14q11 41 52 64q42 24 104 24q69 0 113 -41t44 -104q0 -45 -2 -299t-2 -301l4 -221q5 -193 -147 -334t-377 -141
q-196 0 -301 57q-92 50 -92 147q0 67 42 116q42 50 101 50q24 0 94 -22q87 -29 144 -29zM399 467q0 -84 51 -138q50 -53 125 -53q68 0 121 51q52 50 52 148q0 96 -51 147q-50 50 -117 50q-80 0 -130 -55q-51 -56 -51 -150zM588 1096q-82 0 -133 58t-39 140q8 67 64 107
q58 41 122 41q84 0 130 -48q46 -47 46 -122q0 -83 -53 -130q-52 -46 -137 -46z" />
    <glyph glyph-name="Gcommaaccent" unicode="&#x122;" horiz-adv-x="1470" 
d="M793 1413q215 0 372 -88q109 -62 109 -141q0 -60 -38 -110t-97 -50q-63 0 -142 43q-94 49 -206 49q-149 0 -261 -114q-112 -113 -112 -285q0 -197 98 -310q99 -114 262 -114q133 0 206 73t77 166h-115q-65 0 -101 39t-36 105q0 141 147 141h267q103 0 140 -56
q38 -58 38 -163q-1 -269 -173 -442q-171 -172 -493 -172q-275 0 -468 201q-193 200 -193 513q0 309 212 512t507 203zM582 -426q0 30 61 82q15 28 3 40q-13 13 -33 40q-21 29 -21 59q0 53 41 92t100 39q64 0 107 -36t43 -101q0 -66 -29 -119q-30 -55 -56 -78
q-19 -17 -79 -61q-26 -20 -70 -20q-27 0 -47 17t-20 46z" />
    <glyph glyph-name="gcommaaccent" unicode="&#x123;" horiz-adv-x="1183" 
d="M698 1397q0 -15 -27 -50q-29 -37 -30 -55q0 -10 26 -42q25 -31 25 -74q0 -54 -41 -93t-102 -39q-63 0 -107 36q-43 36 -43 102t30 120q29 52 57 77q19 17 79 61q23 20 68 20q28 0 46 -17q19 -18 19 -46zM539 -168q71 0 135 47q63 46 63 115v80q-29 -38 -88 -66
q-55 -26 -121 -26q-207 0 -337 139t-130 338q0 212 134 357t340 145q143 0 223 -109l4 14q11 41 52 64q42 24 104 24q69 0 113 -41t44 -104q0 -45 -2 -299t-2 -301l4 -221q5 -193 -147 -334t-377 -141q-196 0 -301 57q-92 50 -92 147q0 67 42 116q42 50 101 50q24 0 94 -22
q87 -29 144 -29zM399 467q0 -84 51 -138q50 -53 125 -53q68 0 121 51q52 50 52 148q0 96 -51 147q-50 50 -117 50q-80 0 -130 -55q-51 -56 -51 -150z" />
    <glyph glyph-name="Hcircumflex" unicode="&#x124;" horiz-adv-x="1458" 
d="M1319 692l8 -555q1 -79 -44 -113q-46 -34 -136 -34q-79 0 -126 36q-46 35 -44 109v135l-2 250h-496l2 -399q0 -131 -182 -131q-166 0 -166 137q0 77 3 319q3 220 1 375l-8 428q-1 76 43 113t135 37q74 0 122 -31q46 -30 48 -94v-447q39 0 70 -1t67 -1q77 0 149 1t150 1
l64 2q0 156 -1 250t-1 189q6 133 178 133q77 0 124 -38q46 -37 46 -108q0 -306 -4 -563zM930 1454q-39 -5 -80 33q-76 70 -125 127q-80 -91 -115 -123q-39 -39 -88 -39q-34 0 -71 34t-37 68q0 42 26 74q26 33 172 191q41 47 115 47q62 0 107 -45q88 -88 176 -193
q26 -32 26 -72q0 -28 -34 -65t-72 -37z" />
    <glyph glyph-name="hcircumflex" unicode="&#x125;" horiz-adv-x="1167" 
d="M119 1331q0 164 174 164q77 0 121 -39q43 -39 43 -108q0 -10 -6 -496q30 50 97 81q66 30 134 30q189 0 285 -117t96 -309q0 -290 -2 -408q-1 -65 -52 -100q-50 -35 -130 -35q-70 0 -118 36q-47 36 -46 103q0 2 5 185t5 194q0 77 -34 117q-35 41 -95 41q-58 0 -101 -45
q-44 -46 -44 -125q0 -109 1 -191t1 -188q0 -64 -50 -99q-49 -34 -127 -34q-70 0 -116 36q-47 36 -47 105q0 29 3 129t3 133v940zM485 1505q-39 -4 -79 33q-76 70 -125 127q-80 -91 -115 -123q-39 -39 -88 -39q-35 0 -72 34t-37 69q0 40 27 73q26 33 172 191q41 47 115 47
q61 0 106 -45q88 -88 176 -193q27 -33 27 -71q0 -29 -34 -66t-73 -37z" />
    <glyph glyph-name="Hbar" unicode="&#x126;" horiz-adv-x="1458" 
d="M1319 692l8 -555q1 -79 -44 -113q-46 -34 -136 -34q-82 0 -127 36q-44 36 -43 109v135q0 69 -1 125t-1 125h-496q0 -109 1 -198t1 -201q0 -131 -182 -131q-166 0 -166 137v745v89h-24q-107 0 -107 112q0 56 32 83q33 28 83 28h16v65q0 154 174 154q77 0 124 -35
q46 -34 46 -100v-84h502v69q0 75 46 112q47 38 128 38q166 0 166 -150v-69h27q112 0 112 -107q0 -116 -115 -116h-24v-269zM477 827h500v134h-500v-134z" />
    <glyph glyph-name="hbar" unicode="&#x127;" horiz-adv-x="1167" 
d="M119 1331q0 164 174 164q77 0 121 -39q43 -39 43 -108v-70h75q123 0 123 -119q0 -115 -139 -115h-63q-2 -74 -2 -192q30 50 97 81q66 30 134 30q189 0 285 -117t96 -309q0 -290 -2 -408q-1 -65 -52 -100q-50 -35 -130 -35q-70 0 -118 36q-47 36 -46 103q0 2 5 185t5 194
q0 77 -34 117q-35 41 -95 41q-58 0 -101 -45q-44 -46 -44 -125q0 -109 1 -191t1 -188q0 -64 -50 -99q-49 -34 -127 -34q-70 0 -116 36q-47 36 -47 105q0 29 3 129t3 133v653h-29q-121 0 -121 113q0 121 117 121h33v53z" />
    <glyph glyph-name="Itilde" unicode="&#x128;" horiz-adv-x="636" 
d="M150 874q0 115 -3 373q-1 81 50 119q50 37 127 37q72 0 118 -36q47 -36 47 -101q0 -62 3 -473q0 -12 -2 -114q-1 -51 -1 -120v-82l3 -342q1 -71 -50 -107t-125 -36q-77 0 -127 41q-49 40 -47 117q0 41 1 86t1 100zM172 1542q-4 -26 -30 -47q-24 -20 -70 -20q-44 0 -79 30
q-34 30 -36 92q6 95 65 153q57 56 154 56q60 0 104 -27q38 -24 74 -56q30 -27 56 -29q36 0 41 39q10 73 106 73q42 0 74 -29q33 -30 33 -75q0 -113 -59 -174q-59 -60 -154 -60q-71 0 -140 55q-68 55 -96 56q-18 0 -29 -11q-13 -13 -14 -26z" />
    <glyph glyph-name="itilde" unicode="&#x129;" horiz-adv-x="563" 
d="M113 819q1 71 51 106q47 33 112 33q174 0 175 -135v-226v-226l2 -236q1 -71 -47 -108q-49 -37 -123 -37q-71 0 -121 32q-49 31 -49 93v704zM133 1153q-4 -26 -30 -47t-70 -21q-43 0 -79 31q-34 30 -36 92q6 95 65 153q57 56 154 56q60 0 104 -27q38 -24 74 -56
q30 -27 56 -29q37 0 41 38q11 74 106 74q42 0 74 -29q33 -30 33 -75q0 -113 -59 -174q-58 -60 -154 -60q-71 0 -140 55q-68 55 -96 56q-18 0 -29 -11q-13 -13 -14 -26z" />
    <glyph glyph-name="Imacron" unicode="&#x12a;" horiz-adv-x="636" 
d="M150 874q0 115 -3 373q-1 81 50 119q50 37 127 37q72 0 118 -36q47 -36 47 -101q0 -62 3 -473q0 -12 -2 -114q-1 -51 -1 -120v-82l3 -342q1 -71 -50 -107t-125 -36q-77 0 -127 41q-49 40 -47 117q0 41 1 86t1 100zM152 1520q-70 0 -104 35t-34 90q0 58 34 93q34 36 99 36
q37 0 72 -1t78 -1q17 0 109 2t120 2q127 0 127 -129q0 -60 -41 -93q-39 -32 -116 -32h-170q-50 0 -89 -1t-85 -1z" />
    <glyph glyph-name="imacron" unicode="&#x12b;" horiz-adv-x="563" 
d="M113 819q1 71 51 106q47 33 112 33q174 0 175 -135v-226v-226l2 -236q1 -71 -47 -108q-49 -37 -123 -37q-71 0 -121 32q-49 31 -49 93v704zM113 1130q-69 0 -104 36q-34 35 -34 89q0 59 34 94t100 35q36 0 71 -1t78 -1q13 0 109 2t120 2q127 0 127 -129q0 -59 -41 -92
q-39 -32 -116 -32h-170q-50 0 -89 -1q-78 -2 -85 -2z" />
    <glyph glyph-name="Ibreve" unicode="&#x12c;" horiz-adv-x="636" 
d="M150 874q0 115 -3 373q-1 81 50 119q50 37 127 37q72 0 118 -36q47 -36 47 -101q0 -62 3 -473q0 -12 -2 -114q-1 -51 -1 -120v-82l3 -342q1 -71 -50 -107t-125 -36q-77 0 -127 41q-49 40 -47 117q0 41 1 86t1 100zM526 1833q48 0 78 -28q29 -27 29 -64q0 -129 -84 -212
q-85 -83 -225 -83q-119 0 -207 76t-92 196q-2 46 29 79q31 34 79 34q44 0 71 -24q28 -25 32 -58q6 -39 29 -62q24 -24 57 -24q38 0 66 26t32 60q5 35 32 59q28 25 74 25z" />
    <glyph glyph-name="ibreve" unicode="&#x12d;" horiz-adv-x="563" 
d="M113 819q1 71 51 106q47 33 112 33q174 0 175 -135v-226v-226l2 -236q1 -71 -47 -108q-49 -37 -123 -37q-71 0 -121 32q-49 31 -49 93v704zM487 1444q48 0 78 -28q29 -27 29 -64q0 -130 -84 -212q-85 -83 -225 -83q-119 0 -207 76t-92 196q-2 46 29 79q31 34 79 34
q44 0 71 -24q28 -25 32 -58q6 -40 29 -63t57 -23q40 0 66 25q27 26 32 61t32 59q28 25 74 25z" />
    <glyph glyph-name="Iogonek" unicode="&#x12e;" horiz-adv-x="636" 
d="M150 874q0 115 -3 373q-1 81 50 119q50 37 127 37q66 0 115 -36q50 -36 50 -101q0 -81 1 -164q2 -166 2 -211v-98q0 -12 -2 -114q-1 -51 -1 -120v-82q0 -95 1 -171q2 -152 2 -171q0 -80 -66 -119q-131 -111 -131 -200q0 -56 55 -56q14 0 29 3q20 4 31 4q38 0 61 -33
q23 -34 23 -86q0 -58 -47 -93q-46 -34 -121 -34q-115 0 -188 53q-72 52 -72 174q0 154 155 264q-78 38 -78 138q0 21 1 60t1 126q0 31 2 269q0 55 1.5 146t1.5 123z" />
    <glyph glyph-name="iogonek" unicode="&#x12f;" horiz-adv-x="571" 
d="M117 819q1 71 51 106q47 33 113 33q173 0 174 -135v-226v-226l2 -236q0 -77 -70 -123q-127 -112 -127 -196q0 -56 55 -56q14 0 29 3q20 4 31 4q39 0 61 -33q23 -34 23 -86q0 -59 -46 -93t-122 -34q-115 0 -188 53q-72 52 -72 174q0 141 164 258q-78 33 -78 109v704z
M276 1124q-89 0 -142 64q-52 63 -36 153q12 69 73 109q60 39 124 39q90 0 140 -53t50 -131q0 -89 -59 -135t-150 -46z" />
    <glyph glyph-name="Idotaccent" unicode="&#x130;" horiz-adv-x="636" 
d="M150 874q0 115 -3 373q-1 81 50 119q50 37 127 37q72 0 118 -36q47 -36 47 -101q0 -62 3 -473q0 -12 -2 -114q-1 -51 -1 -120v-82l3 -342q1 -71 -50 -107t-125 -36q-77 0 -127 41q-49 40 -47 117q0 41 1 86t1 100zM317 1485q-82 0 -133 58t-39 140q8 66 65 107
q58 41 122 41q84 0 130 -48q46 -47 46 -122q0 -83 -53 -130q-52 -46 -138 -46z" />
    <glyph glyph-name="dotlessi" unicode="&#x131;" horiz-adv-x="563" 
d="M113 819q1 71 51 106q47 33 112 33q174 0 175 -135v-226v-226l2 -236q1 -71 -47 -108q-49 -37 -123 -37q-71 0 -121 32q-49 31 -49 93v704z" />
    <glyph glyph-name="IJ" unicode="&#x132;" horiz-adv-x="1650" 
d="M150 874q0 115 -3 373q-1 81 50 119q50 37 127 37q72 0 118 -36q47 -36 47 -101q0 -62 3 -473q0 -12 -2 -114q-1 -51 -1 -120v-82l3 -342q1 -71 -50 -107t-125 -36q-77 0 -127 41q-49 40 -47 117q0 41 1 86t1 100zM1167 676l-12 565q-2 73 47 119q50 47 127 47
q83 0 135 -41t52 -123q0 -25 2 -225t2 -244q0 -100 -4 -239q-8 -254 -127 -402q-119 -147 -373 -147q-185 0 -303 100q-74 66 -74 145q0 67 42 114q42 46 103 46q67 0 127 -45q55 -39 111 -39q82 0 114 93q31 92 31 276z" />
    <glyph glyph-name="ij" unicode="&#x133;" horiz-adv-x="1148" 
d="M117 819q1 71 51 106q47 33 113 33q173 0 174 -135v-226v-226l2 -236q1 -71 -47 -108q-49 -37 -123 -37q-71 0 -121 32q-49 31 -49 93v704zM276 1124q-89 0 -142 64q-52 63 -36 153q12 69 73 109q60 39 124 39q90 0 140 -53t50 -131q0 -89 -59 -135t-150 -46zM690 831
q0 58 53 93q52 34 125 34q72 0 118 -31t46 -98q0 -131 -1 -225t-1 -239q0 -86 1 -155t1 -192q0 -63 -2 -161q-4 -139 -123 -240t-280 -102q-252 -5 -252 178q0 66 35 110q34 43 84 43q16 0 52 -6q34 -6 58 -4q53 2 74 49q20 44 20 146q0 269 -4 489q-6 165 -4 311zM840 1108
q-87 0 -140 50t-53 140q0 89 61 139t146 50q94 0 148 -54q55 -55 55 -139q0 -186 -217 -186z" />
    <glyph glyph-name="Jcircumflex" unicode="&#x134;" horiz-adv-x="1013" 
d="M530 676l-12 565q-2 73 47 119q50 47 127 47q83 0 135 -41t52 -123q0 -25 2 -225t2 -244q0 -100 -4 -239q-8 -254 -127 -402q-118 -147 -373 -147q-185 0 -303 100q-74 66 -74 145q0 67 42 114q42 46 103 46q67 0 127 -45q56 -39 111 -39q83 0 114 93q31 92 31 276z
M903 1454q-39 -5 -80 33q-76 70 -125 127q-84 -96 -114 -123q-39 -39 -88 -39q-35 0 -72 34t-37 68q0 41 27 74q26 33 172 191q41 47 114 47q62 0 107 -45q88 -88 176 -193q27 -33 27 -72q0 -28 -34 -65t-73 -37z" />
    <glyph glyph-name="jcircumflex" unicode="&#x135;" horiz-adv-x="571" 
d="M115 831q0 58 53 93q52 34 125 34q72 0 118 -31t46 -98q0 -131 -1 -225t-1 -239q0 -86 1 -155t1 -192q0 -63 -2 -161q-5 -139 -123 -240q-118 -100 -281 -102q-252 -5 -252 178q0 66 35 110q34 43 84 43q16 0 52 -6q34 -6 59 -4q52 1 73 49q21 47 21 146q0 269 -4 489
q-6 165 -4 311zM496 1065q-39 -5 -80 33q-76 70 -125 127q-80 -91 -115 -123q-39 -39 -88 -39q-35 0 -72 34q-36 33 -36 68q0 42 26 74q26 33 172 191q41 47 115 47q61 0 106 -45q88 -88 176 -193q27 -33 27 -72q0 -28 -34 -65t-72 -37z" />
    <glyph glyph-name="Kcommaaccent" unicode="&#x136;" horiz-adv-x="1300" 
d="M477 844l389 467q74 90 152 90q64 0 122 -50q56 -49 56 -106q0 -70 -68 -147q-103 -118 -282 -295q-34 -34 -49 -53q124 -161 250 -304l131 -143q71 -77 71 -151q0 -68 -59 -117t-125 -49q-83 0 -139 75q-19 24 -76 99l-287 385q-34 -41 -48 -56q-35 -37 -42 -45l2 -313
q0 -139 -172 -143q-81 -2 -128 37q-48 39 -48 110q0 43 1 87t1 126q0 273 1 445t1 460q0 76 49 113t127 37q79 0 126 -38q46 -37 46 -108q0 -221 -2 -413zM498 -426q0 30 61 82q15 28 3 40q-13 13 -33 40q-21 29 -21 59q0 53 41 92t100 39q63 0 107 -36q43 -36 43 -101
q0 -66 -29 -119q-30 -55 -56 -78q-19 -17 -79 -61q-23 -20 -70 -20q-27 0 -47 17t-20 46z" />
    <glyph glyph-name="kcommaaccent" unicode="&#x137;" horiz-adv-x="1036" 
d="M723 512l242 -279q36 -43 36 -90q0 -55 -54 -105q-55 -50 -118 -50t-122 75l-215 281l-52 -47l-2 -168q-4 -139 -162 -139q-75 0 -121 40q-45 40 -44 111l4 197q0 8 -2 414q-2 305 0 485q0 30 -1 59t-1 60q0 63 52 100t118 37q75 0 122 -33q48 -34 48 -98q0 -52 -11 -721
l250 256q64 64 127 64q55 0 108 -53q52 -52 52 -105t-41 -94q-14 -14 -213 -197zM389 -426q0 29 62 82q15 28 3 40q-13 13 -33 40q-22 30 -22 59q0 53 41 92q40 39 101 39q63 0 106 -36t43 -101q0 -67 -28 -119q-29 -53 -57 -78q-19 -17 -79 -61q-23 -20 -69 -20
q-27 0 -47 17q-21 18 -21 46z" />
    <glyph glyph-name="kgreenlandic" unicode="&#x138;" horiz-adv-x="1036" 
d="M733 481l219 -237q49 -52 49 -103q0 -54 -53 -104q-52 -49 -117 -49t-124 75l-215 277h-52l-2 -211q-4 -139 -162 -139q-75 0 -121 40q-45 40 -44 111l2 211l-2 457q0 70 51 109q50 38 117 38q74 0 118 -35q45 -36 45 -106l-2 -178h43q29 2 59 50q27 43 64 114
q32 62 66 92q66 59 168 59q63 0 107 -47t42 -110q-5 -106 -88 -136q-54 -19 -106 -94q-48 -70 -62 -84z" />
    <glyph glyph-name="Lacute" unicode="&#x139;" horiz-adv-x="1058" 
d="M133 1255q2 68 53 106q52 38 127 38q161 0 162 -139q0 -2 -6 -398v-346v-215q112 0 164 2l254 8q73 1 106 -37q33 -39 33 -106q0 -168 -147 -168l-226 2q-171 0 -247 -4q-151 -6 -208 27q-56 32 -71 137q-4 36 -4 76q0 66 6 226t6 247q0 148 -1 267t-1 277zM322 1470
q-38 -28 -84 -28q-33 0 -76 37t-43 75q0 36 24 74l166 197q51 61 111 61q53 0 103 -47t50 -102q0 -45 -43 -88q-80 -80 -208 -179z" />
    <glyph glyph-name="lacute" unicode="&#x13a;" horiz-adv-x="581" 
d="M526 1681l-157 -137q-34 -31 -93 -31q-37 0 -78 37q-42 38 -42 78q0 36 24 74l123 153q50 64 113 64q54 0 104 -47q49 -46 49 -103q0 -42 -43 -88zM121 1327q2 74 50 113t124 39q84 0 131 -38q46 -37 45 -114q-6 -318 -6 -948q0 -37 3 -116q3 -73 1 -116q-4 -76 -38 -111
q-35 -37 -122 -44q-92 -11 -140 41q-49 52 -50 182q-8 334 2 1112z" />
    <glyph glyph-name="Lcommaaccent" unicode="&#x13b;" horiz-adv-x="1058" 
d="M133 1255q2 68 53 106q52 38 127 38q161 0 162 -139q0 -2 -6 -398v-346v-215q112 0 164 2l254 8q73 1 106 -37q33 -39 33 -106q0 -168 -147 -168l-226 2q-171 0 -247 -4q-151 -6 -208 27q-56 32 -71 137q-4 36 -4 76q0 66 6 226t6 247q0 148 -1 267t-1 277zM428 -426
q0 30 61 82q15 29 4 40q-13 13 -33 40q-22 30 -22 59q0 53 41 92t101 39q62 0 106 -36q43 -36 43 -101q0 -66 -29 -119q-30 -55 -56 -78q-19 -17 -79 -61q-23 -20 -69 -20q-27 0 -47 17q-21 18 -21 46z" />
    <glyph glyph-name="lcommaaccent" unicode="&#x13c;" horiz-adv-x="581" 
d="M121 1327q2 74 50 113t124 39q84 0 131 -38q46 -37 45 -114q-6 -318 -6 -948q0 -37 3 -116q3 -73 1 -116q-4 -76 -38 -111q-35 -37 -122 -44q-92 -11 -140 41q-49 52 -50 182q-8 334 2 1112zM143 -426q0 29 62 82q15 28 3 40q-13 13 -33 40q-21 28 -21 59q0 53 41 92
t100 39q62 0 106 -36q43 -36 43 -101q0 -67 -28 -119q-29 -53 -57 -78q-24 -21 -78 -61q-23 -20 -70 -20q-27 0 -47 17q-21 18 -21 46z" />
    <glyph glyph-name="Lcaron" unicode="&#x13d;" horiz-adv-x="1079" 
d="M829 1104q-39 6 -67 40q-30 36 -31 93q0 69 48 115q49 47 112 47q81 0 131 -49q51 -50 51 -138q0 -92 -52 -174q-53 -83 -134 -133q-24 -18 -58 -18q-31 0 -56 22t-25 52q0 39 26 61q55 49 55 78v4zM133 1255q2 68 53 106q52 38 127 38q161 0 162 -139q0 -2 -6 -398v-346
v-215q112 0 164 2l254 8q73 1 106 -37q33 -39 33 -106q0 -168 -147 -168l-226 2q-171 0 -247 -4q-151 -6 -208 27q-56 32 -71 137q-4 36 -4 76q0 66 6 226t6 247q0 148 -1 267t-1 277z" />
    <glyph glyph-name="lcaron" unicode="&#x13e;" horiz-adv-x="835" 
d="M637 1217q-38 6 -64 38t-26 88q-2 63 43 106q46 44 104 44q75 0 122 -46q48 -46 48 -128q0 -87 -49 -164q-50 -79 -125 -123q-24 -18 -53 -18q-28 0 -52 21t-24 48q0 35 25 58q51 47 51 73v3zM121 1327q2 74 50 113t124 39q84 0 131 -38q46 -37 45 -114q-6 -318 -6 -948
q0 -37 3 -116q3 -73 1 -116q-4 -76 -38 -111q-35 -37 -122 -44q-92 -11 -140 41q-49 52 -50 182q-8 334 2 1112z" />
    <glyph glyph-name="Ldot" unicode="&#x13f;" horiz-adv-x="1058" 
d="M133 1255q2 68 53 106q52 38 127 38q161 0 162 -139q0 -2 -6 -398v-346v-215q112 0 164 2l254 8q73 1 106 -37q33 -39 33 -106q0 -168 -147 -168l-226 2q-171 0 -247 -4q-151 -6 -208 27q-56 32 -71 137q-4 36 -4 76q0 66 6 226t6 247q0 148 -1 267t-1 277zM838 557
q-77 0 -130 50t-53 128q0 82 56 136q57 55 139 55q81 0 133 -49q53 -50 53 -132q0 -83 -54 -136q-53 -52 -144 -52z" />
    <glyph glyph-name="ldot" unicode="&#x140;" horiz-adv-x="944" 
d="M121 1327q2 74 50 113t124 39q84 0 131 -38q46 -37 45 -114q-6 -318 -6 -948q0 -37 3 -116q3 -73 1 -116q-4 -76 -38 -111q-35 -37 -122 -44q-92 -11 -140 41q-49 52 -50 182q-8 334 2 1112zM750 426q-77 0 -130 50t-53 128q0 82 56 136q57 55 139 55q80 0 133 -50
t53 -131q0 -84 -54 -136q-53 -52 -144 -52z" />
    <glyph glyph-name="Lslash" unicode="&#x141;" horiz-adv-x="1058" 
d="M133 1255q2 68 53 106q52 38 127 38q163 0 164 -144l-4 -245v-107l45 27q53 31 109 31q44 0 82 -50q36 -48 36 -104q0 -73 -92 -123l-182 -102v-66l-2 -215q112 0 164 2l254 8q73 1 106 -37q33 -39 33 -106q0 -168 -147 -168l-478 -2q-150 -6 -214 37t-60 149l6 170v47
l-12 -6q-27 -14 -49 -14q-49 0 -88 49q-39 50 -39 100q0 80 86 127l102 58v540z" />
    <glyph glyph-name="lslash" unicode="&#x142;" horiz-adv-x="634" 
d="M145 211v207l-18 -12q-24 -15 -51 -15q-49 0 -86 46t-37 98q0 80 86 133l106 71q0 162 1 288t1 286q0 77 48 122q47 44 127 44q83 0 130 -38q46 -37 44 -114q-4 -255 -4 -383l4 4q23 13 53 13q52 0 90 -46q37 -44 37 -102q0 -78 -94 -135l-90 -57v-275q0 -32 3 -100
t3 -90q0 -73 -38 -120q-37 -46 -116 -46q-105 0 -151 49q-48 51 -48 172z" />
    <glyph glyph-name="Nacute" unicode="&#x143;" horiz-adv-x="1482" 
d="M473 152q0 -84 -45 -123t-117 -39q-172 0 -178 143q0 33 2 457v424v241q1 66 67 104q65 38 140 38q102 0 182 -113l430 -600l56 -88q0 73 -1 141t-1 142l-4 342q-2 100 40 137q44 39 140 39q72 0 118 -39t46 -113q0 -196 -1 -351t-1 -349q0 -64 1 -145t1 -263
q0 -66 -62 -107q-61 -40 -141 -40q-59 0 -98 27t-78 87l-502 723q-2 -176 2 -368q4 -200 4 -307zM752 1470q-38 -28 -84 -28q-33 0 -76 37t-43 75q0 36 24 74l166 197q51 61 111 61q53 0 103 -47q51 -48 51 -102q0 -45 -43 -88q-76 -76 -209 -179z" />
    <glyph glyph-name="nacute" unicode="&#x144;" horiz-adv-x="1169" 
d="M117 674l-2 110q-4 172 168 172q131 0 149 -104l6 -37q28 65 103 105q77 41 155 41q177 0 273 -107q96 -106 96 -307q0 -72 -1 -122t-1 -128v-162q0 -141 -180 -141q-69 0 -115 35q-45 35 -45 104q0 5 2 157t2 167q0 104 -24 161q-25 59 -95 60q-98 1 -131 -62t-33 -210
l2 -281q0 -69 -48 -101q-49 -32 -113 -32q-84 0 -129 30t-45 109q0 87 4 252q4 160 2 291zM610 1081q-38 -28 -84 -28q-32 0 -75 37t-43 75q0 37 24 74l166 197q51 61 111 61q53 0 103 -47t50 -102q0 -45 -43 -88q-76 -76 -209 -179z" />
    <glyph glyph-name="Ncommaaccent" unicode="&#x145;" horiz-adv-x="1482" 
d="M473 152q0 -84 -45 -123t-117 -39q-172 0 -178 143q0 33 2 457v424v241q1 66 67 104q65 38 140 38q102 0 182 -113l430 -600l56 -88q0 73 -1 141t-1 142l-4 342q-2 100 40 137q44 39 140 39q72 0 118 -39t46 -113q0 -196 -1 -351t-1 -349q0 -64 1 -145t1 -263
q0 -66 -62 -107q-61 -40 -141 -40q-59 0 -98 27t-78 87l-502 723q-2 -176 2 -368q4 -200 4 -307zM584 -426q0 30 61 82q15 28 3 40q-13 13 -33 40q-21 29 -21 59q0 53 41 92t100 39q63 0 107 -36q43 -36 43 -101q0 -66 -29 -119q-30 -55 -56 -78q-19 -17 -79 -61
q-23 -20 -70 -20q-27 0 -47 17t-20 46z" />
    <glyph glyph-name="ncommaaccent" unicode="&#x146;" horiz-adv-x="1169" 
d="M117 674l-2 110q-4 172 168 172q131 0 149 -104l6 -37q28 65 103 105q77 41 155 41q177 0 273 -107q96 -106 96 -307q0 -72 -1 -122t-1 -128v-162q0 -141 -180 -141q-69 0 -115 35q-45 35 -45 104q0 5 2 157t2 167q0 104 -24 161q-25 59 -95 60q-98 1 -131 -62t-33 -210
l2 -281q0 -69 -48 -101q-49 -32 -113 -32q-84 0 -129 30t-45 109q0 87 4 252q4 160 2 291zM434 -426q0 29 62 82q15 28 3 40q-13 13 -33 40q-22 30 -22 59q0 53 41 92q40 39 101 39q63 0 106 -36t43 -101q0 -67 -28 -119q-29 -53 -57 -78q-19 -17 -79 -61q-23 -20 -69 -20
q-27 0 -47 17q-21 18 -21 46z" />
    <glyph glyph-name="Ncaron" unicode="&#x147;" horiz-adv-x="1482" 
d="M473 152q0 -84 -45 -123t-117 -39q-172 0 -178 143q0 33 2 457v424v241q1 66 67 104q65 38 140 38q102 0 182 -113l430 -600l56 -88q0 73 -1 141t-1 142l-4 342q-2 100 40 137q44 39 140 39q72 0 118 -39t46 -113q0 -196 -1 -351t-1 -349q0 -64 1 -145t1 -263
q0 -66 -62 -107q-61 -40 -141 -40q-59 0 -98 27t-78 87l-502 723q-2 -176 2 -368q4 -200 4 -307zM541 1860q41 0 78 -33q72 -66 124 -127q80 91 115 123q39 39 88 39q35 0 72 -34t37 -69q0 -40 -27 -73q-26 -33 -172 -191q-39 -45 -115 -45q-63 0 -106 43q-88 88 -176 193
q-27 33 -27 73q0 31 35 66t74 35z" />
    <glyph glyph-name="ncaron" unicode="&#x148;" horiz-adv-x="1169" 
d="M117 674l-2 110q-4 172 168 172q131 0 149 -104l6 -37q28 65 103 105q77 41 155 41q177 0 273 -107q96 -106 96 -307q0 -72 -1 -122t-1 -128v-162q0 -141 -180 -141q-69 0 -115 35q-45 35 -45 104q0 5 2 157t2 167q0 104 -24 161q-25 59 -95 60q-98 1 -131 -62t-33 -210
l2 -281q0 -69 -48 -101q-49 -32 -113 -32q-84 0 -129 30t-45 109q0 87 4 252q4 160 2 291zM399 1470q42 0 78 -32q76 -70 125 -127q80 91 115 123q39 39 88 39q35 0 72 -34q36 -33 36 -69q0 -42 -26 -74q-20 -25 -172 -190q-39 -45 -115 -45q-63 0 -106 43q-99 99 -177 192
q-26 32 -26 74q0 31 35 66q34 34 73 34z" />
    <glyph glyph-name="napostrophe" unicode="&#x149;" horiz-adv-x="1169" 
d="M76 1217q-38 6 -64 38t-26 88q-2 63 43 106q46 44 104 44q75 0 122 -46q48 -47 48 -128q0 -87 -49 -164q-50 -79 -125 -123q-24 -18 -53 -18q-28 0 -52 21t-24 48q0 35 25 58q51 47 51 73v3zM117 674l-2 110q-4 172 168 172q131 0 149 -104l6 -37q28 65 103 105
q77 41 155 41q177 0 273 -107q96 -106 96 -307q0 -72 -1 -122t-1 -128v-162q0 -141 -180 -141q-69 0 -115 35q-45 35 -45 104q0 5 2 157t2 167q0 104 -24 161q-25 59 -95 60q-98 1 -131 -62t-33 -210l2 -281q0 -69 -48 -101q-49 -32 -113 -32q-84 0 -129 30t-45 109
q0 87 4 252q4 160 2 291z" />
    <glyph glyph-name="Eng" unicode="&#x14a;" horiz-adv-x="1482" 
d="M473 152q0 -84 -45 -123t-117 -39q-172 0 -178 143q0 33 2 457v424v241q1 66 67 104q65 38 140 38q102 0 182 -113l430 -600l56 -88l-2 283l-4 342q-2 100 40 137q44 39 140 39q72 0 118 -39t46 -113v-1298q0 -191 -102 -318q-102 -128 -285 -129q-54 0 -93 6
q-37 6 -75 24q-37 18 -58 55q-20 36 -20 93q0 68 36 109t85 41q20 0 45 -4q24 -4 53 -2q52 1 67 46q15 44 15 144v27l-549 788q-2 -176 2 -368q4 -200 4 -307z" />
    <glyph glyph-name="eng" unicode="&#x14b;" horiz-adv-x="1169" 
d="M729 457q0 104 -24 161q-25 58 -97 60q-98 1 -131 -62t-33 -210l2 -281q0 -69 -48 -101q-49 -32 -113 -32q-84 0 -129 30t-45 109q0 87 4 252q4 160 2 291l-2 110q-4 172 168 172q131 0 149 -104l6 -37q28 65 103 105q77 41 155 41q177 0 273 -107q96 -106 96 -307v-641
q0 -189 -116 -288q-116 -100 -290 -101q-114 -2 -177 33q-66 36 -66 143q0 67 33 110t81 43q18 0 49 -6q30 -6 54 -4q54 2 75 49q21 46 21 146v426z" />
    <glyph glyph-name="Omacron" unicode="&#x14c;" horiz-adv-x="1523" 
d="M760 1409q284 0 492 -198t208 -500q0 -305 -204 -518t-500 -213q-275 0 -482 189q-206 188 -206 497q0 329 212 538t480 205zM1112 707q0 178 -106 283q-108 106 -258 106q-148 0 -240 -115t-92 -293q0 -177 98 -281q100 -106 250 -106q145 0 247 121q101 120 101 285z
M584 1520q-70 0 -104 35t-34 90q0 58 34 93q34 36 100 36q36 0 71 -1t78 -1q13 0 109 2t120 2q127 0 127 -129q0 -60 -41 -93q-39 -32 -116 -32h-170q-50 0 -89 -1t-85 -1z" />
    <glyph glyph-name="omacron" unicode="&#x14d;" 
d="M604 963q37 0 78 -9q191 -33 290 -167t99 -310q0 -215 -145 -354t-369 -139q-204 0 -349 131t-145 334q0 231 144 369q145 139 397 145zM739 485q0 69 -47 131t-117 60q-86 -2 -133 -61t-47 -162q0 -77 47 -132t111 -55q80 0 133 62t53 157zM385 1130q-69 0 -103 36
q-34 35 -34 89q0 59 34 94t99 35q37 0 72 -1t77 -1q17 0 109 2t121 2q127 0 127 -129q0 -59 -41 -92q-39 -32 -117 -32h-170q-50 0 -89 -1q-78 -2 -85 -2z" />
    <glyph glyph-name="Obreve" unicode="&#x14e;" horiz-adv-x="1523" 
d="M760 1409q284 0 492 -198t208 -500q0 -305 -204 -518t-500 -213q-275 0 -482 189q-206 188 -206 497q0 329 212 538t480 205zM1112 707q0 178 -106 283q-108 106 -258 106q-148 0 -240 -115t-92 -293q0 -177 98 -281q100 -106 250 -106q145 0 247 121q101 120 101 285z
M958 1833q48 0 78 -28q29 -27 29 -64q0 -129 -84 -212q-85 -83 -225 -83q-119 0 -207 76t-92 196q-2 46 29 79q31 34 79 34q44 0 71 -24q28 -25 32 -58q6 -39 29 -62q24 -24 57 -24q38 0 66 26t32 60q5 35 32 59q28 25 74 25z" />
    <glyph glyph-name="obreve" unicode="&#x14f;" 
d="M604 963q37 0 78 -9q191 -33 290 -167t99 -310q0 -215 -145 -354t-369 -139q-204 0 -349 131t-145 334q0 231 144 369q145 139 397 145zM739 485q0 69 -47 131t-117 60q-86 -2 -133 -61t-47 -162q0 -77 47 -132t111 -55q80 0 133 62t53 157zM760 1444q48 0 78 -28
q28 -27 28 -64q0 -130 -84 -212q-85 -83 -225 -83q-119 0 -207 76t-92 196q-1 45 30 79t79 34q43 0 70 -24q28 -25 32 -58q6 -39 30 -63q23 -23 56 -23q41 0 67 25t31 61q5 35 32 59q28 25 75 25z" />
    <glyph glyph-name="Ohungarumlaut" unicode="&#x150;" horiz-adv-x="1523" 
d="M760 1409q284 0 492 -198t208 -500q0 -305 -204 -518t-500 -213q-275 0 -482 189q-206 188 -206 497q0 329 212 538t480 205zM1112 707q0 178 -106 283q-108 106 -258 106q-148 0 -240 -115t-92 -293q0 -177 98 -281q100 -106 250 -106q145 0 247 121q101 120 101 285z
M819 1675l-157 -188q-33 -41 -80 -41q-40 0 -75 29q-34 28 -34 71q0 30 21 64l118 190q41 70 101 70q54 0 92 -34q39 -34 39 -85q0 -42 -25 -76zM1176 1655l-164 -176q-39 -39 -72 -39q-44 0 -79 25q-36 25 -36 67q0 20 25 67l123 189q45 72 102 72q50 0 91 -34
q42 -34 42 -77q0 -55 -32 -94z" />
    <glyph glyph-name="ohungarumlaut" unicode="&#x151;" 
d="M604 963q37 0 78 -9q191 -33 290 -167t99 -310q0 -215 -145 -354t-369 -139q-204 0 -349 131t-145 334q0 231 144 369q145 139 397 145zM739 485q0 69 -47 131t-117 60q-86 -2 -133 -61t-47 -162q0 -77 47 -132t111 -55q80 0 133 62t53 157zM618 1286l-157 -188
q-33 -41 -80 -41q-41 0 -75 28t-34 72q0 29 21 64l119 190q41 70 100 70q54 0 92 -34q39 -35 39 -85q0 -42 -25 -76zM975 1266l-164 -176q-39 -39 -72 -39q-44 0 -79 25t-35 67q0 22 24 67l123 189q44 71 102 71q52 0 92 -33q42 -35 42 -77q0 -54 -33 -94z" />
    <glyph glyph-name="OE" unicode="&#x152;" horiz-adv-x="2197" 
d="M778 1409q150 0 262 -51t156 -117q0 22 10 51q33 101 152 101q105 0 233 -2q103 0 263 2q35 0 66 0.5t45 1t15 0.5q62 0 102 -39t40 -94q0 -160 -127 -160h-477q0 -24 -1 -43t-1 -43l-5 -187h54q331 0 383 -2q90 -24 88 -141q-4 -141 -148 -141h-379q-2 -40 -2 -94
q0 -43 1 -78t1 -78q122 -2 284 2q167 4 210 4q133 0 133 -147q0 -154 -188 -154q-347 0 -512 -4q-181 -5 -228 113q-9 25 -14 53q-59 -81 -174 -131q-113 -49 -262 -49q-280 0 -486 189q-204 188 -204 499q0 222 106 394q107 173 267 260t337 85zM1184 709q-6 174 -115 282
q-109 107 -283 107q-151 0 -259 -116q-107 -114 -107 -290q0 -174 111 -282q112 -109 272 -107q171 1 278 120q107 120 103 286z" />
    <glyph glyph-name="oe" unicode="&#x153;" horiz-adv-x="1757" 
d="M608 946q81 10 177 -37t141 -121q46 74 141 123q95 50 197 50q191 0 316 -116q124 -115 124 -272q0 -97 -31 -134q-30 -36 -133 -36q-37 0 -229 -2t-205 -2q10 -55 61 -88q49 -32 109 -32q52 0 134 30q85 31 132 31q51 0 90 -48t39 -112q0 -55 -49 -100
q-104 -94 -367 -94q-101 0 -195 48q-95 48 -145 118q-150 -166 -372 -166q-199 0 -344 137q-144 137 -144 323q0 213 147 363q146 149 349 149q19 0 35 -6t22 -6zM748 483q0 74 -51 134q-50 59 -122 57q-84 -1 -135 -60q-49 -56 -49 -161q0 -74 50 -132q49 -57 114 -57
q81 0 137 60q56 61 56 159zM1260 702q-62 0 -111 -37q-48 -37 -53 -87q295 0 295 14q0 50 -37 80q-38 30 -94 30z" />
    <glyph glyph-name="Racute" unicode="&#x154;" horiz-adv-x="1267" 
d="M131 1210q0 82 57 128t146 51q73 5 131 6q35 0 72 1t96 1q233 0 382 -123q148 -123 148 -342q0 -124 -62 -226q-63 -104 -165 -153q78 -106 233 -305q39 -50 39 -105q0 -63 -53 -107q-54 -45 -129 -46q-34 0 -61 14q-30 16 -42 29q-13 14 -40 49q-5 8 -107 161
q-110 165 -153 222q-39 0 -77 1t-77 1q0 -11 2 -163t2 -154q0 -148 -139 -158q-106 -4 -153 32q-46 36 -46 132q1 399 0 870q0 9 -2 93t-2 91zM621 1106q-39 0 -77 -1t-75 -1l2 -354h125q95 0 162 44q65 43 67 130q1 88 -48 135q-50 47 -156 47zM627 1470q-38 -28 -84 -28
q-33 0 -76 37t-43 75q0 35 25 74l165 197q51 61 111 61q53 0 103 -47q51 -48 51 -102q0 -45 -43 -88q-76 -76 -209 -179z" />
    <glyph glyph-name="racute" unicode="&#x155;" horiz-adv-x="794" 
d="M115 805q0 74 43 111q44 38 121 38q98 0 122 -86l15 -51q27 62 93 104t134 42q141 0 141 -154q0 -68 -33 -114q-35 -48 -96 -48h-26q-189 0 -189 -260q0 -22 3 -121q3 -91 1 -143q-1 -66 -49 -100q-47 -33 -121 -33q-163 0 -163 153q0 28 2 246t2 232v184zM449 1081
q-38 -28 -84 -28q-33 0 -76 37t-43 75q0 37 24 74l166 197q51 61 111 61q53 0 103 -47t50 -102q0 -45 -43 -88q-80 -80 -208 -179z" />
    <glyph glyph-name="Rcommaaccent" unicode="&#x156;" horiz-adv-x="1267" 
d="M131 1210q0 82 57 128t146 51q73 5 131 6q35 0 72 1t96 1q233 0 382 -123q148 -123 148 -342q0 -124 -62 -226q-63 -104 -165 -153q78 -106 233 -305q39 -50 39 -105q0 -63 -53 -107q-54 -45 -129 -46q-34 0 -61 14q-30 16 -42 29q-13 14 -40 49q-5 8 -107 161
q-110 165 -153 222q-39 0 -77 1t-77 1q0 -11 2 -163t2 -154q0 -148 -139 -158q-106 -4 -153 32q-46 36 -46 132q1 399 0 870q0 9 -2 93t-2 91zM621 1106q-39 0 -77 -1t-75 -1l2 -354h125q95 0 162 44q65 43 67 130q1 88 -48 135q-50 47 -156 47zM506 -426q0 30 61 82
q15 28 3 40q-10 10 -32 40t-22 59q0 53 41 92t100 39q63 0 107 -36q43 -36 43 -101q0 -66 -29 -119q-30 -55 -56 -78q-19 -17 -79 -61q-23 -20 -70 -20q-27 0 -47 17t-20 46z" />
    <glyph glyph-name="rcommaaccent" unicode="&#x157;" horiz-adv-x="794" 
d="M115 805q0 74 43 111q44 38 121 38q98 0 122 -86l15 -51q27 62 93 104t134 42q141 0 141 -154q0 -68 -33 -114q-35 -48 -96 -48h-26q-189 0 -189 -260q0 -22 3 -121q3 -91 1 -143q-1 -66 -49 -100q-47 -33 -121 -33q-163 0 -163 153q0 28 2 246t2 232v184zM117 -426
q0 30 61 82q15 28 3 40q-13 13 -33 40q-21 28 -21 59q0 53 41 92q40 39 100 39q64 0 107 -36t43 -101q0 -66 -29 -119q-30 -55 -56 -78q-19 -17 -79 -61q-26 -20 -70 -20q-27 0 -47 17t-20 46z" />
    <glyph glyph-name="Rcaron" unicode="&#x158;" horiz-adv-x="1267" 
d="M131 1210q0 82 57 128t146 51q73 5 131 6q35 0 72 1t96 1q233 0 382 -123q148 -123 148 -342q0 -124 -62 -226q-63 -104 -165 -153q78 -106 233 -305q39 -50 39 -105q0 -63 -53 -107q-54 -45 -129 -46q-34 0 -61 14q-30 16 -42 29q-13 14 -40 49q-5 8 -107 161
q-110 165 -153 222q-39 0 -77 1t-77 1q0 -11 2 -163t2 -154q0 -148 -139 -158q-106 -4 -153 32q-46 36 -46 132q1 399 0 870q0 9 -2 93t-2 91zM621 1106q-39 0 -77 -1t-75 -1l2 -354h125q95 0 162 44q65 43 67 130q1 88 -48 135q-50 47 -156 47zM416 1860q40 0 78 -33
q72 -66 124 -127q80 91 115 123q39 39 88 39q35 0 72 -34t37 -69q0 -40 -27 -73q-26 -33 -172 -191q-39 -45 -115 -45q-63 0 -106 43q-88 88 -176 193q-27 33 -27 73q0 31 35 66t74 35z" />
    <glyph glyph-name="rcaron" unicode="&#x159;" horiz-adv-x="794" 
d="M115 805q0 74 43 111q44 38 121 38q98 0 122 -86l15 -51q27 62 93 104t134 42q141 0 141 -154q0 -68 -33 -114q-35 -48 -96 -48h-26q-189 0 -189 -260q0 -22 3 -121q3 -91 1 -143q-1 -66 -49 -100q-47 -33 -121 -33q-163 0 -163 153q0 28 2 246t2 232v184zM238 1470
q41 0 77 -32q76 -70 125 -127q80 91 115 123q39 39 88 39q35 0 72 -34t37 -69q0 -41 -27 -74q-20 -25 -172 -190q-39 -45 -115 -45q-63 0 -106 43q-93 93 -176 192q-27 33 -27 74q0 31 35 66q34 34 74 34z" />
    <glyph glyph-name="Sacute" unicode="&#x15a;" horiz-adv-x="1185" 
d="M977 1341q86 -39 86 -145q0 -54 -42 -103q-43 -51 -101 -51q-47 0 -138 35q-87 31 -168 31q-70 0 -119 -37q-51 -39 -51 -88q0 -52 57 -79q59 -28 165 -50q217 -43 331 -135q115 -92 115 -279q0 -210 -146 -331q-146 -120 -372 -125q-241 -2 -408 77q-102 46 -102 152
q0 69 42 122q42 52 101 52q51 0 133 -31q2 0 40 -15t57 -20q35 -9 57 -13q36 -7 76 -7q75 0 124 37q50 38 50 96q0 94 -203 135q-218 44 -340 133q-123 90 -123 256q0 191 152 323t366 132q216 0 361 -72zM627 1470q-38 -28 -84 -28q-33 0 -76 37t-43 75q0 35 25 74l165 197
q51 61 111 61q53 0 103 -47q51 -48 51 -102q0 -45 -43 -88q-76 -76 -209 -179z" />
    <glyph glyph-name="sacute" unicode="&#x15b;" horiz-adv-x="937" 
d="M483 963q180 0 279 -43q80 -35 80 -109q0 -141 -125 -141q-37 0 -111 20q-78 21 -112 21q-111 0 -111 -58q0 -7 3 -15q3 -7 11 -12q2 -1 5 -3t5.5 -3.5t4.5 -2.5q7 -3 20 -6q4 -1 8.5 -1.5t9 -1.5t6.5 -1q9 -2 28 -3q4 0 30 -4q176 -24 268 -92t92 -201q0 -153 -108 -240
t-313 -87q-159 0 -267 45t-108 112q0 154 127 154q51 0 133 -24q79 -23 149 -23q84 0 84 55q0 28 -30 40q-25 10 -121 26q-338 50 -338 270q0 143 119 235q120 93 282 93zM489 1081q-38 -28 -83 -28q-33 0 -76 37t-43 75q0 37 24 74l166 197q51 61 111 61q53 0 103 -47
t50 -102q0 -45 -43 -88q-76 -76 -209 -179z" />
    <glyph glyph-name="Scircumflex" unicode="&#x15c;" horiz-adv-x="1185" 
d="M977 1341q86 -39 86 -145q0 -54 -42 -103q-43 -51 -101 -51q-47 0 -138 35q-87 31 -168 31q-70 0 -119 -37q-51 -39 -51 -88q0 -52 57 -79q59 -28 165 -50q217 -43 331 -135q115 -92 115 -279q0 -210 -146 -331q-146 -120 -372 -125q-241 -2 -408 77q-102 46 -102 152
q0 69 42 122q42 52 101 52q51 0 133 -31q2 0 40 -15t57 -20q35 -9 57 -13q36 -7 76 -7q75 0 124 37q50 38 50 96q0 94 -203 135q-218 44 -340 133q-123 90 -123 256q0 191 152 323t366 132q216 0 361 -72zM823 1454q-39 -5 -80 33q-76 70 -125 127q-84 -96 -114 -123
q-39 -39 -88 -39q-35 0 -72 34t-37 68q0 41 27 74q26 33 172 191q41 47 115 47q61 0 106 -45q88 -88 176 -193q27 -33 27 -72q0 -28 -34 -65t-73 -37z" />
    <glyph glyph-name="scircumflex" unicode="&#x15d;" horiz-adv-x="937" 
d="M483 963q180 0 279 -43q80 -35 80 -109q0 -141 -125 -141q-37 0 -111 20q-78 21 -112 21q-111 0 -111 -58q0 -7 3 -15q3 -7 11 -12q2 -1 5 -3t5.5 -3.5t4.5 -2.5q7 -3 20 -6q4 -1 8.5 -1.5t9 -1.5t6.5 -1q9 -2 28 -3q4 0 30 -4q176 -24 268 -92t92 -201q0 -153 -108 -240
t-313 -87q-159 0 -267 45t-108 112q0 154 127 154q51 0 133 -24q79 -23 149 -23q84 0 84 55q0 28 -30 40q-25 10 -121 26q-338 50 -338 270q0 143 119 235q120 93 282 93zM686 1065q-39 -5 -80 33q-76 70 -125 127q-84 -96 -114 -123q-39 -39 -88 -39q-35 0 -72 34t-37 68
q0 41 27 74q26 33 172 191q41 47 114 47q62 0 107 -45q88 -88 176 -193q27 -33 27 -72q0 -28 -34 -65t-73 -37z" />
    <glyph glyph-name="Scedilla" unicode="&#x15e;" horiz-adv-x="1185" 
d="M459 -96l37 84q-188 15 -310 73q-102 46 -102 152q0 69 42 122q42 52 101 52q51 0 133 -31q2 0 40 -15t57 -20q35 -9 57 -13q36 -7 76 -7q75 0 124 37q50 38 50 96q0 94 -203 135q-218 44 -340 133q-123 90 -123 256q0 191 152 323t366 132q216 0 361 -72q86 -39 86 -145
q0 -54 -42 -103q-43 -51 -101 -51q-47 0 -138 35q-87 31 -168 31q-70 0 -119 -37q-51 -39 -51 -88q0 -52 57 -79q59 -28 165 -50q217 -43 331 -135q115 -92 115 -279q0 -192 -125 -311q-124 -118 -323 -139l-19 -64q59 0 106 -46q48 -46 48 -132q0 -109 -68 -169
q-67 -60 -176 -60q-63 0 -119 24q-61 27 -61 95q0 41 26 64q27 24 60 24q16 0 47 -14q29 -13 47 -13q55 0 55 41t-47 41l-43 2q-36 1 -56 42t-5 79z" />
    <glyph glyph-name="scedilla" unicode="&#x15f;" horiz-adv-x="937" 
d="M354 -96l35 78q-138 11 -224 52q-87 42 -87 103q0 154 127 154q51 0 133 -24q79 -23 149 -23q84 0 84 55q0 28 -30 40q-25 10 -121 26q-338 50 -338 270q0 143 119 235q120 93 282 93q180 0 279 -43q80 -35 80 -109q0 -141 -125 -141q-37 0 -111 20q-78 21 -112 21
q-111 0 -111 -58q0 -7 3 -15q3 -7 11 -12q2 -1 5 -3t5.5 -3.5t4.5 -2.5q7 -3 20 -6q4 -1 8.5 -1.5t9 -1.5t6.5 -1q9 -2 28 -3q4 0 30 -4q176 -24 268 -92t92 -201q0 -135 -80 -216q-80 -82 -235 -103l-18 -62q58 0 105 -46q48 -46 48 -132q0 -109 -67 -169t-176 -60
q-61 0 -117 24q-62 27 -62 86q0 37 26 66t54 29q16 0 50 -13q32 -12 49 -12q55 0 55 41t-47 41l-43 2q-38 1 -57 42q-20 41 -5 79z" />
    <glyph glyph-name="Scaron" unicode="&#x160;" horiz-adv-x="1185" 
d="M977 1341q86 -39 86 -145q0 -54 -42 -103q-43 -51 -101 -51q-47 0 -138 35q-87 31 -168 31q-70 0 -119 -37q-51 -39 -51 -88q0 -52 57 -79q59 -28 165 -50q217 -43 331 -135q115 -92 115 -279q0 -210 -146 -331q-146 -120 -372 -125q-241 -2 -408 77q-102 46 -102 152
q0 69 42 122q42 52 101 52q51 0 133 -31q2 0 40 -15t57 -20q35 -9 57 -13q36 -7 76 -7q75 0 124 37q50 38 50 96q0 94 -203 135q-218 44 -340 133q-123 90 -123 256q0 191 152 323t366 132q216 0 361 -72zM416 1860q40 0 78 -33q72 -66 124 -127q80 91 115 123q39 39 88 39
q35 0 72 -34t37 -69q0 -40 -27 -73q-26 -33 -172 -191q-39 -45 -115 -45q-63 0 -106 43q-88 88 -176 193q-27 33 -27 73q0 31 35 66t74 35z" />
    <glyph glyph-name="scaron" unicode="&#x161;" horiz-adv-x="937" 
d="M483 963q180 0 279 -43q80 -35 80 -109q0 -141 -125 -141q-37 0 -111 20q-78 21 -112 21q-111 0 -111 -58q0 -7 3 -15q3 -7 11 -12q2 -1 5 -3t5.5 -3.5t4.5 -2.5q7 -3 20 -6q4 -1 8.5 -1.5t9 -1.5t6.5 -1q9 -2 28 -3q4 0 30 -4q176 -24 268 -92t92 -201q0 -153 -108 -240
t-313 -87q-159 0 -267 45t-108 112q0 154 127 154q51 0 133 -24q79 -23 149 -23q84 0 84 55q0 28 -30 40q-25 10 -121 26q-338 50 -338 270q0 143 119 235q120 93 282 93zM279 1470q41 0 77 -32q76 -70 125 -127q80 91 115 123q39 39 88 39q35 0 72 -34t37 -69
q0 -41 -27 -74q-20 -25 -172 -190q-39 -45 -115 -45q-63 0 -106 43q-93 93 -176 192q-27 33 -27 74q0 31 35 66q34 34 74 34z" />
    <glyph glyph-name="uni0162" unicode="&#x162;" horiz-adv-x="1198" 
d="M629 1389q1 0 11 0.5t30 1t42 0.5q76 1 177 3q67 1 160 1q133 0 133 -142q0 -163 -133 -163l-277 2v-62q0 -366 6 -878q2 -122 -110 -152l-19 -74q59 0 106 -46q48 -46 48 -132q0 -109 -68 -169q-67 -60 -176 -60q-63 0 -119 24q-61 27 -61 95q0 41 26 64q27 24 60 24
q16 0 47 -14q29 -13 47 -13q55 0 55 41t-47 41l-43 2q-36 1 -56 42t-5 79l41 104q-71 37 -70 137l6 721q0 53 -4 224q-144 -3 -284 -3q-136 0 -136 156q0 147 144 148q23 0 54 -1t153 -1h262z" />
    <glyph glyph-name="uni0163" unicode="&#x163;" horiz-adv-x="808" 
d="M125 662q-119 0 -119 143q0 59 36 98t91 39h64l4 109q6 176 182 176q64 0 99 -34q36 -35 36 -93q0 -32 -4 -156h117q64 2 98 -34q35 -37 35 -105q0 -59 -29 -100t-82 -41h-141v-267q0 -110 68 -110q21 0 44 5t35 5q53 0 85 -39q32 -40 32 -92q0 -100 -55 -137
q-58 -39 -166 -41l-18 -62q58 0 105 -46q48 -46 48 -132q0 -109 -67 -169t-177 -60q-62 0 -118 24q-62 27 -62 95q0 40 27 64t59 24q16 0 47 -14q29 -13 47 -13q56 0 56 41t-47 41l-43 2q-38 1 -57 42q-20 41 -5 79l41 106q-198 72 -198 359q0 10 0.5 27.5t1 50t0.5 57.5
q2 102 0 158h-70z" />
    <glyph glyph-name="Tcaron" unicode="&#x164;" horiz-adv-x="1198" 
d="M629 1389q1 0 11 0.5t30 1t42 0.5q76 1 177 3q67 1 160 1q133 0 133 -142q0 -163 -133 -163l-277 2v-62q0 -366 6 -878q2 -80 -47 -120t-137 -40q-76 0 -119 37q-42 37 -41 116l6 721q0 53 -4 224q-144 -3 -284 -3q-136 0 -136 156q0 147 144 148q23 0 54 -1t153 -1h262z
M397 1860q41 0 78 -33q76 -70 125 -127q80 91 115 123q39 39 88 39q34 0 71 -34t37 -69q0 -41 -26 -73q-26 -33 -172 -191q-39 -45 -115 -45q-63 0 -106 43q-94 94 -177 193q-26 32 -26 73q0 31 35 66t73 35z" />
    <glyph glyph-name="tcaron" unicode="&#x165;" horiz-adv-x="1032" 
d="M831 1198q-34 4 -61 37q-28 34 -29 88q-2 65 44 108q47 44 106 44q76 0 123 -47t47 -130q0 -86 -49 -163q-50 -79 -125 -123q-25 -19 -56 -19q-27 0 -52 22q-23 20 -23 48q0 35 24 57q51 45 51 74v4zM125 662q-119 0 -119 143q0 59 36 98t91 39h64l4 109q6 176 182 176
q64 0 99 -34q36 -35 36 -93q0 -32 -4 -156h117q64 2 98 -34q35 -37 35 -105q0 -59 -29 -100t-82 -41h-141v-267q0 -110 68 -110q21 0 44 5t35 5q53 0 85 -39q32 -40 32 -92q0 -100 -55 -137q-61 -41 -197 -41q-149 0 -240 94t-91 287q0 10 0.5 27.5t1 50t0.5 57.5
q2 102 0 158h-70z" />
    <glyph glyph-name="Tbar" unicode="&#x166;" horiz-adv-x="1189" 
d="M625 1391q31 0 82 1q78 2 175 3q132 2 158 2q134 0 134 -142q0 -163 -134 -163l-272 2v-287h129q131 0 131 -143q0 -136 -158 -136h-102l6 -374q2 -80 -47 -120t-137 -40q-76 0 -119 37q-42 37 -41 116l4 379h-123q-69 0 -105 38t-36 98q0 63 36 104t101 41h127l-2 285
q-96 -2 -280 -2q-136 0 -136 155q0 147 144 148h53q81 0 151 -1t261 -1z" />
    <glyph glyph-name="tbar" unicode="&#x167;" horiz-adv-x="808" 
d="M125 662q-119 0 -119 143q0 59 36 98t91 39h64l4 109q6 176 182 176q64 0 99 -34q36 -35 36 -93q0 -32 -4 -156h117q64 2 98 -34q35 -37 35 -105q0 -59 -29 -100t-82 -41h-141v-64h76q114 0 114 -119q0 -116 -133 -116h-57v-11q0 -67 68 -67q21 0 44 5t35 5q53 0 85 -39
q32 -40 32 -92q0 -100 -55 -137q-61 -41 -197 -41q-150 0 -238 88q-89 89 -89 270v16h-52q-120 0 -120 119q0 117 120 117h50v64h-70z" />
    <glyph glyph-name="Utilde" unicode="&#x168;" horiz-adv-x="1433" 
d="M131 588q4 389 4 655q0 72 45 111t121 39q97 0 138 -41q40 -40 40 -135q-2 -178 -2 -619q0 -142 66 -219q66 -76 186 -76q115 0 172 84q58 85 62 213q8 25 4 326q-4 269 -4 307q0 162 176 162q91 0 131 -46q41 -47 41 -149l4 -569q-1 -284 -159 -464q-156 -179 -433 -179
q-269 0 -430 158q-162 159 -162 442zM575 1542q-4 -27 -29 -47q-24 -20 -71 -20q-45 0 -79 30t-36 92q6 95 65 153q57 56 155 56q60 0 103 -27q41 -26 75 -56q31 -27 55 -29q37 0 41 39q10 73 107 73q41 0 73 -29q33 -30 33 -75q0 -115 -58 -174q-59 -60 -155 -60
q-70 0 -139 55q-68 54 -97 56q-17 0 -28 -11q-14 -14 -15 -26z" />
    <glyph glyph-name="utilde" unicode="&#x169;" horiz-adv-x="1179" 
d="M295 950q75 0 113 -39q36 -37 36 -131v-301q0 -98 24 -152q24 -55 99 -55q152 0 152 250v275q0 75 50 114q49 39 126 39t120 -37q44 -38 44 -110q0 -323 2 -451q0 -38 2 -112q1 -54 3 -88q1 -22 1 -43q0 -59 -49 -90t-117 -31q-120 0 -143 92q-5 25 -13 55
q-99 -153 -262 -153q-191 0 -282 118q-92 119 -92 322q0 102 1 188t1 185q0 155 184 155zM430 1153q-4 -26 -30 -47t-70 -21q-43 0 -79 31q-34 30 -36 92q6 95 65 153q57 56 154 56q60 0 104 -27q38 -24 74 -56q30 -27 56 -29q37 0 41 38q11 74 106 74q42 0 74 -29
q33 -30 33 -75q0 -113 -59 -174q-59 -60 -154 -60q-71 0 -140 55q-68 55 -96 56q-18 0 -29 -11q-13 -13 -14 -26z" />
    <glyph glyph-name="Umacron" unicode="&#x16a;" horiz-adv-x="1433" 
d="M131 588q4 389 4 655q0 72 45 111t121 39q97 0 138 -41q40 -40 40 -135q-2 -178 -2 -619q0 -142 66 -219q66 -76 186 -76q115 0 172 84q58 85 62 213q8 25 4 326q-4 269 -4 307q0 162 176 162q91 0 131 -46q41 -47 41 -149l4 -569q-1 -284 -159 -464q-156 -179 -433 -179
q-269 0 -430 158q-162 159 -162 442zM555 1520q-69 0 -103 35t-34 90q0 58 34 93q35 36 99 36q37 0 72 -1t77 -1q13 0 109 2t121 2q127 0 127 -129q0 -60 -41 -93q-39 -32 -117 -32h-170q-50 0 -89 -1t-85 -1z" />
    <glyph glyph-name="umacron" unicode="&#x16b;" horiz-adv-x="1179" 
d="M295 950q75 0 113 -39q36 -37 36 -131v-301q0 -98 24 -152q24 -55 99 -55q152 0 152 250v275q0 75 50 114q49 39 126 39t120 -37q44 -38 44 -110q0 -323 2 -451q0 -38 2 -112q1 -54 3 -88q1 -22 1 -43q0 -59 -49 -90t-117 -31q-120 0 -143 92q-5 25 -13 55
q-99 -153 -262 -153q-191 0 -282 118q-92 119 -92 322q0 102 1 188t1 185q0 155 184 155zM410 1130q-70 0 -104 36q-34 35 -34 89q0 59 34 94t99 35q37 0 72 -1t78 -1q17 0 109 2t120 2q127 0 127 -129q0 -59 -41 -92q-39 -32 -116 -32h-170q-50 0 -89 -1q-78 -2 -85 -2z
" />
    <glyph glyph-name="Ubreve" unicode="&#x16c;" horiz-adv-x="1433" 
d="M131 588q4 389 4 655q0 72 45 111t121 39q97 0 138 -41q40 -40 40 -135q-2 -178 -2 -619q0 -142 66 -219q66 -76 186 -76q115 0 172 84q58 85 62 213q8 25 4 326q-4 269 -4 307q0 162 176 162q91 0 131 -46q41 -47 41 -149l4 -569q-1 -284 -159 -464q-156 -179 -433 -179
q-269 0 -430 158q-162 159 -162 442zM930 1833q48 0 78 -28q28 -27 28 -64q0 -129 -84 -212q-85 -83 -225 -83q-119 0 -207 76t-92 196q-1 45 30 79t79 34q43 0 70 -24q28 -25 32 -58q6 -38 30 -62t56 -24q39 0 67 26q26 25 31 60t32 59q28 25 75 25z" />
    <glyph glyph-name="ubreve" unicode="&#x16d;" horiz-adv-x="1179" 
d="M295 950q75 0 113 -39q36 -37 36 -131v-301q0 -98 24 -152q24 -55 99 -55q152 0 152 250v275q0 75 50 114q49 39 126 39t120 -37q44 -38 44 -110q0 -323 2 -451q0 -38 2 -112q1 -54 3 -88q1 -22 1 -43q0 -59 -49 -90t-117 -31q-120 0 -143 92q-5 25 -13 55
q-99 -153 -262 -153q-191 0 -282 118q-92 119 -92 322q0 102 1 188t1 185q0 155 184 155zM784 1444q48 0 78 -28q29 -27 29 -64q0 -130 -84 -212q-85 -83 -225 -83q-119 0 -207 76t-92 196q-2 46 29 79q31 34 79 34q44 0 71 -24q28 -25 32 -58q6 -40 29 -63t57 -23
q40 0 66 25q27 26 32 61t32 59q28 25 74 25z" />
    <glyph glyph-name="Uring" unicode="&#x16e;" horiz-adv-x="1433" 
d="M131 588q4 389 4 655q0 72 45 111t121 39q97 0 138 -41q40 -40 40 -135q-2 -178 -2 -619q0 -142 66 -219q66 -76 186 -76q115 0 172 84q58 85 62 213q8 25 4 326q-4 269 -4 307q0 162 176 162q91 0 131 -46q41 -47 41 -149l4 -569q-1 -284 -159 -464q-156 -179 -433 -179
q-269 0 -430 158q-162 159 -162 442zM725 1868q105 0 177 -64q71 -63 71 -166q0 -101 -73 -174q-71 -71 -177 -71q-99 0 -176 63q-76 63 -76 168q0 109 78 176q79 68 176 68zM807 1636q0 35 -25 58q-23 22 -63 22q-33 0 -57 -25q-25 -27 -25 -63q0 -31 25 -56q24 -24 59 -24
q37 0 61 27q25 28 25 61z" />
    <glyph glyph-name="uring" unicode="&#x16f;" horiz-adv-x="1179" 
d="M295 950q75 0 113 -39q36 -37 36 -131v-301q0 -98 24 -152q24 -55 99 -55q152 0 152 250v275q0 75 50 114q49 39 126 39t120 -37q44 -38 44 -110q0 -323 2 -451q0 -38 2 -112q1 -54 3 -88q1 -22 1 -43q0 -59 -49 -90t-117 -31q-120 0 -143 92q-5 25 -13 55
q-99 -153 -262 -153q-191 0 -282 118q-92 119 -92 322q0 102 1 188t1 185q0 155 184 155zM580 1520q105 0 177 -64q70 -63 70 -166q0 -102 -72 -174t-177 -72q-99 0 -177 64q-75 62 -75 168q0 109 77 176q79 68 177 68zM662 1288q0 35 -25 58q-23 22 -64 22q-33 0 -57 -26
t-24 -62q0 -32 24 -56t59 -24q38 0 62 27q25 28 25 61z" />
    <glyph glyph-name="Uhungarumlaut" unicode="&#x170;" horiz-adv-x="1433" 
d="M131 588q4 389 4 655q0 72 45 111t121 39q97 0 138 -41q40 -40 40 -135q-2 -178 -2 -619q0 -142 66 -219q66 -76 186 -76q115 0 172 84q58 85 62 213q8 25 4 326q-4 269 -4 307q0 162 176 162q91 0 131 -46q41 -47 41 -149l4 -569q-1 -284 -159 -464q-156 -179 -433 -179
q-269 0 -430 158q-162 159 -162 442zM786 1675l-157 -188q-33 -41 -80 -41q-40 0 -75 29q-34 28 -34 71q0 30 21 64l119 190q41 70 100 70q54 0 92 -34q39 -34 39 -85q0 -42 -25 -76zM1143 1655l-164 -176q-39 -39 -72 -39q-44 0 -79 25t-35 67q0 22 24 67l123 189
q45 72 102 72q51 0 92 -34q42 -34 42 -77q0 -53 -33 -94z" />
    <glyph glyph-name="uhungarumlaut" unicode="&#x171;" horiz-adv-x="1179" 
d="M295 950q75 0 113 -39q36 -37 36 -131v-301q0 -98 24 -152q24 -55 99 -55q152 0 152 250v275q0 75 50 114q49 39 126 39t120 -37q44 -38 44 -110q0 -323 2 -451q0 -38 2 -112q1 -54 3 -88q1 -22 1 -43q0 -59 -49 -90t-117 -31q-120 0 -143 92q-5 25 -13 55
q-99 -153 -262 -153q-191 0 -282 118q-92 119 -92 322q0 102 1 188t1 185q0 155 184 155zM641 1286l-158 -188q-33 -41 -80 -41q-40 0 -74 28t-34 72q0 31 20 64l119 190q41 70 101 70q54 0 92 -34q39 -35 39 -85q0 -42 -25 -76zM997 1266l-163 -176q-39 -39 -72 -39
q-44 0 -79 25q-36 26 -36 67q0 20 25 67l123 189q44 71 102 71q51 0 91 -33q42 -35 42 -77q0 -54 -33 -94z" />
    <glyph glyph-name="Uogonek" unicode="&#x172;" horiz-adv-x="1433" 
d="M756 -184q0 -56 55 -56q14 0 29 3q20 4 30 4q40 0 62 -33q22 -32 22 -86q0 -59 -46 -93t-122 -34q-114 0 -187 53t-73 174q0 132 144 244q-244 23 -391 174q-148 153 -148 422q4 389 4 655q0 72 45 111t121 39q97 0 138 -41q40 -40 40 -135q-2 -178 -2 -619
q0 -142 66 -219q66 -76 186 -76q115 0 172 84q58 85 62 213q8 25 4 326q-4 269 -4 307q0 162 176 162q91 0 131 -46q41 -47 41 -149l4 -569q-1 -235 -113 -404q-111 -168 -311 -219q-135 -111 -135 -192z" />
    <glyph glyph-name="uogonek" unicode="&#x173;" horiz-adv-x="1179" 
d="M866 -184q0 -56 56 -56q13 0 28 3q20 4 31 4q39 0 61 -33q23 -34 23 -86q0 -59 -46 -93t-122 -34q-114 0 -187 53t-73 174q0 152 166 264q-34 21 -45 68l-13 55q-99 -153 -262 -153q-191 0 -282 118q-92 119 -92 322q0 102 1 188t1 185q0 155 184 155q75 0 113 -39
q36 -37 36 -131v-301q0 -98 24 -152q24 -55 99 -55q152 0 152 250v275q0 75 50 114q49 39 126 39t120 -37q44 -38 44 -110q0 -323 2 -451q0 -38 2 -112q1 -54 3 -88q1 -22 1 -43q0 -69 -66 -99q-135 -111 -135 -194z" />
    <glyph glyph-name="Wcircumflex" unicode="&#x174;" horiz-adv-x="1792" 
d="M55 1223q-15 79 35 131q50 51 135 51q143 0 166 -123q55 -281 127 -690q10 27 27 84q37 126 62 210q7 23 43.5 141t56.5 187q37 123 190 123q59 0 104 -32q48 -34 66 -91l203 -618l98 586q21 125 59 170q39 47 123 47q81 0 137 -49t44 -127l-209 -1051q-22 -90 -62 -134
q-40 -45 -137 -46q-49 0 -83 14q-35 15 -58 45q-22 29 -35 57q-12 26 -27 66l-229 649l-232 -721q-16 -49 -69 -82q-52 -33 -123 -28q-107 6 -150 60q-42 52 -65 165q-146 700 -197 1006zM1094 1454q-39 -5 -80 33q-76 70 -125 127q-80 -91 -115 -123q-39 -39 -88 -39
q-35 0 -72 34q-36 33 -36 68q0 42 26 74q26 33 172 191q41 47 115 47q61 0 106 -45q94 -94 177 -193q26 -32 26 -72q0 -28 -34 -65t-72 -37z" />
    <glyph glyph-name="wcircumflex" unicode="&#x175;" horiz-adv-x="1552" 
d="M45 795v10q-1 4 -2 9v3q0 62 60 101q58 38 130 38q115 0 142 -104q1 -8 18 -84q14 -67 39 -175q21 -94 41 -161q16 44 62 193q49 160 73 221q39 94 164 94q122 0 172 -117l135 -389l60 254q16 86 45 170q33 88 143 88q66 0 124 -40q59 -41 60 -99q0 -18 -8 -53
q-78 -262 -135 -420l-72 -205q-23 -70 -66 -104q-44 -35 -136 -35q-136 0 -176 108q-23 51 -46 120q-42 125 -55 167q-10 33 -24.5 77t-18.5 56l-131 -354q-30 -91 -73 -134q-42 -42 -130 -42q-66 0 -106 22q-42 23 -58 48q-15 23 -34 77q-186 610 -197 660zM969 1065
q-39 -5 -80 33q-76 70 -125 127q-80 -91 -115 -123q-39 -39 -88 -39q-35 0 -72 34q-36 33 -36 68q0 42 26 74q26 33 172 191q41 47 115 47q61 0 106 -45q94 -94 177 -193q26 -32 26 -72q0 -28 -34 -65t-72 -37z" />
    <glyph glyph-name="Ycircumflex" unicode="&#x176;" horiz-adv-x="1277" 
d="M465 528l-43 62l-365 553q-32 51 -32 94q0 66 55 114t127 48q80 0 121 -62q76 -118 313 -508q1 4 299 494q46 78 141 78q59 0 115 -45q55 -45 55 -105q0 -56 -34 -102l-410 -621v-397q0 -64 -50 -102q-49 -37 -124 -37q-79 0 -125 45q-47 45 -47 115q0 5 2 79t2 84v213z
M852 1454q-39 -5 -80 33q-76 70 -125 127q-80 -91 -115 -123q-39 -39 -88 -39q-34 0 -71 34t-37 68q0 42 26 74q20 25 173 191q41 47 114 47q62 0 107 -45q88 -88 176 -193q26 -32 26 -72q0 -29 -33 -65q-34 -37 -73 -37z" />
    <glyph glyph-name="ycircumflex" unicode="&#x177;" horiz-adv-x="1075" 
d="M543 391q19 45 34 87q34 95 58 160q58 158 74 200q43 114 137 114q67 0 127 -39q59 -38 59 -92q0 -58 -35 -133q-50 -104 -132 -286q-88 -193 -163 -353q-87 -185 -149 -307q-111 -205 -324 -205q-200 0 -200 162q0 72 40 112q39 39 109 39q49 0 79 27t58 88q19 38 32 63
l26 50l-33 63l-264 549q-37 73 -37 131q0 57 57 98q55 39 119 39q54 0 83 -16t50 -61q51 -125 114 -287q60 -153 81 -203zM702 1065q-39 -4 -79 33q-76 70 -125 127q-80 -91 -115 -123q-39 -39 -88 -39q-35 0 -72 34t-37 68q0 41 27 74q26 33 172 191q41 47 115 47
q61 0 106 -45q88 -88 176 -193q27 -33 27 -72q0 -28 -34 -65t-73 -37z" />
    <glyph glyph-name="Ydieresis" unicode="&#x178;" horiz-adv-x="1277" 
d="M465 528l-43 62l-365 553q-32 51 -32 94q0 66 55 114t127 48q80 0 121 -62q76 -118 313 -508q1 4 299 494q46 78 141 78q59 0 115 -45q55 -45 55 -105q0 -56 -34 -102l-410 -621v-397q0 -64 -50 -102q-49 -37 -124 -37q-79 0 -125 45q-47 45 -47 115q0 5 2 79t2 84v213z
M457 1481q-64 0 -106 43q-42 44 -42 104q0 68 44 112t114 44q61 0 104 -42t43 -106q0 -68 -43 -111q-44 -44 -114 -44zM823 1485q-63 0 -105 43t-42 104q0 65 44 111q44 45 111 45q65 0 109 -42q43 -42 43 -106q0 -67 -44 -111t-116 -44z" />
    <glyph glyph-name="Zacute" unicode="&#x179;" horiz-adv-x="1177" 
d="M215 1077q-67 0 -105 41t-38 113q0 71 39 115q39 43 112 43l424 2q79 0 150 1t155 1q76 0 121 -39t45 -109q0 -65 -67 -160l-27 -38q-68 -94 -161 -222q-115 -157 -198 -273q-85 -119 -155 -224q-12 -21 -12 -25q67 0 211 2q90 1 180 5q72 3 84 3q81 0 119 -45
q36 -43 36 -112q0 -63 -38 -107q-39 -45 -125 -45q-477 -4 -748 -4q-104 0 -143 80q-10 24 -15 63q1 57 20 100q18 41 64 107l140 189l387 532l8 8q-121 0 -251 -1t-212 -1zM588 1470q-38 -28 -84 -28q-33 0 -76 37t-43 75q0 35 25 74l165 197q51 61 111 61q54 0 104 -47
t50 -102q0 -45 -43 -88q-76 -76 -209 -179z" />
    <glyph glyph-name="zacute" unicode="&#x17a;" horiz-adv-x="952" 
d="M432 662q-8 0 -22 -0.5t-39.5 -1.5t-45.5 -2q-74 -3 -124 -1q-133 1 -133 154q0 61 33 98q35 39 106 39q111 0 202 -1t187 -1h4q3 0 10.5 0.5t17 0.5t24 0.5t30.5 0.5q85 2 86 -2q78 -6 102 -61q13 -30 17 -80q-10 -94 -88 -182q-41 -49 -147 -155q-113 -113 -140 -142
l-35 -41l144 2q20 0 74 3t73 3q63 0 99 -39t36 -107q0 -150 -155 -151l-96 2q-96 2 -111 2q-7 0 -22.5 -0.5t-44 -1t-53.5 -0.5q-126 -2 -179 -2q-176 0 -176 151q0 86 90 191l315 324h-39zM487 1081q-38 -28 -84 -28q-32 0 -75 37t-43 75q0 37 24 74l166 197q51 61 111 61
q53 0 103 -47t50 -102q0 -45 -43 -88q-76 -76 -209 -179z" />
    <glyph glyph-name="Zdotaccent" unicode="&#x17b;" horiz-adv-x="1177" 
d="M215 1077q-67 0 -105 41t-38 113q0 71 39 115q39 43 112 43l424 2q79 0 150 1t155 1q76 0 121 -39t45 -109q0 -65 -67 -160l-27 -38q-68 -94 -161 -222q-115 -157 -198 -273q-85 -119 -155 -224q-12 -21 -12 -25q67 0 211 2q90 1 180 5q72 3 84 3q81 0 119 -45
q36 -43 36 -112q0 -63 -38 -107q-39 -45 -125 -45q-477 -4 -748 -4q-104 0 -143 80q-10 24 -15 63q1 57 20 100q18 41 64 107l140 189l387 532l8 8q-121 0 -251 -1t-212 -1zM571 1485q-82 0 -133 58t-39 140q8 66 65 107q58 41 122 41q84 0 130 -48q46 -47 46 -122
q0 -83 -53 -130q-52 -46 -138 -46z" />
    <glyph glyph-name="zdotaccent" unicode="&#x17c;" horiz-adv-x="952" 
d="M432 662q-8 0 -22 -0.5t-39.5 -1.5t-45.5 -2q-74 -3 -124 -1q-133 1 -133 154q0 61 33 98q35 39 106 39q111 0 202 -1t187 -1h4q3 0 10.5 0.5t17 0.5t24 0.5t30.5 0.5q85 2 86 -2q78 -6 102 -61q13 -30 17 -80q-10 -94 -88 -182q-41 -49 -147 -155q-113 -113 -140 -142
l-35 -41l144 2q20 0 74 3t73 3q63 0 99 -39t36 -107q0 -150 -155 -151l-96 2q-96 2 -111 2q-7 0 -22.5 -0.5t-44 -1t-53.5 -0.5q-126 -2 -179 -2q-176 0 -176 151q0 86 90 191l315 324h-39zM467 1096q-82 0 -133 58t-39 140q8 67 64 107q58 41 122 41q83 0 130 -48
q46 -47 46 -122q0 -83 -53 -130q-52 -46 -137 -46z" />
    <glyph glyph-name="Zcaron" unicode="&#x17d;" horiz-adv-x="1177" 
d="M215 1077q-67 0 -105 41t-38 113q0 71 39 115q39 43 112 43l424 2q79 0 150 1t155 1q76 0 121 -39t45 -109q0 -65 -67 -160l-27 -38q-68 -94 -161 -222q-115 -157 -198 -273q-85 -119 -155 -224q-12 -21 -12 -25q67 0 211 2q90 1 180 5q72 3 84 3q81 0 119 -45
q36 -43 36 -112q0 -63 -38 -107q-39 -45 -125 -45q-477 -4 -748 -4q-104 0 -143 80q-10 24 -15 63q1 57 20 100q18 41 64 107l140 189l387 532l8 8q-121 0 -251 -1t-212 -1zM377 1860q41 0 78 -33q76 -70 125 -127q84 96 114 123q39 39 88 39q35 0 72 -34t37 -69
q0 -40 -27 -73q-26 -33 -172 -191q-39 -45 -114 -45q-64 0 -107 43q-88 88 -176 193q-27 33 -27 73q0 31 35 66t74 35z" />
    <glyph glyph-name="zcaron" unicode="&#x17e;" horiz-adv-x="952" 
d="M432 662q-8 0 -22 -0.5t-39.5 -1.5t-45.5 -2q-74 -3 -124 -1q-133 1 -133 154q0 61 33 98q35 39 106 39q111 0 202 -1t187 -1h4q3 0 10.5 0.5t17 0.5t24 0.5t30.5 0.5q85 2 86 -2q78 -6 102 -61q13 -30 17 -80q-10 -94 -88 -182q-41 -49 -147 -155q-113 -113 -140 -142
l-35 -41l144 2q20 0 74 3t73 3q63 0 99 -39t36 -107q0 -150 -155 -151l-96 2q-96 2 -111 2q-7 0 -22.5 -0.5t-44 -1t-53.5 -0.5q-126 -2 -179 -2q-176 0 -176 151q0 86 90 191l315 324h-39zM276 1470q42 0 78 -32q76 -70 125 -127q80 91 115 123q39 39 88 39q35 0 72 -34
t37 -69q0 -41 -27 -74q-20 -25 -172 -190q-39 -45 -115 -45q-63 0 -106 43q-93 93 -176 192q-27 33 -27 74q0 31 35 66q34 34 73 34z" />
    <glyph glyph-name="florin" unicode="&#x192;" horiz-adv-x="1001" 
d="M766 651h-139l-86 -696q-27 -216 -144 -324t-284 -108q-120 0 -172 28q-60 30 -60 142q0 57 37 100t94 43h74q63 0 93 46q30 47 42 145l78 628h-66q-74 0 -104 34q-31 36 -31 110q0 66 43 106q44 41 109 41h88q12 97 30 170q20 81 57 151q42 80 95 127q57 51 148 82
q90 31 211 31q147 0 147 -153q0 -57 -34 -98q-34 -42 -83 -42l-48 3q-32 2 -44 2q-121 0 -155 -273h122q74 0 103 -35q30 -36 31 -102q2 -69 -40 -113q-42 -45 -112 -45z" />
    <glyph glyph-name="AEacute" unicode="&#x1fc;" horiz-adv-x="1888" 
d="M29 178q2 54 69 144q125 168 357 526q226 349 307 467q60 84 201 76l702 4q60 0 100 -38t41 -93q5 -123 -86 -152q-29 -10 -485 -10v-86l-4 -185v-2h47h305q72 0 107 -42q34 -41 34 -101q0 -141 -145 -141h-354q-2 -40 -2 -94q0 -43 1 -78t1 -78q94 -1 265 3q190 5 200 5
q62 0 100 -39q37 -38 37 -110q0 -74 -44 -116q-43 -41 -122 -46q-99 -2 -132 -1q-16 0 -40.5 0.5t-63 1t-68.5 0.5q-79 1 -192 1q-143 0 -206 30q-62 29 -72 117l-2 150h-373q-3 -5 -52 -85q-47 -77 -85 -134q-57 -89 -176 -84q-71 1 -123 55q-51 53 -47 135zM891 961
l-240 -398l240 4q0 25 1 46t1 49v137q0 45 -1 80t-1 82zM1110 1470q-38 -28 -84 -28q-33 0 -76 37t-43 75q0 35 25 74l166 197q51 61 110 61q54 0 104 -47t50 -102q0 -45 -43 -88q-76 -76 -209 -179z" />
    <glyph glyph-name="aeacute" unicode="&#x1fd;" horiz-adv-x="1636" 
d="M1200 393h-201q10 -50 57 -85q46 -34 103 -34q88 0 152 29q70 31 106 31q51 0 90 -47q39 -46 39 -111q0 -81 -105 -137q-104 -55 -302 -55q-96 0 -191 46q-98 47 -137 107q-50 -63 -139 -110q-86 -45 -193 -45q-196 0 -307 77q-113 78 -113 226q0 133 106 213t290 80
q30 0 182 -11q-15 109 -164 109q-47 0 -123 -24q-73 -23 -104 -23q-55 0 -91 41q-36 40 -36 100q0 71 55 111q107 82 324 82q100 0 188 -39t135 -105q50 62 142 103q93 41 184 41q189 0 313 -119q123 -119 123 -273q0 -99 -34 -136q-35 -39 -134 -40q-49 0 -107 -1t-108 -1z
M1145 694q-63 0 -107 -37q-45 -37 -49 -86q148 0 236 2q41 0 41 15q0 47 -34 77q-33 29 -87 29zM489 246q106 0 144 92l10 45q-72 6 -164 6q-50 0 -79 -19t-29 -53q0 -71 118 -71zM854 1081q-38 -28 -84 -28q-33 0 -76 37t-43 75q0 35 25 74l166 197q51 61 110 61
q54 0 104 -47t50 -102q0 -45 -43 -88q-76 -76 -209 -179z" />
    <glyph glyph-name="Oslashacute" unicode="&#x1fe;" horiz-adv-x="1523" 
d="M760 1409q159 0 307 -70l43 64q21 37 70 37q33 0 63 -27q31 -28 31 -57q0 -25 -10 -39l-50 -74q246 -205 246 -532q0 -305 -204 -518t-500 -213q-176 0 -326 77l-55 -84q-22 -36 -64 -36q-33 0 -62 23q-30 24 -30 56q0 28 14 50l58 88q-223 196 -223 512q0 329 212 538
t480 205zM1112 707q0 155 -82 256l-418 -629q66 -33 152 -33q145 0 247 121q101 120 101 285zM416 688q0 -144 67 -244l408 623q-70 29 -143 29q-148 0 -240 -115t-92 -293zM766 1470q-38 -28 -84 -28q-33 0 -76 37t-43 75q0 35 25 74l166 197q51 61 110 61q54 0 104 -47
t50 -102q0 -45 -43 -88q-76 -76 -209 -179z" />
    <glyph glyph-name="oslashacute" unicode="&#x1ff;" 
d="M604 963q37 0 78 -9q56 -13 82 -24l31 47q22 37 63 37q23 0 54 -22q30 -21 30 -46q0 -27 -18 -57l-23 -37q170 -141 170 -375q0 -215 -145 -354t-369 -139q-96 0 -180 28l-37 -59q-22 -37 -57 -37q-24 0 -55 23q-29 22 -29 49q0 21 18 51l27 45q-181 136 -181 365
q0 231 144 369q145 139 397 145zM395 453q0 -54 21 -93l190 312q-19 4 -31 4q-86 -2 -133 -61t-47 -162zM739 485q0 39 -18 80l-184 -299h16q80 0 133 62t53 157zM567 1081q-38 -28 -84 -28q-32 0 -75 37t-43 75q0 37 24 74l166 197q51 61 111 61q53 0 103 -47t50 -102
q0 -45 -43 -88q-76 -76 -209 -179z" />
    <glyph glyph-name="uni0218" unicode="&#x218;" horiz-adv-x="1185" 
d="M977 1341q86 -39 86 -145q0 -54 -42 -103q-43 -51 -101 -51q-47 0 -138 35q-87 31 -168 31q-70 0 -119 -37q-51 -39 -51 -88q0 -52 57 -79q59 -28 165 -50q217 -43 331 -135q115 -92 115 -279q0 -210 -146 -331q-146 -120 -372 -125q-241 -2 -408 77q-102 46 -102 152
q0 69 42 122q42 52 101 52q51 0 133 -31q2 0 40 -15t57 -20q35 -9 57 -13q36 -7 76 -7q75 0 124 37q50 38 50 96q0 94 -203 135q-218 44 -340 133q-123 90 -123 256q0 191 152 323t366 132q216 0 361 -72zM463 -426q0 30 61 82q15 28 3 40q-10 10 -32 40t-22 59q0 53 41 92
q40 39 100 39q64 0 107 -36t43 -101q0 -66 -29 -119q-30 -55 -56 -78q-19 -17 -79 -61q-26 -20 -70 -20q-27 0 -47 17t-20 46z" />
    <glyph glyph-name="uni0219" unicode="&#x219;" horiz-adv-x="937" 
d="M483 963q180 0 279 -43q80 -35 80 -109q0 -141 -125 -141q-37 0 -111 20q-78 21 -112 21q-111 0 -111 -58q0 -7 3 -15q3 -7 11 -12q2 -1 5 -3t5.5 -3.5t4.5 -2.5q7 -3 20 -6q4 -1 8.5 -1.5t9 -1.5t6.5 -1q9 -2 28 -3q4 0 30 -4q176 -24 268 -92t92 -201q0 -153 -108 -240
t-313 -87q-159 0 -267 45t-108 112q0 154 127 154q51 0 133 -24q79 -23 149 -23q84 0 84 55q0 28 -30 40q-25 10 -121 26q-338 50 -338 270q0 143 119 235q120 93 282 93zM336 -426q0 30 61 82q15 28 3 40q-10 10 -32 40t-22 59q0 53 41 92t100 39q63 0 107 -36
q43 -36 43 -101q0 -66 -29 -119q-30 -55 -56 -78q-19 -17 -79 -61q-26 -20 -70 -20q-27 0 -47 17t-20 46z" />
    <glyph glyph-name="uni021A" unicode="&#x21a;" horiz-adv-x="1198" 
d="M629 1389q1 0 11 0.5t30 1t42 0.5q76 1 177 3q67 1 160 1q133 0 133 -142q0 -163 -133 -163l-277 2v-62q0 -366 6 -878q2 -80 -47 -120t-137 -40q-76 0 -119 37q-42 37 -41 116l6 721q0 53 -4 224q-144 -3 -284 -3q-136 0 -136 156q0 147 144 148q23 0 54 -1t153 -1h262z
M446 -426q0 29 62 82q15 28 3 40q-13 13 -33 40q-21 29 -21 59q0 53 41 92q40 39 100 39q64 0 107 -36t43 -101q0 -66 -29 -119q-30 -55 -56 -78q-19 -17 -79 -61q-26 -20 -70 -20q-27 0 -47 17q-21 18 -21 46z" />
    <glyph glyph-name="uni021B" unicode="&#x21b;" horiz-adv-x="808" 
d="M125 662q-119 0 -119 143q0 59 36 98t91 39h64l4 109q6 176 182 176q64 0 99 -34q36 -35 36 -93q0 -32 -4 -156h117q64 2 98 -34q35 -37 35 -105q0 -59 -29 -100t-82 -41h-141v-267q0 -110 68 -110q21 0 44 5t35 5q53 0 85 -39q32 -40 32 -92q0 -100 -55 -137
q-61 -41 -197 -41q-149 0 -240 94t-91 287q0 10 0.5 27.5t1 50t0.5 57.5q2 102 0 158h-70zM322 -426q0 30 61 82q15 28 3 40q-13 13 -33 40q-21 28 -21 59q0 53 41 92t100 39q63 0 107 -36q43 -36 43 -101q0 -66 -29 -119q-30 -55 -56 -78q-19 -17 -79 -61q-23 -20 -70 -20
q-27 0 -47 17t-20 46z" />
    <glyph glyph-name="dotlessj" unicode="&#x237;" horiz-adv-x="571" 
d="M115 831q0 58 53 93q52 34 125 34q72 0 118 -31t46 -98q0 -131 -1 -225t-1 -239q0 -86 1 -155t1 -192q0 -63 -2 -161q-5 -139 -123 -240q-118 -100 -281 -102q-252 -5 -252 178q0 66 35 110q34 43 84 43q16 0 52 -6q34 -6 59 -4q52 1 73 49q21 47 21 146q0 269 -4 489
q-6 165 -4 311z" />
    <glyph glyph-name="circumflex" unicode="&#x2c6;" horiz-adv-x="794" 
d="M602 1065q-39 -5 -80 33q-76 70 -125 127q-84 -96 -114 -123q-39 -39 -88 -39q-35 0 -72 34t-37 68q0 41 27 74q26 33 172 191q41 47 114 47q62 0 107 -45q88 -88 176 -193q27 -33 27 -72q0 -28 -34 -65t-73 -37z" />
    <glyph glyph-name="caron" unicode="&#x2c7;" horiz-adv-x="790" 
d="M195 1475q40 0 77 -33q76 -70 125 -127q80 91 115 123q39 39 88 39q35 0 72 -34t37 -69q0 -41 -27 -74q-20 -25 -172 -190q-39 -45 -115 -45q-63 0 -106 43q-93 93 -176 192q-27 33 -27 74q0 31 35 66t74 35z" />
    <glyph glyph-name="breve" unicode="&#x2d8;" horiz-adv-x="786" 
d="M594 1450q48 0 78 -28q28 -27 28 -64q0 -130 -84 -212q-85 -83 -225 -83q-119 0 -207 76t-92 196q-1 45 30 79t79 34q43 0 70 -24q28 -25 32 -58q6 -38 30 -62t56 -24q39 0 67 26q26 25 31 60t32 59q28 25 75 25z" />
    <glyph glyph-name="dotaccent" unicode="&#x2d9;" horiz-adv-x="514" 
d="M248 1096q-82 0 -133 58t-39 140q8 67 64 107q58 41 122 41q84 0 130 -48q46 -47 46 -122q0 -83 -53 -130q-52 -46 -137 -46z" />
    <glyph glyph-name="ring" unicode="&#x2da;" horiz-adv-x="665" 
d="M336 1520q105 0 177 -64q71 -63 71 -166q0 -101 -73 -174q-72 -72 -177 -72q-98 0 -176 64q-76 63 -76 168q0 108 78 176q79 68 176 68zM418 1288q0 35 -25 58q-23 22 -63 22q-34 0 -58 -26t-24 -62q0 -32 24 -56t60 -24q37 0 61 27q25 28 25 61z" />
    <glyph glyph-name="ogonek" unicode="&#x2db;" horiz-adv-x="591" 
d="M311 -184q0 -56 56 -56q13 0 28 3q20 4 31 4q38 0 61 -33q23 -34 23 -86q0 -59 -46 -93t-122 -34q-114 0 -187 53t-73 174q0 153 186 275l209 8q-166 -129 -166 -215z" />
    <glyph glyph-name="tilde" unicode="&#x2dc;" horiz-adv-x="870" 
d="M297 1153q-4 -26 -30 -47q-25 -21 -70 -21q-43 0 -79 31q-34 30 -36 92q6 97 64 153q57 56 155 56q59 0 103 -27q41 -26 75 -56q30 -27 56 -29q36 0 40 38q11 74 107 74q42 0 74 -29t32 -75q0 -115 -58 -174q-58 -60 -155 -60q-70 0 -139 55q-68 55 -96 56q-18 0 -29 -11
q-13 -13 -14 -26z" />
    <glyph glyph-name="hungarumlaut" unicode="&#x2dd;" horiz-adv-x="874" 
d="M426 1286l-158 -188q-33 -41 -80 -41q-40 0 -74 28t-34 72q0 31 20 64l119 190q41 70 100 70q55 0 93 -34q39 -35 39 -85q0 -42 -25 -76zM782 1266l-164 -176q-39 -39 -71 -39q-44 0 -79 25q-36 26 -36 67q0 20 25 67l123 189q44 71 102 71q51 0 91 -33q42 -35 42 -77
q0 -54 -33 -94z" />
    <glyph glyph-name="pi" unicode="&#x3c0;" horiz-adv-x="1402" 
d="M856 1100l-278 -2v-64q0 -368 6 -880q2 -81 -47 -121q-50 -41 -138 -41q-74 0 -118 38q-43 37 -41 117q6 719 6 723q0 53 -4 224q-4 0 -54 -2t-51 -2q-133 0 -133 157q0 142 143 148q62 -2 149 -2q86 0 148 -2q163 0 411 4t411 4q62 0 96 -37q35 -38 35 -105
q0 -81 -30 -120t-101 -39h-78v-62q0 -368 6 -880q2 -81 -47 -121q-50 -41 -137 -41q-75 0 -118 38q-42 37 -40 118q6 718 6 720z" />
    <glyph glyph-name="Wgrave" unicode="&#x1e80;" horiz-adv-x="1792" 
d="M55 1223q-15 79 35 131q50 51 135 51q143 0 166 -123q55 -281 127 -690q10 27 27 84q37 126 62 210q7 23 43.5 141t56.5 187q37 123 190 123q59 0 104 -32q48 -34 66 -91l203 -618l98 586q21 125 59 170q39 47 123 47q81 0 137 -49t44 -127l-209 -1051q-22 -90 -62 -134
q-40 -45 -137 -46q-49 0 -83 14q-35 15 -58 45q-22 29 -35 57q-12 26 -27 66l-229 649l-232 -721q-16 -49 -69 -82q-52 -33 -123 -28q-107 6 -150 60q-42 52 -65 165q-146 700 -197 1006zM881 1483q-156 144 -197 188q-37 38 -37 90q0 44 50 88q49 43 100 43q69 0 112 -57
q3 -4 22 -28.5t32 -42.5q7 -9 28 -37t30 -41q12 -17 38 -58q22 -28 22 -67q0 -40 -37 -74q-38 -35 -73 -35q-51 0 -90 31z" />
    <glyph glyph-name="wgrave" unicode="&#x1e81;" horiz-adv-x="1552" 
d="M45 795v10q-1 4 -2 9v3q0 62 60 101q58 38 130 38q115 0 142 -104q1 -8 18 -84q14 -67 39 -175q21 -94 41 -161q16 44 62 193q49 160 73 221q39 94 164 94q122 0 172 -117l135 -389l60 254q16 86 45 170q33 88 143 88q66 0 124 -40q59 -41 60 -99q0 -18 -8 -53
q-78 -262 -135 -420l-72 -205q-23 -70 -66 -104q-44 -35 -136 -35q-136 0 -176 108q-23 51 -46 120q-42 125 -55 167q-10 33 -24.5 77t-18.5 56l-131 -354q-30 -91 -73 -134q-42 -42 -130 -42q-66 0 -106 22q-42 23 -58 48q-15 23 -34 77q-186 610 -197 660zM756 1094
q-156 144 -197 188q-37 38 -37 90q0 44 50 88q49 43 100 43q69 0 112 -57q3 -4 22 -28.5t32 -42.5q28 -37 58 -79q17 -23 38 -57q22 -28 22 -68t-36 -73q-38 -35 -74 -35q-51 0 -90 31z" />
    <glyph glyph-name="Wacute" unicode="&#x1e82;" horiz-adv-x="1792" 
d="M55 1223q-15 79 35 131q50 51 135 51q143 0 166 -123q55 -281 127 -690q10 27 27 84q37 126 62 210q7 23 43.5 141t56.5 187q37 123 190 123q59 0 104 -32q48 -34 66 -91l203 -618l98 586q21 125 59 170q39 47 123 47q81 0 137 -49t44 -127l-209 -1051q-22 -90 -62 -134
q-40 -45 -137 -46q-49 0 -83 14q-35 15 -58 45q-22 29 -35 57q-12 26 -27 66l-229 649l-232 -721q-16 -49 -69 -82q-52 -33 -123 -28q-107 6 -150 60q-42 52 -65 165q-146 700 -197 1006zM897 1470q-38 -28 -84 -28q-33 0 -76 37t-43 75q0 35 25 74l166 197q51 61 110 61
q54 0 104 -47t50 -102q0 -45 -43 -88q-76 -76 -209 -179z" />
    <glyph glyph-name="wacute" unicode="&#x1e83;" horiz-adv-x="1552" 
d="M45 795v10q-1 4 -2 9v3q0 62 60 101q58 38 130 38q115 0 142 -104q1 -8 18 -84q14 -67 39 -175q21 -94 41 -161q16 44 62 193q49 160 73 221q39 94 164 94q122 0 172 -117l135 -389l60 254q16 86 45 170q33 88 143 88q66 0 124 -40q59 -41 60 -99q0 -18 -8 -53
q-78 -262 -135 -420l-72 -205q-23 -70 -66 -104q-44 -35 -136 -35q-136 0 -176 108q-23 51 -46 120q-42 125 -55 167q-10 33 -24.5 77t-18.5 56l-131 -354q-30 -91 -73 -134q-42 -42 -130 -42q-66 0 -106 22q-42 23 -58 48q-15 23 -34 77q-186 610 -197 660zM772 1081
q-38 -28 -84 -28q-33 0 -76 37t-43 75q0 35 25 74l166 197q51 61 110 61q54 0 104 -47t50 -102q0 -45 -43 -88q-76 -76 -209 -179z" />
    <glyph glyph-name="Wdieresis" unicode="&#x1e84;" horiz-adv-x="1792" 
d="M55 1223q-15 79 35 131q50 51 135 51q143 0 166 -123q55 -281 127 -690q10 27 27 84q37 126 62 210q7 23 43.5 141t56.5 187q37 123 190 123q59 0 104 -32q48 -34 66 -91l203 -618l98 586q21 125 59 170q39 47 123 47q81 0 137 -49t44 -127l-209 -1051q-22 -90 -62 -134
q-40 -45 -137 -46q-49 0 -83 14q-35 15 -58 45q-22 29 -35 57q-12 26 -27 66l-229 649l-232 -721q-16 -49 -69 -82q-52 -33 -123 -28q-107 6 -150 60q-42 52 -65 165q-146 700 -197 1006zM698 1481q-63 0 -105 43t-42 104q0 68 44 112t114 44q61 0 104 -42t43 -106
q0 -68 -43 -111q-44 -44 -115 -44zM1065 1485q-64 0 -106 43q-41 42 -41 104q0 65 44 111q44 45 111 45q65 0 109 -42q43 -42 43 -106q0 -67 -44 -111t-116 -44z" />
    <glyph glyph-name="wdieresis" unicode="&#x1e85;" horiz-adv-x="1552" 
d="M45 795v10q-1 4 -2 9v3q0 62 60 101q58 38 130 38q115 0 142 -104q1 -8 18 -84q14 -67 39 -175q21 -94 41 -161q16 44 62 193q49 160 73 221q39 94 164 94q122 0 172 -117l135 -389l60 254q16 86 45 170q33 88 143 88q66 0 124 -40q59 -41 60 -99q0 -18 -8 -53
q-78 -262 -135 -420l-72 -205q-23 -70 -66 -104q-44 -35 -136 -35q-136 0 -176 108q-23 51 -46 120q-42 125 -55 167q-10 33 -24.5 77t-18.5 56l-131 -354q-30 -91 -73 -134q-42 -42 -130 -42q-66 0 -106 22q-42 23 -58 48q-15 23 -34 77q-186 610 -197 660zM573 1092
q-63 0 -105 43t-42 104q0 69 45 112q46 44 113 44q60 0 104 -42q43 -42 43 -106q0 -68 -43 -111q-44 -44 -115 -44zM940 1096q-63 0 -105 43t-42 104q0 65 44 111q43 45 111 45q66 0 109 -42t43 -106q0 -67 -44 -111t-116 -44z" />
    <glyph glyph-name="uni1E9E" unicode="&#x1e9e;" horiz-adv-x="1404" 
d="M690 864l168 215q-94 25 -160 25q-94 0 -160 -80q-67 -81 -67 -193q0 -13 3 -252q3 -216 1 -403q-1 -102 -48 -141q-47 -40 -140 -41q-74 -2 -119 41q-47 44 -47 115q0 41 1 84q0 19 0.5 48.5t1 77t0.5 85.5q1 98 1 364q0 280 173 442q172 162 437 162q239 0 395 -90
q40 -22 71 -70q30 -46 30 -98q0 -57 -33 -100l-233 -267q164 -61 221 -96q149 -98 149 -291q0 -171 -121 -292t-319 -121q-139 0 -225 44t-86 120q0 68 36 118q36 49 97 49q41 0 94 -15q52 -15 84 -15q51 0 83 27t32 81q0 67 -66 104q-68 38 -180 68q-121 34 -121 168
q0 71 47 127z" />
    <glyph glyph-name="Ygrave" unicode="&#x1ef2;" horiz-adv-x="1277" 
d="M465 528l-43 62l-365 553q-32 51 -32 94q0 66 55 114t127 48q80 0 121 -62q76 -118 313 -508q1 4 299 494q46 78 141 78q59 0 115 -45q55 -45 55 -105q0 -56 -34 -102l-410 -621v-397q0 -64 -50 -102q-49 -37 -124 -37q-79 0 -125 45q-47 45 -47 115q0 5 2 79t2 84v213z
M639 1483q-156 144 -197 188q-37 38 -37 90q0 43 51 88q49 43 99 43q69 0 113 -57q30 -40 53 -71q7 -9 28 -37t30 -41q12 -17 38 -58q23 -29 23 -67q0 -40 -37 -74q-38 -35 -74 -35q-51 0 -90 31z" />
    <glyph glyph-name="ygrave" unicode="&#x1ef3;" horiz-adv-x="1075" 
d="M543 391q19 45 34 87q34 95 58 160q58 158 74 200q43 114 137 114q67 0 127 -39q59 -38 59 -92q0 -58 -35 -133q-50 -104 -132 -286q-88 -193 -163 -353q-87 -185 -149 -307q-111 -205 -324 -205q-200 0 -200 162q0 72 40 112q39 39 109 39q49 0 79 27t58 88q19 38 32 63
l26 50l-33 63l-264 549q-37 73 -37 131q0 57 57 98q55 39 119 39q54 0 83 -16t50 -61q51 -125 114 -287q60 -153 81 -203zM489 1094q-148 137 -196 188q-37 38 -37 90q0 44 50 88q49 43 100 43q68 0 112 -57q30 -40 53 -71q9 -13 29.5 -40t29.5 -39q17 -23 38 -57
q22 -28 22 -68q0 -39 -37 -73q-38 -35 -73 -35q-52 0 -91 31z" />
    <glyph glyph-name="endash" unicode="&#x2013;" horiz-adv-x="1024" 
d="M166 342q-72 0 -109 43t-37 109q0 71 36 113t104 42q139 0 332 -1t372 -1q137 0 137 -155q0 -70 -44 -111t-121 -41q-150 0 -335 1t-335 1z" />
    <glyph glyph-name="emdash" unicode="&#x2014;" horiz-adv-x="2048" 
d="M193 342q-72 0 -109 43t-37 109q0 71 36 113t103 42q302 0 818 -1t858 -1q137 0 137 -155q0 -70 -44 -111t-122 -41q-310 0 -819 1t-821 1z" />
    <glyph glyph-name="quoteleft" unicode="&#x2018;" horiz-adv-x="483" 
d="M307 1243q42 -6 71 -43q31 -38 32 -98q2 -70 -51 -120t-117 -50q-86 0 -138 52q-53 53 -53 144q0 100 55 186q55 87 140 138q34 21 61 21q33 0 60 -24q26 -23 26 -54q0 -42 -28 -66q-58 -52 -58 -82v-4z" />
    <glyph glyph-name="quoteright" unicode="&#x2019;" horiz-adv-x="483" 
d="M164 1163q-42 6 -71 43q-31 38 -32 99q-2 69 51 119q54 51 117 51q85 0 138 -53t53 -144q0 -99 -55 -185q-56 -88 -140 -139q-33 -20 -61 -20q-34 0 -60 23t-26 55q0 41 28 65q58 52 58 82v4z" />
    <glyph glyph-name="quotesinglbase" unicode="&#x201a;" horiz-adv-x="483" 
d="M164 4q-42 6 -71 43q-31 38 -32 98q-2 70 51 120t117 50q86 0 138 -52q53 -53 53 -144q0 -100 -55 -186q-55 -87 -140 -138q-33 -20 -61 -20q-34 0 -60 23t-26 55q0 41 28 65q58 52 58 82v4z" />
    <glyph glyph-name="quotedblleft" unicode="&#x201c;" horiz-adv-x="884" 
d="M307 1247q42 -6 71 -43q31 -38 32 -98q2 -70 -51 -120t-117 -50q-86 0 -138 52q-53 53 -53 145q0 99 55 185q55 87 140 138q34 21 61 21q33 0 60 -24q26 -23 26 -54q0 -42 -28 -66q-58 -52 -58 -82v-4zM709 1247q40 -6 70 -43q31 -38 32 -98q2 -71 -50 -120
q-53 -50 -118 -50q-85 0 -137 52q-53 53 -53 145q0 99 55 185q56 87 139 138q35 21 62 21q32 0 59 -24t27 -54q0 -42 -29 -66q-57 -51 -57 -82v-4z" />
    <glyph glyph-name="quotedblright" unicode="&#x201d;" horiz-adv-x="884" 
d="M164 1163q-42 6 -71 43q-31 38 -32 99q-2 69 51 119q54 51 117 51q85 0 138 -53t53 -144q0 -99 -55 -185q-56 -88 -140 -139q-33 -20 -61 -20q-34 0 -60 23t-26 55q0 41 28 65q58 52 58 82v4zM565 1163q-40 6 -70 43q-31 38 -32 99q-2 70 50 119q54 51 118 51
q84 0 137 -53t53 -144q0 -99 -55 -185q-57 -89 -139 -139q-33 -20 -62 -20q-33 0 -59 23q-27 24 -27 55q0 41 29 65q57 51 57 82v4z" />
    <glyph glyph-name="quotedblbase" unicode="&#x201e;" horiz-adv-x="884" 
d="M164 4q-42 6 -71 43q-31 38 -32 98q-2 70 51 120t117 50q86 0 138 -52q53 -53 53 -144q0 -100 -55 -186q-55 -87 -140 -138q-33 -20 -61 -20q-34 0 -60 23t-26 55q0 41 28 65q58 52 58 82v4zM565 4q-40 6 -70 43q-31 38 -32 98q-2 71 50 120q53 50 118 50q85 0 137 -52
q53 -53 53 -144q0 -100 -55 -186q-56 -87 -139 -138q-33 -20 -62 -20q-33 0 -59 23q-27 24 -27 55q0 41 29 65q57 51 57 82v4z" />
    <glyph glyph-name="dagger" unicode="&#x2020;" horiz-adv-x="1126" 
d="M195 733q-148 0 -148 152q0 69 36 109t99 40q15 0 103 -2t110 -2l-2 303q0 164 170 164q89 0 129 -36q41 -36 41 -130q0 -75 -3 -163t-3 -140l215 2q137 0 137 -151q0 -148 -153 -148l-199 2q0 -246 1 -494t1 -481q0 -74 -46 -114q-47 -41 -122 -41q-71 0 -120 39
q-50 39 -50 104q0 136 1 245t1 247q0 136 1 247t1 250z" />
    <glyph glyph-name="daggerdbl" unicode="&#x2021;" horiz-adv-x="1126" 
d="M195 733q-148 0 -148 156q0 139 133 139q36 0 63 -1t75 -1q23 0 75 2l-4 330q0 55 46 91q47 36 124 36q166 0 166 -139q0 -13 -2 -127t-2 -193l221 4q137 0 137 -151q0 -148 -153 -148l-205 4q-1 -88 0 -236q0 -43 0.5 -82.5t1 -59t0.5 -23.5l219 4q137 0 137 -152
q0 -147 -153 -147l-203 4q0 -47 3 -142q3 -94 3 -143q0 -80 -48 -117q-49 -38 -122 -38q-72 0 -121 37t-49 104l4 301l-198 -2q-70 0 -108 41t-38 104q0 70 36 111t103 41l205 -4v82v319z" />
    <glyph glyph-name="bullet" unicode="&#x2022;" horiz-adv-x="716" 
d="M350 195q-127 0 -208 77q-83 78 -83 201q0 136 86 222q85 85 222 85q120 0 204 -84t84 -207q0 -139 -82 -217q-81 -77 -223 -77z" />
    <glyph glyph-name="ellipsis" unicode="&#x2026;" horiz-adv-x="1517" 
d="M244 -16q-77 0 -130 50t-53 128q0 82 56 136q55 54 139 54q81 0 133 -49q53 -50 53 -131q0 -84 -54 -136q-53 -52 -144 -52zM750 -16q-77 0 -130 50t-53 128q0 82 56 136q55 54 139 54q81 0 133 -49q53 -50 53 -131q0 -84 -54 -136q-53 -52 -144 -52zM1255 -16
q-77 0 -130 50q-52 49 -52 128q0 82 55 136q56 54 140 54q81 0 133 -49q53 -50 53 -131q0 -84 -54 -136q-53 -52 -145 -52z" />
    <glyph glyph-name="perthousand" unicode="&#x2030;" horiz-adv-x="2433" 
d="M1059 1315q32 54 82 71t100 -10q111 -66 49 -168q-14 -25 -136 -215q-136 -211 -179 -284q-27 -49 -121 -208q-20 -34 -40 -67.5t-28 -46.5t-8 -14l-194 -324q-27 -46 -82 -53q-56 -8 -92 14q-45 23 -59 70q-13 46 16 98l350 547zM41 999q0 182 88 289q89 109 242 109
t241 -105q88 -104 88 -278q0 -167 -95 -265t-234 -98q-133 0 -232 93q-98 92 -98 255zM371 1182q-101 0 -101 -166q0 -152 99 -152q44 0 71 51t27 115q0 152 -96 152zM977 336q0 179 86 285q85 104 244 104q155 0 246 -102q92 -103 92 -275q0 -169 -95 -267
q-94 -97 -241 -97q-138 0 -235 94t-97 258zM1309 522q-101 0 -101 -184q0 -152 95 -152q102 0 102 160q0 176 -96 176zM1724 336q0 179 86 285q85 104 244 104q156 0 247 -102q91 -101 91 -275q0 -170 -94 -267t-242 -97q-137 0 -234 94q-98 95 -98 258zM2056 522
q-100 0 -100 -184q0 -152 94 -152q102 0 102 160q0 176 -96 176z" />
    <glyph glyph-name="guilsinglleft" unicode="&#x2039;" horiz-adv-x="686" 
d="M575 702l-190 -225l186 -215q35 -40 35 -88q0 -31 -34 -65q-36 -36 -68 -37q-51 -2 -82 24l-283 252q-59 59 -59 129q0 68 51 119q139 140 279 258q34 25 77 25q40 0 80 -35q39 -34 39 -74q0 -34 -31 -68z" />
    <glyph glyph-name="guilsinglright" unicode="&#x203a;" horiz-adv-x="686" 
d="M301 477l-190 225q-31 34 -31 68q0 40 39 74q40 35 80 35q43 0 77 -25q140 -118 279 -258q51 -51 51 -119q0 -70 -59 -129l-283 -252q-31 -26 -82 -24q-32 1 -68 37q-34 34 -34 65q0 48 35 88z" />
    <glyph glyph-name="fraction" unicode="&#x2044;" horiz-adv-x="966" 
d="M739 1317q45 78 101 78q43 0 74 -29q30 -28 30 -66q0 -32 -24 -75q-82 -134 -142 -231q-122 -195 -174 -285l-391 -658q-33 -57 -90 -57q-36 0 -70 29q-33 29 -33 71q0 31 31 84z" />
    <glyph glyph-name="zerosuperior" unicode="&#x2070;" horiz-adv-x="757" 
d="M47 1126q0 210 90 319t242 109q156 0 244 -104t88 -295q0 -192 -94 -295q-93 -102 -230 -102q-146 0 -243 94t-97 274zM379 1341q-103 0 -103 -200q0 -84 27 -129t70 -45q56 0 84 49t28 135q0 190 -106 190z" />
    <glyph glyph-name="foursuperior" unicode="&#x2074;" horiz-adv-x="722" 
d="M373 1147q0 51 26 77q27 27 70 27q107 0 113 -71v-80h28q88 0 88 -96q0 -117 -86 -117h-28v-49q-1 -82 -111 -84q-100 -4 -100 82v53h-238q-41 0 -73 42q-31 41 -31 85q0 74 49 147l184 332q44 64 103 64q46 0 90 -32q43 -31 43 -69q0 -26 -17 -55l-184 -309l74 2v51z
" />
    <glyph glyph-name="fivesuperior" unicode="&#x2075;" horiz-adv-x="677" 
d="M109 1436q6 50 33 80t73 30h274q105 0 105 -108q0 -103 -109 -103l-178 4l-6 -28l-4 -33q12 12 57 12q124 0 199 -65q76 -66 76 -185q0 -126 -74 -206t-225 -80q-128 0 -213 47q-64 38 -64 102q0 43 30 77t79 34q13 0 59 -19q44 -22 107 -22q69 0 69 55q0 30 -26 44
q-27 15 -60 15q-13 0 -54 -12q-40 -12 -71 -12q-52 0 -89 34t-27 83q8 58 19 124q15 91 20 132z" />
    <glyph glyph-name="sixsuperior" unicode="&#x2076;" horiz-adv-x="716" 
d="M403 1335q-81 0 -98 -47q-4 -11 -4 -31q58 29 100 29q122 0 196 -62q75 -63 75 -192q0 -127 -79 -203q-78 -75 -222 -75q-246 0 -297 245q-11 60 -11 129q0 188 92 307q90 117 244 117q105 0 160 -26q66 -34 66 -101q0 -45 -27 -76q-27 -32 -70 -32q-20 0 -55 8
q-44 10 -70 10zM375 1100q-35 2 -59 -18q-23 -19 -23 -56q0 -65 69 -65q89 0 89 67q0 30 -22 50q-22 21 -54 22z" />
    <glyph glyph-name="sevensuperior" unicode="&#x2077;" horiz-adv-x="649" 
d="M328 1337q-54 0 -99 -1t-106 -1q-55 0 -77 28q-21 27 -21 83q0 52 30 76t76 24q109 0 195 1t198 1q50 0 75 -29q26 -31 26 -73q0 -53 -39 -113q-123 -180 -183 -325q-35 -80 -47 -144q-12 -55 -37 -80q-24 -24 -83 -24q-57 0 -90 31q-31 30 -31 75q0 48 53 178
q67 162 160 293z" />
    <glyph glyph-name="eightsuperior" unicode="&#x2078;" horiz-adv-x="722" 
d="M653 1323q0 -47 -22 -90q-22 -42 -62 -59q103 -30 103 -152q2 -135 -81 -203q-82 -67 -233 -67q-138 0 -224 65q-87 66 -87 184q0 52 31 102q30 48 82 66q-32 7 -57 54q-23 43 -23 94q0 109 84 173q83 64 192 64q127 0 212 -64t85 -167zM360 1087q-33 0 -52 -20t-19 -51
q0 -29 19 -44q21 -16 46 -16q80 0 80 62q0 31 -19 50t-55 19zM307 1311q0 -54 51 -54q66 0 66 58q0 19 -17 32t-47 13q-21 0 -36 -14q-17 -15 -17 -35z" />
    <glyph glyph-name="ninesuperior" unicode="&#x2079;" horiz-adv-x="727" 
d="M328 979q36 0 65 18q29 19 31 52q-44 -23 -109 -23q-105 0 -183 64q-77 63 -77 188t86 200q84 74 219 74q116 0 187 -56t95 -132t24 -174q0 -220 -80 -329q-79 -107 -264 -107q-99 0 -183 39q-55 24 -55 100q0 41 28 77q27 34 70 34q8 0 62 -13q40 -12 84 -12zM346 1210
q82 -4 82 74q0 29 -21 47q-22 19 -51 19t-53 -19q-22 -18 -22 -53q0 -29 19 -47q21 -20 46 -21z" />
    <glyph glyph-name="zeroinferior" unicode="&#x2080;" horiz-adv-x="757" 
d="M47 20q0 210 90 319q90 110 242 110q155 0 244 -105q88 -104 88 -295q0 -192 -94 -295q-93 -102 -230 -102q-146 0 -243 94t-97 274zM379 236q-103 0 -103 -201q0 -84 27 -129t70 -45q56 0 84 49t28 135q0 191 -106 191z" />
    <glyph glyph-name="oneinferior" unicode="&#x2081;" horiz-adv-x="532" 
d="M176 127q-25 -14 -59 -14q-40 0 -68 34q-29 35 -29 74q0 57 66 101q49 30 90 59q32 22 41 29q54 32 100 32t81 -29q36 -30 36 -65v-190q0 -118 -1 -210t-1 -210q0 -41 -34 -65q-33 -23 -81 -23q-112 0 -112 104q0 8 0.5 30.5t1 66.5t0.5 86q2 204 2 213q0 -2 -33 -23z
" />
    <glyph glyph-name="twoinferior" unicode="&#x2082;" horiz-adv-x="669" 
d="M313 225q-38 0 -73 -41q-30 -34 -95 -34q-41 0 -70 32q-30 33 -30 76q0 65 86 131q89 57 174 57q132 4 221 -65q88 -69 88 -191q0 -49 -13 -85q-14 -38 -56 -82q-44 -45 -62 -62q-9 -8 -92 -76l-20 -14q68 0 93 1l50 2q8 1 18 1q99 0 99 -111q0 -112 -109 -112h-38h-52
h-29h-253q-45 0 -78 33t-33 86q0 79 70 143l157 145q10 10 25 21q83 77 84 96q0 19 -19 35q-17 14 -43 14z" />
    <glyph glyph-name="threeinferior" unicode="&#x2083;" horiz-adv-x="667" 
d="M383 -84q0 55 -102 55h-43q-39 0 -62 28q-22 26 -22 71q0 37 47 84t86 75q-33 0 -64 -1t-63 -1q-111 0 -111 105q0 44 25 77q24 31 76 31h133h229q43 0 66 -29q24 -30 24 -69q0 -56 -33 -84q-8 -10 -25 -28q-27 -27 -46 -45q-38 -36 -54 -52q71 -15 119 -68
q49 -54 51 -143q2 -135 -87 -206q-88 -70 -220 -70q-109 0 -186 39q-70 38 -70 106q0 46 32 81q31 34 67 34q28 0 90 -25q32 -16 61 -16q82 0 82 51z" />
    <glyph glyph-name="fourinferior" unicode="&#x2084;" horiz-adv-x="722" 
d="M373 41q0 51 26 77q27 27 70 27q107 0 113 -71v-80h28q88 0 88 -96q0 -117 -86 -117h-28v-49q-1 -82 -111 -84q-100 -4 -100 82v53h-238q-41 0 -73 42q-31 41 -31 85q0 74 49 147l184 332q44 64 103 64q46 0 90 -32q43 -31 43 -69q0 -26 -17 -55l-184 -309l74 2v51z" />
    <glyph glyph-name="fiveinferior" unicode="&#x2085;" horiz-adv-x="677" 
d="M109 330q6 50 33 80t73 30h274q105 0 105 -108q0 -103 -109 -103l-178 4l-6 -28l-4 -33q12 12 57 12q124 0 199 -65q76 -66 76 -185q0 -126 -74 -206t-225 -80q-128 0 -213 47q-64 38 -64 102q0 43 30 77t79 34q13 0 59 -19q44 -22 107 -22q69 0 69 55q0 30 -26 44
q-29 16 -60 16q-10 0 -54 -13q-41 -12 -71 -12q-52 0 -89 34t-27 83q8 58 19 124q15 91 20 132z" />
    <glyph glyph-name="sixinferior" unicode="&#x2086;" horiz-adv-x="716" 
d="M403 229q-81 0 -98 -47q-4 -11 -4 -30q56 28 100 28q122 0 196 -62q75 -63 75 -192q0 -126 -79 -202t-222 -76q-246 0 -297 246q-11 60 -11 129q0 187 92 306q90 117 244 117q105 0 160 -26q66 -34 66 -101q0 -45 -27 -76q-27 -32 -70 -32q-20 0 -55 8q-44 10 -70 10z
M375 -6q-35 2 -59 -18q-23 -19 -23 -56q0 -65 69 -65q89 0 89 67q0 30 -22 50q-22 21 -54 22z" />
    <glyph glyph-name="seveninferior" unicode="&#x2087;" horiz-adv-x="649" 
d="M328 231q-54 0 -99 -1t-106 -1q-55 0 -77 28q-21 27 -21 83q0 52 30 76t76 24q109 0 195 1t198 1q50 0 75 -29q26 -31 26 -73q0 -53 -39 -113q-123 -180 -183 -325q-35 -80 -47 -144q-12 -55 -37 -80q-24 -24 -83 -24q-57 0 -90 31q-31 30 -31 75q0 49 53 179
q66 159 160 292z" />
    <glyph glyph-name="eightinferior" unicode="&#x2088;" horiz-adv-x="722" 
d="M653 217q0 -47 -22 -90q-22 -42 -62 -59q103 -30 103 -152q2 -135 -81 -203q-82 -67 -233 -67q-138 0 -224 65q-87 66 -87 185q0 51 31 101q30 48 82 66q-32 7 -57 54q-23 43 -23 94q0 109 84 173q85 65 192 65q126 0 212 -65q85 -64 85 -167zM360 -18q-32 0 -52 -21
q-19 -20 -19 -51q0 -29 19 -44q21 -16 46 -16q80 0 80 62q0 31 -19 50q-20 20 -55 20zM307 205q0 -53 51 -53q66 0 66 57q0 19 -17 32t-47 13q-21 0 -36 -14q-17 -15 -17 -35z" />
    <glyph glyph-name="nineinferior" unicode="&#x2089;" horiz-adv-x="727" 
d="M328 -127q36 0 65 18q29 19 31 52q-44 -23 -109 -23q-105 0 -183 64q-77 63 -77 188t86 200q84 74 219 74q116 0 187 -56t95 -132t24 -174q0 -220 -80 -329q-79 -107 -264 -107q-99 0 -183 39q-55 24 -55 100q0 41 28 77q27 34 70 34q8 0 62 -13q40 -12 84 -12zM346 104
q82 -4 82 74q0 29 -21 47q-22 19 -51 19t-53 -19q-22 -18 -22 -53q0 -29 19 -47q21 -20 46 -21z" />
    <glyph glyph-name="franc" unicode="&#x20a3;" horiz-adv-x="1148" 
d="M139 193q-50 0 -88 26q-39 27 -39 90q0 137 121 137h60v537q0 36 -5 128q-4 73 -4 110q-4 57 25 102q45 72 127 72q25 0 45 -1t49 -1q17 0 49.5 0.5t93.5 1t112 0.5q52 0 112 0.5t92.5 1t48.5 0.5q172 0 172 -135q0 -69 -32 -116q-31 -46 -93 -46l-455 2v-121v-111l320 2
q60 0 95 -41q34 -40 34 -108q0 -150 -154 -150h-303v-129h142q129 0 129 -125q0 -124 -146 -124h-123v-54q0 -149 -162 -149q-86 0 -132 36t-46 99v66h-45z" />
    <glyph glyph-name="lira" unicode="&#x20a4;" horiz-adv-x="1148" 
d="M238 449q-117 0 -117 106q0 100 110 100h56v41h-60q-52 0 -80 22q-26 20 -26 75q0 100 110 100h52q0 22 1 47t1 47q0 178 128 295q127 117 304 117q132 0 211 -43q86 -45 86 -139q0 -54 -37 -109t-94 -55q-29 0 -66 9q-38 9 -67 9q-60 0 -92 -38q-31 -37 -31 -91v-49h137
q110 0 110 -90q0 -56 -25 -80q-27 -26 -87 -27h-135v-41h129q51 0 73 -23q23 -25 23 -75q0 -53 -24 -80q-23 -26 -87 -26h-112v-129q147 -33 155 -33q37 0 87 41t108 41q63 0 105 -44t42 -106q0 -120 -73 -183t-183 -63q-79 0 -254 35q-183 36 -188 37q-49 0 -78 -29l-9 -9
l-10 -10q-5 -5 -10 -8q-10 -6 -13 -7q-1 0 -6 -2.5t-9 -3.5q-14 -4 -20 -5q-10 -2 -23 -3q-10 -1 -31 -1q-48 0 -94 29q-68 46 -64 127q5 77 44 137q40 61 110 88q24 8 74 8v91h-51z" />
    <glyph glyph-name="Euro" unicode="&#x20ac;" horiz-adv-x="1214" 
d="M1059 1372q94 -40 94 -141q0 -61 -36 -114q-36 -52 -101 -52q-26 0 -79 15q-56 16 -85 16q-83 0 -144 -29q-62 -29 -108 -113q164 2 281 2q100 0 100 -114q0 -46 -30 -73q-31 -28 -76 -28h-336q-4 -36 -4 -61v-16q88 0 158 -1t159 -1q98 0 98 -101q0 -62 -30 -89
q-31 -28 -99 -28q-107 0 -239 2q79 -139 266 -139q31 0 97 17q63 16 102 16q55 0 91 -61q36 -62 36 -125q0 -172 -377 -166q-204 5 -361 126q-158 122 -213 339h-71q-54 0 -80 32q-27 33 -27 80q0 46 28 74q27 27 77 27h49v12q0 35 2 65h-33q-98 0 -98 99q0 48 31 79t83 31
h64q77 214 245 336q170 123 361 119q126 -1 205 -35z" />
    <glyph glyph-name="uni20B9" unicode="&#x20b9;" horiz-adv-x="1097" 
d="M197 1122q-65 0 -100 38q-34 37 -34 91q0 60 34 97q33 36 96 36q164 0 365 -1t351 -1q127 0 127 -133q0 -59 -39 -94q-40 -35 -110 -35h-80q22 -42 29 -78h75q123 0 123 -131q0 -59 -38 -94t-109 -35h-60q-63 -190 -217 -264l293 -280q43 -43 43 -105q0 -63 -51 -106
t-125 -45q-33 0 -63 15q-31 15 -48 31q-9 8 -43 46l-342 362h-69q-60 0 -95 41q-34 40 -34 101q0 70 36 101q37 33 109 34h98q107 0 162 71h-288q-65 0 -100 38q-34 37 -34 91q0 63 33 97t96 34q46 0 118 -1t188 -1q-39 68 -127 80h-170z" />
    <glyph glyph-name="uni20BA" unicode="&#x20ba;" horiz-adv-x="1177" 
d="M782 596l-186 -61v-191q142 -2 199 109q55 106 172 104q65 -1 104 -45t39 -123q0 -136 -133 -248q-133 -113 -324 -135q-73 -10 -194 -10q-215 0 -209 168v256l-47 -17q-60 -18 -103 6q-44 24 -51 64q-22 104 96 141l107 35v64l-59 -21q-125 -41 -154 68q-28 104 94 141
l119 41l2 305q0 158 170 158t170 -143v-201l98 35q125 38 158 -68q30 -100 -84 -141l-170 -58v-63l111 39q126 37 159 -72q28 -100 -84 -137z" />
    <glyph glyph-name="uni20BD" unicode="&#x20bd;" horiz-adv-x="1316" 
d="M193 516q-144 0 -144 131q0 135 135 135l62 2v344q0 58 6 97t24 81q17 40 62 65q44 25 111 26q111 6 258 6q248 0 396 -107q146 -106 146 -323q0 -226 -134 -340q-135 -115 -388 -115h-135v-80h176q135 0 135 -125q0 -65 -40 -99t-105 -34h-164v-39q0 -155 -172 -155
q-88 0 -131 42t-43 109v45h-55q-142 0 -142 123q0 135 144 135h51v76h-53zM592 866v-80q47 0 78 1t78 1q176 0 176 170q0 160 -201 160q-29 0 -64 -1t-67 -1v-250z" />
    <glyph glyph-name="uni2113" unicode="&#x2113;" horiz-adv-x="915" 
d="M526 -10q-135 0 -228 71q-96 73 -114 181q-2 18 -6 45q-40 -8 -61 -2q-36 11 -57 51t-21 86q0 102 115 129q2 1 5 2t4 2q6 2 9 2l-2 82l-10 123q-8 99 -9 139q-1 23 1 115q6 88 23 148q19 68 54 124q36 58 107 92q69 33 170 33q149 0 239 -94q92 -96 99 -236
q8 -153 -70 -302q-79 -151 -207 -275q-53 -56 -110 -98v-11q0 -131 90 -131q37 0 100 27q51 24 90 24q42 0 77 -44q34 -43 34 -95q0 -76 -55 -110q-119 -78 -267 -78zM428 944q0 -4 0.5 -15.5t1 -33t0.5 -43.5q2 -78 0 -117q42 42 82 111q52 97 53 174q0 127 -61 127
q-76 0 -76 -203z" />
    <glyph glyph-name="trademark" unicode="&#x2122;" horiz-adv-x="1409" 
d="M319 1384h25q35 0 62 1t98 1t71 -77q0 -92 -71 -92h-115l2 -351q0 -19 1 -35t1 -36q0 -84 -100 -84q-44 0 -67 19q-23 18 -21 61l2 337q0 27 -2 89h-117q-72 0 -72 88q0 78 76 79h227zM879 791l-91 264l-28 -277q-10 -69 -90 -69q-42 0 -69 24t-21 66q3 17 12.5 82.5
t28 189.5t38.5 256q17 62 115 62q68 -1 96 -78l101 -322l116 328q6 20 29 43t53 29h45q53 -5 74 -43l62 -455l14 -100q2 -40 -29 -61q-30 -21 -67 -21q-80 0 -86 69l-29 266l-92 -264q-24 -52 -100 -51q-29 0 -45 11q-17 11 -22 20q-2 4 -15 31z" />
    <glyph glyph-name="Omega" unicode="&#x2126;" horiz-adv-x="1466" 
d="M543 -2l-344 2q-67 0 -108 41q-40 40 -40 111q0 74 42 121q42 46 114 46q16 0 115 -4q-250 151 -250 445q0 281 190 465t467 184q299 0 485 -177q187 -178 187 -446q0 -284 -242 -475q42 0 64 1t49 1q151 0 151 -157q0 -156 -149 -156h-346q-48 -2 -94 41q-48 45 -48 115
q0 98 72 182q111 102 162 196q53 98 53 242q0 147 -100 238q-101 92 -244 92t-236 -96q-94 -97 -94 -252q0 -139 59 -233q58 -93 171 -195q67 -63 67 -176q0 -63 -41 -109t-112 -47z" />
    <glyph glyph-name="estimated" unicode="&#x212e;" horiz-adv-x="1415" 
d="M1315 600h-922v-434q147 -103 314 -103q143 0 262 77q117 76 186 184q10 10 25 4l47 -33q4 -4 2 -12q-89 -134 -224 -217q-137 -84 -298 -84q-263 0 -439 192q-176 193 -176 461q0 267 176 460q175 191 439 191q262 0 439 -190q177 -191 177 -461v-25q0 -10 -8 -10z
M393 676h625v428q-140 104 -311 104q-175 0 -314 -108v-424z" />
    </font>
</defs>
</svg>
