<?xml version="1.0" standalone="no"?>
<!DOCTYPE svg PUBLIC "-//W3C//DTD SVG 1.1//EN" "http://www.w3.org/Graphics/SVG/1.1/DTD/svg11.dtd" >
<svg xmlns="http://www.w3.org/2000/svg" xmlns:xlink="http://www.w3.org/1999/xlink" version="1.1">
<metadata>
Created by FontForge 20170731 at Thu Jun 15 14:36:59 2023
 By Aleksey,,,
Copyright 2014 by Joel Carrouche. All rights reserved.
</metadata>
<defs>
<font id="Linotte-Regular" horiz-adv-x="1118" >
  <font-face 
    font-family="Linotte-Regular"
    font-weight="400"
    font-stretch="normal"
    units-per-em="2048"
    panose-1="0 0 0 0 0 0 0 0 0 0"
    ascent="1554"
    descent="-494"
    x-height="936"
    cap-height="1397"
    bbox="-176 -479 2234 1884"
    underline-thickness="102"
    underline-position="-204"
    unicode-range="U+000D-1F426"
  />
<missing-glyph horiz-adv-x="1368" 
d="M164 0v1393h1040v-1393h-1040zM256 1300v-1208h856v1208h-856z" />
    <glyph glyph-name="f_f" unicode="ff" horiz-adv-x="1341" 
d="M864 778h-446q0 -121 1 -269t1 -421q0 -100 -80 -100q-84 0 -84 94q0 364 -2 694h-113q-64 0 -91 15t-27 59q0 78 100 78h131v121q1 197 95 321q93 123 300 123q139 0 139 -88q0 -30 -15 -51t-42 -21q-23 0 -57 6q-40 7 -58 7q-96 0 -148 -85t-52 -196v-137h448
q0 91 5 168q4 67 29 152q25 84 64 134q42 53 115 86q78 35 180 35q70 0 115 -22q37 -18 37 -68q0 -29 -18 -48t-45 -19q-15 0 -60 6q-42 6 -65 4q-58 0 -97 -30q-40 -31 -57 -66q-19 -39 -29 -107q-9 -60 -11 -110q-1 -27 -1 -115h221q86 0 86 -76t-84 -76l-221 2
q0 -123 1 -277t1 -427q0 -86 -80 -86q-44 0 -65 21t-21 75v32v68v115v195v284z" />
    <glyph glyph-name="fi" unicode="fi" horiz-adv-x="1177" 
d="M823 932q66 2 101 2q102 -6 98 -111q-2 0 -2 -370l2 -371q0 -49 -17 -70q-18 -22 -65 -22q-84 0 -84 88v700h-31q-112 0 -201 -1t-204 -1q0 -29 2 -347t2 -351q0 -86 -82 -86q-84 0 -84 82v702l-113 -2q-59 0 -91 16q-29 14 -29 58q-1 37 23 57q25 21 79 21l131 2v96
q7 224 120 353q111 128 324 128q92 0 170 -24q68 -27 66 -78q0 -29 -18 -51q-18 -23 -46 -23q-22 0 -82 12q-65 13 -108 13q-126 0 -195 -81t-69 -212v-133q178 0 403 4z" />
    <glyph glyph-name="fl" unicode="fl" horiz-adv-x="1216" 
d="M649 772l-227 2q0 -138 1 -257t1 -259q0 -11 2 -97t2 -100q0 -73 -84 -73t-84 92l2 182q0 12 -0.5 41t-1 82.5t-0.5 103.5q-2 185 0 285h-162q-70 0 -75 70q0 82 106 82h131v100q0 208 115 340q114 131 346 131q218 0 280 -22q54 -19 54 -127q-2 -448 -2 -1012
q0 -76 8 -268q0 -74 -84 -80q-43 -2 -65 27.5t-23 90.5q-3 110 -5 565q-1 310 1 672q-60 7 -199 7q-127 0 -197 -93q-69 -91 -69 -217v-114h217q45 0 66 -19q20 -18 20 -59q2 -34 -16 -54q-19 -22 -58 -22z" />
    <glyph glyph-name="f_f_i" unicode="ffi" horiz-adv-x="1781" 
d="M1415 932q42 0 67 1t40 1q106 0 106 -111q-2 -372 -2 -741q0 -48 -16 -70t-64 -22q-84 0 -84 88v700q-123 0 -217 -1t-213 -1q0 -188 1 -348t1 -350q0 -86 -82 -86q-84 0 -84 82v704h-454q0 -13 0.5 -46.5t1 -97.5t0.5 -125q2 -296 2 -421q0 -100 -82 -100q-84 0 -84 94
v694h-111q-64 0 -91 15t-27 59q0 78 100 78h129v121q1 195 95 320q93 124 298 124q141 0 141 -88q0 -30 -15 -51t-44 -21q-23 0 -57 6q-40 7 -56 7q-96 0 -148 -85t-52 -196v-137h454v104q0 217 115 346q114 127 326 127q100 0 166 -24q65 -22 65 -78q0 -30 -17 -51
q-18 -23 -46 -23q-23 0 -81 12q-63 13 -106 13q-125 0 -192 -82q-68 -83 -68 -213v-131q39 0 203 2t182 2z" />
    <glyph glyph-name="f_f_l" unicode="ffl" horiz-adv-x="1808" 
d="M1251 774q-63 0 -114 1t-113 1q0 -90 4 -694q0 -94 -82 -94q-84 0 -84 86q0 336 -2 702h-442q-2 -74 0 -303q2 -306 2 -389q0 -96 -80 -96q-84 0 -84 88q0 368 -2 698h-113q-66 0 -91 14q-27 15 -27 60q0 28 12 45q11 15 46 23t60 9q18 1 86 1h27v121q1 195 95 316
q93 120 298 120q141 0 141 -84q0 -31 -16 -51q-16 -21 -45 -21q-15 0 -53 5q-35 5 -58 3q-50 0 -85 -16t-56 -51q-19 -31 -34 -68q-13 -33 -18 -87q-4 -53 -6 -85q-1 -20 -1 -86v-16h446v102q0 208 122 339q121 130 351 130q206 0 260 -22q54 -19 54 -127q-2 -208 -2 -949
q0 -19 2 -133t2 -127v-92q-7 -61 -78 -61q-51 0 -72 42q-20 40 -20 150q-8 357 -2 1165q-59 7 -181 7q-126 0 -201 -89t-75 -221v-112h215q47 0 67 -20t21 -58q0 -76 -74 -76z" />
    <glyph glyph-name="f_f_j" unicode="ffj" horiz-adv-x="1787" 
d="M1466 776h-434q0 -188 1 -348t1 -350q0 -86 -82 -86q-84 0 -84 82v704h-454q0 -13 0.5 -46.5t1 -97.5t0.5 -125q2 -296 2 -421q0 -100 -82 -100q-84 0 -84 94v694h-111q-64 0 -91 15t-27 59q0 78 100 78h129v121q1 195 95 320q93 124 298 124q141 0 141 -88
q0 -30 -15 -51t-44 -21q-23 0 -57 6q-40 7 -56 7q-96 0 -148 -85t-52 -196v-137h454v104q0 217 115 346q114 127 326 127q100 0 166 -22q67 -24 65 -80q0 -29 -18 -51q-18 -23 -45 -23q-23 0 -81 12q-63 13 -106 13q-125 0 -192 -82q-68 -83 -68 -213v-131q39 0 203 2t182 2
q42 0 62 1t32 1q69 0 97 -33q28 -32 28 -108l-2 -846q0 -233 -80 -328q-79 -94 -245 -94q-162 0 -162 90q0 68 51 80q16 2 51 -2q43 -10 70 -8q46 0 76 18t45 51q12 27 21 77q7 41 7 94v106v745z" />
    <glyph glyph-name="f_j" unicode="fj" horiz-adv-x="1191" 
d="M842 932q66 2 98 2q51 -5 74 -32q22 -26 22 -95v-860q0 -233 -80 -328q-79 -94 -245 -94q-162 0 -162 90q0 68 49 80q16 2 51 -2q43 -10 70 -8q39 0 64 11q28 13 44 41q19 34 26 51q9 21 12 75q1 19 2.5 45t1.5 33q1 16 1 90v747l-450 -2q0 -28 2 -348t2 -350
q0 -86 -82 -86q-84 0 -84 82v702q-31 0 -56 -1t-57 -1q-59 0 -91 16q-29 14 -29 58q0 29 13 46t48 25q28 6 61 8q18 1 86 1h25v110q5 216 120 340q116 125 320 125q118 0 172 -22q60 -24 60 -80q0 -31 -18 -52q-19 -22 -44 -22q-38 0 -90 11q-57 12 -94 12q-119 0 -191 -82
q-73 -84 -73 -213v-127q197 0 422 4z" />
    <glyph glyph-name=".notdef" horiz-adv-x="1368" 
d="M164 0v1393h1040v-1393h-1040zM256 1300v-1208h856v1208h-856z" />
    <glyph glyph-name=".null" horiz-adv-x="0" 
 />
    <glyph glyph-name="nonmarkingreturn" horiz-adv-x="681" 
 />
    <glyph glyph-name="NULL" horiz-adv-x="0" 
 />
    <glyph glyph-name="CR" unicode="&#xd;" horiz-adv-x="512" 
 />
    <glyph glyph-name="space" unicode=" " horiz-adv-x="503" 
 />
    <glyph glyph-name="exclam" unicode="!" horiz-adv-x="475" 
d="M160 834l-15 485q-2 41 22 63q25 23 69 23q51 0 70 -31q18 -30 18 -104q-1 -276 -19 -762q-2 -74 -67 -74q-36 0 -51 21q-16 22 -17 71zM233 -8q-45 0 -76 28q-32 29 -32 76q0 50 33 84q33 35 82 35q50 0 81 -30t31 -79q0 -53 -34 -83q-36 -31 -85 -31z" />
    <glyph glyph-name="quotedbl" unicode="&#x22;" horiz-adv-x="661" 
d="M102 1380q-2 34 19 55t61 21q70 0 70 -84q0 -66 -4 -170t-4 -131q-1 -76 -66 -76t-65 70q0 17 -5 160q-1 35 -2.5 72t-2.5 56t-1 27zM410 1391q0 30 22 48q21 17 53 17t53 -18t21 -47q-6 -208 -10 -306q-5 -86 -66 -86q-63 0 -65 64q0 59 -4 164t-4 164z" />
    <glyph glyph-name="numbersign" unicode="#" horiz-adv-x="1243" 
d="M653 72l43 274h-276l-39 -258q-7 -50 -28 -74q-19 -22 -58 -22q-37 0 -57 20q-21 21 -13 60l41 274h-153q-64 0 -60 76q0 72 84 72h154l57 366h-153q-69 0 -64 72q1 76 88 76h154l47 305q12 82 86 82q31 0 53 -20q20 -19 14 -50l-51 -317l279 -2l49 307q12 82 84 82
q34 0 54 -20q19 -19 13 -50l-51 -319h170q70 0 66 -72q0 -40 -24 -57q-25 -17 -81 -17h-153l-58 -368h172q64 0 64 -70q-1 -76 -105 -76h-153l-41 -258q-6 -50 -25 -74q-18 -22 -57 -22q-84 0 -72 80zM500 860l-58 -366l277 -2l59 368h-278z" />
    <glyph glyph-name="dollar" unicode="$" horiz-adv-x="1067" 
d="M477 1501q0 72 66 72q69 0 69 -72v-131q142 -7 269 -70q53 -29 53 -77q0 -29 -21 -52q-21 -22 -51 -22q-25 0 -74 20q-115 56 -241 56q-109 0 -192 -68t-83 -164q0 -32 10 -62q10 -29 35 -49q27 -21 42 -33q12 -10 66 -26l64 -18l76 -19q90 -22 157 -47q64 -24 126 -66
t92 -107q31 -67 31 -152q0 -156 -95 -262q-95 -105 -260 -134v-139q2 -78 -71 -78q-68 0 -68 70v139q-186 6 -315 78q-70 40 -70 90q0 33 22 58q21 24 52 24q26 0 67 -18q139 -76 279 -76q130 0 212 64q83 65 83 176q0 52 -21 93q-20 39 -65 66q-46 27 -88 42
q-47 16 -113 32q-87 20 -152 42q-62 21 -127 60t-98 101q-32 60 -32 143q0 144 107 251q108 108 259 132v133z" />
    <glyph glyph-name="percent" unicode="%" horiz-adv-x="1601" 
d="M1100 1348q16 28 42 37t54 -3q61 -33 23 -108l-72 -113q-54 -86 -125 -202q-70 -115 -119 -203q-64 -115 -133 -229q-81 -134 -94 -160l-195 -336q-15 -27 -44 -36q-31 -9 -58 5q-25 15 -32 40q-7 26 9 54l383 631zM68 1008q0 158 71 270q73 115 217 115q135 0 218 -100
t83 -259t-88 -257q-89 -99 -217 -99q-114 0 -199 96q-85 95 -85 234zM356 1270q-157 0 -157 -248q0 -90 42 -156q41 -65 111 -65q81 0 125 62q45 63 45 175q0 106 -43 168q-44 64 -123 64zM934 317q0 155 75 264t222 109q137 0 219 -99q82 -98 82 -257q0 -155 -86 -253
q-85 -97 -219 -97q-121 0 -207 96q-86 97 -86 237zM1231 573q-84 0 -124 -70t-40 -175q0 -98 41 -162t117 -64q84 0 129 60q45 61 41 168q-5 243 -164 243z" />
    <glyph glyph-name="ampersand" unicode="&#x26;" horiz-adv-x="1337" 
d="M805 1294q0 -26 -18 -49q-18 -22 -44 -22q-30 0 -57 14q-78 29 -129 29q-83 0 -140 -59t-57 -140q0 -134 140 -291q174 -192 467 -434q30 61 30 125q2 77 -34 141q-37 68 -99 78q-78 8 -78 72q0 73 80 73q12 0 49 -3t48 -3l23 1q24 1 81 4t123 6q82 4 82 -64
q0 -62 -60 -70q-35 -5 -165 -10q38 -27 65 -96q27 -67 27 -131q0 -110 -52 -219q43 -36 164 -119q47 -30 47 -66q0 -28 -20 -51q-21 -24 -47 -24q-41 0 -76 24q-70 44 -160 117q-145 -145 -411 -145q-205 0 -348 119q-144 120 -144 300q0 233 225 377q-108 152 -108 285
q0 140 99 242t261 102q103 0 176 -37q60 -30 60 -76zM590 129q176 0 280 98q-155 134 -454 437l-13 12q-151 -99 -151 -262q0 -126 96 -205q97 -80 242 -80z" />
    <glyph glyph-name="quotesingle" unicode="'" horiz-adv-x="356" 
d="M98 1382q2 72 84 72q74 0 74 -88q0 -152 -10 -279q-1 -44 -16 -70q-13 -24 -52 -24q-62 0 -67 72q-10 207 -13 317z" />
    <glyph glyph-name="parenleft" unicode="(" horiz-adv-x="559" 
d="M383 1423q38 50 78 50q27 0 48 -21t21 -49q0 -21 -10 -37q-72 -121 -117 -212q-41 -84 -86 -261q-43 -171 -43 -361q0 -250 60 -428q59 -175 174 -378q16 -38 16 -50q0 -27 -22 -48t-51 -21q-49 0 -86 67q-254 413 -250 856q1 476 268 893z" />
    <glyph glyph-name="parenright" unicode=")" horiz-adv-x="559" 
d="M176 1423q267 -417 268 -893q5 -445 -249 -856q-37 -67 -86 -67q-29 0 -52 21q-22 21 -22 48q0 12 16 50q115 203 174 378q60 178 60 428q0 190 -43 361q-45 177 -86 261q-45 91 -117 212q-10 16 -10 37q0 28 21 49t48 21q40 0 78 -50z" />
    <glyph glyph-name="asterisk" unicode="*" horiz-adv-x="747" 
d="M287 1026l-174 41q-52 12 -52 59q0 26 21 41q20 15 51 7l191 -50l-7 199q0 63 56 63q59 0 59 -59l-4 -203l188 62q25 11 47 -6q21 -16 21 -45q0 -39 -47 -54l-176 -55l141 -166q21 -27 21 -45q0 -21 -18 -37q-17 -16 -40 -16q-27 0 -65 47l-125 170l-109 -168
q-35 -47 -63 -47q-22 0 -40 15t-18 36q0 22 17 45z" />
    <glyph glyph-name="plus" unicode="+" horiz-adv-x="993" 
d="M115 479q-38 0 -57 25q-18 24 -13 59q1 33 27 49q24 15 73 15h279v123v144v77q0 37 22 55t54 18q71 0 71 -92v-327h306q71 0 71 -72q0 -36 -19 -54t-69 -18q-60 -2 -291 -2q0 -106 1 -193t1 -149q0 -67 -79 -67q-68 2 -68 88v321h-309z" />
    <glyph glyph-name="comma" unicode="," horiz-adv-x="421" 
d="M76 -145q0 19 36 59q37 41 44 74q6 10 -6 23q-15 17 -29 36q-17 23 -17 51q0 47 32 79t79 32q49 0 83 -36q34 -35 34 -87q0 -148 -150 -262q-28 -21 -55 -21q-15 0 -34 16q-17 14 -17 36z" />
    <glyph glyph-name="hyphen" unicode="-" horiz-adv-x="722" 
d="M160 414q-39 0 -60 21q-20 20 -20 54q0 78 96 78h383q82 0 82 -71q0 -44 -24 -63q-23 -19 -82 -19h-375z" />
    <glyph glyph-name="period" unicode="." horiz-adv-x="421" 
d="M203 -8q-48 0 -79 33q-32 34 -32 79q0 49 35 82t88 33q49 0 81 -33q32 -34 32 -82q0 -52 -35 -82t-90 -30z" />
    <glyph glyph-name="slash" unicode="/" horiz-adv-x="770" 
d="M578 1395q18 63 71 63q31 0 56 -17q26 -17 26 -46q0 -24 -26 -99l-517 -1290q-18 -57 -65 -57q-31 0 -56 17q-28 19 -28 44q0 22 18 78z" />
    <glyph glyph-name="zero" unicode="0" horiz-adv-x="1273" 
d="M113 633q0 146 28 274q29 134 88 244q60 113 166 180q107 68 248 68q244 0 382 -198t138 -521q0 -315 -152 -503q-153 -189 -378 -189q-218 0 -369 181t-151 464zM641 1243q-101 0 -177 -53q-75 -53 -113 -145q-37 -90 -55 -187q-17 -91 -17 -205q0 -129 38 -240
q39 -115 121 -191q83 -77 191 -77q163 0 268 144q104 143 104 385q0 235 -95 402t-265 167z" />
    <glyph glyph-name="one" unicode="1" horiz-adv-x="858" 
d="M233 999q-32 -22 -59 -22q-29 0 -51 25q-23 26 -23 53q0 36 43 73q292 223 340 248q35 21 80 15q24 -5 42 -24t18 -46q0 -116 -1 -210t-1 -212v-258v-313v-258q0 -36 -25 -58q-23 -20 -61 -20t-60 22t-22 64q0 54 3 217q4 217 5 329q2 220 2 300v262z" />
    <glyph glyph-name="two" unicode="2" horiz-adv-x="1107" 
d="M524 1241q-137 0 -258 -121q-51 -51 -92 -51q-30 0 -53 23t-23 55q0 49 66 104q70 65 163 108q97 45 195 46q190 0 326 -116q135 -116 135 -298q0 -55 -13 -103q-13 -46 -29 -84q-14 -33 -56 -84q-25 -31 -63 -74q-7 -8 -82 -83q-23 -23 -51.5 -51t-33.5 -33l-338 -323
q165 0 375 2q99 0 244 4q38 0 61 -24q23 -25 23 -56q0 -85 -94 -84h-252q-277 0 -481 2q-45 0 -72 27t-27 69q0 55 74 129q338 328 397 389l49 50l23 23l20 20l11 11q3 4 9.5 10.5t16.5 17.5t18 20q31 34 43 55q0 1 11 20t18 31q19 31 25 59q6 27 6 56q0 109 -82 181
q-84 73 -209 73z" />
    <glyph glyph-name="three" unicode="3" horiz-adv-x="1087" 
d="M817 442q0 128 -90 195q-91 68 -221 68h-82q-41 -2 -64 21q-24 24 -24 62q0 41 41 80q61 57 206 208q38 39 78 81t58 61t24 25q-343 0 -532 -10q-90 0 -90 80q0 35 22 56q24 22 62 22q35 0 96 -1t148 -1q19 0 213 2t210 2q50 0 74 -19q23 -18 23 -63q0 -37 -76 -119
q-48 -44 -181 -182q-138 -143 -165 -170q172 4 306 -102q132 -105 132 -281q0 -218 -127 -345q-128 -128 -348 -128q-187 -2 -348 94q-72 40 -72 92q0 36 23 59t49 23q28 0 92 -35q137 -80 262 -80q131 0 216 85t85 220z" />
    <glyph glyph-name="four" unicode="4" horiz-adv-x="1161" 
d="M725 748q0 104 76 104q44 0 62 -21q19 -22 20 -69v-318l168 2q84 2 84 -71q0 -84 -74 -84h-180v-217q0 -84 -76 -84q-84 0 -84 86q0 56 1 102t1 113q-108 2 -292 -1q-200 -3 -253 -3q-54 0 -79 28t-25 68q0 58 39 119l444 829q34 64 88 64q35 0 64 -23q29 -22 30 -51
q0 -19 -16 -51q-26 -49 -88 -160q-17 -30 -53 -92t-53 -91q-24 -42 -97 -171l-168 -318l459 4z" />
    <glyph glyph-name="five" unicode="5" horiz-adv-x="1116" 
d="M225 1298q6 39 36 66t73 27h540q84 0 84 -78q0 -81 -94 -80l-489 6l-13 -88l-53 -348q129 78 277 78q198 0 315 -120t117 -296q0 -209 -134 -343t-345 -134q-174 0 -344 92q-93 50 -93 106q0 32 25 59q24 25 59 25q17 0 82 -34q151 -86 273 -86q126 0 215 82
q90 82 90 217q0 117 -73 198q-72 80 -206 80q-84 0 -195 -45t-136 -45q-43 0 -75 26t-26 68q15 109 44 282q30 176 46 285z" />
    <glyph glyph-name="six" unicode="6" horiz-adv-x="1175" 
d="M649 1243q-143 0 -251 -135q-107 -134 -109 -332v-69q47 79 150 129q102 49 206 49q184 0 313 -108t129 -316q0 -204 -134 -338q-133 -133 -347 -133q-190 0 -317 118q-128 119 -156 330q-14 147 -14 238q0 318 149 522q150 205 394 205q160 0 278 -57q68 -30 68 -84
q0 -34 -21 -56t-53 -22q-14 0 -80 24q-96 35 -205 35zM610 735q-137 -2 -224 -78q-87 -77 -87 -206q0 -132 92 -219q91 -87 223 -87q134 0 222 88t88 230q0 133 -84 204q-83 70 -230 68z" />
    <glyph glyph-name="seven" unicode="7" horiz-adv-x="1064" 
d="M408 1235q-26 0 -132 -2t-114 -2q-90 0 -90 82q0 78 84 78q30 0 386 -2q91 -1 214.5 -2t158.5 -1q84 0 84 -77q0 -45 -59 -133q-142 -188 -254 -409q-116 -229 -176 -419q-52 -152 -80 -278q-7 -39 -27 -59q-17 -17 -65 -17q-98 0 -80 102q23 106 88 287q152 442 445 854
q-80 2 -205 0q-166 -2 -178 -2z" />
    <glyph glyph-name="eight" unicode="8" horiz-adv-x="1177" 
d="M1030 1036q0 -111 -55 -191t-148 -118q109 -35 181 -117t73 -198q2 -203 -135 -316q-136 -112 -350 -112q-218 0 -358 105t-140 286q0 130 71 219t187 129q-75 32 -133 113q-57 79 -57 182q0 173 127 281q128 108 301 108q178 0 307 -105t129 -266zM602 651
q-141 2 -238 -66q-99 -69 -98 -198q1 -120 87 -185t231 -65q154 0 242 72q89 72 87 197q-2 113 -93 179t-218 66zM328 1014q2 -102 80 -167q79 -65 190 -65q116 0 193 72q75 70 73 182q-1 94 -80 160q-78 66 -188 66q-117 0 -194 -68q-76 -67 -74 -180z" />
    <glyph glyph-name="nine" unicode="9" horiz-adv-x="1177" 
d="M535 150q177 0 276 139q98 137 96 403q-43 -82 -141 -138q-97 -56 -219 -56q-175 0 -315 118t-140 324q0 198 144 331t344 132q224 -1 358 -165q133 -163 133 -490q0 -395 -138 -578q-137 -182 -409 -182q-171 0 -297 71q-61 34 -61 86q0 35 20 58q21 24 54 24
q20 0 84 -26q114 -51 211 -51zM582 647q127 0 217 81t90 212q0 132 -93 221q-92 88 -227 88q-126 0 -217 -88q-92 -89 -92 -225q0 -134 88 -210q90 -78 234 -79z" />
    <glyph glyph-name="colon" unicode=":" horiz-adv-x="421" 
d="M203 709q-48 0 -79 32q-32 34 -32 80q0 49 35 82t88 33q49 0 81 -33q32 -34 32 -82q0 -53 -35 -83q-33 -29 -90 -29zM203 -8q-48 0 -79 33q-32 34 -32 79q0 49 35 82t88 33q49 0 81 -33q32 -34 32 -82q0 -52 -35 -82t-90 -30z" />
    <glyph glyph-name="semicolon" unicode=";" horiz-adv-x="421" 
d="M78 -145q0 19 36 59q37 41 44 74q6 10 -24 42q-30 31 -30 68q0 48 33 79q34 32 80 32q49 0 83 -36q34 -35 34 -87q0 -149 -152 -262q-28 -21 -53 -21q-15 0 -34 16q-17 14 -17 36zM207 709q-48 0 -80 32q-33 33 -33 80q0 49 35 82t88 33q51 0 83 -33q32 -34 32 -82
q0 -53 -35 -83q-33 -29 -90 -29z" />
    <glyph glyph-name="less" unicode="&#x3c;" horiz-adv-x="993" 
d="M872 887l-636 -342q84 -45 342 -172q253 -124 315 -160q29 -18 29 -47t-21 -56q-22 -28 -47 -28q-35 0 -63 16l-652 346q-69 39 -69 101q0 58 67 98q14 9 633 354q40 19 61 19q29 0 50 -26q20 -24 20 -56q0 -29 -29 -47z" />
    <glyph glyph-name="equal" unicode="=" horiz-adv-x="993" 
d="M135 684q-67 0 -67 78q0 76 90 76q58 0 133 -1t172 -1q134 0 231 1t160 1q70 0 70 -76t-103 -78h-197h-307h-182zM135 254q-67 0 -67 78t90 78q58 0 133 -1t172 -1h391q70 0 70 -74q0 -42 -24 -60q-25 -19 -79 -20h-686z" />
    <glyph glyph-name="greater" unicode="&#x3e;" horiz-adv-x="993" 
d="M121 887q-31 19 -31 47q0 33 21 57q22 25 51 25q24 0 59 -19q541 -295 635 -354q66 -41 66 -98q0 -62 -68 -101l-651 -346q-32 -16 -64 -16q-27 0 -49 28q-20 26 -20 56q0 29 30 47q68 41 318 162q262 127 340 170z" />
    <glyph glyph-name="question" unicode="?" horiz-adv-x="991" 
d="M84 1200q0 42 45 72q167 133 350 133q171 0 298 -106q126 -105 126 -275q0 -66 -24 -120q-23 -52 -69 -95q-45 -42 -85 -70q-25 -18 -94 -61l-6 -3l-7 -3q-3 -1 -6 -4q-95 -61 -100 -140q-1 -17 6 -35q8 -19 8 -36q0 -33 -22 -51q-24 -19 -58 -19q-50 0 -76 41t-26 109
q0 141 168 237q50 29 84 50q26 16 67 50t58 71q16 35 16 79q0 98 -77 163q-76 64 -185 64q-119 0 -225 -86q-59 -43 -90 -43q-27 0 -52 25q-24 24 -24 53zM328 98q0 49 34 82t89 33t87 -32q31 -31 31 -81q0 -56 -34 -84t-86 -28q-57 0 -89 29t-32 81z" />
    <glyph glyph-name="at" unicode="@" horiz-adv-x="1880" 
d="M1325 567l-18 -227q-24 -219 110 -219q107 0 162 130q55 129 55 329q0 246 -185 410q-186 165 -472 165q-317 0 -523 -243q-206 -244 -206 -578q0 -276 193 -462q192 -184 456 -189q181 -2 365 73q55 25 73 25q29 0 48 -24q20 -25 20 -52q0 -37 -41 -61
q-202 -105 -461 -105q-211 0 -393 97t-295 282t-113 416q0 253 104 470q104 218 311 353q209 137 482 137q336 0 561 -210q224 -209 224 -498q0 -285 -96 -444q-95 -158 -281 -158q-84 0 -145 50q-59 48 -74 136q-45 -78 -122 -125t-169 -47q-155 0 -259 102t-104 254
q0 182 111 316q111 133 297 133q78 0 145 -37q69 -38 107 -100q2 10 6 34q5 30 6 35q21 60 70 60q84 0 69 -95zM940 670q-115 0 -184 -88q-70 -90 -70 -213q0 -104 67 -169t160 -65q122 0 188 88q66 89 66 223q0 101 -68 162q-70 62 -159 62z" />
    <glyph glyph-name="A" unicode="A" horiz-adv-x="1308" 
d="M51 72q0 26 31 100l215 504q50 113 260 653q27 66 98 66q74 0 103 -68q25 -57 138 -350q27 -72 58 -153t50 -131t30 -77q0 -2 2 -5t5 -9t5 -12q3 -8 7.5 -18t5.5 -13l180 -438q16 -39 16 -60q0 -25 -27 -47q-26 -22 -65 -22q-37 0 -55 15t-35 56q-123 315 -123 316
q-84 2 -389 2h-209q-4 -9 -56 -145q-53 -139 -60 -154q-30 -67 -52 -80q-18 -8 -37 -8q-96 0 -96 78zM655 1182q-84 -242 -252 -660q228 -4 494 2q-1 4 -11.5 32t-25 68t-30.5 84q-77 214 -103 284q-54 145 -72 190z" />
    <glyph glyph-name="B" unicode="B" horiz-adv-x="1222" 
d="M606 1393q188 0 316 -98t129 -269q1 -109 -52 -191q-53 -81 -137 -122q125 -30 198 -111t73 -205q0 -170 -97 -272q-97 -101 -262 -119q-88 -8 -348 -8h-152q-95 0 -100 119l2 442l-2 488q0 15 -2 121t-2 120q0 86 104 96q88 9 332 9zM647 618l-307 -4l4 -469
q54 -2 299 -2q144 1 233 62q89 60 89 180q0 233 -318 233zM887 1026q-2 107 -83 161t-202 54q-130 4 -264 -4q2 -36 2 -483q121 0 285 4q122 1 193 76q70 74 69 192z" />
    <glyph glyph-name="C" unicode="C" horiz-adv-x="1245" 
d="M1069 1341q90 -41 90 -94q0 -38 -19 -61q-20 -25 -57 -25q-23 1 -79 27q-123 57 -252 57q-188 0 -332 -162q-145 -163 -146 -405q0 -220 139 -377q138 -156 347 -158q154 0 278 82q4 3 16 9q3 1 5.5 3t4.5 3.5t3 2.5q5 3 12 6q3 1 17 4q5 1 18 1q29 0 47 -27
q19 -29 19 -59q0 -67 -142 -127q-139 -59 -295 -59q-260 2 -450 190q-190 189 -189 496q1 325 204 531q201 204 462 202q166 0 299 -60z" />
    <glyph glyph-name="D" unicode="D" horiz-adv-x="1382" 
d="M164 1274q0 119 166 119q59 0 140 1t136 1q298 -15 493 -186t195 -470q0 -733 -778 -739q-172 0 -252 4q-98 6 -98 121l4 557zM549 1239q-141 0 -215 -6v-1030q0 -33 30 -39t140 -6q620 0 620 559q0 174 -82 295q-83 122 -207 174q-127 53 -286 53z" />
    <glyph glyph-name="E" unicode="E" horiz-adv-x="1112" 
d="M193 1305q0 49 32 66q33 18 101 18h98q53 0 275 2q42 0 94.5 0.5t81 1t43.5 0.5q93 0 98 -74q0 -69 -55 -76q-82 -2 -494 -2h-107q-2 -114 -2 -248l-2 -198v-39h103q221 0 356 6q58 0 80 -14q25 -16 25 -62q-5 -74 -93 -74h-473v-147q0 -16 -2 -158t-2 -157q298 0 541 4
q22 0 37 1t35 1q71 0 71 -74q0 -42 -22 -63q-23 -22 -82 -23h-537q-137 0 -173 20q-39 22 -40 103q0 44 2 82l2 28q0 44 1 77q1 17 1.5 57t0.5 60q1 24 1.5 79.5t0.5 83.5q1 64 1 198q0 145 1 260q2 230 2 261z" />
    <glyph glyph-name="F" unicode="F" horiz-adv-x="1075" 
d="M186 492l2 536l-4 256q-2 45 28 75t71 30h118q219 0 471 2q38 2 82 2q34 0 52 -21t18 -53q0 -78 -70 -80h-123h-475q0 -79 -1 -143t-1 -142v-217h197l326 4q34 2 51 -20q18 -23 18 -57q0 -74 -82 -78q-82 0 -158 1t-159 1h-195v-182l2 -314q0 -98 -82 -98q-51 0 -70 23
q-20 25 -20 79q0 35 1 72t1 80q0 69 1 121t1 123z" />
    <glyph glyph-name="G" unicode="G" horiz-adv-x="1456" 
d="M795 1403q229 0 405 -113q51 -33 51 -73q0 -34 -19 -59t-52 -25q-36 0 -95 36q-122 82 -301 82q-193 0 -349 -164q-156 -163 -156 -380q0 -264 139 -413q140 -151 370 -151q185 0 299 133q116 135 117 314h-289q-30 1 -48 23q-17 20 -17 51q0 67 70 73q20 2 348 2
q63 0 83 -29q21 -30 21 -96q0 -278 -168 -453t-430 -175q-295 0 -481 195q-187 196 -187 511q0 295 207 503t482 208z" />
    <glyph glyph-name="H" unicode="H" horiz-adv-x="1427" 
d="M1247 682l6 -614q0 -76 -86 -76q-88 0 -88 78v190l-2 330q-37 0 -357 -2t-372 -2l4 -520q0 -74 -90 -74q-84 0 -84 74q0 82 3 346q3 241 1 407l-8 490q0 82 90 82q82 0 82 -72q0 -110 2 -576h31h78h118q103 0 188 1t189 1l127 3q0 19 -2 287q0 52 -0.5 114t-1 95t-0.5 50
q2 103 88 103q84 0 84 -90q0 -112 -1 -302q-1 -263 1 -323z" />
    <glyph glyph-name="I" unicode="I" horiz-adv-x="561" 
d="M199 825q0 6 -2 218t-2 268q0 86 90 86q37 0 59 -21q23 -21 23 -57q0 -44 -2 -510v-328l2 -393q0 -96 -86 -96q-41 0 -64 20q-24 21 -22 60q0 48 1 88t1 92z" />
    <glyph glyph-name="J" unicode="J" horiz-adv-x="991" 
d="M641 674l-12 641q-2 40 21 63q25 25 63 25q90 0 90 -84q0 -70 5 -283t5 -288q0 -144 -2 -246q-6 -246 -109 -381q-102 -133 -333 -133q-81 0 -156 34q-79 36 -117 68q-49 43 -49 90q0 32 22 56q21 22 56 22q9 0 20 -3q10 -3 23 -11q4 -3 10.5 -8t8.5 -6q7 -4 23 -17
q5 -4 21 -16q64 -52 144 -52q71 0 121 27q47 26 77 68q29 41 44 113q16 75 20 144q4 63 4 177z" />
    <glyph glyph-name="K" unicode="K" horiz-adv-x="1241" 
d="M348 655l613 693q43 49 83 49q33 0 61 -26t28 -56q0 -27 -27 -60q-45 -51 -379 -415q-11 -11 -38 -42t-46 -50l313 -373l195 -228q33 -33 33 -73q0 -35 -28 -61q-26 -25 -64 -25q-45 0 -78 41q-22 28 -51 67l-431 545q-30 -35 -100 -107q-18 -18 -38.5 -39t-31.5 -32.5
t-16 -16.5v-380q0 -76 -86 -76q-40 -2 -62 18q-24 21 -24 58q0 30 1 58t1 66q0 74 2 556t2 561q0 90 86 90t86 -82q0 -35 -2 -335t-2 -325z" />
    <glyph glyph-name="L" unicode="L" horiz-adv-x="1011" 
d="M184 1311q0 41 26 62q27 22 66 22q78 0 78 -84q0 -107 -4 -451q0 -113 -1 -203q-1 -133 -3 -200q0 -121 -1 -167t-1 -101v-39q172 0 242 2l313 12q80 0 80 -74q0 -88 -84 -88h-238q-236 0 -311 -4q-96 -4 -133 18t-39 97v80q0 101 4 256q5 175 6 262v600z" />
    <glyph glyph-name="M" unicode="M" horiz-adv-x="1740" 
d="M416 1118q-6 -47 -21.5 -176.5t-24.5 -207.5q-11 -92 -29 -238.5t-24 -196.5q-23 -192 -30 -238q-12 -71 -86 -71q-41 0 -64 27t-18 67q28 168 99 698q20 150 38.5 288.5t26.5 194.5t8 60q6 32 41 50q34 18 73 18q62 -2 97 -95l317 -903q6 -21 18 -48q4 -8 7 -16.5
t6 -17.5t5 -13q7 -19 9 -32l19 58q59 138 114 280q9 24 133 349q112 295 125 327q38 91 86 113q23 4 45 2q58 -5 74 -33q15 -52 39 -251q40 -329 65 -543q16 -133 34.5 -296.5t21.5 -189.5q6 -96 -82 -96q-74 0 -84 78q-19 156 -55 524q-29 293 -53 518l-377 -973
q-39 -94 -113 -92q-36 0 -56 22q-20 21 -36 66q-59 157 -199 558q-38 110 -73.5 212t-53.5 154t-22 63z" />
    <glyph glyph-name="N" unicode="N" horiz-adv-x="1447" 
d="M340 102q0 -58 -18 -83t-62 -25q-88 0 -88 82q0 35 0.5 103.5t1 197t0.5 237.5q0 142 -1 238t-1 238v217q0 38 30 62t74 24q27 0 52 -17q27 -18 36 -30q3 -4 8.5 -11.5t13.5 -19t15 -21.5l502 -710l217 -305q-6 178 -6 481l-4 506q0 62 16 93q17 32 70 32q50 0 65 -29
q15 -28 15 -92v-680q4 -108 4 -504q0 -41 -28 -66q-27 -24 -74 -24q-39 0 -59 19q-21 19 -60 75l-725 1034q-2 -154 2 -527q4 -368 4 -495z" />
    <glyph glyph-name="O" unicode="O" horiz-adv-x="1527" 
d="M774 1405q272 0 466 -197t194 -495q0 -307 -190 -520q-189 -211 -478 -211q-172 0 -320 80t-245 239t-97 358q0 165 58 312q56 141 152 237q94 94 215 147q118 52 245 50zM1266 707q-1 234 -156 387q-152 151 -358 151q-192 0 -336 -162t-144 -403q0 -236 148 -387
q147 -150 360 -150q203 0 345 169q143 170 141 395z" />
    <glyph glyph-name="P" unicode="P" horiz-adv-x="1169" 
d="M180 905q0 58 -1 107t-1 100v197q12 69 103 80q91 6 319 6q200 0 340 -90q170 -117 168 -357q0 -143 -89 -265q-89 -121 -228 -159q-72 -18 -396 -18h-47q0 -19 2 -211t2 -227q0 -80 -86 -80q-41 0 -64 19q-24 19 -24 52q0 219 1 412t1 434zM350 864q0 -53 1 -99t1 -103
h101q202 -6 286 16q96 23 148 103q54 83 55 175q2 159 -119 232q-95 53 -245 53q-180 0 -232 -6q0 -4 2 -174t2 -197z" />
    <glyph glyph-name="Q" unicode="Q" horiz-adv-x="1550" 
d="M776 -23l-69 11q-114 17 -210 62q-104 49 -190 125q-91 80 -143 210q-53 132 -53 295q0 286 188 501q189 216 446 222q11 4 25 4q280 0 475 -186t197 -484q6 -453 -324 -661q-37 -26 -96 -49q29 -18 103 -74q75 -57 137 -86q57 -27 120 -27q56 0 92 21q35 20 50 46
q16 27 35 46q20 20 47 20q36 0 60 -21t24 -61q0 -84 -96 -157q-94 -72 -216 -70q-81 0 -150 34q-74 36 -180 119q-101 79 -155 113q-70 45 -117 47zM1270 711q0 175 -80 302q-79 125 -195 180q-114 54 -245 54q-176 0 -322 -165q-145 -164 -145 -394q0 -239 150 -395
q150 -157 390 -158q207 27 327 183t120 393z" />
    <glyph glyph-name="R" unicode="R" horiz-adv-x="1239" 
d="M182 1278q0 106 140 111q109 4 200 4q105 0 150 -4q198 -12 315 -123t117 -295q0 -151 -79 -255q-81 -107 -210 -141l318 -440q28 -38 28 -61q0 -34 -26 -57t-64 -25q-37 0 -74 43l-344 497h-305q0 -115 1 -222t1 -214q0 -99 -76 -100q-55 0 -74 23q-20 25 -20 79
q4 113 4 961q0 59 -1 109t-1 110zM602 1243q-174 0 -256 -2l2 -561h246q156 0 249 69q94 69 95 220q0 132 -89 203t-247 71z" />
    <glyph glyph-name="S" unicode="S" horiz-adv-x="1153" 
d="M954 1329q56 -27 56 -82q0 -28 -22 -53t-54 -25q-30 0 -76 23q-128 57 -262 57q-125 0 -212 -69t-87 -176q0 -38 9 -66q9 -29 38 -50l45 -34q16 -12 68 -27q15 -4 29 -8t24.5 -6.5t13.5 -3.5q4 -1 15 -3.5t29 -6.5l36 -8q83 -19 176 -50q76 -25 139 -67q65 -43 100 -111
q34 -67 34 -157q0 -190 -135 -305q-134 -115 -355 -115q-213 -1 -379 84q-75 34 -75 90q0 35 22 61q23 27 55 27q27 0 72 -21q155 -82 303 -82q139 0 230 68q90 67 90 182q0 110 -85 162q-89 55 -241 84q-92 18 -159 41q-70 24 -133 61q-67 39 -101 102q-35 64 -35 146
q0 177 143 295q145 119 334 119q195 0 350 -76z" />
    <glyph glyph-name="T" unicode="T" horiz-adv-x="1165" 
d="M592 1389q15 0 45.5 0.5t87.5 1t105 0.5q52 0 103.5 0.5t77 1t33.5 0.5q89 0 89 -72q0 -45 -23 -65q-22 -19 -74 -19h-370v-123q0 -131 1 -207l3 -342q0 -72 1.5 -229t2.5 -242q0 -100 -92 -100q-42 0 -61 20t-19 72l2 770q0 106 -1 190t-1 191q-137 0 -393 -2
q-76 0 -76 78t80 78q32 0 64 -1t154 -1h261z" />
    <glyph glyph-name="U" unicode="U" horiz-adv-x="1396" 
d="M168 563q0 238 1 410t1 317q0 94 80 94q46 0 67 -21t21 -67q-2 -136 -2 -733q0 -211 96 -313q97 -103 273 -103q158 0 260 117q103 118 104 299q2 122 -1 384q-3 282 -3 362q0 82 86 82q84 0 84 -101l2 -672q2 -299 -143 -464q-145 -166 -408 -166q-242 0 -380 150
t-138 425z" />
    <glyph glyph-name="V" unicode="V" horiz-adv-x="1308" 
d="M76 1237q-25 66 -25 80q0 34 32 57t69 23q56 0 77 -60q9 -23 33 -91l45 -124l352 -903q36 90 70 180l358 934q23 64 82 64q32 0 63 -22q30 -21 30 -54q0 -18 -25 -84q-36 -98 -176 -434q-2 -2 -35 -89q-35 -92 -78 -194l-182 -444q-38 -80 -115 -80q-45 0 -66 22
q-21 23 -44 76q-46 117 -85 214q-16 39 -67 163t-87 211q-17 41 -226 555z" />
    <glyph glyph-name="W" unicode="W" horiz-adv-x="1730" 
d="M82 1305q-8 39 16 66q25 28 68 28q71 0 86 -72l203 -1061q61 161 297 920q30 104 108 104q35 0 58 -19q24 -19 34 -46l314 -934q142 661 204 1007q11 56 31 78q21 23 64 23q35 0 63 -26q26 -25 19 -64l-265 -1215q-11 -55 -29 -77q-19 -23 -71 -23q-30 0 -53 15t-32 34
q-6 13 -19 47l-316 932q-89 -288 -303 -899q-22 -56 -24 -61q-11 -22 -37 -45t-60 -23q-65 1 -89 47q-24 45 -48 172q-7 40 -10 51z" />
    <glyph glyph-name="X" unicode="X" horiz-adv-x="1275" 
d="M637 592l-92 -117l-316 -432q-37 -49 -77 -49q-37 0 -63 23q-28 25 -28 55q0 28 31 73l440 570l-409 522q-33 43 -33 72q0 32 28 58t62 26q40 0 86 -64l371 -495l375 501q45 60 88 60q33 0 61 -25q27 -24 27 -53t-29 -70l-420 -536l439 -555q39 -50 39 -78q0 -31 -30 -55
q-31 -25 -65 -25q-30 0 -45 14q-20 18 -41 47l-288 394z" />
    <glyph glyph-name="Y" unicode="Y" horiz-adv-x="1226" 
d="M528 549l-10 24l-436 664q-31 51 -31 76q0 31 28 56q27 24 62 24q39 0 84 -68q388 -620 393 -625q9 13 42 68q30 50 126 204q35 56 112.5 179.5t115.5 183.5q39 60 80 60q34 0 60 -23t26 -53q0 -26 -29 -70l-453 -694q0 -139 -1 -243t-1 -242q0 -36 -24 -55
q-23 -19 -62 -19q-38 0 -61 22q-25 23 -25 62t1 71t1 72q0 102 1 170t1 156z" />
    <glyph glyph-name="Z" unicode="Z" 
d="M156 1231q-76 0 -76 76q0 82 84 82h434q11 0 179 2t184 2q88 0 88 -78q0 -31 -48 -105l-86 -135l-485 -704l-149 -219q166 0 419 5t281 5q84 0 84 -82q0 -78 -107 -78q-166 -2 -761 -2q-113 0 -119 66q-4 25 2 47q18 69 106 186l123 174l398 561l129 201q-190 0 -341 -1
q-227 -2 -339 -3z" />
    <glyph glyph-name="bracketleft" unicode="[" horiz-adv-x="610" 
d="M162 1376q1 43 27 67q24 23 65 23q40 0 108 1t146 1q72 0 72 -75q0 -70 -74 -70h-189q0 -281 -2 -477q0 -70 -3 -320q-3 -251 -3 -315q-2 -150 -2 -432q52 0 92 1t90 1q74 0 74 -74t-80 -74h-223q-57 0 -83 28q-25 26 -25 93q0 130 6 452t6 482q0 194 -1 373t-1 315z" />
    <glyph glyph-name="backslash" unicode="\" horiz-adv-x="770" 
d="M193 1395l518 -1307q20 -53 20 -78q0 -26 -29 -44q-27 -17 -57 -17q-44 0 -65 57l-514 1290q-27 78 -27 99q0 28 26 46q24 17 54 17q51 0 74 -63z" />
    <glyph glyph-name="bracketright" unicode="]" horiz-adv-x="610" 
d="M446 1376v-174v-290v-224q0 -123 7 -499q6 -323 6 -435q0 -65 -26 -93t-83 -28h-225q-78 0 -78 74t74 74q50 0 90 -1t92 -1q0 282 -2 432q-3 116 -5 318q-3 251 -3 317q-5 252 0 477h-189q-73 0 -73 70q0 75 71 75q77 0 145 -1t107 -1t66 -24q26 -23 26 -66z" />
    <glyph glyph-name="asciicircum" unicode="^" horiz-adv-x="1024" 
d="M848 590q-141 274 -342 637q-51 -95 -171 -342q-123 -254 -159 -316q-21 -28 -49 -28q-30 0 -56 20q-28 22 -28 47q0 36 16 64l347 651q40 70 102 70q55 0 96 -68q92 -145 354 -633q21 -34 21 -61q0 -28 -26 -49q-25 -21 -58 -21q-29 0 -47 29z" />
    <glyph glyph-name="underscore" unicode="_" horiz-adv-x="1024" 
d="M98 -156q-39 0 -58 24q-19 23 -17 56q0 76 102 76q187 0 417 -1t382 -1q77 0 77 -74q0 -80 -108 -80h-795z" />
    <glyph glyph-name="grave" unicode="`" horiz-adv-x="489" 
d="M305 1128q-146 143 -205 211q-26 32 -26 60q0 27 25 49t53 22q39 0 63 -34l180 -224q19 -24 19 -45q0 -20 -20 -40q-19 -19 -42 -19q-21 0 -47 20z" />
    <glyph glyph-name="a" unicode="a" horiz-adv-x="1163" 
d="M1020 664l-4 -310q0 -140 10 -291q0 -69 -88 -69q-45 0 -58 37q-14 39 -20 135q-102 -178 -332 -178q-192 0 -314 131t-122 317q0 217 134 362q134 144 333 144q197 0 303 -160q0 54 6 84q11 70 74 70q47 0 64 -28q16 -26 16 -85zM264 442q0 -132 83 -220q83 -87 202 -87
q135 0 223 91t88 237q0 154 -89 243t-210 89q-126 0 -212 -101q-85 -100 -85 -252z" />
    <glyph glyph-name="b" unicode="b" horiz-adv-x="1181" 
d="M150 1399q1 82 83 82q86 0 86 -80q-4 -191 -4 -637q49 89 141 139q91 49 197 49q189 0 313 -142t124 -331q0 -207 -134 -352q-133 -143 -329 -143q-99 0 -187 48t-133 132l-2 -98q-7 -74 -84 -72q-71 0 -71 100l8 414zM920 477q0 128 -86 225t-205 97q-129 0 -222 -94
q-94 -96 -94 -242q0 -144 89 -236t206 -92q128 0 219 97q93 99 93 245z" />
    <glyph glyph-name="c" unicode="c" horiz-adv-x="915" 
d="M805 883q39 -27 39 -68q0 -29 -21 -54q-21 -26 -51 -26q-12 0 -82 29q-64 29 -139 29q-127 0 -211 -108t-84 -230q0 -134 78 -224t203 -90q109 0 176 43q61 33 80 33q28 0 50 -28q21 -27 21 -56q0 -33 -30 -57q-112 -94 -289 -94q-213 0 -336 141q-123 140 -121 313
q1 198 133 355q130 155 340 155q137 0 244 -63z" />
    <glyph glyph-name="d" unicode="d" horiz-adv-x="1165" 
d="M1024 1401l-6 -500v-401q0 -8 0.5 -27.5t1 -57.5t0.5 -74q2 -176 2 -273q0 -80 -82 -80q-72 0 -78 71l-2 115q-114 -190 -330 -190q-192 0 -315 138t-123 320q0 212 135 356t334 144q92 0 171 -43t124 -117l-4 598q0 101 86 101t86 -80zM260 449q0 -130 85 -221t206 -91
q127 0 216 89t89 237q0 145 -82 236q-83 92 -205 92q-129 0 -219 -98q-90 -97 -90 -244z" />
    <glyph glyph-name="e" unicode="e" horiz-adv-x="1042" 
d="M264 420q5 -114 85 -196q81 -83 206 -83q122 0 223 68q52 24 68 24q28 0 52 -25q24 -26 24 -54q0 -45 -56 -80q-124 -88 -329 -88q-183 0 -312 130t-133 312q0 213 133 365q134 153 326 153q169 0 285 -113t116 -255q0 -84 -27 -118t-128 -36q-90 -2 -144 -2
q-113 0 -188 -1t-201 -1zM559 803q-116 0 -198 -80q-81 -80 -93 -184q459 7 498 10q25 5 25 20q0 102 -69 168t-163 66z" />
    <glyph glyph-name="f" unicode="f" horiz-adv-x="739" 
d="M649 772l-229 2v-516q0 -11 2 -97t2 -100q0 -73 -82 -73q-84 0 -84 92v182q0 12 -0.5 41t-1 82.5t-0.5 103.5q-2 185 0 285h-156q-75 0 -75 70q0 82 100 82h131q0 28 1 61t1 62q0 197 92 325q91 127 301 127q72 0 121 -26q37 -18 37 -66q0 -27 -15 -48q-16 -22 -42 -22
q-14 0 -68 9q-45 8 -72 6q-92 -2 -143 -87t-51 -202v-139h217q88 0 88 -78q0 -76 -74 -76z" />
    <glyph glyph-name="g" unicode="g" horiz-adv-x="1155" 
d="M532 -315q138 0 227 92t89 241v144q-49 -82 -134 -128t-188 -46q-188 0 -313 135q-125 136 -125 319q0 215 134 360q134 144 333 144q184 0 297 -160l2 86q4 66 78 66q36 0 57 -20q23 -21 23 -58q-4 -419 -4 -655l2 -193q4 -217 -133 -351t-349 -134q-163 0 -280 57
q-70 33 -70 86q0 33 23 59q22 25 53 25q14 0 26 -4q16 -5 32 -14q18 -10 32 -15q85 -36 188 -36zM260 449q0 -136 83 -222t204 -86q129 0 218 87t89 237q0 161 -84 246q-84 86 -209 86q-130 2 -215 -97q-86 -100 -86 -251z" />
    <glyph glyph-name="h" unicode="h" horiz-adv-x="1122" 
d="M154 1395q0 102 92 102q80 0 80 -92q0 -44 -1 -83q-2 -59 -3 -202q-3 -288 -3 -358q44 86 126 137t192 51q164 0 260 -115t96 -294v-469q0 -78 -90 -78q-38 0 -61 19q-25 20 -25 55q10 234 10 458q0 131 -61 199q-62 70 -172 70q-113 0 -195 -88t-82 -222q0 -120 1 -226
t1 -191q0 -76 -86 -76q-81 0 -81 74q0 26 2 152q0 24 0.5 54t1 46t0.5 24z" />
    <glyph glyph-name="i" unicode="i" horiz-adv-x="493" 
d="M164 858q2 44 25 63t57 19q46 0 66 -25q21 -25 22 -94q0 -128 -1 -234t-1 -237v-268q0 -47 -20 -70q-19 -22 -66 -22q-82 0 -82 84v784zM242 1223q-52 0 -83 34q-33 36 -28 89q7 51 42 78q36 28 81 28q55 0 85 -32t30 -83q0 -57 -35 -86q-34 -28 -92 -28z" />
    <glyph glyph-name="j" unicode="j" horiz-adv-x="468" 
d="M154 868q2 36 25 54q24 18 59 18q84 0 84 -70v-522q0 -259 -7 -532q-5 -120 -94 -205q-91 -87 -223 -88q-174 0 -174 94q0 39 19 62q19 24 46 24q21 0 54 -10t63 -10q138 0 148 198q6 115 4 633q0 12 -2 178t-2 176zM227 1219q-50 0 -81 31t-31 85q0 53 36 85
q37 32 91 32q56 0 86 -33t30 -86q0 -58 -35 -86t-96 -28z" />
    <glyph glyph-name="k" unicode="k" horiz-adv-x="954" 
d="M537 508l344 -379q24 -27 24 -53q0 -31 -25 -57q-26 -27 -63 -27q-35 0 -84 57l-309 367l-107 -105v-217q-2 -52 -18 -77t-63 -25q-50 0 -68 24t-18 80l4 238v899q0 110 -2 172q-1 43 23 66q26 24 65 24q82 0 82 -102q0 -50 -1.5 -200t-1.5 -246q-2 -402 -2 -445l392 399
q51 51 86 51q31 0 57 -26q27 -27 27 -60q0 -26 -41 -67z" />
    <glyph glyph-name="l" unicode="l" horiz-adv-x="481" 
d="M162 1393q0 41 25 63q26 23 65 23q48 0 66 -27t18 -88q-12 -1008 -12 -1028q0 -41 5 -146t5 -129q0 -71 -78 -73q-43 -4 -67 26q-23 29 -25 99q-8 169 -2 1280z" />
    <glyph glyph-name="m" unicode="m" horiz-adv-x="1677" 
d="M158 498q0 106 -1 150t-1 103q0 43 -1 59q0 6 -0.5 13.5t-1 12.5t-0.5 9q-1 8 -1 17q0 82 88 82q69 0 75 -82l4 -86q40 88 125 132t172 44q102 0 177 -56t102 -140q44 87 127 140q84 54 192 54q173 0 253 -110q81 -111 81 -291v-195q0 -124 -6 -291q0 -69 -86 -69
q-34 0 -58 18t-24 51q8 419 8 453q0 281 -196 281q-109 0 -175 -68t-71 -199v-208q0 -110 -2 -220q0 -54 -19 -82t-71 -26q-33 0 -54 18q-22 19 -22 54q4 338 2 485q-4 110 -54 179t-145 69q-258 0 -258 -346l2 -394q-1 -67 -88 -67q-35 0 -58 17t-23 52q0 39 2 101z" />
    <glyph glyph-name="n" unicode="n" horiz-adv-x="1132" 
d="M158 614l-4 217q0 56 19 82q19 27 69 27q43 0 58 -22q14 -22 19 -74l3 -90q39 92 130 144t197 52q168 0 258 -106q90 -107 90 -295v-268v-185q0 -55 -20 -78q-21 -24 -72 -24q-80 0 -80 78q0 69 4 201q4 129 2 227q-5 296 -219 297q-71 0 -125 -23q-55 -24 -84 -57
q-31 -36 -49 -88t-24 -105q-6 -51 -6 -116v-342q0 -76 -88 -76q-80 0 -80 76q0 54 1 106t1 164v278z" />
    <glyph glyph-name="o" unicode="o" 
d="M602 952q37 0 51 -14q183 -27 279 -165t96 -310q0 -208 -140 -344q-142 -137 -347 -137q-186 0 -319 127q-134 128 -134 325q0 230 140 373q141 144 374 145zM858 469q0 139 -79 230q-80 93 -224 100q-134 -7 -217 -106q-82 -97 -82 -263q0 -127 86 -211t195 -84
q131 0 226 92t95 242z" />
    <glyph glyph-name="p" unicode="p" horiz-adv-x="1169" 
d="M152 864q1 82 84 82q68 0 75 -65l2 -121q50 87 141 138q89 50 195 50q192 0 310 -136t118 -335q0 -209 -133 -352t-332 -143q-197 0 -299 147q0 -7 0.5 -19.5t1 -36.5t0.5 -45q2 -106 2 -128q0 -68 1 -129t1 -146q0 -86 -92 -84q-77 4 -77 84l4 813zM909 479
q0 135 -84 227q-84 91 -202 91q-129 0 -220 -97q-90 -96 -90 -245q0 -150 79 -235t206 -85q131 0 221 97q90 98 90 247z" />
    <glyph glyph-name="q" unicode="q" horiz-adv-x="1157" 
d="M1001 43q0 -27 1.5 -102t1.5 -119q2 -194 2 -223q-1 -76 -84 -76q-89 0 -88 88q4 189 4 524q-99 -153 -312 -153q-190 0 -314 139t-124 323q0 220 133 362t336 142q87 0 166 -45t129 -123l6 99q1 27 25 46q21 17 53 17t52 -19q22 -20 22 -53q-6 -296 -6 -340zM256 446
q0 -126 86 -221q85 -94 205 -94q127 0 212 87q85 86 85 241q0 152 -83 244t-196 92q-128 0 -219 -97q-90 -96 -90 -252z" />
    <glyph glyph-name="r" unicode="r" horiz-adv-x="731" 
d="M164 854q-2 84 84 84q63 0 69 -68l5 -143q50 109 133 164t170 55q94 0 94 -80q0 -33 -20 -58q-19 -24 -56 -24h-39q-114 0 -195 -100t-81 -252v-362q0 -78 -86 -78q-46 0 -65 24q-19 23 -17 86q0 65 4 238t4 283q0 7 -2 113t-2 118z" />
    <glyph glyph-name="s" unicode="s" horiz-adv-x="929" 
d="M481 946q166 0 271 -49q55 -28 55 -66q0 -75 -70 -75q-18 0 -96 25q-81 26 -164 26q-82 0 -143 -41q-60 -40 -60 -104q0 -31 14 -51q13 -19 48 -31q38 -13 57 -17q23 -5 78 -12q2 0 29 -4q162 -21 250 -80q90 -60 90 -188q0 -138 -104 -216q-102 -77 -271 -77
q-125 0 -244 38q-117 37 -117 85q0 86 72 86q15 0 116 -32t185 -32q87 0 146 37t59 102q0 68 -53 97q-54 29 -170 47q-64 8 -100 15q-35 7 -89 26q-51 18 -81 42t-51 64q-21 41 -21 94q0 126 110 208q112 83 254 83z" />
    <glyph glyph-name="t" unicode="t" horiz-adv-x="731" 
d="M100 780q-71 0 -71 72q0 76 80 76h127l2 168q0 116 90 116q40 0 55 -21q14 -20 14 -71q0 -83 -4 -192l207 2q76 0 76 -74t-76 -74h-205v-405q0 -123 29 -181q28 -57 102 -57q30 0 58 9q32 10 43 10q28 0 46 -23q17 -21 17 -51q0 -51 -41 -72q-51 -24 -131 -24
q-149 0 -218 85q-69 86 -69 275q0 21 2 217q0 48 1.5 120t1.5 95h-136z" />
    <glyph glyph-name="u" unicode="u" horiz-adv-x="1146" 
d="M238 936q73 0 73 -86q0 -19 -2 -193t-2 -215q0 -134 52 -220q52 -87 167 -87q161 0 227 110t66 308l2 293q0 43 25 68q24 24 63 24q84 0 84 -90v-4q0 -4 -0.5 -11.5t-0.5 -17.5t-0.5 -25.5t-0.5 -31.5l-3 -177q-1 -54 1 -210q0 -160 12 -301q0 -74 -81 -74q-68 0 -80 67
q-4 70 -4 81q0 15 -0.5 29t-1 21t-0.5 9q-100 -219 -328 -219q-184 0 -274 117q-91 118 -91 319q0 107 1 211t1 209q0 96 95 96z" />
    <glyph glyph-name="v" unicode="v" horiz-adv-x="1009" 
d="M78 788q-27 57 -27 84q0 30 28 52q26 20 62 20q38 0 55 -23t40 -79l268 -658q140 310 278 674q30 80 86 80q35 0 61 -19q27 -20 27 -49q2 -30 -22 -86l-313 -694q-27 -55 -52 -77q-24 -21 -69 -21t-69 25q-23 25 -54 94z" />
    <glyph glyph-name="w" unicode="w" horiz-adv-x="1529" 
d="M72 852q0 7 -1 12t-1 10q0 31 30 52q29 20 64 20q54 0 72 -55q162 -619 184 -696q83 209 258 686q21 53 84 53q69 0 96 -74l252 -657l141 524l43 154q16 55 72 55q32 0 62 -21t30 -51q0 -18 -2 -28q-17 -47 -90 -290q-85 -283 -98 -323q-3 -10 -10.5 -32.5l-10.5 -31.5
q-3 -11 -10 -32l-10 -30t-8.5 -23.5t-6.5 -16.5q-27 -65 -98 -65q-74 0 -102 88q-18 41 -246 631l-219 -574q-33 -83 -60 -115t-79 -32q-50 0 -73 22q-23 21 -38 72q-82 266 -139 470q-65 233 -86 298z" />
    <glyph glyph-name="x" unicode="x" horiz-adv-x="1007" 
d="M115 133l192 215l103 125l-41 45l-238 270q-37 44 -37 76q0 28 28 51q28 24 56 25q41 0 74 -43q195 -236 254 -315l235 288q30 39 51 55q20 15 46 15q27 0 57 -25q29 -24 29 -53q0 -15 -4 -26q-5 -13 -16 -27q-4 -5 -10 -13t-8 -11q-10 -12 -28 -30q-10 -10 -31 -34
l-215 -252l287 -334q37 -44 37 -67q0 -29 -28 -54q-27 -24 -60 -24q-42 0 -82 55l-254 315l-254 -311q-43 -59 -90 -59q-33 0 -57 24q-25 25 -25 54q0 36 29 65z" />
    <glyph glyph-name="y" unicode="y" horiz-adv-x="1009" 
d="M510 197q124 278 276 667q16 42 32 58q18 18 50 18q36 0 63 -21t27 -53q0 -28 -14 -59q-166 -397 -473 -1032q-127 -234 -297 -234q-139 0 -139 86q0 78 88 78q69 0 105 24q37 25 83 103q45 74 111 211l-80 166l-250 559q-33 69 -33 100q0 32 28 54q26 20 60 20
q44 0 68 -41z" />
    <glyph glyph-name="z" unicode="z" horiz-adv-x="917" 
d="M530 786q-45 0 -169 -3q-113 -3 -197 -1q-70 0 -70 76q0 78 109 78q18 0 174 -2t172 -2q9 0 93 2t95 2q90 -2 92 -62q4 -26 -2 -49q-23 -51 -106 -151l-404 -481l-34 -48l370 9q111 6 117 6q78 0 78 -78q0 -80 -84 -82q-25 0 -54 1t-71 1q-11 0 -35 -0.5t-68.5 -1
t-83.5 -0.5q-198 -2 -251 -2q-60 0 -87 21q-28 22 -28 75q0 34 29 78q25 39 102 131l410 485z" />
    <glyph glyph-name="braceleft" unicode="{" horiz-adv-x="600" 
d="M49 551q0 8 2 22q1 10 8 20l10 15q5 9 14 15q5 3 9.5 7t5.5 4q1 1 4 2.5t7.5 4.5t8.5 6q15 11 19 12q2 2 12 9.5l18 13.5q20 16 32 26q6 5 24 25q15 17 21 33t6 35q0 71 -38 200q-39 131 -40 205q0 117 90 204t223 87q29 0 49 -21q19 -20 19 -51q0 -29 -16 -51t-43 -22
q-67 0 -117 -47q-49 -46 -49 -115q0 -70 38 -198q39 -130 40 -201q0 -142 -197 -244q199 -109 199 -234q0 -73 -40 -203t-40 -208q0 -62 44 -112t113 -50q22 0 40 -21t18 -47q0 -30 -17 -50q-16 -19 -47 -19q-142 0 -224 88q-83 89 -83 207q0 69 38 201q39 134 40 204
q0 18 -12 39q-9 16 -25 32q-12 12 -39 33q-8 6 -15.5 12t-12.5 9.5t-7 5.5q-37 23 -48 31q-12 10 -28 33q-14 21 -14 53z" />
    <glyph glyph-name="bar" unicode="|" horiz-adv-x="524" 
d="M180 1397q2 86 78 86q46 0 64 -21q19 -22 20 -80q0 -222 -1 -515t-1 -517l2 -661q2 -95 -84 -95q-78 0 -78 87l2 673z" />
    <glyph glyph-name="braceright" unicode="}" horiz-adv-x="600" 
d="M551 551q0 -32 -14 -53q-16 -23 -28 -33q-11 -8 -48 -31q-2 -2 -7 -5.5t-12.5 -9.5t-15.5 -12q-27 -21 -39 -33q-16 -16 -25 -32q-12 -21 -12 -39q1 -70 40 -204q38 -132 38 -201q0 -118 -83 -207q-82 -88 -224 -88q-31 0 -47 20q-17 22 -17 51q0 26 18 46t40 20
q69 0 113 50t44 112q0 78 -40 208q-39 127 -39 203q0 126 198 234q-196 102 -196 244q1 75 39 201q38 128 38 198q0 69 -49 115q-50 47 -117 47q-27 0 -43 22t-16 51t20 51q19 21 48 21q133 0 223 -87t90 -204q-1 -74 -40 -205q-38 -129 -38 -200q0 -19 6 -35t21 -33
q18 -20 24 -25q12 -10 32 -26l18 -13.5t12 -9.5q3 -3 16 -11q4 -3 10.5 -6t7.5 -4q10 -7 14 -10q3 -2 5.5 -4.5t4.5 -5t3 -3.5q7 -7 11 -12q7 -8 9 -14q4 -9 5 -18q2 -14 2 -20z" />
    <glyph glyph-name="asciitilde" unicode="~" horiz-adv-x="1024" 
d="M227 473q-30 -47 -75 -47q-33 0 -53 26q-19 24 -11 60q24 77 89 132t153 56q70 0 134 -41q63 -41 117 -81q55 -41 103 -41q69 0 109 94q23 47 75 47q31 0 52 -23q21 -22 16 -53q-57 -203 -240 -203q-70 0 -132 40q-69 45 -117 79q-55 40 -101 41q-33 0 -58 -16
q-26 -17 -35 -29q-10 -13 -26 -41z" />
    <glyph glyph-name="uni00A0" unicode="&#xa0;" horiz-adv-x="503" 
 />
    <glyph glyph-name="exclamdown" unicode="&#xa1;" horiz-adv-x="468" 
d="M162 104l10 306q1 49 17 71q15 21 51 21q66 0 67 -72q17 -493 17 -762q1 -76 -16 -105q-18 -30 -70 -30q-44 0 -69 22q-24 21 -22 62zM236 944q50 0 85 -30q33 -29 33 -83q0 -49 -31 -79q-33 -31 -83 -31q-49 0 -82 35q-33 34 -33 84q0 46 32 75t79 29z" />
    <glyph glyph-name="cent" unicode="&#xa2;" horiz-adv-x="966" 
d="M823 1092q39 -24 39 -66q0 -28 -21 -55t-53 -27q-17 0 -81 31q-67 29 -140 29q-127 0 -211 -108t-84 -230q0 -136 78 -226t203 -90q107 0 178 43q1 0 23 15q16 11 30 16q11 4 27 4q28 0 49 -29t21 -57q0 -39 -29 -57q-90 -77 -231 -92v-148q0 -84 -76 -84q-68 0 -68 76
v160q-177 33 -275 165q-99 134 -98 285q0 174 104 320q104 145 273 180l-2 194q0 40 20 62q19 20 46 20q76 0 76 -82v-186q112 -7 202 -63z" />
    <glyph glyph-name="sterling" unicode="&#xa3;" horiz-adv-x="1075" 
d="M174 631q-63 0 -63 73q0 72 79 72h117q-12 63 -12 164q-8 214 89 336q98 123 282 123q102 0 188 -45q55 -34 39 -94q-18 -60 -84 -48q-3 0 -9 2t-15.5 4.5t-17.5 4.5q-30 7 -51 12q-19 4 -46 4q-207 0 -207 -276q0 -102 14 -187q93 0 152 1t100 1q74 0 74 -67
q0 -49 -23 -66q-22 -16 -90 -16q-40 0 -91 1t-95 1q47 -310 -29 -426q240 -76 316 -76q67 0 90 53q21 49 71 49q34 0 56 -22t20 -57q-23 -175 -227 -175q-70 0 -264 52q-193 52 -230 53q-65 0 -100 -45q-5 -5 -9 -12q-2 -3 -6 -8l-3 -5q-3 -4 -10 -10q-8 -7 -13 -9
q-8 -4 -16 -5q-14 -2 -23 -2q-35 0 -57 23q-23 25 -23 57q0 70 56 120q58 52 130 56q9 0 78 -11q39 46 42 179t-19 221h-160z" />
    <glyph glyph-name="currency" unicode="&#xa4;" horiz-adv-x="1157" 
d="M612 1040q92 0 181 -57l116 135q50 58 90 58q28 0 55 -25q25 -24 25 -55q0 -12 -1 -17q-2 -9 -6 -16q-6 -10 -8 -13q-8 -12 -10 -14l-12 -12l-14 -14l-14 -15l-113 -118q82 -121 82 -246q0 -124 -72 -230l131 -137q37 -37 37 -71q0 -32 -26 -55t-58 -23q-33 0 -82 55
l-108 125q-118 -76 -234 -76q-115 0 -223 84l-106 -121q-43 -55 -84 -55q-34 0 -58 24t-24 54q0 33 24 67l146 144q-56 95 -56 190q0 154 86 266l-145 150q-43 45 -45 68q-2 8 -2 16q0 34 25 56q26 23 55 24q40 0 74 -43l143 -166q107 63 231 63zM836 637q0 113 -68 189
q-67 75 -182 73q-107 0 -176 -81q-70 -82 -70 -212q0 -102 72 -173q71 -70 159 -70q105 -2 184 75q81 78 81 199z" />
    <glyph glyph-name="yen" unicode="&#xa5;" horiz-adv-x="1202" 
d="M285 489q-67 0 -62 70q6 57 86 57q50 0 88 -1t90 -1l-407 617q-31 48 -31 76q0 31 27 55t59 24q51 0 84 -57l383 -614l367 594q46 75 94 75q33 0 60 -24q28 -25 28 -53q0 -27 -39 -88l-403 -605h172q47 0 66 -13q20 -14 20 -48q0 -66 -78 -66h-205q0 -35 -1 -65t-1 -66
h205q80 0 80 -61q0 -66 -78 -66h-207v-143q0 -90 -84 -90q-88 0 -88 96l2 137l-221 2q-68 0 -68 70q0 57 76 57q59 0 107 -1t108 -1q2 58 2 131q-86 0 -139 1t-92 1z" />
    <glyph glyph-name="brokenbar" unicode="&#xa6;" horiz-adv-x="526" 
d="M182 334q2 84 78 84q46 0 64 -21q19 -22 20 -80v-364v-266q0 -95 -82 -95q-80 0 -80 89v358v295zM180 727v360v336q2 35 26 55q23 19 56 19q80 0 80 -84v-326v-356q0 -86 -82 -86q-80 0 -80 82z" />
    <glyph glyph-name="section" unicode="&#xa7;" horiz-adv-x="1009" 
d="M100 639q0 148 152 256q-81 55 -86 184q0 143 119 245q117 101 262 101t250 -49q51 -24 51 -67q0 -30 -18 -51t-50 -21q-15 0 -92 25q-73 24 -145 24q-90 0 -156 -56q-67 -56 -65 -143q0 -54 36 -90q37 -37 79 -52q41 -15 110 -30q173 -38 262 -109q90 -72 96 -216
q6 -164 -123 -281q54 -74 54 -168q0 -156 -110 -255t-267 -99q-119 0 -232 43q-109 39 -110 96q0 33 19 56q20 24 48 24q22 0 60 -16q102 -51 213 -51q97 0 164 49t67 137t-60 127q-62 40 -192 70q-157 39 -245 108q-90 70 -91 209zM502 780q-88 18 -144 45
q-110 -88 -110 -176q0 -83 58 -123t163 -67l213 -70q76 90 72 184q-5 90 -70 136q-67 47 -182 71z" />
    <glyph glyph-name="dieresis" unicode="&#xa8;" horiz-adv-x="694" 
d="M178 1157q-40 0 -69 30q-29 31 -29 73q0 43 32 73q33 31 76 31q46 0 74 -30q29 -31 29 -72q0 -47 -31 -76t-82 -29zM504 1161q-42 0 -70 30q-28 29 -28 73q0 42 30 72t78 30q46 0 73 -30t27 -74q0 -46 -30 -73q-31 -28 -80 -28z" />
    <glyph glyph-name="copyright" unicode="&#xa9;" horiz-adv-x="1552" 
d="M780 1407q280 0 478 -198t198 -496q0 -311 -190 -522t-486 -211q-128 0 -250 49q-123 49 -219 135q-94 84 -155 216q-60 130 -60 282q0 166 59 310q58 142 154 236t219 147q122 52 252 52zM1327 707q-5 252 -160 412q-156 161 -401 161q-236 0 -387 -171
q-152 -172 -152 -429q0 -253 165 -412t403 -159q230 0 383 179t149 419zM997 1012q33 -21 33 -51q0 -24 -14 -41q-16 -19 -39 -19q-4 0 -68 25q-49 24 -116 24q-98 0 -164 -82t-66 -184q0 -109 71 -186q70 -76 165 -76q80 0 133 31q52 28 63 28q23 0 39 -19q17 -20 17 -40
q0 -24 -25 -49q-92 -74 -227 -74q-159 0 -261 114t-102 261q0 155 102 275t255 120q108 0 204 -57z" />
    <glyph glyph-name="ordfeminine" unicode="&#xaa;" horiz-adv-x="808" 
d="M719 932q0 -79 4 -199q0 -55 -66 -55q-42 0 -53 47q0 2 -2 28t-2 29q-68 -110 -229 -110q-138 0 -225 93t-87 224q0 155 97 258t237 103q130 0 209 -103q0 14 1 24t1 21q11 54 55 54q38 0 50 -21t12 -63q-2 -102 -2 -330zM193 993q0 -91 56 -148q57 -59 138 -59
q90 0 152 63q61 62 61 161q0 107 -61 167t-144 60q-88 0 -145 -69t-57 -175z" />
    <glyph glyph-name="guillemotleft" unicode="&#xab;" horiz-adv-x="944" 
d="M436 727l-209 -240l215 -239q35 -35 35 -62q0 -20 -21 -40q-20 -19 -44 -19t-58 29l-252 243q-43 46 -43 88q0 39 39 80q38 40 74 76q63 63 101 100t79 78q28 23 49 23q22 0 44 -19t22 -41q0 -23 -31 -57zM846 727l-209 -240l215 -239q33 -33 33 -62q0 -20 -21 -40
q-20 -19 -43 -19t-57 29l-252 243q-45 45 -45 88q0 35 39 80l254 254q28 23 51 23q22 0 44 -19t22 -41q0 -21 -31 -57z" />
    <glyph glyph-name="logicalnot" unicode="&#xac;" horiz-adv-x="993" 
d="M137 479q-33 0 -55 20q-21 19 -21 54q0 76 84 76q11 0 52.5 0.5t125 1t170.5 0.5t170.5 0.5t125 1t53.5 0.5q71 0 71 -86q0 -10 2 -160q0 -34 1.5 -92.5t1.5 -79.5q0 -78 -76 -78t-76 74v272q-244 -4 -629 -4z" />
    <glyph glyph-name="uni00AD" unicode="&#xad;" horiz-adv-x="722" 
d="M160 414q-39 0 -60 21q-20 20 -20 54q0 78 96 78h383q82 0 82 -71q0 -44 -24 -63q-23 -19 -82 -19h-375z" />
    <glyph glyph-name="registered" unicode="&#xae;" horiz-adv-x="1550" 
d="M780 1405q278 0 475 -197t197 -495q0 -311 -190 -522t-486 -211q-175 0 -325 81q-153 83 -254 242q-101 160 -101 361q0 165 58 310q57 142 153 235q98 95 219 145q123 51 254 51zM1325 707q-5 252 -160 412q-156 161 -401 161q-238 0 -388 -169q-151 -171 -151 -429
q0 -252 164 -413q163 -160 402 -160q229 0 384 179t150 419zM549 1014q0 67 84 67q32 0 60 1t93 1q115 0 184 -63q68 -62 68 -164q0 -75 -38 -133q-38 -57 -97 -84q11 -16 82 -113q14 -19 30.5 -41t26.5 -35.5t15 -21.5q20 -16 20 -45q0 -21 -16 -37t-41 -16q-30 0 -47 26
l-182 256q-58 0 -81 1t-48 1q0 -113 2 -223q0 -57 -58 -59q-59 0 -59 55l4 119q0 97 -1 188t-1 197v123zM774 981q-29 0 -55 -1t-57 -1v-266h98q168 0 168 139q0 129 -154 129z" />
    <glyph glyph-name="macron" unicode="&#xaf;" horiz-adv-x="731" 
d="M156 1210q-74 0 -74 70q0 74 96 74q44 0 82 -1t86 -1q24 0 126 2q20 0 43.5 0.5t36 1t19.5 0.5q73 0 78 -66q0 -78 -102 -78q-53 0 -100 1t-107 1q-15 0 -99 -2t-85 -2z" />
    <glyph glyph-name="degree" unicode="&#xb0;" horiz-adv-x="585" 
d="M297 1397q103 0 172 -69q70 -70 70 -175q0 -109 -71 -178q-72 -70 -181 -70q-98 0 -168 67t-70 169q0 115 69 185q69 71 179 71zM440 1157q0 69 -42 109q-43 41 -109 41q-63 0 -103 -45q-41 -46 -41 -117q0 -63 42 -107q42 -43 102 -43q63 0 107 45q44 46 44 117z" />
    <glyph glyph-name="plusminus" unicode="&#xb1;" horiz-adv-x="993" 
d="M156 639q-39 0 -56 26q-16 25 -12 60q2 66 100 66h246v299q0 37 23 55t53 18q38 0 56 -21t18 -71v-283h276q72 0 72 -73q0 -39 -20 -56t-68 -18q-58 -2 -262 -2q0 -99 1 -169t1 -124q0 -69 -82 -65q-68 0 -68 86v274q-94 0 -162 -1t-116 -1zM131 2q-36 0 -53 26t-15 56
q6 68 101 68q57 0 127 -1t164 -1h385q71 0 71 -72q0 -42 -23 -59t-81 -19q-158 0 -346 1t-330 1z" />
    <glyph glyph-name="twosuperior" unicode="&#xb2;" horiz-adv-x="653" 
d="M309 1423q-66 0 -123 -61q-28 -31 -63 -31q-22 0 -40 20q-17 18 -17 46q0 37 49 76q81 77 192 77q114 2 191 -64q77 -65 77 -175q0 -15 -2 -39q-1 -16 -10 -37q-12 -28 -13 -32q-4 -13 -20 -32q-7 -8 -21 -28q-10 -14 -28 -32q-8 -8 -17.5 -18t-10.5 -11q-2 -2 -13.5 -12
t-20.5 -19q-17 -16 -34 -33l-143 -137q248 4 297 4q61 0 61 -62q0 -63 -70 -63h-133h-268q-31 0 -49 18q-19 19 -19 51q0 51 50 95l202 198q47 43 68 65q20 20 42 56q21 35 21 66q0 49 -37 82q-36 32 -98 32z" />
    <glyph glyph-name="threesuperior" unicode="&#xb3;" horiz-adv-x="645" 
d="M446 1012q0 62 -44 92q-45 31 -109 31h-49q-56 0 -56 61q0 24 31 55l170 172q-61 0 -125 -1t-127 -1q-65 0 -65 60q0 61 59 61h135q66 0 121 -1t121 -1q59 0 59 -57q0 -33 -39 -72l-174 -178q90 -2 157 -59q67 -58 67 -156q0 -121 -76 -193q-75 -71 -201 -71
q-117 0 -190 45q-52 34 -52 69q0 26 18 44t40 18q19 0 59 -19q68 -37 125 -37q65 0 105 37t40 101z" />
    <glyph glyph-name="acute" unicode="&#xb4;" horiz-adv-x="491" 
d="M186 1126q-26 -20 -47 -20q-23 0 -45 19t-22 42q0 24 18 45q3 4 80 91q84 95 113 131q28 34 59 34t56 -25q26 -26 26 -57q0 -22 -29 -51q-86 -96 -209 -209z" />
    <glyph glyph-name="mu" unicode="&#xb5;" horiz-adv-x="1148" 
d="M246 936q71 0 71 -80q0 -86 -1 -173t-1 -245q0 -128 50 -217q49 -88 165 -88q133 0 211 107q78 106 78 260v344q0 96 90 96q82 0 82 -88q0 -70 -1 -173t-1 -257q0 -203 39 -254q11 -11 23 -24q19 -20 25 -33q7 -14 7 -35q0 -35 -20 -58q-21 -24 -57 -24q-57 0 -97 43
q-51 51 -63 156q-100 -205 -352 -205q-63 0 -113 31q-52 32 -70 71q0 -179 -20 -309q-27 -213 -133 -213q-90 0 -90 86q0 35 37 133q38 99 42 231q7 308 7 390q0 89 -1 172t-1 208q0 83 19 115q19 33 75 33z" />
    <glyph glyph-name="paragraph" unicode="&#xb6;" horiz-adv-x="1280" 
d="M963 113l4 1128h-279v-144v-378v-613q0 -59 -17 -87q-17 -29 -67 -29q-80 0 -80 82q0 49 3 268q3 204 1 299h-26q-432 0 -432 369q-1 174 106 277q109 104 297 104h137q7 0 40.5 0.5t103.5 1t145 0.5q37 0 68 1t67 1q94 0 94 -88q0 -47 -1 -80q0 -14 -0.5 -37t-1 -58.5
t-0.5 -63.5q-1 -73 -1 -259q0 -206 1 -362t1 -357q0 -55 -19 -75q-19 -21 -63 -21q-45 0 -63 30t-18 91z" />
    <glyph glyph-name="periodcentered" unicode="&#xb7;" horiz-adv-x="421" 
d="M203 375q-48 0 -79 33q-32 34 -32 79q0 49 35 82t88 33q49 0 81 -33q32 -34 32 -82q0 -53 -35 -83q-33 -29 -90 -29z" />
    <glyph glyph-name="cedilla" unicode="&#xb8;" horiz-adv-x="520" 
d="M158 -111l49 113h104l-37 -108q61 0 113 -41q51 -41 51 -121q0 -90 -57 -143q-56 -52 -145 -52q-56 0 -109 27q-45 27 -45 63q0 21 15 36t38 15q13 0 47 -15t64 -15q78 0 78 80q0 69 -93 69h-24q-29 2 -44 32q-15 31 -5 60z" />
    <glyph glyph-name="onesuperior" unicode="&#xb9;" horiz-adv-x="518" 
d="M154 1303q-21 -15 -41 -15q-19 0 -38 19q-18 18 -18 41q0 28 35 57l162 115q37 24 65 24q23 0 42 -16q20 -17 20 -37v-225q0 -126 -1 -228t-1 -227q0 -53 -64 -53q-65 0 -65 61q0 30 5 262t5 299q-44 -35 -106 -77z" />
    <glyph glyph-name="ordmasculine" unicode="&#xba;" horiz-adv-x="800" 
d="M737 1008q0 -143 -95 -240q-94 -96 -247 -96q-137 0 -237 95q-99 95 -99 224q0 155 99 257t239 102q150 -1 246 -97q94 -94 94 -245zM193 995q0 -89 60 -149t142 -60q90 0 151 64q60 63 60 160q0 106 -59 166q-60 61 -148 61q-87 0 -147 -68q-59 -66 -59 -174z" />
    <glyph glyph-name="guillemotright" unicode="&#xbb;" horiz-adv-x="944" 
d="M305 487l-209 240q-30 35 -30 57q0 23 21 41q22 19 44 19q23 0 51 -23l254 -254q39 -45 39 -80q0 -43 -45 -88l-252 -243q-34 -29 -57 -29t-43 19q-21 20 -21 40q0 29 33 62zM717 487l-209 240q-31 34 -31 57q0 22 22 41t44 19q21 0 49 -23q41 -41 79 -78t101 -100
q36 -36 74 -76q39 -41 39 -80q0 -42 -43 -88l-252 -243q-34 -29 -58 -29t-44 19q-21 20 -21 40q0 27 35 62z" />
    <glyph glyph-name="onequarter" unicode="&#xbc;" horiz-adv-x="1560" 
d="M1245 410q0 67 55 67q64 0 66 -53v-154l78 2q57 0 57 -53q0 -69 -53 -69h-82v-101q0 -55 -63 -55q-60 0 -60 55q0 31 1 51t1 50h-289q-33 0 -52 23t-19 52q0 41 30 88l232 428q24 45 61 45q29 0 53 -18q23 -17 23 -41q0 -11 -10 -37l-238 -422l209 2v140zM1040 1348
q24 43 62 43q23 0 42 -17q17 -16 17 -41t-18 -55l-316 -522l-424 -725q-21 -39 -55 -39q-23 0 -43 16t-20 43q0 23 18 53zM168 1153q-18 -12 -39 -12q-23 0 -39 17t-16 40q0 33 35 57l161 117q34 23 66 23q22 0 42 -17q19 -16 19 -37q0 -61 -1 -111t-1 -114v-452
q0 -56 -63 -56q-68 0 -68 62q0 27 5 262t5 299q-52 -45 -106 -78z" />
    <glyph glyph-name="onehalf" unicode="&#xbd;" horiz-adv-x="1560" 
d="M1036 1348q24 43 60 43q24 0 43 -17q18 -16 18 -41q0 -17 -18 -55l-316 -522l-424 -725q-21 -39 -57 -39q-23 0 -42 16t-19 43q0 23 18 53zM168 1153q-21 -12 -39 -12q-23 0 -40 17t-17 40q0 29 34 57l162 117q35 23 68 23q22 0 42 -17q19 -16 19 -37q0 -61 -1 -111
t-1 -114v-452q0 -56 -65 -56q-28 0 -47 17t-19 45q0 27 5 262t5 299q-65 -52 -106 -78zM1210 662q-66 0 -123 -62q-25 -31 -63 -31q-23 0 -42 19q-17 17 -17 45q0 38 49 78q84 77 194 77q114 0 191 -65q78 -66 78 -174q0 -18 -3 -36q-1 -7 -3.5 -18t-3.5 -14q-2 -12 -12 -31
q-2 -4 -5.5 -10.5t-5.5 -10.5t-3 -7q-3 -8 -21 -29q-16 -19 -20 -26q-5 -9 -26 -28l-11.5 -11.5l-9.5 -9.5l-5 -5q-1 0 -11.5 -9.5t-19.5 -19.5q-10 -9 -20.5 -19t-10.5 -11l-143 -135q46 0 186 2q31 0 58 0.5t39.5 1t13.5 0.5q28 0 45 -18q16 -17 16 -46q0 -63 -69 -63
q-31 0 -64 1t-70 1h-268q-31 0 -49 18t-18 50q0 49 47 94l204 200q45 41 67 64q23 24 42 56q20 33 20 65q0 50 -36 83q-37 34 -97 34z" />
    <glyph glyph-name="threequarters" unicode="&#xbe;" horiz-adv-x="1622" 
d="M1309 410q0 67 55 67q64 0 66 -53v-154l77 2q58 0 58 -53q0 -69 -54 -69h-81v-101q0 -55 -64 -55q-59 0 -59 55q0 31 1 51t1 50h-89h-114h-86q-33 0 -52 23q-20 25 -20 52q0 40 31 88l231 428q24 45 62 45q28 0 52 -18t24 -41q0 -9 -11 -37l-237 -422l209 2v140z
M1130 1348q24 43 60 43q24 0 43 -17q18 -16 18 -41q0 -17 -18 -55l-315 -522l-424 -725q-21 -39 -58 -39q-23 0 -42 16t-19 43q0 23 18 53zM467 862q0 62 -43 92q-45 31 -109 31h-49q-55 0 -55 62q0 26 31 57l170 170q-172 0 -252 -2q-66 0 -66 59q0 62 60 62h133
q68 0 123 -1t118 -1q62 0 62 -56q0 -37 -39 -71l-174 -181q88 -1 155 -59q66 -57 68 -154q0 -122 -76 -194t-200 -72q-113 0 -193 47q-49 28 -49 70q0 26 18 44q17 17 39 17q19 0 60 -18q65 -37 125 -37q63 0 103 37t40 98z" />
    <glyph glyph-name="questiondown" unicode="&#xbf;" horiz-adv-x="991" 
d="M893 -266q0 -40 -45 -74q-164 -131 -350 -131q-172 0 -298 105t-126 276q0 54 21 104q20 47 43 80q21 30 74 71q51 40 73 52q19 11 80 49q95 61 100 140q1 17 -6 35q-8 19 -8 36q0 33 22 51q24 19 57 19q49 0 76 -42t27 -108q0 -141 -168 -237q-68 -40 -84 -50
q-27 -18 -67 -52q-39 -33 -57 -69q-17 -34 -17 -79q0 -99 76 -163t186 -64q118 0 225 84q61 45 90 45q27 0 52 -25q24 -24 24 -53zM649 836q0 -49 -35 -82q-34 -33 -88 -33q-55 0 -87 32q-31 31 -31 81q0 56 34 84t86 28q55 0 88 -30t33 -80z" />
    <glyph glyph-name="Agrave" unicode="&#xc0;" horiz-adv-x="1308" 
d="M51 72q0 26 31 100l215 504q50 113 260 653q27 66 98 66q74 0 103 -68q25 -57 138 -350q27 -72 58 -153t50 -131t30 -77q0 -2 2 -5t5 -9t5 -12q3 -8 7.5 -18t5.5 -13l180 -438q16 -39 16 -60q0 -25 -27 -47q-26 -22 -65 -22q-37 0 -55 15t-35 56q-123 315 -123 316
q-84 2 -389 2h-209q-4 -9 -56 -145q-53 -139 -60 -154q-30 -67 -52 -80q-18 -8 -37 -8q-96 0 -96 78zM655 1182q-84 -242 -252 -660q228 -4 494 2q-1 4 -11.5 32t-25 68t-30.5 84q-77 214 -103 284q-54 145 -72 190zM698 1518q-139 136 -204 211q-27 33 -27 59t26 49t52 23
q39 0 63 -35l180 -223q19 -22 19 -46q0 -19 -20 -39t-42 -20q-20 0 -47 21z" />
    <glyph glyph-name="Aacute" unicode="&#xc1;" horiz-adv-x="1308" 
d="M51 72q0 26 31 100l215 504q50 113 260 653q27 66 98 66q74 0 103 -68q25 -57 138 -350q27 -72 58 -153t50 -131t30 -77q0 -2 2 -5t5 -9t5 -12q3 -8 7.5 -18t5.5 -13l180 -438q16 -39 16 -60q0 -25 -27 -47q-26 -22 -65 -22q-37 0 -55 15t-35 56q-123 315 -123 316
q-84 2 -389 2h-209q-4 -9 -56 -145q-53 -139 -60 -154q-30 -67 -52 -80q-18 -8 -37 -8q-96 0 -96 78zM655 1182q-84 -242 -252 -660q228 -4 494 2q-1 4 -11.5 32t-25 68t-30.5 84q-77 214 -103 284q-54 145 -72 190zM629 1516q-27 -21 -47 -21q-23 0 -45 19q-23 20 -23 42
q0 25 18 46q3 4 13 15t29.5 32.5t37.5 42.5q84 95 113 131q29 35 59 35q31 0 57 -26q25 -25 25 -56q0 -24 -28 -52q-81 -91 -209 -208z" />
    <glyph glyph-name="Acircumflex" unicode="&#xc2;" horiz-adv-x="1308" 
d="M51 72q0 26 31 100l215 504q50 113 260 653q27 66 98 66q74 0 103 -68q25 -57 138 -350q27 -72 58 -153t50 -131t30 -77q0 -2 2 -5t5 -9t5 -12q3 -8 7.5 -18t5.5 -13l180 -438q16 -39 16 -60q0 -25 -27 -47q-26 -22 -65 -22q-37 0 -55 15t-35 56q-123 315 -123 316
q-84 2 -389 2h-209q-4 -9 -56 -145q-53 -139 -60 -154q-30 -67 -52 -80q-18 -8 -37 -8q-96 0 -96 78zM655 1182q-84 -242 -252 -660q228 -4 494 2q-1 4 -11.5 32t-25 68t-30.5 84q-77 214 -103 284q-54 145 -72 190zM874 1483q-12 0 -49 24l-168 172q-150 -158 -170 -176
q-21 -18 -47 -18q-18 0 -38 18q-19 18 -19 39q0 23 23 51l176 197q30 37 77 37q40 0 70 -33l178 -201q27 -35 27 -53q0 -17 -19 -38q-18 -19 -41 -19z" />
    <glyph glyph-name="Atilde" unicode="&#xc3;" horiz-adv-x="1308" 
d="M51 72q0 26 31 100l215 504q50 113 260 653q27 66 98 66q74 0 103 -68q25 -57 138 -350q27 -72 58 -153t50 -131t30 -77q0 -2 2 -5t5 -9t5 -12q3 -8 7.5 -18t5.5 -13l180 -438q16 -39 16 -60q0 -25 -27 -47q-26 -22 -65 -22q-37 0 -55 15t-35 56q-123 315 -123 316
q-84 2 -389 2h-209q-4 -9 -56 -145q-53 -139 -60 -154q-30 -67 -52 -80q-18 -8 -37 -8q-96 0 -96 78zM655 1182q-84 -242 -252 -660q228 -4 494 2q-1 4 -11.5 32t-25 68t-30.5 84q-77 214 -103 284q-54 145 -72 190zM471 1587q-8 -47 -63 -47q-29 0 -46 20q-16 18 -14 52
q4 75 54 122q49 46 128 46q54 0 99 -31q34 -23 79 -61q38 -32 74 -33q55 0 60 80q2 23 21 36t40 13q23 0 42 -17q18 -17 18 -41q0 -95 -49 -144q-48 -48 -128 -48q-42 1 -81 20q-37 18 -59 40q-24 24 -51 40q-33 20 -58 21q-61 0 -66 -68z" />
    <glyph glyph-name="Adieresis" unicode="&#xc4;" horiz-adv-x="1308" 
d="M51 72q0 26 31 100l215 504q50 113 260 653q27 66 98 66q74 0 103 -68q25 -57 138 -350q27 -72 58 -153t50 -131t30 -77q0 -2 2 -5t5 -9t5 -12q3 -8 7.5 -18t5.5 -13l180 -438q16 -39 16 -60q0 -25 -27 -47q-26 -22 -65 -22q-37 0 -55 15t-35 56q-123 315 -123 316
q-84 2 -389 2h-209q-4 -9 -56 -145q-53 -139 -60 -154q-30 -67 -52 -80q-18 -8 -37 -8q-96 0 -96 78zM655 1182q-84 -242 -252 -660q228 -4 494 2q-1 4 -11.5 32t-25 68t-30.5 84q-77 214 -103 284q-54 145 -72 190zM485 1546q-41 0 -69 30q-29 31 -29 73q0 43 32 73
q33 31 77 31t73 -30q29 -31 29 -72q0 -47 -31 -76t-82 -29zM811 1550q-41 0 -70 30q-28 29 -28 73q0 42 30 72t78 30q46 0 73 -30q28 -31 28 -74q0 -45 -31 -73t-80 -28z" />
    <glyph glyph-name="Aring" unicode="&#xc5;" horiz-adv-x="1308" 
d="M659 1739q89 0 156 -59q66 -58 66 -148q0 -67 -35 -122t-92 -79l10 -20q39 -92 132 -338q98 -257 138 -357q0 -2 2 -5t5 -9t5 -12q3 -8 7.5 -18t5.5 -13l180 -438q16 -39 16 -60q0 -28 -26 -48q-27 -21 -64 -21q-40 0 -57 16q-18 17 -35 56q-35 89 -66.5 169.5t-44 112.5
t-12.5 33q-84 2 -389 2h-209q-4 -9 -56 -145q-53 -139 -60 -154q-30 -67 -52 -80q-18 -8 -37 -8q-96 0 -96 78q0 26 31 100l215 504q72 163 254 635q4 10 10 20q-53 21 -92 73q-37 49 -37 116q0 95 71 157t156 62zM655 1182q-84 -242 -252 -660q228 -4 494 2q-1 4 -11.5 32
t-25 68t-30.5 84q-77 214 -103 284q-54 145 -72 190zM774 1530q0 50 -34 81q-35 32 -85 32q-49 0 -84 -32q-34 -31 -34 -85q0 -56 33 -88q34 -33 87 -33t86 37t31 88z" />
    <glyph glyph-name="AE" unicode="&#xc6;" horiz-adv-x="1855" 
d="M37 82q0 36 47 94q168 234 411 603q247 376 351 521q63 87 149 87q69 0 158 1q47 1 147 1.5t152 0.5q111 1 236 1q92 0 92 -74q0 -69 -60 -76q-299 -4 -594 -4q0 -72 -1 -126t-1 -118l-2 -192v-49h103q82 0 165 1t214 1q86 0 86 -72q0 -74 -84 -74q-125 0 -259 -1
t-227 -1v-141q0 -87 -1 -158t-1 -157q95 0 580 8q84 0 84 -76q0 -81 -92 -86h-516q-144 0 -183 20q-42 22 -43 105l2 252l-520 4q-39 -53 -207 -314q-46 -69 -100 -69q-36 0 -62 25q-26 24 -24 63zM956 1184l-446 -666l444 2q0 107 2 191v164q0 85 -1 153q-1 80 1 156z" />
    <glyph glyph-name="Ccedilla" unicode="&#xc7;" horiz-adv-x="1245" 
d="M649 -111l41 97q-245 18 -416 203q-172 185 -170 479q1 325 204 531q201 204 462 202q166 0 299 -60q90 -41 90 -94q0 -38 -19 -61q-20 -25 -57 -25q-23 1 -79 27q-123 57 -252 57q-188 0 -332 -162q-145 -163 -146 -405q0 -220 139 -377q138 -156 347 -158q154 0 278 82
q4 3 16 9q3 1 5.5 3t4.5 3.5t3 2.5q5 3 12 6q3 1 17 4q5 1 18 1q29 0 47 -27q19 -29 19 -59q0 -64 -121 -119q-119 -54 -264 -65l-29 -90q59 0 111 -41q51 -40 51 -121q0 -90 -57 -143q-56 -52 -144 -52q-54 0 -111 27q-45 27 -45 63q0 21 17 36q16 15 39 15q11 0 46 -15
q34 -15 62 -15q78 0 78 80q0 69 -90 69h-25q-30 1 -45 32q-15 29 -4 60z" />
    <glyph glyph-name="Egrave" unicode="&#xc8;" horiz-adv-x="1112" 
d="M193 1305q0 49 32 66q33 18 101 18h98q53 0 275 2q42 0 94.5 0.5t81 1t43.5 0.5q93 0 98 -74q0 -69 -55 -76q-82 -2 -494 -2h-107q-2 -114 -2 -248l-2 -198v-39h103q221 0 356 6q58 0 80 -14q25 -16 25 -62q-5 -74 -93 -74h-473v-147q0 -16 -2 -158t-2 -157q298 0 541 4
q22 0 37 1t35 1q71 0 71 -74q0 -42 -22 -63q-23 -22 -82 -23h-537q-137 0 -173 20q-39 22 -40 103q0 44 2 82l2 28q0 44 1 77q1 17 1.5 57t0.5 60q1 24 1.5 79.5t0.5 83.5q1 64 1 198q0 145 1 260q2 230 2 261zM662 1518q-146 143 -205 211q-27 33 -27 59t26 49t52 23
q39 0 63 -35l181 -223q18 -21 18 -46q0 -20 -19 -39q-20 -20 -42 -20q-20 0 -47 21z" />
    <glyph glyph-name="Eacute" unicode="&#xc9;" horiz-adv-x="1112" 
d="M193 1305q0 49 32 66q33 18 101 18h98q53 0 275 2q42 0 94.5 0.5t81 1t43.5 0.5q93 0 98 -74q0 -69 -55 -76q-82 -2 -494 -2h-107q-2 -114 -2 -248l-2 -198v-39h103q221 0 356 6q58 0 80 -14q25 -16 25 -62q-5 -74 -93 -74h-473v-147q0 -16 -2 -158t-2 -157q298 0 541 4
q22 0 37 1t35 1q71 0 71 -74q0 -42 -22 -63q-23 -22 -82 -23h-537q-137 0 -173 20q-39 22 -40 103q0 44 2 82l2 28q0 44 1 77q1 17 1.5 57t0.5 60q1 24 1.5 79.5t0.5 83.5q1 64 1 198q0 145 1 260q2 230 2 261zM592 1516q-27 -21 -47 -21q-23 0 -45 19q-23 20 -23 42
q0 24 19 46q4 5 79 90q84 95 113 131q29 35 60 35q30 0 56 -26q25 -25 25 -56q0 -24 -28 -52q-81 -91 -209 -208z" />
    <glyph glyph-name="Ecircumflex" unicode="&#xca;" horiz-adv-x="1112" 
d="M193 1305q0 49 32 66q33 18 101 18h98q53 0 275 2q42 0 94.5 0.5t81 1t43.5 0.5q93 0 98 -74q0 -69 -55 -76q-82 -2 -494 -2h-107q-2 -114 -2 -248l-2 -198v-39h103q221 0 356 6q58 0 80 -14q25 -16 25 -62q-5 -74 -93 -74h-473v-147q0 -16 -2 -158t-2 -157q298 0 541 4
q22 0 37 1t35 1q71 0 71 -74q0 -42 -22 -63q-23 -22 -82 -23h-537q-137 0 -173 20q-39 22 -40 103q0 44 2 82l2 28q0 44 1 77q1 17 1.5 57t0.5 60q1 24 1.5 79.5t0.5 83.5q1 64 1 198q0 145 1 260q2 230 2 261zM838 1483q-13 0 -50 24l-167 172q-150 -158 -170 -176
q-21 -18 -48 -18q-17 0 -37 18t-20 39q0 23 23 51l176 197q30 37 78 37q39 0 69 -33l178 -201q27 -35 27 -53t-18 -38q-18 -19 -41 -19z" />
    <glyph glyph-name="Edieresis" unicode="&#xcb;" horiz-adv-x="1112" 
d="M193 1305q0 49 32 66q33 18 101 18h98q53 0 275 2q42 0 94.5 0.5t81 1t43.5 0.5q93 0 98 -74q0 -69 -55 -76q-82 -2 -494 -2h-107q-2 -114 -2 -248l-2 -198v-39h103q221 0 356 6q58 0 80 -14q25 -16 25 -62q-5 -74 -93 -74h-473v-147q0 -16 -2 -158t-2 -157q298 0 541 4
q22 0 37 1t35 1q71 0 71 -74q0 -42 -22 -63q-23 -22 -82 -23h-537q-137 0 -173 20q-39 22 -40 103q0 44 2 82l2 28q0 44 1 77q1 17 1.5 57t0.5 60q1 24 1.5 79.5t0.5 83.5q1 64 1 198q0 145 1 260q2 230 2 261zM449 1546q-41 0 -70 30q-29 31 -29 73q0 43 32 73q33 31 77 31
q45 0 73 -30q29 -31 29 -72q0 -47 -31 -76t-81 -29zM774 1550q-40 0 -69 30q-29 31 -29 73q0 41 31 72q30 30 77 30q46 0 73 -30q28 -31 28 -74q0 -45 -31 -73t-80 -28z" />
    <glyph glyph-name="Igrave" unicode="&#xcc;" horiz-adv-x="561" 
d="M199 825q0 6 -2 218t-2 268q0 86 90 86q37 0 59 -21q23 -21 23 -57q0 -44 -2 -510v-328l2 -393q0 -96 -86 -96q-41 0 -64 20q-24 21 -22 60q0 48 1 88t1 92zM322 1518q-146 143 -205 211q-27 33 -27 59t26 49t52 23q39 0 63 -35l181 -223q18 -21 18 -46q0 -20 -19 -39
q-20 -20 -42 -20q-20 0 -47 21z" />
    <glyph glyph-name="Iacute" unicode="&#xcd;" horiz-adv-x="561" 
d="M199 825q0 6 -2 218t-2 268q0 86 90 86q37 0 59 -21q23 -21 23 -57q0 -44 -2 -510v-328l2 -393q0 -96 -86 -96q-41 0 -64 20q-24 21 -22 60q0 48 1 88t1 92zM252 1516q-27 -21 -47 -21q-23 0 -45 19q-23 20 -23 42q0 24 19 46q3 4 13 15t29.5 32.5t37.5 42.5
q71 81 112 131q29 35 60 35q30 0 56 -26q25 -25 25 -56q0 -24 -28 -52q-81 -91 -209 -208z" />
    <glyph glyph-name="Icircumflex" unicode="&#xce;" horiz-adv-x="561" 
d="M199 825q0 6 -2 218t-2 268q0 86 90 86q37 0 59 -21q23 -21 23 -57q0 -44 -2 -510v-328l2 -393q0 -96 -86 -96q-41 0 -64 20q-24 21 -22 60q0 48 1 88t1 92zM498 1483q-12 0 -49 24l-168 172q-150 -158 -170 -176q-21 -18 -48 -18q-17 0 -37 18t-20 39q0 23 23 51
l176 197q30 37 78 37q39 0 69 -33l178 -201q27 -35 27 -53t-18 -38q-18 -19 -41 -19z" />
    <glyph glyph-name="Idieresis" unicode="&#xcf;" horiz-adv-x="561" 
d="M199 825q0 6 -2 218t-2 268q0 86 90 86q37 0 59 -21q23 -21 23 -57q0 -44 -2 -510v-328l2 -393q0 -96 -86 -96q-41 0 -64 20q-24 21 -22 60q0 48 1 88t1 92zM109 1546q-41 0 -70 30q-29 31 -29 73q0 43 32 73q33 31 77 31q45 0 74 -30q28 -29 28 -72q0 -47 -31 -76
t-81 -29zM434 1550q-40 0 -69 30q-29 31 -29 73q0 41 31 72q30 30 77 30q46 0 73 -30q28 -31 28 -74q0 -45 -31 -73t-80 -28z" />
    <glyph glyph-name="Eth" unicode="&#xd0;" horiz-adv-x="1390" 
d="M172 1274q0 119 166 119q59 0 140 1t136 1q298 -15 493 -186q196 -172 196 -470q0 -733 -779 -739q-172 0 -252 4q-98 6 -98 121l2 471h-80q-76 0 -76 74q0 73 89 73h69zM557 1239q-141 0 -215 -6v-490h186q80 0 80 -71q0 -42 -20 -59t-72 -17h-174v-393q0 -33 30 -39
t140 -6q621 0 621 559q0 174 -82 295q-83 122 -208 174q-127 53 -286 53z" />
    <glyph glyph-name="Ntilde" unicode="&#xd1;" horiz-adv-x="1447" 
d="M340 102q0 -58 -18 -83t-62 -25q-88 0 -88 82q0 35 0.5 103.5t1 197t0.5 237.5q0 142 -1 238t-1 238v217q0 38 30 62t74 24q27 0 52 -17q27 -18 36 -30q3 -4 8.5 -11.5t13.5 -19t15 -21.5l502 -710l217 -305q-6 178 -6 481l-4 506q0 62 16 93q17 32 70 32q50 0 65 -29
q15 -28 15 -92v-680q4 -108 4 -504q0 -41 -28 -66q-27 -24 -74 -24q-39 0 -59 19q-21 19 -60 75l-725 1034q-2 -154 2 -527q4 -368 4 -495zM539 1587q-8 -47 -64 -47q-28 0 -45 20q-16 18 -14 52q4 75 54 122q49 46 128 46q53 0 98 -31q34 -23 79 -61q38 -32 75 -33
q54 0 59 80q1 21 22 35q20 14 40 14q23 0 42 -17q17 -16 17 -41q0 -96 -48 -144t-128 -48q-43 1 -82 20q-35 17 -58 40q-24 24 -51 40q-33 20 -59 21q-60 0 -65 -68z" />
    <glyph glyph-name="Ograve" unicode="&#xd2;" horiz-adv-x="1527" 
d="M774 1405q272 0 466 -197t194 -495q0 -307 -190 -520q-189 -211 -478 -211q-172 0 -320 80t-245 239t-97 358q0 165 58 312q56 141 152 237q94 94 215 147q118 52 245 50zM1266 707q-1 234 -156 387q-152 151 -358 151q-192 0 -336 -162t-144 -403q0 -236 148 -387
q147 -150 360 -150q203 0 345 169q143 170 141 395zM807 1518q-146 143 -205 211q-27 33 -27 59t26 49t52 23q40 0 64 -35l180 -223q18 -21 18 -46q0 -20 -19 -39q-20 -20 -42 -20q-20 0 -47 21z" />
    <glyph glyph-name="Oacute" unicode="&#xd3;" horiz-adv-x="1527" 
d="M774 1405q272 0 466 -197t194 -495q0 -307 -190 -520q-189 -211 -478 -211q-172 0 -320 80t-245 239t-97 358q0 165 58 312q56 141 152 237q94 94 215 147q118 52 245 50zM1266 707q-1 234 -156 387q-152 151 -358 151q-192 0 -336 -162t-144 -403q0 -236 148 -387
q147 -150 360 -150q203 0 345 169q143 170 141 395zM737 1516q-27 -21 -47 -21q-23 0 -45 19t-22 42q0 25 18 46q3 4 13 15t29.5 32.5t37.5 42.5q84 95 113 131q29 35 59 35t56 -26t26 -56q0 -23 -29 -52q-81 -91 -209 -208z" />
    <glyph glyph-name="Ocircumflex" unicode="&#xd4;" horiz-adv-x="1527" 
d="M774 1405q272 0 466 -197t194 -495q0 -307 -190 -520q-189 -211 -478 -211q-172 0 -320 80t-245 239t-97 358q0 165 58 312q56 141 152 237q94 94 215 147q118 52 245 50zM1266 707q-1 234 -156 387q-152 151 -358 151q-192 0 -336 -162t-144 -403q0 -236 148 -387
q147 -150 360 -150q203 0 345 169q143 170 141 395zM983 1483q-11 0 -49 24l-168 172q-150 -158 -170 -176q-21 -18 -47 -18q-19 0 -38 18t-19 39q0 25 22 51l176 197q30 37 78 37q40 0 70 -33l178 -201q26 -33 26 -53q0 -18 -18 -38q-18 -19 -41 -19z" />
    <glyph glyph-name="Otilde" unicode="&#xd5;" horiz-adv-x="1527" 
d="M774 1405q272 0 466 -197t194 -495q0 -307 -190 -520q-189 -211 -478 -211q-172 0 -320 80t-245 239t-97 358q0 165 58 312q56 141 152 237q94 94 215 147q118 52 245 50zM1266 707q-1 234 -156 387q-152 151 -358 151q-192 0 -336 -162t-144 -403q0 -236 148 -387
q147 -150 360 -150q203 0 345 169q143 170 141 395zM578 1587q-8 -47 -64 -47q-28 0 -45 20q-16 18 -14 52q4 75 54 122q49 46 128 46q53 0 98 -31q34 -23 79 -61q38 -32 75 -33q54 0 59 80q1 21 22 35q20 14 40 14q23 0 42 -17q17 -16 17 -41q0 -96 -48 -144t-128 -48
q-43 1 -82 20q-35 17 -58 40q-22 22 -52 40q-33 20 -58 21q-60 0 -65 -68z" />
    <glyph glyph-name="Odieresis" unicode="&#xd6;" horiz-adv-x="1527" 
d="M774 1405q272 0 466 -197t194 -495q0 -307 -190 -520q-189 -211 -478 -211q-172 0 -320 80t-245 239t-97 358q0 165 58 312q56 141 152 237q94 94 215 147q118 52 245 50zM1266 707q-1 234 -156 387q-152 151 -358 151q-192 0 -336 -162t-144 -403q0 -236 148 -387
q147 -150 360 -150q203 0 345 169q143 170 141 395zM594 1546q-42 0 -70 30q-28 29 -28 73q0 43 31 73q33 31 77 31q46 0 74 -30q29 -31 29 -72q0 -47 -31 -76t-82 -29zM920 1550q-42 0 -70 30q-29 31 -29 73q0 41 31 72q30 30 78 30q45 0 72 -30q28 -31 28 -74
q0 -45 -31 -73t-79 -28z" />
    <glyph glyph-name="multiply" unicode="&#xd7;" horiz-adv-x="993" 
d="M129 270l182 187l90 98l-258 266q-28 37 -28 66q0 25 24 47t51 24q34 0 68 -38l242 -269l215 246q51 61 88 61q27 0 52 -22q26 -23 26 -49q0 -11 -3 -21q-1 -5 -7 -16q-5 -10 -13 -19l-15 -18q-1 -1 -3 -3.5t-4.5 -5t-7 -6.5t-7.5 -7l-22 -23l-203 -221l258 -268
q33 -28 33 -62q0 -24 -25 -49t-53 -25q-31 0 -76 50l-235 258l-232 -261l-9 -9l-8 -8l-7 -7q-4 -4 -8 -6q-2 -1 -7 -6t-7 -6q-4 -2 -7 -3q-1 -1 -3.5 -2t-4.5 -1q-1 0 -4 -1t-5 -1q-3 -1 -10 -1q-27 0 -54 25q-26 24 -26 51t23 55z" />
    <glyph glyph-name="Oslash" unicode="&#xd8;" horiz-adv-x="1527" 
d="M774 1405q162 0 313 -82l56 80q19 31 49 31q23 0 41 -18t18 -40q0 -19 -10 -35l-55 -84q116 -96 181 -235q67 -143 67 -309q0 -307 -190 -520q-189 -211 -478 -211q-188 0 -346 96l-68 -103q-22 -32 -47 -32q-23 0 -43 17t-20 40q0 17 16 43l68 104q-222 198 -222 512
q0 165 58 312q56 141 152 237q94 94 215 147q118 52 245 50zM1266 707q-1 247 -176 403l-580 -891q122 -76 270 -76q203 0 345 169q143 170 141 395zM272 680q0 -234 150 -387l575 887q-112 65 -245 65q-192 0 -336 -162t-144 -403z" />
    <glyph glyph-name="Ugrave" unicode="&#xd9;" horiz-adv-x="1396" 
d="M168 563q0 238 1 410t1 317q0 94 80 94q46 0 67 -21t21 -67q-2 -136 -2 -733q0 -211 96 -313q97 -103 273 -103q158 0 260 117q103 118 104 299q2 122 -1 384q-3 282 -3 362q0 82 86 82q84 0 84 -101l2 -672q2 -299 -143 -464q-145 -166 -408 -166q-242 0 -380 150
t-138 425zM750 1518q-146 143 -205 211q-27 33 -27 59t26 49t52 23q39 0 63 -35l181 -223q18 -21 18 -46q0 -20 -19 -39q-20 -20 -42 -20q-20 0 -47 21z" />
    <glyph glyph-name="Uacute" unicode="&#xda;" horiz-adv-x="1396" 
d="M168 563q0 238 1 410t1 317q0 94 80 94q46 0 67 -21t21 -67q-2 -136 -2 -733q0 -211 96 -313q97 -103 273 -103q158 0 260 117q103 118 104 299q2 122 -1 384q-3 282 -3 362q0 82 86 82q84 0 84 -101l2 -672q2 -299 -143 -464q-145 -166 -408 -166q-242 0 -380 150
t-138 425zM680 1516q-27 -21 -47 -21q-23 0 -45 19q-23 20 -23 42q0 24 19 46q3 4 13 15t29.5 32.5t37.5 42.5q71 81 112 131q29 35 60 35q30 0 56 -26t26 -56q0 -23 -29 -52q-81 -91 -209 -208z" />
    <glyph glyph-name="Ucircumflex" unicode="&#xdb;" horiz-adv-x="1396" 
d="M168 563q0 238 1 410t1 317q0 94 80 94q46 0 67 -21t21 -67q-2 -136 -2 -733q0 -211 96 -313q97 -103 273 -103q158 0 260 117q103 118 104 299q2 122 -1 384q-3 282 -3 362q0 82 86 82q84 0 84 -101l2 -672q2 -299 -143 -464q-145 -166 -408 -166q-242 0 -380 150
t-138 425zM926 1483q-12 0 -49 24l-168 172q-150 -158 -170 -176q-21 -18 -47 -18q-18 0 -38 18t-20 39q0 23 23 51l176 197q30 37 78 37q39 0 69 -33l178 -201q27 -35 27 -53t-18 -38q-18 -19 -41 -19z" />
    <glyph glyph-name="Udieresis" unicode="&#xdc;" horiz-adv-x="1396" 
d="M168 563q0 238 1 410t1 317q0 94 80 94q46 0 67 -21t21 -67q-2 -136 -2 -733q0 -211 96 -313q97 -103 273 -103q158 0 260 117q103 118 104 299q2 122 -1 384q-3 282 -3 362q0 82 86 82q84 0 84 -101l2 -672q2 -299 -143 -464q-145 -166 -408 -166q-242 0 -380 150
t-138 425zM537 1546q-41 0 -70 30q-29 31 -29 73q0 43 32 73q33 31 77 31q45 0 74 -30q28 -29 28 -72q0 -47 -31 -76t-81 -29zM862 1550q-40 0 -69 30q-29 31 -29 73q0 41 31 72q30 30 77 30q46 0 73 -30q28 -31 28 -74q0 -45 -31 -73t-80 -28z" />
    <glyph glyph-name="Yacute" unicode="&#xdd;" horiz-adv-x="1226" 
d="M528 549l-10 24l-436 664q-31 51 -31 76q0 31 28 56q27 24 62 24q39 0 84 -68q388 -620 393 -625q9 13 42 68q30 50 126 204q35 56 112.5 179.5t115.5 183.5q39 60 80 60q34 0 60 -23t26 -53q0 -26 -29 -70l-453 -694q0 -139 -1 -243t-1 -242q0 -36 -24 -55
q-23 -19 -62 -19q-38 0 -61 22q-25 23 -25 62t1 71t1 72q0 102 1 170t1 156zM588 1516q-27 -21 -47 -21q-23 0 -45 19q-23 20 -23 42q0 24 19 46q4 5 79 90q84 95 113 131q29 35 59 35q31 0 57 -26q25 -25 25 -56q0 -24 -28 -52q-81 -91 -209 -208z" />
    <glyph glyph-name="Thorn" unicode="&#xde;" horiz-adv-x="1161" 
d="M184 561l-2 684q1 82 19 119q17 35 69 35t70 -29q18 -28 16 -90v-160l244 4q235 2 373 -101q139 -103 133 -323q-4 -139 -96 -247q-92 -109 -242 -142q-65 -16 -385 -16h-33v-203q0 -96 -84 -100q-48 -2 -66 24q-20 28 -20 76q0 12 2 230t2 239zM354 973v-529
q230 0 338 9q240 27 244 256q2 153 -94 210q-94 56 -271 56q-143 0 -217 -2z" />
    <glyph glyph-name="germandbls" unicode="&#xdf;" horiz-adv-x="1163" 
d="M567 690q0 54 33 104q34 50 73 84t72 81q33 48 33 96q0 180 -221 180q-112 0 -177 -86t-65 -252q0 -21 0.5 -69t1 -138.5t0.5 -173.5q1 -308 0 -407q0 -65 -19 -91t-71 -26q-44 -2 -61 26q-19 30 -19 86q0 52 1 102q2 76 3 240q1 111 1 416q0 256 114 391
q115 136 309 136q163 0 265 -91q100 -90 100 -243q0 -74 -54 -143q-49 -63 -109 -121q-54 -53 -54 -89q0 -30 11 -49q12 -21 42 -39q29 -17 44 -24q24 -11 61 -25q97 -40 156 -100q59 -61 59 -172q0 -140 -90 -223q-89 -82 -244 -82q-117 0 -198 27t-81 75q0 36 18 60t52 24
q18 0 87 -18q73 -19 134 -19q73 0 120 38q46 37 46 108t-45 110q-47 40 -131 70q-92 33 -144 82q-53 50 -53 145z" />
    <glyph glyph-name="agrave" unicode="&#xe0;" horiz-adv-x="1163" 
d="M1020 664l-4 -310q0 -140 10 -291q0 -69 -88 -69q-45 0 -58 37q-14 39 -20 135q-102 -178 -332 -178q-192 0 -314 131t-122 317q0 217 134 362q134 144 333 144q197 0 303 -160q0 54 6 84q11 70 74 70q47 0 64 -28q16 -26 16 -85zM264 442q0 -132 83 -220q83 -87 202 -87
q135 0 223 91t88 237q0 154 -89 243t-210 89q-126 0 -212 -101q-85 -100 -85 -252zM608 1128q-146 143 -205 211q-26 32 -26 60q0 27 25 49t53 22q39 0 63 -34l180 -224q19 -24 19 -45q0 -20 -20 -40q-19 -19 -42 -19q-21 0 -47 20z" />
    <glyph glyph-name="aacute" unicode="&#xe1;" horiz-adv-x="1163" 
d="M1020 664l-4 -310q0 -140 10 -291q0 -69 -88 -69q-45 0 -58 37q-14 39 -20 135q-102 -178 -332 -178q-192 0 -314 131t-122 317q0 217 134 362q134 144 333 144q197 0 303 -160q0 54 6 84q11 70 74 70q47 0 64 -28q16 -26 16 -85zM264 442q0 -132 83 -220q83 -87 202 -87
q135 0 223 91t88 237q0 154 -89 243t-210 89q-126 0 -212 -101q-85 -100 -85 -252zM539 1126q-26 -20 -47 -20q-24 0 -46 19t-22 42q0 24 18 45q3 4 80 91q84 95 113 131q28 34 59 34q32 0 57 -25t25 -57q0 -23 -28 -51q-86 -96 -209 -209z" />
    <glyph glyph-name="acircumflex" unicode="&#xe2;" horiz-adv-x="1163" 
d="M1020 664l-4 -310q0 -140 10 -291q0 -69 -88 -69q-45 0 -58 37q-14 39 -20 135q-102 -178 -332 -178q-192 0 -314 131t-122 317q0 217 134 362q134 144 333 144q197 0 303 -160q0 54 6 84q11 70 74 70q47 0 64 -28q16 -26 16 -85zM264 442q0 -132 83 -220q83 -87 202 -87
q135 0 223 91t88 237q0 154 -89 243t-210 89q-126 0 -212 -101q-85 -100 -85 -252zM784 1094q-12 0 -49 24l-168 172q-150 -158 -170 -176q-21 -18 -47 -18q-18 0 -38 18q-19 18 -19 39q0 25 22 51l177 197q30 37 77 37q40 0 70 -33l178 -201q27 -34 27 -53q0 -17 -19 -38
q-18 -19 -41 -19z" />
    <glyph glyph-name="atilde" unicode="&#xe3;" horiz-adv-x="1163" 
d="M1020 664l-4 -310q0 -140 10 -291q0 -69 -88 -69q-45 0 -58 37q-14 39 -20 135q-102 -178 -332 -178q-192 0 -314 131t-122 317q0 217 134 362q134 144 333 144q197 0 303 -160q0 54 6 84q11 70 74 70q47 0 64 -28q16 -26 16 -85zM264 442q0 -132 83 -220q83 -87 202 -87
q135 0 223 91t88 237q0 154 -89 243t-210 89q-126 0 -212 -101q-85 -100 -85 -252zM381 1198q-8 -47 -64 -47q-29 0 -45 19q-16 18 -14 53q4 75 54 122q49 46 128 46q54 0 99 -31q21 -14 78 -62q37 -31 75 -32q55 0 60 80q1 21 21 35t40 14q23 0 42 -17q17 -16 17 -41
q0 -96 -48 -144t-128 -48q-43 1 -82 20q-35 17 -58 40q-24 23 -51 40q-33 20 -59 21q-60 0 -65 -68z" />
    <glyph glyph-name="adieresis" unicode="&#xe4;" horiz-adv-x="1163" 
d="M1020 664l-4 -310q0 -140 10 -291q0 -69 -88 -69q-45 0 -58 37q-14 39 -20 135q-102 -178 -332 -178q-192 0 -314 131t-122 317q0 217 134 362q134 144 333 144q197 0 303 -160q0 54 6 84q11 70 74 70q47 0 64 -28q16 -26 16 -85zM264 442q0 -132 83 -220q83 -87 202 -87
q135 0 223 91t88 237q0 154 -89 243t-210 89q-126 0 -212 -101q-85 -100 -85 -252zM395 1157q-41 0 -69 30q-29 31 -29 73q0 43 32 73q33 31 77 31t73 -30q29 -31 29 -72q0 -47 -31 -76t-82 -29zM721 1161q-41 0 -70 30q-28 29 -28 73q0 42 30 72t78 30q46 0 73 -30t27 -74
q0 -46 -30 -73q-31 -28 -80 -28z" />
    <glyph glyph-name="aring" unicode="&#xe5;" horiz-adv-x="1163" 
d="M1020 664l-4 -310q0 -140 10 -291q0 -69 -88 -69q-45 0 -58 37q-14 39 -20 135q-102 -178 -332 -178q-192 0 -314 131t-122 317q0 217 134 362q134 144 333 144q197 0 303 -160q0 54 6 84q11 70 74 70q47 0 64 -28q16 -26 16 -85zM264 442q0 -132 83 -220q83 -87 202 -87
q135 0 223 91t88 237q0 154 -89 243t-210 89q-126 0 -212 -101q-85 -100 -85 -252zM565 1499q94 0 157 -56q64 -57 64 -149q0 -93 -63 -159t-160 -66q-87 0 -155 60t-68 153q0 96 70 157q69 60 155 60zM680 1292q-1 51 -35 81q-33 30 -84 30q-46 0 -81 -32q-34 -31 -34 -83
q0 -56 33 -87q34 -32 86 -32q51 0 84 36q33 35 31 87z" />
    <glyph glyph-name="ae" unicode="&#xe6;" horiz-adv-x="1679" 
d="M1042 420h-120q0 -113 78 -194q80 -83 204 -83q118 0 226 64q42 26 67 26q27 0 49 -26q23 -28 23 -55q0 -64 -114 -115t-267 -51q-111 0 -209 61t-148 156q-114 -217 -354 -217q-168 0 -275 73q-108 73 -108 207t100 207t273 74q94 2 285 -8q-1 111 -76 184
q-74 72 -189 72q-26 0 -68 -7q-36 -6 -57 -12q-16 -5 -58 -18q-33 -11 -48 -17q-34 -7 -63 12q-29 20 -29 56q0 45 45 72q112 65 293 65q117 -2 208 -58q92 -57 138 -153q56 95 150 153t204 58q166 0 280 -119q113 -117 113 -262q0 -82 -25 -111q-26 -30 -128 -32h-210
q-116 0 -190 -2zM1210 801q-116 0 -196 -80t-90 -184q272 0 430 2q86 0 86 12q0 104 -68 177t-162 73zM481 131q104 0 184 71q78 70 83 177l2 43q-102 6 -275 6q-221 2 -221 -149q0 -73 64 -110q65 -38 163 -38z" />
    <glyph glyph-name="ccedilla" unicode="&#xe7;" horiz-adv-x="915" 
d="M418 -111l43 101q-174 27 -275 161q-100 132 -98 285q1 198 133 355q130 155 340 155q137 0 244 -63q39 -27 39 -68q0 -29 -21 -54q-21 -26 -51 -26q-12 0 -82 29q-64 29 -139 29q-127 0 -211 -108t-84 -230q0 -134 78 -224t203 -90q109 0 176 43q61 33 80 33
q28 0 50 -28q21 -27 21 -56q0 -33 -30 -57q-106 -91 -271 -92l-28 -90q60 0 112 -41q51 -40 51 -121q0 -90 -57 -143q-56 -52 -145 -52q-56 0 -109 27q-45 27 -45 63q0 21 15 36t38 15q13 0 47 -15t64 -15q78 0 78 80q0 69 -92 69h-25q-29 2 -44 32q-15 31 -5 60z" />
    <glyph glyph-name="egrave" unicode="&#xe8;" horiz-adv-x="1042" 
d="M264 420q5 -114 85 -196q81 -83 206 -83q122 0 223 68q52 24 68 24q28 0 52 -25q24 -26 24 -54q0 -45 -56 -80q-124 -88 -329 -88q-183 0 -312 130t-133 312q0 213 133 365q134 153 326 153q169 0 285 -113t116 -255q0 -84 -27 -118t-128 -36q-90 -2 -144 -2
q-113 0 -188 -1t-201 -1zM559 803q-116 0 -198 -80q-81 -80 -93 -184q459 7 498 10q25 5 25 20q0 102 -69 168t-163 66zM584 1128q-146 143 -205 211q-27 33 -27 60q0 26 26 49q25 22 52 22q40 0 64 -34l180 -224q18 -22 18 -45q0 -21 -19 -40t-42 -19q-21 0 -47 20z" />
    <glyph glyph-name="eacute" unicode="&#xe9;" horiz-adv-x="1042" 
d="M264 420q5 -114 85 -196q81 -83 206 -83q122 0 223 68q52 24 68 24q28 0 52 -25q24 -26 24 -54q0 -45 -56 -80q-124 -88 -329 -88q-183 0 -312 130t-133 312q0 213 133 365q134 153 326 153q169 0 285 -113t116 -255q0 -84 -27 -118t-128 -36q-90 -2 -144 -2
q-113 0 -188 -1t-201 -1zM559 803q-116 0 -198 -80q-81 -80 -93 -184q459 7 498 10q25 5 25 20q0 102 -69 168t-163 66zM514 1126q-26 -20 -47 -20q-23 0 -45 19q-23 20 -23 42q0 23 19 45q3 4 80 91q71 81 112 131q28 34 60 34q31 0 56 -25q26 -26 26 -57q0 -22 -29 -51
q-86 -96 -209 -209z" />
    <glyph glyph-name="ecircumflex" unicode="&#xea;" horiz-adv-x="1042" 
d="M264 420q5 -114 85 -196q81 -83 206 -83q122 0 223 68q52 24 68 24q28 0 52 -25q24 -26 24 -54q0 -45 -56 -80q-124 -88 -329 -88q-183 0 -312 130t-133 312q0 213 133 365q134 153 326 153q169 0 285 -113t116 -255q0 -84 -27 -118t-128 -36q-90 -2 -144 -2
q-113 0 -188 -1t-201 -1zM559 803q-116 0 -198 -80q-81 -80 -93 -184q459 7 498 10q25 5 25 20q0 102 -69 168t-163 66zM760 1094q-12 0 -49 24l-168 172q-150 -158 -170 -176q-21 -18 -47 -18q-18 0 -38 18t-20 39q0 23 23 51l176 197q30 37 78 37q39 0 69 -33l179 -201
q26 -33 26 -53q0 -19 -18 -38t-41 -19z" />
    <glyph glyph-name="edieresis" unicode="&#xeb;" horiz-adv-x="1042" 
d="M264 420q5 -114 85 -196q81 -83 206 -83q122 0 223 68q52 24 68 24q28 0 52 -25q24 -26 24 -54q0 -45 -56 -80q-124 -88 -329 -88q-183 0 -312 130t-133 312q0 213 133 365q134 153 326 153q169 0 285 -113t116 -255q0 -84 -27 -118t-128 -36q-90 -2 -144 -2
q-113 0 -188 -1t-201 -1zM559 803q-116 0 -198 -80q-81 -80 -93 -184q459 7 498 10q25 5 25 20q0 102 -69 168t-163 66zM371 1157q-41 0 -70 30q-29 31 -29 73q0 43 32 73q33 31 77 31q45 0 74 -30q28 -29 28 -72q0 -48 -30 -76q-31 -29 -82 -29zM696 1161q-40 0 -69 30
q-29 31 -29 73q0 41 31 72q30 30 78 30q45 0 72 -30q28 -31 28 -74q0 -45 -31 -73t-80 -28z" />
    <glyph glyph-name="igrave" unicode="&#xec;" horiz-adv-x="491" 
d="M164 858q2 44 24 63t56 19q48 0 68 -25t20 -94q0 -128 -1 -234t-1 -237l2 -268q0 -92 -88 -92q-80 0 -80 84v784zM289 1128q-146 143 -205 211q-27 33 -27 60q0 26 26 49q25 22 52 22q40 0 64 -34l180 -224q18 -22 18 -45q0 -21 -19 -40t-42 -19q-21 0 -47 20z" />
    <glyph glyph-name="iacute" unicode="&#xed;" horiz-adv-x="491" 
d="M164 858q2 44 24 63t56 19q48 0 68 -25t20 -94q0 -128 -1 -234t-1 -237l2 -268q0 -92 -88 -92q-80 0 -80 84v784zM219 1126q-26 -20 -47 -20q-23 0 -45 19q-23 20 -23 42q0 23 19 45q3 4 80 91q71 81 112 131q28 34 60 34q31 0 56 -25q26 -26 26 -57q0 -22 -29 -51
q-86 -96 -209 -209z" />
    <glyph glyph-name="icircumflex" unicode="&#xee;" horiz-adv-x="491" 
d="M164 858q2 44 24 63t56 19q48 0 68 -25t20 -94q0 -128 -1 -234t-1 -237l2 -268q0 -92 -88 -92q-80 0 -80 84v784zM465 1094q-11 0 -49 24l-168 172q-150 -158 -170 -176q-22 -18 -47 -18q-19 0 -38 18q-20 18 -20 39q0 23 23 51l176 197q30 37 78 37q39 0 69 -33
l179 -201q26 -33 26 -53q0 -19 -18 -38t-41 -19z" />
    <glyph glyph-name="idieresis" unicode="&#xef;" horiz-adv-x="491" 
d="M164 858q2 44 24 63t56 19q48 0 68 -25t20 -94q0 -128 -1 -234t-1 -237l2 -268q0 -92 -88 -92q-80 0 -80 84v784zM76 1157q-41 0 -70 30q-29 31 -29 73q0 43 32 73q33 31 77 31q46 0 74 -30q28 -29 28 -72q0 -48 -30 -76q-31 -29 -82 -29zM401 1161q-41 0 -69 30
q-29 31 -29 73q0 41 31 72q30 30 78 30q45 0 72 -30q28 -31 28 -74q0 -45 -31 -73t-80 -28z" />
    <glyph glyph-name="eth" unicode="&#xf0;" horiz-adv-x="1128" 
d="M905 1278l-80 -57q203 -246 201 -615q0 -110 -6 -178q-22 -212 -146 -327q-122 -113 -315 -113q-198 0 -331 128q-132 128 -132 328q0 203 131 329q130 126 308 132q94 4 181 -43q84 -45 140 -137q-5 232 -164 408l-129 -93q-18 -12 -37 -12t-38 19q-17 17 -17 38
q0 33 39 54l96 69q-105 82 -227 109q-32 7 -48 37q-15 29 -5 57q12 39 47 51t73 2q172 -46 299 -161l111 77q23 17 41 17q22 0 40 -21q17 -20 17 -41q0 -24 -49 -57zM559 756q-130 2 -213 -86q-84 -88 -84 -217q0 -140 82 -228t203 -88q127 0 215 87t88 220q0 130 -82 221
t-209 91z" />
    <glyph glyph-name="ntilde" unicode="&#xf1;" horiz-adv-x="1132" 
d="M158 614l-4 217q0 56 19 82q19 27 69 27q43 0 58 -22q14 -22 19 -74l3 -90q39 92 130 144t197 52q168 0 258 -106q90 -107 90 -295v-268v-185q0 -55 -20 -78q-21 -24 -72 -24q-80 0 -80 78q0 69 4 201q4 129 2 227q-5 296 -219 297q-71 0 -125 -23q-55 -24 -84 -57
q-31 -36 -49 -88t-24 -105q-6 -51 -6 -116v-342q0 -76 -88 -76q-80 0 -80 76q0 54 1 106t1 164v278zM389 1198q-8 -47 -63 -47q-29 0 -45 19q-17 20 -15 53q4 74 55 122q49 46 128 46q53 0 98 -31q27 -18 79 -62q37 -31 74 -32q55 0 60 80q1 21 21 35t40 14q23 0 42 -17
q18 -17 18 -41q0 -96 -48 -144t-128 -48q-43 1 -82 20q-37 18 -59 40q-24 23 -51 40q-33 20 -58 21q-61 0 -66 -68z" />
    <glyph glyph-name="ograve" unicode="&#xf2;" 
d="M602 952q37 0 51 -14q183 -27 279 -165t96 -310q0 -208 -140 -344q-142 -137 -347 -137q-186 0 -319 127q-134 128 -134 325q0 230 140 373q141 144 374 145zM858 469q0 139 -79 230q-80 93 -224 100q-134 -7 -217 -106q-82 -97 -82 -263q0 -127 86 -211t195 -84
q131 0 226 92t95 242zM596 1128q-146 143 -205 211q-26 32 -26 60q0 27 25 49t52 22q40 0 64 -34l180 -224q19 -24 19 -45q0 -20 -20 -40q-19 -19 -42 -19q-21 0 -47 20z" />
    <glyph glyph-name="oacute" unicode="&#xf3;" 
d="M602 952q37 0 51 -14q183 -27 279 -165t96 -310q0 -208 -140 -344q-142 -137 -347 -137q-186 0 -319 127q-134 128 -134 325q0 230 140 373q141 144 374 145zM858 469q0 139 -79 230q-80 93 -224 100q-134 -7 -217 -106q-82 -97 -82 -263q0 -127 86 -211t195 -84
q131 0 226 92t95 242zM526 1126q-26 -20 -47 -20q-23 0 -45 19t-22 42q0 24 18 45q3 4 80 91q84 95 113 131q28 34 59 34t56 -25q26 -26 26 -57q0 -22 -29 -51q-86 -96 -209 -209z" />
    <glyph glyph-name="ocircumflex" unicode="&#xf4;" 
d="M602 952q37 0 51 -14q183 -27 279 -165t96 -310q0 -208 -140 -344q-142 -137 -347 -137q-186 0 -319 127q-134 128 -134 325q0 230 140 373q141 144 374 145zM858 469q0 139 -79 230q-80 93 -224 100q-134 -7 -217 -106q-82 -97 -82 -263q0 -127 86 -211t195 -84
q131 0 226 92t95 242zM772 1094q-12 0 -49 24l-168 172q-150 -158 -170 -176q-23 -18 -47 -18q-18 0 -38 18q-19 18 -19 39q0 25 22 51l176 197q30 37 78 37q40 0 70 -33l178 -201q26 -33 26 -53q0 -19 -18 -38t-41 -19z" />
    <glyph glyph-name="otilde" unicode="&#xf5;" 
d="M602 952q37 0 51 -14q183 -27 279 -165t96 -310q0 -208 -140 -344q-142 -137 -347 -137q-186 0 -319 127q-134 128 -134 325q0 230 140 373q141 144 374 145zM858 469q0 139 -79 230q-80 93 -224 100q-134 -7 -217 -106q-82 -97 -82 -263q0 -127 86 -211t195 -84
q131 0 226 92t95 242zM367 1198q-8 -47 -64 -47q-29 0 -45 19q-16 18 -14 53q4 75 54 122q49 46 128 46q53 0 98 -31q27 -18 79 -62q37 -31 75 -32q54 0 59 80q1 21 22 35q20 14 40 14q23 0 42 -17q17 -16 17 -41q0 -96 -48 -144t-128 -48q-43 1 -82 20q-35 17 -58 40
q-22 22 -52 40q-33 20 -58 21q-60 0 -65 -68z" />
    <glyph glyph-name="odieresis" unicode="&#xf6;" 
d="M602 952q37 0 51 -14q183 -27 279 -165t96 -310q0 -208 -140 -344q-142 -137 -347 -137q-186 0 -319 127q-134 128 -134 325q0 230 140 373q141 144 374 145zM858 469q0 139 -79 230q-80 93 -224 100q-134 -7 -217 -106q-82 -97 -82 -263q0 -127 86 -211t195 -84
q131 0 226 92t95 242zM383 1157q-41 0 -70 30q-28 29 -28 73q0 43 31 73q33 31 77 31q45 0 74 -30q29 -31 29 -72q0 -47 -31 -76t-82 -29zM709 1161q-41 0 -70 30q-29 31 -29 73q0 41 31 72q30 30 78 30q46 0 73 -30t27 -74q0 -45 -31 -73t-79 -28z" />
    <glyph glyph-name="divide" unicode="&#xf7;" horiz-adv-x="993" 
d="M135 487q-34 0 -51 25q-17 24 -12 55q2 64 100 64l682 -2q70 0 70 -70q0 -72 -103 -72q-74 -2 -197 -2q-198 0 -307 1t-182 1zM506 817q-45 0 -76 31t-31 76q0 47 34 77q36 31 83 31t78 -31t31 -77q0 -50 -34 -78q-35 -29 -85 -29zM502 88q-46 0 -76 30q-31 31 -31 75
q0 47 34 77q36 31 83 31q46 0 77 -31q29 -29 29 -77q0 -51 -32 -77q-34 -28 -84 -28z" />
    <glyph glyph-name="oslash" unicode="&#xf8;" 
d="M600 952q32 0 53 -14q67 -12 125 -43l41 66q20 36 49 36q20 0 37 -14q19 -16 19 -33q0 -19 -29 -65l-29 -45q162 -136 162 -375q0 -210 -139 -346q-140 -137 -346 -137q-86 0 -181 43l-45 -74q-17 -31 -43 -31q-20 0 -38 15q-19 16 -19 36q0 16 19 45l34 58
q-182 136 -182 364t139 370q140 143 373 144zM256 436q0 -132 102 -221l340 549q-57 31 -141 35q-135 -6 -218 -103t-83 -260zM858 469q0 141 -80 227l-332 -538q57 -23 93 -23q130 0 225 92q94 91 94 242z" />
    <glyph glyph-name="ugrave" unicode="&#xf9;" horiz-adv-x="1146" 
d="M238 936q73 0 73 -86q0 -19 -2 -193t-2 -215q0 -134 52 -220q52 -87 167 -87q161 0 227 110t66 308l2 293q0 43 25 68q24 24 63 24q84 0 84 -90v-4q0 -4 -0.5 -11.5t-0.5 -17.5t-0.5 -25.5t-0.5 -31.5l-3 -177q-1 -54 1 -210q0 -160 12 -301q0 -74 -81 -74q-68 0 -80 67
q-4 70 -4 81q0 15 -0.5 29t-1 21t-0.5 9q-100 -219 -328 -219q-184 0 -274 117q-91 118 -91 319q0 107 1 211t1 209q0 96 95 96zM612 1128q-139 136 -204 211q-27 33 -27 60q0 26 26 49q25 22 52 22q39 0 63 -34l180 -224q19 -24 19 -45q0 -20 -20 -40q-19 -19 -42 -19
q-21 0 -47 20z" />
    <glyph glyph-name="uacute" unicode="&#xfa;" horiz-adv-x="1146" 
d="M238 936q73 0 73 -86q0 -19 -2 -193t-2 -215q0 -134 52 -220q52 -87 167 -87q161 0 227 110t66 308l2 293q0 43 25 68q24 24 63 24q84 0 84 -90v-4q0 -4 -0.5 -11.5t-0.5 -17.5t-0.5 -25.5t-0.5 -31.5l-3 -177q-1 -54 1 -210q0 -160 12 -301q0 -74 -81 -74q-68 0 -80 67
q-4 70 -4 81q0 15 -0.5 29t-1 21t-0.5 9q-100 -219 -328 -219q-184 0 -274 117q-91 118 -91 319q0 107 1 211t1 209q0 96 95 96zM543 1126q-26 -20 -47 -20q-23 0 -45 19q-23 20 -23 42q0 24 18 45q3 4 80 91q84 95 113 131q28 34 59 34q32 0 57 -25t25 -57q0 -23 -28 -51
q-86 -96 -209 -209z" />
    <glyph glyph-name="ucircumflex" unicode="&#xfb;" horiz-adv-x="1146" 
d="M238 936q73 0 73 -86q0 -19 -2 -193t-2 -215q0 -134 52 -220q52 -87 167 -87q161 0 227 110t66 308l2 293q0 43 25 68q24 24 63 24q84 0 84 -90v-4q0 -4 -0.5 -11.5t-0.5 -17.5t-0.5 -25.5t-0.5 -31.5l-3 -177q-1 -54 1 -210q0 -160 12 -301q0 -74 -81 -74q-68 0 -80 67
q-4 70 -4 81q0 15 -0.5 29t-1 21t-0.5 9q-100 -219 -328 -219q-184 0 -274 117q-91 118 -91 319q0 107 1 211t1 209q0 96 95 96zM788 1094q-12 0 -49 24l-168 172q-150 -158 -170 -176q-21 -18 -47 -18q-18 0 -38 18q-19 18 -19 39q0 25 22 51l177 197q30 37 77 37
q40 0 70 -33l178 -201q27 -34 27 -53q0 -17 -19 -38q-18 -19 -41 -19z" />
    <glyph glyph-name="udieresis" unicode="&#xfc;" horiz-adv-x="1146" 
d="M238 936q73 0 73 -86q0 -19 -2 -193t-2 -215q0 -134 52 -220q52 -87 167 -87q161 0 227 110t66 308l2 293q0 43 25 68q24 24 63 24q84 0 84 -90v-4q0 -4 -0.5 -11.5t-0.5 -17.5t-0.5 -25.5t-0.5 -31.5l-3 -177q-1 -54 1 -210q0 -160 12 -301q0 -74 -81 -74q-68 0 -80 67
q-4 70 -4 81q0 15 -0.5 29t-1 21t-0.5 9q-100 -219 -328 -219q-184 0 -274 117q-91 118 -91 319q0 107 1 211t1 209q0 96 95 96zM399 1157q-41 0 -69 30q-29 31 -29 73q0 43 32 73q33 31 77 31t73 -30q29 -31 29 -72q0 -47 -31 -76t-82 -29zM725 1161q-41 0 -70 30
q-28 29 -28 73q0 42 30 72t78 30q46 0 73 -30q28 -31 28 -74q0 -45 -31 -73t-80 -28z" />
    <glyph glyph-name="yacute" unicode="&#xfd;" horiz-adv-x="1009" 
d="M510 197q124 278 276 667q16 42 32 58q18 18 50 18q36 0 63 -21t27 -53q0 -28 -14 -59q-166 -397 -473 -1032q-127 -234 -297 -234q-139 0 -139 86q0 78 88 78q69 0 105 24q37 25 83 103q45 74 111 211l-80 166l-250 559q-33 69 -33 100q0 32 28 54q26 20 60 20
q44 0 68 -41zM477 1126q-26 -20 -47 -20q-23 0 -45 19q-23 20 -23 42q0 23 19 45q3 4 80 91q71 81 112 131q28 34 60 34q31 0 56 -25q26 -26 26 -57q0 -22 -29 -51q-86 -96 -209 -209z" />
    <glyph glyph-name="thorn" unicode="&#xfe;" horiz-adv-x="1171" 
d="M315 -362q-1 -84 -86 -84q-49 0 -65 25q-17 26 -17 87l5 842l-7 883q1 84 80 84q39 0 65 -17q25 -16 23 -61q0 -236 -1 -334t-1 -218v-73q99 180 336 180q188 0 311 -142t123 -331q0 -209 -132 -354t-324 -145q-103 0 -186 47t-128 129q0 -53 2 -285t2 -233zM911 477
q0 139 -84 231q-84 91 -206 91q-143 0 -228 -88q-86 -89 -86 -248q0 -157 83 -245q82 -87 212 -87q129 0 219 94q90 95 90 252z" />
    <glyph glyph-name="ydieresis" unicode="&#xff;" horiz-adv-x="1009" 
d="M510 197q124 278 276 667q16 42 32 58q18 18 50 18q36 0 63 -21t27 -53q0 -28 -14 -59q-166 -397 -473 -1032q-127 -234 -297 -234q-139 0 -139 86q0 78 88 78q69 0 105 24q37 25 83 103q45 74 111 211l-80 166l-250 559q-33 69 -33 100q0 32 28 54q26 20 60 20
q44 0 68 -41zM334 1157q-42 0 -70 30q-28 29 -28 73q0 43 31 73q33 31 77 31q46 0 74 -30q28 -29 28 -72q0 -48 -30 -76q-31 -29 -82 -29zM659 1161q-41 0 -69 30q-29 31 -29 73q0 41 31 72q30 30 78 30q45 0 72 -30q28 -31 28 -74q0 -45 -31 -73t-80 -28z" />
    <glyph glyph-name="Amacron" unicode="&#x100;" horiz-adv-x="1308" 
d="M51 72q0 26 31 100l215 504q50 113 260 653q27 66 98 66q74 0 103 -68q25 -57 138 -350q27 -72 58 -153t50 -131t30 -77q0 -2 2 -5t5 -9t5 -12q3 -8 7.5 -18t5.5 -13l180 -438q16 -39 16 -60q0 -25 -27 -47q-26 -22 -65 -22q-37 0 -55 15t-35 56q-123 315 -123 316
q-84 2 -389 2h-209q-4 -9 -56 -145q-53 -139 -60 -154q-30 -67 -52 -80q-18 -8 -37 -8q-96 0 -96 78zM655 1182q-84 -242 -252 -660q228 -4 494 2q-1 4 -11.5 32t-25 68t-30.5 84q-77 214 -103 284q-54 145 -72 190zM449 1599q-74 0 -74 70q0 74 96 74q44 0 82 -1t86 -1
q24 0 126 2q20 0 43.5 0.5t36 1t19.5 0.5q74 0 78 -66q0 -77 -102 -77q-53 0 -100 1t-107 1q-15 0 -99 -2q-22 -1 -50 -2t-35 -1z" />
    <glyph glyph-name="amacron" unicode="&#x101;" horiz-adv-x="1163" 
d="M1020 664l-4 -310q0 -140 10 -291q0 -69 -88 -69q-45 0 -58 37q-14 39 -20 135q-102 -178 -332 -178q-192 0 -314 131t-122 317q0 217 134 362q134 144 333 144q197 0 303 -160q0 54 6 84q11 70 74 70q47 0 64 -28q16 -26 16 -85zM264 442q0 -132 83 -220q83 -87 202 -87
q135 0 223 91t88 237q0 154 -89 243t-210 89q-126 0 -212 -101q-85 -100 -85 -252zM358 1210q-73 0 -73 70q0 74 96 74q44 0 82 -1t86 -1q24 0 126 2q20 0 43.5 0.5t36 1t19.5 0.5q74 0 78 -66q0 -78 -102 -78q-53 0 -100 1t-107 1q-16 0 -100 -2t-85 -2z" />
    <glyph glyph-name="Abreve" unicode="&#x102;" horiz-adv-x="1308" 
d="M51 72q0 26 31 100l215 504q50 113 260 653q27 66 98 66q74 0 103 -68q25 -57 138 -350q27 -72 58 -153t50 -131t30 -77q0 -2 2 -5t5 -9t5 -12q3 -8 7.5 -18t5.5 -13l180 -438q16 -39 16 -60q0 -25 -27 -47q-26 -22 -65 -22q-37 0 -55 15t-35 56q-123 315 -123 316
q-84 2 -389 2h-209q-4 -9 -56 -145q-53 -139 -60 -154q-30 -67 -52 -80q-18 -8 -37 -8q-96 0 -96 78zM655 1182q-84 -242 -252 -660q228 -4 494 2q-1 4 -11.5 32t-25 68t-30.5 84q-77 214 -103 284q-54 145 -72 190zM866 1800q27 0 43 -17q17 -19 17 -42q0 -107 -76 -183
q-77 -77 -191 -77q-105 0 -185 72q-79 72 -81 176q0 30 17 49q16 18 45 18q25 0 40 -15q14 -14 19 -38q5 -65 43 -102t105 -37q62 0 103 42q40 41 40 99q4 55 61 55z" />
    <glyph glyph-name="abreve" unicode="&#x103;" horiz-adv-x="1163" 
d="M1020 664l-4 -310q0 -140 10 -291q0 -69 -88 -69q-45 0 -58 37q-14 39 -20 135q-102 -178 -332 -178q-192 0 -314 131t-122 317q0 217 134 362q134 144 333 144q197 0 303 -160q0 54 6 84q11 70 74 70q47 0 64 -28q16 -26 16 -85zM264 442q0 -132 83 -220q83 -87 202 -87
q135 0 223 91t88 237q0 154 -89 243t-210 89q-126 0 -212 -101q-85 -100 -85 -252zM776 1411q27 0 43 -17q17 -19 17 -42q0 -108 -76 -184t-191 -76q-105 0 -185 72q-79 72 -81 175q0 33 16 50q17 18 46 18q24 0 39 -15q16 -16 20 -38q5 -65 43 -102q40 -38 104 -38
q63 0 104 42q40 41 40 100q4 55 61 55z" />
    <glyph glyph-name="Aogonek" unicode="&#x104;" horiz-adv-x="1308" 
d="M1047 -225q0 -43 20 -64q21 -22 53 -22q20 0 48 5t40 5q22 0 37 -18t15 -46q0 -81 -138 -81q-83 0 -143 51q-59 50 -59 143q0 140 184 264q-20 20 -31 51q-123 315 -123 316q-84 2 -389 2h-209q-4 -9 -56 -145q-53 -139 -60 -154q-30 -67 -52 -80q-18 -8 -37 -8
q-96 0 -96 78q0 26 31 100l215 504q50 113 260 653q27 66 98 66q74 0 103 -68q25 -57 138 -350q27 -72 58 -153t50 -131t30 -77q0 -2 2 -5t5 -9t5 -12q3 -8 7.5 -18t5.5 -13l180 -438q16 -39 16 -60q0 -35 -43 -59q-82 -67 -125 -120q-40 -49 -40 -107zM655 1182
q-84 -242 -252 -660q228 -4 494 2q-1 4 -11.5 32t-25 68t-30.5 84q-77 214 -103 284q-54 145 -72 190z" />
    <glyph glyph-name="aogonek" unicode="&#x105;" horiz-adv-x="1163" 
d="M1020 664l-4 -310q0 -147 8 -280q0 -47 -45 -74q-166 -118 -166 -225q0 -86 74 -86q18 0 46 5t40 5q22 0 37 -18q14 -17 14 -46q0 -81 -137 -81q-85 0 -144 52t-59 144q0 144 199 275q-19 34 -23 141q-102 -178 -332 -178q-192 0 -314 131t-122 317q0 217 134 362
q134 144 333 144q197 0 303 -160q0 50 2 82q4 72 78 72q80 0 80 -96zM264 442q0 -132 83 -220q83 -87 204 -87q133 0 221 91t88 237q0 155 -88 243q-89 89 -211 89q-126 0 -212 -101q-85 -100 -85 -252z" />
    <glyph glyph-name="Cacute" unicode="&#x106;" horiz-adv-x="1245" 
d="M1069 1341q90 -41 90 -94q0 -38 -19 -61q-20 -25 -57 -25q-23 1 -79 27q-123 57 -252 57q-188 0 -332 -162q-145 -163 -146 -405q0 -220 139 -377q138 -156 347 -158q154 0 278 82q4 3 16 9q3 1 5.5 3t4.5 3.5t3 2.5q5 3 12 6q3 1 17 4q5 1 18 1q29 0 47 -27
q19 -29 19 -59q0 -67 -142 -127q-139 -59 -295 -59q-260 2 -450 190q-190 189 -189 496q1 325 204 531q201 204 462 202q166 0 299 -60zM723 1516q-27 -21 -47 -21q-23 0 -45 19q-23 20 -23 42q0 24 19 46q3 4 13 15t29.5 32.5t37.5 42.5q71 81 112 131q29 35 60 35
q30 0 56 -26t26 -56q0 -23 -29 -52q-81 -91 -209 -208z" />
    <glyph glyph-name="cacute" unicode="&#x107;" horiz-adv-x="915" 
d="M805 883q39 -27 39 -68q0 -29 -21 -54q-21 -26 -51 -26q-12 0 -82 29q-64 29 -139 29q-127 0 -211 -108t-84 -230q0 -134 78 -224t203 -90q109 0 176 43q61 33 80 33q28 0 50 -28q21 -27 21 -56q0 -33 -30 -57q-112 -94 -289 -94q-213 0 -336 141q-123 140 -121 313
q1 198 133 355q130 155 340 155q137 0 244 -63zM524 1126q-26 -20 -47 -20q-23 0 -45 19t-22 42q0 24 18 45q3 4 80 91q84 95 113 131q28 34 59 34t56 -25q26 -26 26 -57q0 -22 -29 -51q-86 -96 -209 -209z" />
    <glyph glyph-name="Ccircumflex" unicode="&#x108;" horiz-adv-x="1245" 
d="M1069 1341q90 -41 90 -94q0 -38 -19 -61q-20 -25 -57 -25q-23 1 -79 27q-123 57 -252 57q-188 0 -332 -162q-145 -163 -146 -405q0 -220 139 -377q138 -156 347 -158q154 0 278 82q4 3 16 9q3 1 5.5 3t4.5 3.5t3 2.5q5 3 12 6q3 1 17 4q5 1 18 1q29 0 47 -27
q19 -29 19 -59q0 -67 -142 -127q-139 -59 -295 -59q-260 2 -450 190q-190 189 -189 496q1 325 204 531q201 204 462 202q166 0 299 -60zM969 1483q-11 0 -49 24l-168 172q-150 -158 -170 -176q-21 -18 -47 -18q-19 0 -38 18q-20 18 -20 39q0 23 23 51l176 197q30 37 78 37
q39 0 69 -33l178 -201q27 -35 27 -53t-18 -38q-18 -19 -41 -19z" />
    <glyph glyph-name="ccircumflex" unicode="&#x109;" horiz-adv-x="915" 
d="M805 883q39 -27 39 -68q0 -29 -21 -54q-21 -26 -51 -26q-12 0 -82 29q-64 29 -139 29q-127 0 -211 -108t-84 -230q0 -134 78 -224t203 -90q109 0 176 43q61 33 80 33q28 0 50 -28q21 -27 21 -56q0 -33 -30 -57q-112 -94 -289 -94q-213 0 -336 141q-123 140 -121 313
q1 198 133 355q130 155 340 155q137 0 244 -63zM770 1094q-12 0 -49 24l-168 172q-150 -158 -170 -176q-22 -18 -47 -18q-18 0 -38 18q-19 18 -19 39q0 25 22 51l176 197q30 37 78 37q40 0 70 -33l178 -201q26 -33 26 -53q0 -19 -18 -38t-41 -19z" />
    <glyph glyph-name="Cdotaccent" unicode="&#x10a;" horiz-adv-x="1245" 
d="M1069 1341q90 -41 90 -94q0 -38 -19 -61q-20 -25 -57 -25q-23 1 -79 27q-123 57 -252 57q-188 0 -332 -162q-145 -163 -146 -405q0 -220 139 -377q138 -156 347 -158q154 0 278 82q4 3 16 9q3 1 5.5 3t4.5 3.5t3 2.5q5 3 12 6q3 1 17 4q5 1 18 1q29 0 47 -27
q19 -29 19 -59q0 -67 -142 -127q-139 -59 -295 -59q-260 2 -450 190q-190 189 -189 496q1 325 204 531q201 204 462 202q166 0 299 -60zM743 1559q-48 0 -77 33q-30 35 -29 85q5 51 38 77q36 28 81 28q51 0 80 -32q28 -31 28 -79q0 -53 -34 -83q-33 -29 -87 -29z" />
    <glyph glyph-name="cdotaccent" unicode="&#x10b;" horiz-adv-x="915" 
d="M805 883q39 -27 39 -68q0 -29 -21 -54q-21 -26 -51 -26q-12 0 -82 29q-64 29 -139 29q-127 0 -211 -108t-84 -230q0 -134 78 -224t203 -90q109 0 176 43q61 33 80 33q28 0 50 -28q21 -27 21 -56q0 -33 -30 -57q-112 -94 -289 -94q-213 0 -336 141q-123 140 -121 313
q1 198 133 355q130 155 340 155q137 0 244 -63zM545 1169q-48 0 -78 34q-30 35 -29 85q5 51 38 77q36 28 81 28q51 0 80 -32t29 -79q0 -53 -34 -83t-87 -30z" />
    <glyph glyph-name="Ccaron" unicode="&#x10c;" horiz-adv-x="1245" 
d="M1069 1341q90 -41 90 -94q0 -38 -19 -61q-20 -25 -57 -25q-23 1 -79 27q-123 57 -252 57q-188 0 -332 -162q-145 -163 -146 -405q0 -220 139 -377q138 -156 347 -158q154 0 278 82q4 3 16 9q3 1 5.5 3t4.5 3.5t3 2.5q5 3 12 6q3 1 17 4q5 1 18 1q29 0 47 -27
q19 -29 19 -59q0 -67 -142 -127q-139 -59 -295 -59q-260 2 -450 190q-190 189 -189 496q1 325 204 531q201 204 462 202q166 0 299 -60zM537 1825q22 0 47 -25q57 -56 168 -172q22 22 76 80q40 43 61 64q20 20 35 32q24 19 47 19q18 0 38 -20q19 -19 19 -38q0 -22 -22 -51
l-179 -196q-30 -37 -75 -37q-41 0 -70 32l-178 201q-27 35 -27 55q0 18 19 37t41 19z" />
    <glyph glyph-name="ccaron" unicode="&#x10d;" horiz-adv-x="915" 
d="M805 883q39 -27 39 -68q0 -29 -21 -54q-21 -26 -51 -26q-12 0 -82 29q-64 29 -139 29q-127 0 -211 -108t-84 -230q0 -134 78 -224t203 -90q109 0 176 43q61 33 80 33q28 0 50 -28q21 -27 21 -56q0 -33 -30 -57q-112 -94 -289 -94q-213 0 -336 141q-123 140 -121 313
q1 198 133 355q130 155 340 155q137 0 244 -63zM338 1436q22 0 47 -25q57 -56 168 -172q37 36 77 80q40 43 60 63q25 25 35 33q22 19 47 19q18 0 38 -20q19 -19 19 -38q0 -22 -22 -51l-178 -197q-29 -36 -76 -36q-41 0 -70 32l-178 201q-26 33 -26 55q0 19 18 37
q19 19 41 19z" />
    <glyph glyph-name="Dcaron" unicode="&#x10e;" horiz-adv-x="1382" 
d="M164 1274q0 119 166 119q59 0 140 1t136 1q298 -15 493 -186t195 -470q0 -733 -778 -739q-172 0 -252 4q-98 6 -98 121l4 557zM549 1239q-141 0 -215 -6v-1030q0 -33 30 -39t140 -6q620 0 620 559q0 174 -82 295q-83 122 -207 174q-127 53 -286 53zM457 1825q22 0 47 -25
q57 -56 168 -172q36 36 77 80q54 58 60 64q20 20 35 32q22 19 47 19q18 0 38 -20q19 -19 19 -38q0 -22 -22 -51l-178 -196q-30 -37 -76 -37q-41 0 -70 32l-178 201q-27 35 -27 55q0 18 19 37t41 19z" />
    <glyph glyph-name="dcaron" unicode="&#x10f;" horiz-adv-x="1400" 
d="M1255 1284h-4q-29 1 -56 27q-26 24 -26 65q0 44 31 77q30 32 76 32q53 0 86 -38t33 -101q0 -66 -44 -136q-42 -67 -108 -106q-20 -10 -31 -10q-19 0 -33 13q-16 14 -16 32q0 23 23 41q69 50 69 96v8zM1024 1401l-6 -500v-401q0 -8 0.5 -27.5t1 -57.5t0.5 -74
q2 -176 2 -273q0 -80 -82 -80q-72 0 -78 71l-2 115q-114 -190 -330 -190q-192 0 -315 138t-123 320q0 212 135 356t334 144q92 0 171 -43t124 -117l-4 598q0 101 86 101t86 -80zM260 449q0 -130 85 -221t206 -91q127 0 216 89t89 237q0 145 -82 236q-83 92 -205 92
q-129 0 -219 -98q-90 -97 -90 -244z" />
    <glyph glyph-name="Dcroat" unicode="&#x110;" horiz-adv-x="1390" 
d="M172 1274q0 119 166 119q59 0 140 1t136 1q298 -15 493 -186q196 -172 196 -470q0 -733 -779 -739q-172 0 -252 4q-98 6 -98 121l2 471h-80q-76 0 -76 74q0 73 89 73h69zM557 1239q-141 0 -215 -6v-490h186q80 0 80 -71q0 -42 -20 -59t-72 -17h-174v-393q0 -33 30 -39
t140 -6q621 0 621 559q0 174 -82 295q-83 122 -208 174q-127 53 -286 53z" />
    <glyph glyph-name="dcroat" unicode="&#x111;" horiz-adv-x="1165" 
d="M1018 1403v-154h94q76 0 76 -69q0 -70 -82 -70h-88v-164v-430v-53q0 -7 0.5 -25.5t1 -54.5t0.5 -70q2 -166 2 -245q0 -80 -82 -80q-72 0 -78 71l-2 115q-114 -190 -330 -190q-192 0 -315 138t-123 320q0 212 135 356t334 144q93 0 170 -43q78 -43 123 -117v328h-188
q-82 0 -82 72q0 67 80 67h190v137q0 51 20 71q22 22 66 22q78 0 78 -76zM260 449q0 -130 85 -221t206 -91q127 0 216 89t89 237q0 145 -82 236q-83 92 -205 92q-129 0 -219 -98q-90 -97 -90 -244z" />
    <glyph glyph-name="Emacron" unicode="&#x112;" horiz-adv-x="1112" 
d="M193 1305q0 49 32 66q33 18 101 18h98q53 0 275 2q42 0 94.5 0.5t81 1t43.5 0.5q93 0 98 -74q0 -69 -55 -76q-82 -2 -494 -2h-107q-2 -114 -2 -248l-2 -198v-39h103q221 0 356 6q58 0 80 -14q25 -16 25 -62q-5 -74 -93 -74h-473v-147q0 -16 -2 -158t-2 -157q298 0 541 4
q22 0 37 1t35 1q71 0 71 -74q0 -42 -22 -63q-23 -22 -82 -23h-537q-137 0 -173 20q-39 22 -40 103q0 44 2 82l2 28q0 44 1 77q1 17 1.5 57t0.5 60q1 24 1.5 79.5t0.5 83.5q1 64 1 198q0 145 1 260q2 230 2 261zM412 1599q-74 0 -74 70q0 74 96 74q44 0 82 -1t86 -1
q24 0 126 2q20 0 43.5 0.5t36 1t19.5 0.5q73 0 78 -66q0 -77 -102 -77q-53 0 -100 1t-107 1q-15 0 -99 -2q-22 -1 -50 -2t-35 -1z" />
    <glyph glyph-name="emacron" unicode="&#x113;" horiz-adv-x="1042" 
d="M264 420q5 -114 85 -196q81 -83 206 -83q122 0 223 68q52 24 68 24q28 0 52 -25q24 -26 24 -54q0 -45 -56 -80q-124 -88 -329 -88q-183 0 -312 130t-133 312q0 213 133 365q134 153 326 153q169 0 285 -113t116 -255q0 -84 -27 -118t-128 -36q-90 -2 -144 -2
q-113 0 -188 -1t-201 -1zM559 803q-116 0 -198 -80q-81 -80 -93 -184q459 7 498 10q25 5 25 20q0 102 -69 168t-163 66zM334 1210q-74 0 -74 70q0 74 96 74q44 0 82 -1t86 -1q24 0 126 2q19 0 43.5 0.5t37 1t19.5 0.5q72 0 77 -66q0 -78 -102 -78q-52 0 -99 1t-108 1
q-15 0 -99 -2t-85 -2z" />
    <glyph glyph-name="Ebreve" unicode="&#x114;" horiz-adv-x="1112" 
d="M193 1305q0 49 32 66q33 18 101 18h98q53 0 275 2q42 0 94.5 0.5t81 1t43.5 0.5q93 0 98 -74q0 -69 -55 -76q-82 -2 -494 -2h-107q-2 -114 -2 -248l-2 -198v-39h103q221 0 356 6q58 0 80 -14q25 -16 25 -62q-5 -74 -93 -74h-473v-147q0 -16 -2 -158t-2 -157q298 0 541 4
q22 0 37 1t35 1q71 0 71 -74q0 -42 -22 -63q-23 -22 -82 -23h-537q-137 0 -173 20q-39 22 -40 103q0 44 2 82l2 28q0 44 1 77q1 17 1.5 57t0.5 60q1 24 1.5 79.5t0.5 83.5q1 64 1 198q0 145 1 260q2 230 2 261zM829 1800q27 0 43 -17q17 -19 17 -42q0 -107 -76 -183
q-77 -77 -190 -77q-107 0 -186 72t-81 176q0 30 17 49q17 18 45 18q25 0 40 -15q14 -14 19 -38q5 -65 43 -102t105 -37q63 0 103 42q40 41 40 99q4 55 61 55z" />
    <glyph glyph-name="ebreve" unicode="&#x115;" horiz-adv-x="1042" 
d="M264 420q5 -114 85 -196q81 -83 206 -83q122 0 223 68q52 24 68 24q28 0 52 -25q24 -26 24 -54q0 -45 -56 -80q-124 -88 -329 -88q-183 0 -312 130t-133 312q0 213 133 365q134 153 326 153q169 0 285 -113t116 -255q0 -84 -27 -118t-128 -36q-90 -2 -144 -2
q-113 0 -188 -1t-201 -1zM559 803q-116 0 -198 -80q-81 -80 -93 -184q459 7 498 10q25 5 25 20q0 102 -69 168t-163 66zM752 1411q27 0 43 -17t16 -42q0 -108 -76 -184t-190 -76q-107 0 -186 72q-78 71 -80 175q0 33 16 50q17 18 45 18q25 0 40 -15q14 -14 19 -38
q5 -65 43 -102q40 -38 105 -38q63 0 103 42q40 41 40 100q4 55 62 55z" />
    <glyph glyph-name="Edotaccent" unicode="&#x116;" horiz-adv-x="1112" 
d="M193 1305q0 49 32 66q33 18 101 18h98q53 0 275 2q42 0 94.5 0.5t81 1t43.5 0.5q93 0 98 -74q0 -69 -55 -76q-82 -2 -494 -2h-107q-2 -114 -2 -248l-2 -198v-39h103q221 0 356 6q58 0 80 -14q25 -16 25 -62q-5 -74 -93 -74h-473v-147q0 -16 -2 -158t-2 -157q298 0 541 4
q22 0 37 1t35 1q71 0 71 -74q0 -42 -22 -63q-23 -22 -82 -23h-537q-137 0 -173 20q-39 22 -40 103q0 44 2 82l2 28q0 44 1 77q1 17 1.5 57t0.5 60q1 24 1.5 79.5t0.5 83.5q1 64 1 198q0 145 1 260q2 230 2 261zM612 1559q-48 0 -77 33q-30 35 -29 85q5 51 38 77q36 28 81 28
q51 0 80 -32q28 -31 28 -79q0 -53 -34 -83q-33 -29 -87 -29z" />
    <glyph glyph-name="edotaccent" unicode="&#x117;" horiz-adv-x="1042" 
d="M264 420q5 -114 85 -196q81 -83 206 -83q122 0 223 68q52 24 68 24q28 0 52 -25q24 -26 24 -54q0 -45 -56 -80q-124 -88 -329 -88q-183 0 -312 130t-133 312q0 213 133 365q134 153 326 153q169 0 285 -113t116 -255q0 -84 -27 -118t-128 -36q-90 -2 -144 -2
q-113 0 -188 -1t-201 -1zM559 803q-116 0 -198 -80q-81 -80 -93 -184q459 7 498 10q25 5 25 20q0 102 -69 168t-163 66zM535 1169q-48 0 -78 34q-30 35 -29 85q5 51 38 77q36 28 81 28q51 0 80 -32q28 -31 28 -79q0 -54 -33 -83q-34 -30 -87 -30z" />
    <glyph glyph-name="Eogonek" unicode="&#x118;" horiz-adv-x="1112" 
d="M807 -225q0 -40 19 -63t55 -23q20 0 47 5t39 5q25 0 38 -18q13 -17 13 -46q0 -71 -119 -79q-36 0 -68 8q-68 15 -110 60q-43 46 -43 124q0 137 153 248h-438q-137 0 -173 20q-39 22 -40 103q0 24 1 43t1 45q8 157 8 577q0 128 1 231q2 206 2 232q2 94 25 117
q25 25 108 25h98q53 0 275 2q42 0 94.5 0.5t81 1t43.5 0.5q93 0 98 -74q0 -69 -55 -76q-82 -2 -494 -2h-109q0 -82 -2 -436v-49h103q63 0 190 3t193 3q78 0 78 -76q0 -38 -21 -56t-90 -18h-455q2 -92 -4 -462q168 0 303 1t310 1q71 0 71 -70t-63 -82q-62 -33 -113 -99
t-51 -126z" />
    <glyph glyph-name="eogonek" unicode="&#x119;" horiz-adv-x="1042" 
d="M264 420q5 -114 85 -196q81 -83 206 -83q122 0 223 68q52 24 68 24q28 0 52 -25q24 -26 24 -54q0 -41 -56 -80q-20 -14 -50 -35.5t-31 -21.5q-28 -20 -70 -60t-61 -83q-19 -42 -19 -95q0 -39 21 -65q21 -25 57 -25q17 0 47 5t43 5q22 0 37 -18q14 -17 14 -46
q0 -81 -141 -81q-89 0 -147 52t-58 144q0 134 121 242q-43 -6 -92 -6q-183 0 -312 130t-133 312q0 213 133 365q134 153 326 153q169 0 285 -113t116 -255q0 -84 -27 -118t-128 -36q-90 -2 -144 -2q-113 0 -188 -1t-201 -1zM559 803q-116 0 -198 -80q-81 -80 -93 -184
q459 7 498 10q25 5 25 20q0 102 -69 168t-163 66z" />
    <glyph glyph-name="Ecaron" unicode="&#x11a;" horiz-adv-x="1112" 
d="M193 1305q0 49 32 66q33 18 101 18h98q53 0 275 2q42 0 94.5 0.5t81 1t43.5 0.5q93 0 98 -74q0 -69 -55 -76q-82 -2 -494 -2h-107q-2 -114 -2 -248l-2 -198v-39h103q221 0 356 6q58 0 80 -14q25 -16 25 -62q-5 -74 -93 -74h-473v-147q0 -16 -2 -158t-2 -157q298 0 541 4
q22 0 37 1t35 1q71 0 71 -74q0 -42 -22 -63q-23 -22 -82 -23h-537q-137 0 -173 20q-39 22 -40 103q0 44 2 82l2 28q0 44 1 77q1 17 1.5 57t0.5 60q1 24 1.5 79.5t0.5 83.5q1 64 1 198q0 145 1 260q2 230 2 261zM406 1825q22 0 47 -25q57 -56 168 -172q22 22 76 80
q40 43 61 64q20 20 35 32q24 19 47 19q18 0 38 -20q19 -19 19 -38q0 -20 -23 -51l-178 -196q-30 -37 -75 -37q-41 0 -70 32l-178 201q-27 35 -27 55q0 18 19 37t41 19z" />
    <glyph glyph-name="ecaron" unicode="&#x11b;" horiz-adv-x="1042" 
d="M264 420q5 -114 85 -196q81 -83 206 -83q122 0 223 68q52 24 68 24q28 0 52 -25q24 -26 24 -54q0 -45 -56 -80q-124 -88 -329 -88q-183 0 -312 130t-133 312q0 213 133 365q134 153 326 153q169 0 285 -113t116 -255q0 -84 -27 -118t-128 -36q-90 -2 -144 -2
q-113 0 -188 -1t-201 -1zM559 803q-116 0 -198 -80q-81 -80 -93 -184q459 7 498 10q25 5 25 20q0 102 -69 168t-163 66zM328 1436q22 0 47 -25q57 -56 168 -172q36 36 77 80q40 43 60 63q25 25 35 33q24 19 47 19q18 0 38 -20q19 -19 19 -38q0 -22 -22 -51l-178 -197
q-29 -36 -76 -36q-41 0 -70 32l-178 201q-27 35 -27 55q0 18 19 37t41 19z" />
    <glyph glyph-name="Gcircumflex" unicode="&#x11c;" horiz-adv-x="1456" 
d="M795 1403q229 0 405 -113q51 -33 51 -73q0 -34 -19 -59t-52 -25q-36 0 -95 36q-122 82 -301 82q-193 0 -349 -164q-156 -163 -156 -380q0 -264 139 -413q140 -151 370 -151q185 0 299 133q116 135 117 314h-289q-30 1 -48 23q-17 20 -17 51q0 67 70 73q20 2 348 2
q63 0 83 -29q21 -30 21 -96q0 -278 -168 -453t-430 -175q-295 0 -481 195q-187 196 -187 511q0 295 207 503t482 208zM997 1483q-11 0 -49 24l-168 172q-150 -158 -170 -176q-21 -18 -47 -18q-19 0 -38 18t-19 39q0 25 22 51l177 197q30 37 77 37q40 0 70 -33l178 -201
q27 -35 27 -53q0 -17 -19 -38q-18 -19 -41 -19z" />
    <glyph glyph-name="gcircumflex" unicode="&#x11d;" horiz-adv-x="1155" 
d="M532 -315q138 0 227 92t89 241v144q-49 -82 -134 -128t-188 -46q-188 0 -313 135q-125 136 -125 319q0 215 134 360q134 144 333 144q184 0 297 -160l2 86q4 66 78 66q36 0 57 -20q23 -21 23 -58q-4 -419 -4 -655l2 -193q4 -217 -133 -351t-349 -134q-163 0 -280 57
q-70 33 -70 86q0 33 23 59q22 25 53 25q14 0 26 -4q16 -5 32 -14q18 -10 32 -15q85 -36 188 -36zM260 449q0 -136 83 -222t204 -86q129 0 218 87t89 237q0 161 -84 246q-84 86 -209 86q-130 2 -215 -97q-86 -100 -86 -251zM786 1094q-12 0 -49 24l-168 172
q-150 -158 -170 -176q-22 -18 -47 -18q-18 0 -38 18q-19 18 -19 39q0 25 22 51l177 197q30 37 77 37q40 0 70 -33l178 -201q27 -34 27 -53q0 -17 -19 -38q-18 -19 -41 -19z" />
    <glyph glyph-name="Gbreve" unicode="&#x11e;" horiz-adv-x="1456" 
d="M795 1403q229 0 405 -113q51 -33 51 -73q0 -34 -19 -59t-52 -25q-36 0 -95 36q-122 82 -301 82q-193 0 -349 -164q-156 -163 -156 -380q0 -264 139 -413q140 -151 370 -151q185 0 299 133q116 135 117 314h-289q-30 1 -48 23q-17 20 -17 51q0 67 70 73q20 2 348 2
q63 0 83 -29q21 -30 21 -96q0 -278 -168 -453t-430 -175q-295 0 -481 195q-187 196 -187 511q0 295 207 503t482 208zM989 1800q27 0 43 -17q17 -19 17 -42q0 -107 -76 -183q-77 -77 -191 -77q-106 0 -185 72t-81 176q0 32 16 49q17 18 46 18q24 0 39 -15t20 -38
q5 -65 43 -102t104 -37q64 0 104 42q40 41 40 99q4 55 61 55z" />
    <glyph glyph-name="gbreve" unicode="&#x11f;" horiz-adv-x="1155" 
d="M532 -315q138 0 227 92t89 241v144q-49 -82 -134 -128t-188 -46q-188 0 -313 135q-125 136 -125 319q0 215 134 360q134 144 333 144q184 0 297 -160l2 86q4 66 78 66q36 0 57 -20q23 -21 23 -58q-4 -419 -4 -655l2 -193q4 -217 -133 -351t-349 -134q-163 0 -280 57
q-70 33 -70 86q0 33 23 59q22 25 53 25q14 0 26 -4q16 -5 32 -14q18 -10 32 -15q85 -36 188 -36zM260 449q0 -136 83 -222t204 -86q129 0 218 87t89 237q0 161 -84 246q-84 86 -209 86q-130 2 -215 -97q-86 -100 -86 -251zM776 1411q27 0 43 -17q17 -19 17 -42
q0 -108 -76 -184t-191 -76q-105 0 -185 72q-79 72 -81 175q0 33 16 50q17 18 46 18q24 0 39 -15q16 -16 20 -38q5 -65 43 -102q40 -38 104 -38q63 0 104 42q40 41 40 100q4 55 61 55z" />
    <glyph glyph-name="Gdotaccent" unicode="&#x120;" horiz-adv-x="1456" 
d="M795 1403q229 0 405 -113q51 -33 51 -73q0 -34 -19 -59t-52 -25q-36 0 -95 36q-122 82 -301 82q-193 0 -349 -164q-156 -163 -156 -380q0 -264 139 -413q140 -151 370 -151q185 0 299 133q116 135 117 314h-289q-30 1 -48 23q-17 20 -17 51q0 67 70 73q20 2 348 2
q63 0 83 -29q21 -30 21 -96q0 -278 -168 -453t-430 -175q-295 0 -481 195q-187 196 -187 511q0 295 207 503t482 208zM772 1559q-49 0 -78 33q-30 34 -28 85q5 52 37 77q36 28 81 28q51 0 80 -32t29 -79q0 -53 -34 -83q-33 -29 -87 -29z" />
    <glyph glyph-name="gdotaccent" unicode="&#x121;" horiz-adv-x="1155" 
d="M532 -315q138 0 227 92t89 241v144q-49 -82 -134 -128t-188 -46q-188 0 -313 135q-125 136 -125 319q0 215 134 360q134 144 333 144q184 0 297 -160l2 86q4 66 78 66q36 0 57 -20q23 -21 23 -58q-4 -419 -4 -655l2 -193q4 -217 -133 -351t-349 -134q-163 0 -280 57
q-70 33 -70 86q0 33 23 59q22 25 53 25q14 0 26 -4q16 -5 32 -14q18 -10 32 -15q85 -36 188 -36zM260 449q0 -136 83 -222t204 -86q129 0 218 87t89 237q0 161 -84 246q-84 86 -209 86q-130 2 -215 -97q-86 -100 -86 -251zM559 1169q-48 0 -78 34t-28 85q5 52 37 77
q36 28 81 28q51 0 80 -32t29 -79q0 -53 -34 -83t-87 -30z" />
    <glyph glyph-name="Gcommaaccent" unicode="&#x122;" horiz-adv-x="1456" 
d="M795 1403q229 0 405 -113q51 -33 51 -73q0 -34 -19 -59t-52 -25q-36 0 -95 36q-122 82 -301 82q-193 0 -349 -164q-156 -163 -156 -380q0 -264 139 -413q140 -151 370 -151q185 0 299 133q116 135 117 314h-289q-30 1 -48 23q-17 20 -17 51q0 67 70 73q20 2 348 2
q63 0 83 -29q21 -30 21 -96q0 -278 -168 -453t-430 -175q-295 0 -481 195q-187 196 -187 511q0 295 207 503t482 208zM633 -399q0 13 29 44q29 30 36 58q4 7 -6 18q-5 5 -23 29q-14 19 -14 41q0 37 27 63q26 25 63 25q42 0 69 -27q28 -28 28 -69q0 -112 -125 -207
q-20 -14 -45 -14q-39 0 -39 39z" />
    <glyph glyph-name="gcommaaccent" unicode="&#x123;" horiz-adv-x="1155" 
d="M664 1372q0 -11 -31 -45q-32 -35 -33 -63q0 -4 23 -27q22 -22 22 -53q0 -38 -26 -63t-66 -25t-69 26t-29 68q0 110 125 209q27 14 45 14q15 0 26 -11q13 -13 13 -30zM532 -315q138 0 227 92t89 241v144q-49 -82 -134 -128t-188 -46q-188 0 -313 135q-125 136 -125 319
q0 215 134 360q134 144 333 144q184 0 297 -160l2 86q4 66 78 66q36 0 57 -20q23 -21 23 -58q-4 -419 -4 -655l2 -193q4 -217 -133 -351t-349 -134q-163 0 -280 57q-70 33 -70 86q0 33 23 59q22 25 53 25q14 0 26 -4q16 -5 32 -14q18 -10 32 -15q85 -36 188 -36zM260 449
q0 -136 83 -222t204 -86q129 0 218 87t89 237q0 161 -84 246q-84 86 -209 86q-130 2 -215 -97q-86 -100 -86 -251z" />
    <glyph glyph-name="Hcircumflex" unicode="&#x124;" horiz-adv-x="1427" 
d="M1247 682l6 -614q0 -76 -86 -76q-88 0 -88 78v190l-2 330q-37 0 -357 -2t-372 -2l4 -520q0 -74 -90 -74q-84 0 -84 74q0 82 3 346q3 241 1 407l-8 490q0 82 90 82q82 0 82 -72q0 -110 2 -576h31h78h118q103 0 188 1t189 1l127 3q0 19 -2 287q0 52 -0.5 114t-1 95t-0.5 50
q2 103 88 103q84 0 84 -90q0 -112 -1 -302q-1 -263 1 -323zM934 1483q-12 0 -49 24l-168 172q-150 -158 -170 -176q-23 -18 -47 -18q-18 0 -38 18t-20 39q0 23 23 51l176 197q30 37 78 37q39 0 69 -33l179 -201q26 -33 26 -53q0 -18 -18 -38q-18 -19 -41 -19z" />
    <glyph glyph-name="hcircumflex" unicode="&#x125;" horiz-adv-x="1122" 
d="M154 1395q0 102 92 102q80 0 80 -92q0 -44 -1 -83q-2 -59 -3 -202q-3 -288 -3 -358q44 86 126 137t192 51q164 0 260 -115t96 -294v-469q0 -78 -90 -78q-38 0 -61 19q-25 20 -25 55q10 234 10 458q0 131 -61 199q-62 70 -172 70q-113 0 -195 -88t-82 -222q0 -120 1 -226
t1 -191q0 -76 -86 -76q-81 0 -81 74q0 26 2 152q0 24 0.5 54t1 46t0.5 24zM461 1511q-10 0 -49 25l-168 172q-150 -158 -170 -176q-22 -19 -47 -19q-17 0 -38 19q-20 18 -20 39q0 23 23 51l176 197q29 36 78 36q40 0 69 -32l179 -201q26 -33 26 -53q0 -19 -18 -38
q-18 -20 -41 -20z" />
    <glyph glyph-name="Hbar" unicode="&#x126;" horiz-adv-x="1427" 
d="M1247 682l6 -614q0 -76 -86 -76q-55 0 -71 33q-17 34 -17 96v139q0 92 -1 166t-1 164q-379 0 -729 -2q0 -30 2 -262t2 -260q0 -74 -90 -74q-84 0 -84 74v765v160h-88q-65 0 -65 64q0 63 79 63h74v191q0 84 86 84q36 0 61 -20q23 -19 23 -54v-201h731v193q0 88 84 88
t84 -92v-189h76q72 0 72 -59q0 -37 -18 -52q-19 -16 -60 -16h-70v-309zM348 743l731 2v246h-731v-248z" />
    <glyph glyph-name="hbar" unicode="&#x127;" horiz-adv-x="1122" 
d="M154 1397q0 100 92 100q78 0 78 -90v-162h168q73 0 73 -61q2 -40 -17 -57q-18 -17 -71 -17h-155q-3 -165 -3 -348q44 86 126 137t192 51q164 0 260 -115t96 -294v-469q0 -78 -90 -78q-38 0 -61 19q-25 20 -25 55q10 234 10 458q0 131 -61 199q-62 70 -172 70
q-113 0 -195 -88t-82 -222q0 -120 1 -226t1 -191q0 -76 -86 -76q-81 0 -81 74q0 26 2 152q0 24 0.5 54t1 46t0.5 24l-2 766h-103q-69 0 -69 66q0 71 86 71h86v152z" />
    <glyph glyph-name="Itilde" unicode="&#x128;" horiz-adv-x="561" 
d="M199 825q0 6 -2 218t-2 268q0 86 90 86q37 0 59 -21q23 -21 23 -57q0 -44 -2 -510v-328l2 -393q0 -96 -86 -96q-41 0 -64 20q-24 21 -22 60q0 48 1 88t1 92zM94 1587q-8 -47 -63 -47q-28 0 -45 20q-16 19 -15 52q4 74 55 122q49 46 128 46q53 0 98 -31q34 -23 79 -61
q38 -32 75 -33q54 0 59 80q1 21 21 35t40 14q23 0 42 -17q18 -17 18 -41q0 -96 -48 -144t-128 -48q-43 1 -82 20q-37 18 -59 40q-23 24 -51 40q-33 20 -58 21q-61 0 -66 -68z" />
    <glyph glyph-name="itilde" unicode="&#x129;" horiz-adv-x="491" 
d="M164 858q2 44 24 63t56 19q48 0 68 -25t20 -94q0 -128 -1 -234t-1 -237l2 -268q0 -92 -88 -92q-80 0 -80 84v784zM61 1198q-8 -47 -63 -47q-29 0 -45 19q-16 18 -14 53q4 75 54 122q49 46 128 46q53 0 98 -31q27 -18 79 -62q37 -31 75 -32q54 0 59 80q1 21 22 35
q20 14 40 14q23 0 42 -17q17 -16 17 -41q0 -96 -48 -144t-128 -48q-43 1 -82 20q-35 17 -58 40q-22 22 -52 40q-33 20 -58 21q-61 0 -66 -68z" />
    <glyph glyph-name="Imacron" unicode="&#x12a;" horiz-adv-x="561" 
d="M199 825q0 6 -2 218t-2 268q0 86 90 86q37 0 59 -21q23 -21 23 -57q0 -44 -2 -510v-328l2 -393q0 -96 -86 -96q-41 0 -64 20q-24 21 -22 60q0 48 1 88t1 92zM72 1599q-74 0 -74 70q0 74 96 74q44 0 82 -1t86 -1q24 0 126 2q20 0 43.5 0.5t36 1t19.5 0.5q73 0 78 -66
q0 -77 -102 -77q-52 0 -99 1t-108 1q-15 0 -99 -2q-22 -1 -50 -2t-35 -1z" />
    <glyph glyph-name="imacron" unicode="&#x12b;" horiz-adv-x="491" 
d="M164 858q2 44 24 63t56 19q48 0 68 -25t20 -94q0 -128 -1 -234t-1 -237l2 -268q0 -92 -88 -92q-80 0 -80 84v784zM39 1210q-74 0 -74 70q0 74 96 74q44 0 82 -1t86 -1q24 0 126 2q19 0 43.5 0.5t37 1t19.5 0.5q73 0 77 -66q0 -78 -102 -78q-52 0 -99 1t-108 1
q-15 0 -99 -2t-85 -2z" />
    <glyph glyph-name="Ibreve" unicode="&#x12c;" horiz-adv-x="561" 
d="M199 825q0 6 -2 218t-2 268q0 86 90 86q37 0 59 -21q23 -21 23 -57q0 -44 -2 -510v-328l2 -393q0 -96 -86 -96q-41 0 -64 20q-24 21 -22 60q0 48 1 88t1 92zM489 1800q27 0 43 -17q17 -19 17 -42q0 -107 -76 -183q-77 -77 -190 -77q-107 0 -186 72t-81 176q0 30 17 49
q17 18 45 18q25 0 40 -15q14 -14 19 -38q5 -65 43 -102t105 -37q63 0 103 42q40 41 40 99q4 55 61 55z" />
    <glyph glyph-name="ibreve" unicode="&#x12d;" horiz-adv-x="491" 
d="M164 858q2 44 24 63t56 19q48 0 68 -25t20 -94q0 -128 -1 -234t-1 -237l2 -268q0 -92 -88 -92q-80 0 -80 84v784zM457 1411q27 0 43 -17t16 -42q0 -108 -76 -184t-190 -76q-106 0 -185 72t-81 175q0 33 16 50q16 18 45 18q25 0 40 -15q14 -14 19 -38q5 -65 43 -102
q40 -38 105 -38q62 0 103 42q40 41 40 100q4 55 62 55z" />
    <glyph glyph-name="Iogonek" unicode="&#x12e;" horiz-adv-x="561" 
d="M199 825q0 240 -4 480q0 92 88 92q84 0 84 -78q0 -69 -2 -485v-74v-279q0 -108 1 -195t1 -198q0 -73 -43 -88q-78 -63 -122 -116q-40 -49 -40 -109q0 -43 20 -64q21 -22 54 -22q25 0 48 4t40 4q20 0 36 -19q15 -18 15 -45q0 -79 -139 -79q-86 0 -143 51q-56 50 -56 145
q0 143 182 264q-24 23 -24 101q0 27 1 66t1 126q0 145 1 260t1 258z" />
    <glyph glyph-name="iogonek" unicode="&#x12f;" horiz-adv-x="493" 
d="M164 858q2 44 25 63t57 19q46 0 66 -25q21 -25 22 -94q0 -128 -1 -234t-1 -237v-268q0 -59 -35 -82q-133 -114 -133 -225q0 -86 74 -86q20 0 47 5t39 5q21 0 36 -18t15 -46q0 -81 -137 -81q-85 0 -144 52t-59 144q0 134 155 256q-26 22 -26 68v784zM242 1223
q-52 0 -83 34q-33 36 -28 89q7 51 42 78q36 28 81 28q55 0 85 -32t30 -83q0 -57 -35 -86q-34 -28 -92 -28z" />
    <glyph glyph-name="Idotaccent" unicode="&#x130;" horiz-adv-x="561" 
d="M199 825q0 6 -2 218t-2 268q0 86 90 86q37 0 59 -21q23 -21 23 -57q0 -44 -2 -510v-328l2 -393q0 -96 -86 -96q-41 0 -64 20q-24 21 -22 60q0 48 1 88t1 92zM272 1559q-48 0 -77 33q-30 35 -29 85q5 51 38 77q36 28 81 28q51 0 80 -32q28 -31 28 -79q0 -53 -34 -83
q-33 -29 -87 -29z" />
    <glyph glyph-name="dotlessi" unicode="&#x131;" horiz-adv-x="491" 
d="M164 858q2 44 24 63t56 19q48 0 68 -25t20 -94q0 -128 -1 -234t-1 -237l2 -268q0 -92 -88 -92q-80 0 -80 84v784z" />
    <glyph glyph-name="IJ" unicode="&#x132;" horiz-adv-x="1552" 
d="M199 825q0 6 -2 218t-2 268q0 86 90 86q37 0 59 -21q23 -21 23 -57q0 -44 -2 -510v-328l2 -393q0 -96 -86 -96q-41 0 -64 20q-24 21 -22 60q0 48 1 88t1 92zM1202 674l-12 641q-2 40 21 63q25 25 63 25q90 0 90 -84q0 -70 5 -283t5 -288q0 -144 -2 -246
q-6 -248 -108 -381t-334 -133q-81 0 -156 34q-79 36 -117 68q-49 43 -49 90q0 32 22 56q21 22 56 22q10 0 21 -3q8 -2 22 -11q4 -3 11 -8t9 -6q3 -2 22 -17q4 -4 8.5 -7t8.5 -5.5t5 -3.5q64 -52 143 -52q72 0 121 27t78 68t44 113q14 68 19 144q4 63 4 177z" />
    <glyph glyph-name="ij" unicode="&#x133;" horiz-adv-x="964" 
d="M164 858q2 44 25 63t57 19q46 0 66 -25q21 -25 22 -94q0 -128 -1 -234t-1 -237v-268q0 -47 -20 -70q-19 -22 -66 -22q-82 0 -82 84v784zM242 1223q-52 0 -83 34q-33 36 -28 89q7 51 42 78q36 28 81 28q55 0 85 -32t30 -83q0 -57 -35 -86q-34 -28 -92 -28zM647 868
q2 36 26 54t58 18q84 0 84 -70v-522q0 -298 -6 -532q-5 -120 -94 -205q-91 -87 -223 -88q-175 0 -175 94q0 37 20 62q19 24 46 24q20 0 53 -10t64 -10q136 0 147 198q6 115 4 633q0 12 -2 178t-2 176zM721 1219q-50 0 -81 31q-32 32 -32 85t36 85q37 32 91 32q56 0 86 -33
q31 -34 31 -86q0 -57 -36 -86q-35 -28 -95 -28z" />
    <glyph glyph-name="Jcircumflex" unicode="&#x134;" horiz-adv-x="991" 
d="M641 674l-12 641q-2 40 21 63q25 25 63 25q90 0 90 -84q0 -70 5 -283t5 -288q0 -144 -2 -246q-6 -246 -109 -381q-102 -133 -333 -133q-81 0 -156 34q-79 36 -117 68q-49 43 -49 90q0 32 22 56q21 22 56 22q9 0 20 -3q10 -3 23 -11q4 -3 10.5 -8t8.5 -6q7 -4 23 -17
q5 -4 21 -16q64 -52 144 -52q71 0 121 27q47 26 77 68q29 41 44 113q16 75 20 144q4 63 4 177zM932 1483q-12 0 -49 24l-168 172q-150 -158 -170 -176q-21 -18 -47 -18q-18 0 -38 18t-20 39q0 23 23 51l176 197q30 37 78 37q39 0 69 -33l179 -201q26 -33 26 -53
q0 -18 -18 -38q-18 -19 -41 -19z" />
    <glyph glyph-name="jcircumflex" unicode="&#x135;" horiz-adv-x="468" 
d="M154 868q0 34 24 53q23 19 60 19q84 0 84 -70v-522q0 -259 -7 -532q-5 -120 -94 -205q-91 -87 -223 -88q-174 0 -174 94q0 39 19 62q19 24 46 24q21 0 54 -10t63 -10q136 0 146 198q6 89 6 633q-6 273 -4 354zM455 1094q-11 0 -49 24l-168 172q-150 -158 -170 -176
q-21 -18 -48 -18q-18 0 -37 18q-20 18 -20 39q0 23 23 51l176 197q30 37 78 37q39 0 69 -33l178 -201q27 -34 27 -53t-18 -38t-41 -19z" />
    <glyph glyph-name="Kcommaaccent" unicode="&#x136;" horiz-adv-x="1241" 
d="M348 655l613 693q43 49 83 49q33 0 61 -26t28 -56q0 -27 -27 -60q-45 -51 -379 -415q-11 -11 -38 -42t-46 -50l313 -373l195 -228q33 -33 33 -73q0 -35 -28 -61q-26 -25 -64 -25q-45 0 -78 41q-22 28 -51 67l-431 545q-30 -35 -100 -107q-18 -18 -38.5 -39t-31.5 -32.5
t-16 -16.5v-380q0 -76 -86 -76q-40 -2 -62 18q-24 21 -24 58q0 30 1 58t1 66q0 74 2 556t2 561q0 90 86 90t86 -82q0 -35 -2 -335t-2 -325zM514 -399q0 13 29 44q30 32 37 58q4 7 -7 18q-5 5 -23 29q-13 17 -13 41q0 38 26 63t64 25q41 0 68 -27q28 -28 28 -69
q0 -112 -125 -207q-21 -14 -45 -14q-39 0 -39 39z" />
    <glyph glyph-name="kcommaaccent" unicode="&#x137;" horiz-adv-x="954" 
d="M537 508l344 -379q24 -27 24 -53q0 -31 -25 -57q-26 -27 -63 -27q-35 0 -84 57l-309 367l-107 -105v-217q-2 -52 -18 -77t-63 -25q-50 0 -68 24t-18 80l4 238v899q0 110 -2 172q-1 43 23 66q26 24 65 24q82 0 82 -102q0 -50 -1.5 -200t-1.5 -246q-2 -402 -2 -445l392 399
q51 51 86 51q31 0 57 -26q27 -27 27 -60q0 -26 -41 -67zM408 -399q0 15 28 44q30 32 37 58q5 7 -6 18q-9 9 -24 29q-13 17 -13 41q0 37 27 63q26 25 63 25q42 0 69 -27t27 -69q0 -113 -124 -207q-20 -14 -46 -14q-38 0 -38 39z" />
    <glyph glyph-name="kgreenlandic" unicode="&#x138;" horiz-adv-x="954" 
d="M551 481l328 -350q26 -29 26 -55q0 -31 -25 -57q-26 -27 -63 -27q-35 0 -84 57l-309 359l-107 -2v-312q-2 -52 -18 -77t-63 -25q-50 0 -68 24t-18 80l4 242l-2 516q-2 92 86 92q45 0 63 -24t18 -80l-2 -289h76q59 6 108 79q42 62 99 162q51 89 111 119q45 31 98 31
q32 0 52 -23q22 -25 22 -57q0 -46 -66 -73q-57 -24 -101 -88q-44 -63 -84 -129t-81 -93z" />
    <glyph glyph-name="Lacute" unicode="&#x139;" horiz-adv-x="1011" 
d="M184 1311q0 41 26 62q27 22 66 22q78 0 78 -84q0 -107 -4 -451q0 -113 -1 -203q-1 -133 -3 -200q0 -121 -1 -167t-1 -101v-39q172 0 242 2l313 12q80 0 80 -74q0 -88 -84 -88h-238q-236 0 -311 -4q-96 -4 -133 18t-39 97v80q0 101 4 256q5 175 6 262v600zM248 1516
q-27 -21 -47 -21q-23 0 -45 19q-23 20 -23 42q0 24 19 46q4 5 79 90q84 95 113 131q29 35 59 35q31 0 57 -26q25 -25 25 -56q0 -24 -28 -52q-81 -91 -209 -208z" />
    <glyph glyph-name="lacute" unicode="&#x13a;" horiz-adv-x="481" 
d="M455 1751l-179 -186q-24 -19 -49 -19q-22 0 -44 19q-21 18 -21 43q0 21 18 45l162 196q29 35 59 35q31 0 57 -24q25 -24 25 -58q0 -23 -28 -51zM162 1393q0 41 25 63q26 23 65 23q48 0 66 -27t18 -88q-12 -1008 -12 -1028q0 -41 5 -146t5 -129q0 -71 -78 -73
q-43 -4 -67 26q-23 29 -25 99q-8 169 -2 1280z" />
    <glyph glyph-name="Lcommaaccent" unicode="&#x13b;" horiz-adv-x="1011" 
d="M184 1311q0 41 26 62q27 22 66 22q78 0 78 -84q0 -107 -4 -451q0 -113 -1 -203q-1 -133 -3 -200q0 -121 -1 -167t-1 -101v-39q172 0 242 2l313 12q80 0 80 -74q0 -88 -84 -88h-238q-236 0 -311 -4q-96 -4 -133 18t-39 97v80q0 101 4 256q5 175 6 262v600zM446 -399
q0 13 29 44q30 32 37 58q4 7 -6 18q-9 9 -24 29q-13 17 -13 41q0 37 26 63q25 25 64 25q42 0 69 -27t27 -69q0 -112 -125 -207q-21 -14 -45 -14q-39 0 -39 39z" />
    <glyph glyph-name="lcommaaccent" unicode="&#x13c;" horiz-adv-x="481" 
d="M162 1393q0 41 25 63q26 23 65 23q48 0 66 -27t18 -88q-12 -1008 -12 -1028q0 -41 5 -146t5 -129q0 -71 -78 -73q-43 -4 -67 26q-23 29 -25 99q-8 169 -2 1280zM137 -399q0 13 29 44q30 32 37 58q5 7 -6 18q-9 9 -24 29q-13 17 -13 41q0 38 26 63t64 25q41 0 68 -27
q28 -28 28 -69q0 -112 -125 -207q-20 -14 -45 -14q-39 0 -39 39z" />
    <glyph glyph-name="Lcaron" unicode="&#x13d;" horiz-adv-x="1032" 
d="M872 1186h-4q-31 2 -57 28q-27 27 -27 68q0 44 32 78q32 33 77 33q55 0 89 -39q34 -38 34 -103q0 -67 -44 -138q-43 -69 -110 -109q-17 -11 -33 -11q-17 0 -33 14t-16 31q0 24 21 41q71 50 71 99v8zM184 1311q0 41 26 62q27 22 66 22q78 0 78 -84q0 -107 -4 -451
q0 -113 -1 -203q-1 -133 -3 -200q0 -121 -1 -167t-1 -101v-40q137 0 242 3l313 12q80 0 80 -74q0 -88 -84 -88h-238q-236 0 -311 -4q-96 -4 -133 18t-39 97v80q0 101 4 256q5 175 6 262v600z" />
    <glyph glyph-name="lcaron" unicode="&#x13e;" horiz-adv-x="710" 
d="M565 1284h-4q-29 1 -56 27q-26 24 -26 65q0 44 31 77q30 32 76 32q53 0 86 -38t33 -101q0 -65 -45 -136q-43 -68 -107 -106q-20 -10 -31 -10q-20 0 -34 13q-15 13 -15 32q0 23 23 41q69 50 69 96v8zM162 1393q0 41 25 63q26 23 65 23q48 0 66 -27t18 -88
q-12 -1008 -12 -1028q0 -41 5 -146t5 -129q0 -71 -78 -73q-43 -4 -67 26q-23 29 -25 99q-8 169 -2 1280z" />
    <glyph glyph-name="Ldot" unicode="&#x13f;" horiz-adv-x="1011" 
d="M184 1311q0 41 26 62q27 22 66 22q78 0 78 -84q0 -107 -4 -451q0 -113 -1 -203q-1 -133 -3 -200q0 -121 -1 -167t-1 -101v-39q172 0 242 2l313 12q80 0 80 -74q0 -88 -84 -88h-238q-236 0 -311 -4q-96 -4 -133 18t-39 97v80q0 101 4 256q5 175 6 262v600zM791 616
q-47 0 -79 33q-32 34 -32 80q0 49 35 82t88 33q49 0 81 -33q31 -32 31 -82q0 -53 -34 -83q-35 -30 -90 -30z" />
    <glyph glyph-name="ldot" unicode="&#x140;" horiz-adv-x="751" 
d="M162 1393q0 41 25 63q26 23 65 23q48 0 66 -27t18 -88q-12 -1008 -12 -1028q0 -41 5 -146t5 -129q0 -71 -78 -73q-43 -4 -67 26q-23 29 -25 99q-8 169 -2 1280zM598 498q-48 0 -79 32q-32 34 -32 80q0 49 35 82q34 33 88 33q50 0 81 -33q32 -34 32 -82q0 -53 -35 -83
q-33 -29 -90 -29z" />
    <glyph glyph-name="Lslash" unicode="&#x141;" horiz-adv-x="1011" 
d="M184 1311q0 41 26 62q27 22 66 22q78 0 80 -86l-4 -459v-86l152 88q33 18 59 18q25 0 44 -25q20 -26 20 -54q0 -39 -66 -74l-211 -121v-139l-2 -307q168 0 238 2l313 10q80 0 80 -72q0 -88 -84 -88l-551 -2q-97 -4 -134 20q-36 24 -34 99l6 325v62l-78 -43
q-17 -12 -36 -12q-27 0 -48 24q-20 22 -18 53q0 37 53 70l129 72v641z" />
    <glyph glyph-name="lslash" unicode="&#x142;" horiz-adv-x="516" 
d="M178 117v438l-55 -37q-39 -26 -70 -26q-27 0 -45 22t-18 49q0 39 53 74l135 86q0 168 1 311t1 312q0 65 20 96t68 31q84 0 82 -95q0 -6 -2 -262t-2 -295l70 43q28 17 45 17q24 0 45 -23q20 -21 20 -49q0 -43 -63 -82l-117 -74v-325q0 -21 8 -248q0 -88 -75 -88
q-96 0 -101 125z" />
    <glyph glyph-name="Nacute" unicode="&#x143;" horiz-adv-x="1447" 
d="M340 102q0 -58 -18 -83t-62 -25q-88 0 -88 82q0 35 0.5 103.5t1 197t0.5 237.5q0 142 -1 238t-1 238v217q0 38 30 62t74 24q27 0 52 -17q27 -18 36 -30q3 -4 8.5 -11.5t13.5 -19t15 -21.5l502 -710l217 -305q-6 178 -6 481l-4 506q0 62 16 93q17 32 70 32q50 0 65 -29
q15 -28 15 -92v-680q4 -108 4 -504q0 -41 -28 -66q-27 -24 -74 -24q-39 0 -59 19q-21 19 -60 75l-725 1034q-2 -154 2 -527q4 -368 4 -495zM696 1516q-27 -21 -47 -21q-23 0 -45 19t-22 42q0 25 18 46q3 4 13 15t29.5 32.5t37.5 42.5q84 95 113 131q29 35 59 35t56 -26
t26 -56q0 -23 -29 -52q-81 -91 -209 -208z" />
    <glyph glyph-name="nacute" unicode="&#x144;" horiz-adv-x="1132" 
d="M158 614l-4 217q0 56 19 82q19 27 69 27q43 0 58 -22q14 -22 19 -74l3 -90q39 92 130 144t197 52q168 0 258 -106q90 -107 90 -295v-268v-185q0 -55 -20 -78q-21 -24 -72 -24q-80 0 -80 78q0 69 4 201q4 129 2 227q-5 296 -219 297q-71 0 -125 -23q-55 -24 -84 -57
q-31 -36 -49 -88t-24 -105q-6 -51 -6 -116v-342q0 -76 -88 -76q-80 0 -80 76q0 54 1 106t1 164v278zM547 1126q-26 -20 -47 -20q-23 0 -45 19q-23 20 -23 42q0 23 19 45q13 16 79 91q84 95 113 131q28 34 59 34q32 0 57 -25t25 -57q0 -23 -28 -51q-86 -96 -209 -209z" />
    <glyph glyph-name="Ncommaaccent" unicode="&#x145;" horiz-adv-x="1447" 
d="M340 102q0 -58 -18 -83t-62 -25q-88 0 -88 82q0 35 0.5 103.5t1 197t0.5 237.5q0 142 -1 238t-1 238v217q0 38 30 62t74 24q27 0 52 -17q27 -18 36 -30q3 -4 8.5 -11.5t13.5 -19t15 -21.5l502 -710l217 -305q-6 178 -6 481l-4 506q0 62 16 93q17 32 70 32q50 0 65 -29
q15 -28 15 -92v-680q4 -108 4 -504q0 -41 -28 -66q-27 -24 -74 -24q-39 0 -59 19q-21 19 -60 75l-725 1034q-2 -154 2 -527q4 -368 4 -495zM616 -399q0 13 29 44q30 32 37 58q4 7 -6 18q-9 9 -24 29q-13 17 -13 41q0 37 27 63q26 25 63 25q42 0 69 -27t27 -69
q0 -112 -125 -207q-20 -14 -45 -14q-39 0 -39 39z" />
    <glyph glyph-name="ncommaaccent" unicode="&#x146;" horiz-adv-x="1132" 
d="M158 614l-4 217q0 56 19 82q19 27 69 27q43 0 58 -22q14 -22 19 -74l3 -90q39 92 130 144t197 52q168 0 258 -106q90 -107 90 -295v-268v-185q0 -55 -20 -78q-21 -24 -72 -24q-80 0 -80 78q0 69 4 201q4 129 2 227q-5 296 -219 297q-71 0 -125 -23q-55 -24 -84 -57
q-31 -36 -49 -88t-24 -105q-6 -51 -6 -116v-342q0 -76 -88 -76q-80 0 -80 76q0 54 1 106t1 164v278zM461 -399q0 15 28 44q30 32 37 58q4 7 -6 18q-5 5 -23 29q-14 19 -14 41q0 37 27 63q26 25 63 25q42 0 69 -27q28 -28 28 -69q0 -112 -125 -207q-21 -14 -45 -14
q-39 0 -39 39z" />
    <glyph glyph-name="Ncaron" unicode="&#x147;" horiz-adv-x="1447" 
d="M340 102q0 -58 -18 -83t-62 -25q-88 0 -88 82q0 35 0.5 103.5t1 197t0.5 237.5q0 142 -1 238t-1 238v217q0 38 30 62t74 24q27 0 52 -17q27 -18 36 -30q3 -4 8.5 -11.5t13.5 -19t15 -21.5l502 -710l217 -305q-6 178 -6 481l-4 506q0 62 16 93q17 32 70 32q50 0 65 -29
q15 -28 15 -92v-680q4 -108 4 -504q0 -41 -28 -66q-27 -24 -74 -24q-39 0 -59 19q-21 19 -60 75l-725 1034q-2 -154 2 -527q4 -368 4 -495zM510 1825q22 0 47 -25q57 -56 168 -172q37 36 77 80q54 58 60 64q20 20 35 32q22 19 47 19q18 0 38 -20q19 -19 19 -38
q0 -22 -22 -51l-178 -196q-30 -37 -76 -37q-41 0 -70 32l-178 201q-26 33 -26 55q0 19 18 37q19 19 41 19z" />
    <glyph glyph-name="ncaron" unicode="&#x148;" horiz-adv-x="1132" 
d="M158 614l-4 217q0 56 19 82q19 27 69 27q43 0 58 -22q14 -22 19 -74l3 -90q39 92 130 144t197 52q168 0 258 -106q90 -107 90 -295v-268v-185q0 -55 -20 -78q-21 -24 -72 -24q-80 0 -80 78q0 69 4 201q4 129 2 227q-5 296 -219 297q-71 0 -125 -23q-55 -24 -84 -57
q-31 -36 -49 -88t-24 -105q-6 -51 -6 -116v-342q0 -76 -88 -76q-80 0 -80 76q0 54 1 106t1 164v278zM360 1436q23 0 48 -25q44 -43 167 -172q37 36 77 80q27 29 61 63q25 25 35 33q24 19 47 19q18 0 38 -20q19 -19 19 -38q0 -20 -23 -51l-178 -197q-29 -36 -76 -36
q-40 0 -69 32l-178 201q-27 35 -27 55q0 19 18 37q19 19 41 19z" />
    <glyph glyph-name="napostrophe" unicode="&#x149;" horiz-adv-x="1132" 
d="M104 1284h-2q-28 1 -57 27q-27 24 -27 65q0 44 31 77q30 32 76 32q53 0 86 -38t33 -101q0 -68 -43 -136t-107 -106q-29 -10 -33 -10q-18 0 -32 13q-15 13 -15 32q0 25 21 41q69 50 69 96v8zM158 614l-4 217q0 56 19 82q19 27 69 27q43 0 58 -22q14 -22 19 -74l3 -90
q39 92 130 144t197 52q168 0 258 -106q90 -107 90 -295v-268v-185q0 -55 -20 -78q-21 -24 -72 -24q-80 0 -80 78q0 69 4 201q4 129 2 227q-5 296 -219 297q-71 0 -125 -23q-55 -24 -84 -57q-31 -36 -49 -88t-24 -105q-6 -51 -6 -116v-342q0 -76 -88 -76q-80 0 -80 76
q0 54 1 106t1 164v278z" />
    <glyph glyph-name="Eng" unicode="&#x14a;" horiz-adv-x="1447" 
d="M340 102q0 -58 -18 -83t-62 -25q-88 0 -88 82q0 35 0.5 103.5t1 197t0.5 237.5q0 142 -1 238t-1 238v217q0 38 30 62t74 24q27 0 52 -17q27 -18 36 -30q3 -4 8.5 -11.5t13.5 -19t15 -21.5l502 -710l213 -305l-2 481l-4 506q0 62 16 93q17 32 70 32q50 0 65 -29
q15 -28 15 -92v-1397q0 -149 -79 -250q-79 -102 -216 -102q-174 0 -174 86q0 39 19 62q20 24 46 24q22 0 50 -7q32 -8 59 -8q135 0 135 222v114l-782 1110q-2 -154 2 -527q4 -368 4 -495z" />
    <glyph glyph-name="eng" unicode="&#x14b;" horiz-adv-x="1132" 
d="M831 500q0 296 -219 297q-71 0 -125 -23q-55 -24 -84 -57q-31 -36 -49 -88t-24 -105q-6 -51 -6 -116v-342q0 -76 -88 -76q-80 0 -80 76q0 54 1 106t1 164v278l-4 217q0 56 19 82q19 27 69 27q43 0 58 -22q14 -22 19 -74l3 -90q39 92 130 144t197 52q168 0 258 -106
q90 -107 90 -295v-703q0 -142 -90 -231t-229 -90q-170 0 -170 88q0 38 18 62t45 24q21 0 52 -7t61 -7q71 2 108 57q38 56 39 149v609z" />
    <glyph glyph-name="Omacron" unicode="&#x14c;" horiz-adv-x="1527" 
d="M774 1405q272 0 466 -197t194 -495q0 -307 -190 -520q-189 -211 -478 -211q-172 0 -320 80t-245 239t-97 358q0 165 58 312q56 141 152 237q94 94 215 147q118 52 245 50zM1266 707q-1 234 -156 387q-152 151 -358 151q-192 0 -336 -162t-144 -403q0 -236 148 -387
q147 -150 360 -150q203 0 345 169q143 170 141 395zM557 1599q-74 0 -74 70q0 74 97 74q44 0 82 -1t86 -1q23 0 125 2q19 0 43.5 0.5t37 1t19.5 0.5q73 0 78 -66q0 -77 -103 -77q-52 0 -99 1t-108 1q-15 0 -99 -2q-22 -1 -50 -2t-35 -1z" />
    <glyph glyph-name="omacron" unicode="&#x14d;" 
d="M602 952q37 0 51 -14q183 -27 279 -165t96 -310q0 -208 -140 -344q-142 -137 -347 -137q-186 0 -319 127q-134 128 -134 325q0 230 140 373q141 144 374 145zM858 469q0 139 -79 230q-80 93 -224 100q-134 -7 -217 -106q-82 -97 -82 -263q0 -127 86 -211t195 -84
q131 0 226 92t95 242zM346 1210q-74 0 -74 70q0 74 97 74q44 0 82 -1t86 -1q24 0 126 2q20 0 43.5 0.5t36 1t19.5 0.5q74 0 78 -66q0 -78 -103 -78q-52 0 -99 1t-108 1q-15 0 -99 -2t-85 -2z" />
    <glyph glyph-name="Obreve" unicode="&#x14e;" horiz-adv-x="1527" 
d="M774 1405q272 0 466 -197t194 -495q0 -307 -190 -520q-189 -211 -478 -211q-172 0 -320 80t-245 239t-97 358q0 165 58 312q56 141 152 237q94 94 215 147q118 52 245 50zM1266 707q-1 234 -156 387q-152 151 -358 151q-192 0 -336 -162t-144 -403q0 -236 148 -387
q147 -150 360 -150q203 0 345 169q143 170 141 395zM973 1800q27 0 43 -17t16 -42q0 -107 -76 -183q-77 -77 -190 -77q-106 0 -185 72t-81 176q0 32 16 49q16 18 45 18q25 0 40 -15t20 -38q5 -65 43 -102t104 -37q62 0 103 42q40 41 40 99q4 55 62 55z" />
    <glyph glyph-name="obreve" unicode="&#x14f;" 
d="M602 952q37 0 51 -14q183 -27 279 -165t96 -310q0 -208 -140 -344q-142 -137 -347 -137q-186 0 -319 127q-134 128 -134 325q0 230 140 373q141 144 374 145zM858 469q0 139 -79 230q-80 93 -224 100q-134 -7 -217 -106q-82 -97 -82 -263q0 -127 86 -211t195 -84
q131 0 226 92t95 242zM762 1411q27 0 43 -17t16 -42q0 -108 -76 -184t-190 -76q-105 0 -185 72q-79 72 -81 175q0 33 16 50q17 18 45 18q25 0 40 -15q16 -16 20 -38q5 -65 43 -102q40 -38 104 -38q63 0 103 42q40 41 40 100q4 55 62 55z" />
    <glyph glyph-name="Ohungarumlaut" unicode="&#x150;" horiz-adv-x="1527" 
d="M774 1405q272 0 466 -197t194 -495q0 -307 -190 -520q-189 -211 -478 -211q-172 0 -320 80t-245 239t-97 358q0 165 58 312q56 141 152 237q94 94 215 147q118 52 245 50zM1266 707q-1 234 -156 387q-152 151 -358 151q-192 0 -336 -162t-144 -403q0 -236 148 -387
q147 -150 360 -150q203 0 345 169q143 170 141 395zM829 1716l-170 -209q-22 -28 -47 -28t-42 16t-17 41q0 26 14 41l146 219q24 39 59 39q31 0 53 -19q23 -20 23 -51q0 -19 -19 -49zM1147 1706l-184 -213q-25 -25 -43 -25q-23 0 -44 16q-20 15 -20 42q0 19 14 41l162 219
q24 41 58 41q29 0 53 -18t24 -46q0 -31 -20 -57z" />
    <glyph glyph-name="ohungarumlaut" unicode="&#x151;" 
d="M602 952q37 0 51 -14q183 -27 279 -165t96 -310q0 -208 -140 -344q-142 -137 -347 -137q-186 0 -319 127q-134 128 -134 325q0 230 140 373q141 144 374 145zM858 469q0 139 -79 230q-80 93 -224 100q-134 -7 -217 -106q-82 -97 -82 -263q0 -127 86 -211t195 -84
q131 0 226 92t95 242zM596 1327l-170 -209q-22 -28 -47 -28t-42 16q-18 16 -18 41t15 41l145 219q24 39 60 39q30 0 53 -20q22 -19 22 -50q0 -20 -18 -49zM913 1317l-184 -213q-25 -25 -43 -25q-23 0 -44 16q-19 15 -19 42q0 19 14 41l162 219q24 41 57 41q29 0 53 -18
q25 -19 25 -46q0 -30 -21 -57z" />
    <glyph glyph-name="OE" unicode="&#x152;" horiz-adv-x="2193" 
d="M780 1405q170 0 302 -70q129 -68 208 -188v117q4 66 32 97q27 30 99 30q2 0 142 -2q35 0 253 2l218 2q84 0 84 -74q0 -80 -80 -80h-582q-4 -156 -4 -246v-241h102h392q43 -4 62 -19q18 -14 17 -51q0 -37 -18 -55q-19 -19 -68 -19q-115 0 -253 -1t-234 -1q-2 -16 -2 -37
v-417q70 0 269 3t311 3q84 0 84 -76q0 -86 -105 -86q-127 0 -261 1t-280 1q-111 -1 -143 28q-33 30 -37 124q-2 36 -2 114q-186 -282 -516 -282q-270 0 -467 188q-199 190 -199 489q0 168 59 313q59 144 153 237q95 94 216 146q119 52 248 50zM1294 723q-1 240 -154 382
q-152 142 -376 142q-196 0 -343 -162t-147 -403q0 -238 152 -388q153 -151 369 -151q225 0 362 170t137 410z" />
    <glyph glyph-name="oe" unicode="&#x153;" horiz-adv-x="1746" 
d="M618 936q104 -12 183 -69q81 -58 123 -144q49 99 147 161q97 62 209 62q171 0 284 -113t113 -264q0 -82 -25 -110q-26 -30 -126 -31q-98 -4 -312 -7q-191 -3 -208 -3q6 -110 84 -193q78 -82 194 -82q85 0 178 46q96 47 115 47q27 0 48 -27q22 -28 22 -57q0 -37 -56 -76
q-116 -88 -321 -88q-112 0 -207 61q-97 62 -148 158q-61 -104 -160 -162q-100 -59 -233 -59q-179 0 -312 130q-134 131 -134 322q0 225 140 368q141 144 355 144q32 0 47 -14zM838 469q0 141 -78 231q-79 92 -219 99q-134 -7 -215 -104q-80 -95 -80 -259q0 -127 86 -213
t192 -86q134 0 224 90t90 242zM1286 805q-112 0 -191 -81q-78 -80 -89 -187q454 0 518 20q0 109 -69 178q-70 70 -169 70z" />
    <glyph glyph-name="Racute" unicode="&#x154;" horiz-adv-x="1239" 
d="M182 1278q0 106 140 111q109 4 200 4q105 0 150 -4q198 -12 315 -123t117 -295q0 -151 -79 -255q-81 -107 -210 -141l318 -440q28 -38 28 -61q0 -34 -26 -57t-64 -25q-37 0 -74 43l-344 497h-305q0 -115 1 -222t1 -214q0 -99 -76 -100q-55 0 -74 23q-20 25 -20 79
q4 113 4 961q0 59 -1 109t-1 110zM602 1243q-174 0 -256 -2l2 -561h246q156 0 249 69q94 69 95 220q0 132 -89 203t-247 71zM582 1516q-27 -21 -47 -21q-23 0 -46 20q-22 19 -22 41q0 25 18 46q3 4 13 15t29.5 32.5t37.5 42.5q84 95 113 131q29 35 59 35q31 0 57 -26
q25 -25 25 -56q0 -24 -28 -52q-81 -91 -209 -208z" />
    <glyph glyph-name="racute" unicode="&#x155;" horiz-adv-x="731" 
d="M164 854q-2 84 84 84q63 0 69 -68l5 -143q50 109 133 164t170 55q94 0 94 -80q0 -33 -20 -58q-19 -24 -56 -24h-39q-114 0 -195 -100t-81 -252v-362q0 -78 -86 -78q-46 0 -65 24q-19 23 -17 86q0 65 4 238t4 283q0 7 -2 113t-2 118zM408 1126q-26 -20 -48 -20
q-23 0 -45 19t-22 42q0 24 18 45q3 4 80 91q84 95 113 131q28 34 59 34q32 0 57 -25t25 -57q0 -22 -29 -51q-90 -101 -208 -209z" />
    <glyph glyph-name="Rcommaaccent" unicode="&#x156;" horiz-adv-x="1239" 
d="M182 1278q0 106 140 111q109 4 200 4q105 0 150 -4q198 -12 315 -123t117 -295q0 -151 -79 -255q-81 -107 -210 -141l318 -440q28 -38 28 -61q0 -34 -26 -57t-64 -25q-37 0 -74 43l-344 497h-305q0 -115 1 -222t1 -214q0 -99 -76 -100q-55 0 -74 23q-20 25 -20 79
q4 113 4 961q0 59 -1 109t-1 110zM602 1243q-174 0 -256 -2l2 -561h246q156 0 249 69q94 69 95 220q0 132 -89 203t-247 71zM537 -399q0 15 28 44q30 32 37 58q4 7 -6 18q-9 9 -24 29q-13 17 -13 41q0 37 26 63q25 25 64 25q42 0 69 -27t27 -69q0 -113 -124 -207
q-21 -14 -46 -14q-38 0 -38 39z" />
    <glyph glyph-name="rcommaaccent" unicode="&#x157;" horiz-adv-x="731" 
d="M164 854q-2 84 84 84q63 0 69 -68l5 -143q50 109 133 164t170 55q94 0 94 -80q0 -33 -20 -58q-19 -24 -56 -24h-39q-114 0 -195 -100t-81 -252v-362q0 -78 -86 -78q-46 0 -65 24q-19 23 -17 86q0 65 4 238t4 283q0 7 -2 113t-2 118zM127 -399q0 13 29 44q30 32 37 58
q4 7 -7 18q-5 5 -23 29q-14 19 -14 41q0 37 26 63q25 25 65 25q41 0 68 -27q28 -28 28 -69q0 -112 -125 -207q-21 -14 -45 -14q-39 0 -39 39z" />
    <glyph glyph-name="Rcaron" unicode="&#x158;" horiz-adv-x="1239" 
d="M182 1278q0 106 140 111q109 4 200 4q105 0 150 -4q198 -12 315 -123t117 -295q0 -151 -79 -255q-81 -107 -210 -141l318 -440q28 -38 28 -61q0 -34 -26 -57t-64 -25q-37 0 -74 43l-344 497h-305q0 -115 1 -222t1 -214q0 -99 -76 -100q-55 0 -74 23q-20 25 -20 79
q4 113 4 961q0 59 -1 109t-1 110zM602 1243q-174 0 -256 -2l2 -561h246q156 0 249 69q94 69 95 220q0 132 -89 203t-247 71zM395 1825q22 0 47 -25q57 -56 168 -172q36 36 77 80q40 43 61 64q24 24 34 32q22 19 47 19q18 0 38 -20t20 -38q0 -20 -23 -51l-178 -196
q-30 -37 -76 -37q-40 0 -69 32l-179 201q-26 33 -26 55q0 19 18 37q19 19 41 19z" />
    <glyph glyph-name="rcaron" unicode="&#x159;" horiz-adv-x="731" 
d="M164 854q-2 84 84 84q63 0 69 -68l5 -143q50 109 133 164t170 55q94 0 94 -80q0 -33 -20 -58q-19 -24 -56 -24h-39q-114 0 -195 -100t-81 -252v-362q0 -78 -86 -78q-46 0 -65 24q-19 23 -17 86q0 65 4 238t4 283q0 7 -2 113t-2 118zM221 1436q22 0 47 -25
q57 -56 168 -172q36 36 77 80q40 43 60 63q25 25 35 33q24 19 47 19q18 0 38 -20t20 -38q0 -20 -23 -51l-178 -197q-29 -36 -76 -36q-40 0 -69 32l-179 201q-26 33 -26 55q0 19 18 37q19 19 41 19z" />
    <glyph glyph-name="Sacute" unicode="&#x15a;" horiz-adv-x="1153" 
d="M954 1329q56 -27 56 -82q0 -28 -22 -53t-54 -25q-30 0 -76 23q-128 57 -262 57q-125 0 -212 -69t-87 -176q0 -38 9 -66q9 -29 38 -50l45 -34q16 -12 68 -27q15 -4 29 -8t24.5 -6.5t13.5 -3.5q4 -1 15 -3.5t29 -6.5l36 -8q83 -19 176 -50q76 -25 139 -67q65 -43 100 -111
q34 -67 34 -157q0 -190 -135 -305q-134 -115 -355 -115q-213 -1 -379 84q-75 34 -75 90q0 35 22 61q23 27 55 27q27 0 72 -21q155 -82 303 -82q139 0 230 68q90 67 90 182q0 110 -85 162q-89 55 -241 84q-92 18 -159 41q-70 24 -133 61q-67 39 -101 102q-35 64 -35 146
q0 177 143 295q145 119 334 119q195 0 350 -76zM569 1516q-27 -21 -47 -21q-23 0 -45 19t-22 42q0 25 18 46q3 4 13 15t29.5 32.5t37.5 42.5q84 95 113 131q29 35 59 35t56 -26t26 -56q0 -23 -29 -52q-81 -91 -209 -208z" />
    <glyph glyph-name="sacute" unicode="&#x15b;" horiz-adv-x="929" 
d="M481 946q166 0 271 -49q55 -28 55 -66q0 -75 -70 -75q-18 0 -96 25q-81 26 -164 26q-82 0 -143 -41q-60 -40 -60 -104q0 -31 14 -51q13 -19 48 -31q38 -13 57 -17q23 -5 78 -12q2 0 29 -4q162 -21 250 -80q90 -60 90 -188q0 -138 -104 -216q-102 -77 -271 -77
q-125 0 -244 38q-117 37 -117 85q0 86 72 86q15 0 116 -32t185 -32q87 0 146 37t59 102q0 68 -53 97q-54 29 -170 47q-64 8 -100 15q-35 7 -89 26q-51 18 -81 42t-51 64q-21 41 -21 94q0 126 110 208q112 83 254 83zM457 1126q-26 -20 -47 -20q-23 0 -45 19q-23 20 -23 42
q0 24 18 45q3 4 80 91q84 95 113 131q28 34 59 34q32 0 57 -25t25 -57q0 -23 -28 -51q-86 -96 -209 -209z" />
    <glyph glyph-name="Scircumflex" unicode="&#x15c;" horiz-adv-x="1153" 
d="M954 1329q56 -27 56 -82q0 -28 -22 -53t-54 -25q-30 0 -76 23q-128 57 -262 57q-125 0 -212 -69t-87 -176q0 -38 9 -66q9 -29 38 -50l45 -34q16 -12 68 -27q15 -4 29 -8t24.5 -6.5t13.5 -3.5q4 -1 15 -3.5t29 -6.5l36 -8q83 -19 176 -50q76 -25 139 -67q65 -43 100 -111
q34 -67 34 -157q0 -190 -135 -305q-134 -115 -355 -115q-213 -1 -379 84q-75 34 -75 90q0 35 22 61q23 27 55 27q27 0 72 -21q155 -82 303 -82q139 0 230 68q90 67 90 182q0 110 -85 162q-89 55 -241 84q-92 18 -159 41q-70 24 -133 61q-67 39 -101 102q-35 64 -35 146
q0 177 143 295q145 119 334 119q195 0 350 -76zM815 1483q-11 0 -49 24l-168 172q-150 -158 -170 -176q-22 -18 -47 -18q-19 0 -38 18t-19 39q0 25 22 51l176 197q30 37 78 37q40 0 70 -33l178 -201q26 -33 26 -53q0 -18 -18 -38q-18 -19 -41 -19z" />
    <glyph glyph-name="scircumflex" unicode="&#x15d;" horiz-adv-x="929" 
d="M481 946q166 0 271 -49q55 -28 55 -66q0 -75 -70 -75q-18 0 -96 25q-81 26 -164 26q-82 0 -143 -41q-60 -40 -60 -104q0 -31 14 -51q13 -19 48 -31q38 -13 57 -17q23 -5 78 -12q2 0 29 -4q162 -21 250 -80q90 -60 90 -188q0 -138 -104 -216q-102 -77 -271 -77
q-125 0 -244 38q-117 37 -117 85q0 86 72 86q15 0 116 -32t185 -32q87 0 146 37t59 102q0 68 -53 97q-54 29 -170 47q-64 8 -100 15q-35 7 -89 26q-51 18 -81 42t-51 64q-21 41 -21 94q0 126 110 208q112 83 254 83zM702 1094q-12 0 -49 24l-168 172q-150 -158 -170 -176
q-21 -18 -47 -18q-18 0 -38 18q-19 18 -19 39q0 25 22 51l177 197q30 37 77 37q40 0 70 -33l178 -201q27 -34 27 -53q0 -17 -19 -38q-18 -19 -41 -19z" />
    <glyph glyph-name="Scedilla" unicode="&#x15e;" horiz-adv-x="1153" 
d="M485 -111l43 97q-199 6 -344 84q-75 34 -75 90q0 35 22 61q23 27 55 27q27 0 72 -21q155 -82 303 -82q139 0 230 68q90 67 90 182q0 110 -85 162q-89 55 -241 84q-92 18 -159 41q-70 24 -133 61q-67 39 -101 102q-35 64 -35 146q0 177 143 295q145 119 334 119
q195 0 350 -76q56 -27 56 -82q0 -28 -22 -53t-54 -25q-30 0 -76 23q-128 57 -262 57q-125 0 -212 -69t-87 -176q0 -38 9 -66q9 -29 38 -50l45 -34q16 -12 68 -27q15 -4 29 -8t24.5 -6.5t13.5 -3.5q4 -1 15 -3.5t29 -6.5l36 -8q83 -19 176 -50q76 -25 139 -67
q65 -43 100 -111q34 -67 34 -157q0 -172 -115 -285t-303 -131l-31 -96q59 0 111 -41q51 -40 51 -121q0 -90 -57 -143q-56 -52 -146 -52q-55 0 -108 27q-45 27 -45 63q0 21 16 36t37 15q13 0 47 -15t63 -15q78 0 78 80q0 69 -92 69h-24q-30 2 -45 32q-15 31 -5 60z" />
    <glyph glyph-name="scedilla" unicode="&#x15f;" horiz-adv-x="929" 
d="M371 -111l43 99q-116 7 -214 43q-96 35 -96 78q0 86 72 86q15 0 116 -32t185 -32q87 0 146 37t59 102q0 68 -53 97q-54 29 -170 47q-64 8 -100 15q-35 7 -89 26q-51 18 -81 42t-51 64q-21 41 -21 94q0 126 110 208q112 83 254 83q166 0 271 -49q55 -28 55 -66
q0 -75 -70 -75q-18 0 -96 25q-81 26 -164 26q-82 0 -143 -41q-60 -40 -60 -104q0 -31 14 -51q13 -19 48 -31q38 -13 57 -17q23 -5 78 -12q2 0 29 -4q162 -21 250 -80q90 -60 90 -188q0 -127 -88 -203q-87 -75 -234 -86l-31 -96q61 0 113 -41q51 -40 51 -121q0 -90 -57 -143
q-56 -52 -145 -52q-57 0 -109 27q-45 22 -45 57q0 23 16 40t37 17q12 0 47 -15t64 -15q78 0 78 80q0 69 -93 69h-24q-29 2 -44 32q-15 31 -5 60z" />
    <glyph glyph-name="Scaron" unicode="&#x160;" horiz-adv-x="1153" 
d="M954 1329q56 -27 56 -82q0 -28 -22 -53t-54 -25q-30 0 -76 23q-128 57 -262 57q-125 0 -212 -69t-87 -176q0 -38 9 -66q9 -29 38 -50l45 -34q16 -12 68 -27q15 -4 29 -8t24.5 -6.5t13.5 -3.5q4 -1 15 -3.5t29 -6.5l36 -8q83 -19 176 -50q76 -25 139 -67q65 -43 100 -111
q34 -67 34 -157q0 -190 -135 -305q-134 -115 -355 -115q-213 -1 -379 84q-75 34 -75 90q0 35 22 61q23 27 55 27q27 0 72 -21q155 -82 303 -82q139 0 230 68q90 67 90 182q0 110 -85 162q-89 55 -241 84q-92 18 -159 41q-70 24 -133 61q-67 39 -101 102q-35 64 -35 146
q0 177 143 295q145 119 334 119q195 0 350 -76zM383 1825q22 0 47 -25q57 -56 168 -172q37 36 77 80q54 58 60 64q20 20 35 32q22 19 47 19q18 0 38 -20q19 -19 19 -38q0 -22 -22 -51l-178 -196q-30 -37 -76 -37q-41 0 -70 32l-178 201q-26 33 -26 55q0 19 18 37
q19 19 41 19z" />
    <glyph glyph-name="scaron" unicode="&#x161;" horiz-adv-x="929" 
d="M481 946q166 0 271 -49q55 -28 55 -66q0 -75 -70 -75q-18 0 -96 25q-81 26 -164 26q-82 0 -143 -41q-60 -40 -60 -104q0 -31 14 -51q13 -19 48 -31q38 -13 57 -17q23 -5 78 -12q2 0 29 -4q162 -21 250 -80q90 -60 90 -188q0 -138 -104 -216q-102 -77 -271 -77
q-125 0 -244 38q-117 37 -117 85q0 86 72 86q15 0 116 -32t185 -32q87 0 146 37t59 102q0 68 -53 97q-54 29 -170 47q-64 8 -100 15q-35 7 -89 26q-51 18 -81 42t-51 64q-21 41 -21 94q0 126 110 208q112 83 254 83zM270 1436q22 0 47 -25q57 -56 168 -172q36 36 77 80
q27 29 61 63q29 29 34 33q24 19 48 19q17 0 37 -20t20 -38q0 -20 -23 -51l-178 -197q-29 -36 -76 -36q-40 0 -69 32l-178 201q-27 35 -27 55q0 19 18 37q19 19 41 19z" />
    <glyph glyph-name="uni0162" unicode="&#x162;" horiz-adv-x="1165" 
d="M592 1389q15 0 45.5 0.5t87.5 1t105 0.5q52 0 103.5 0.5t77 1t33.5 0.5q89 0 89 -72q0 -45 -23 -65q-22 -19 -74 -19h-370v-123q0 -131 1 -207l3 -342q0 -72 1.5 -229t2.5 -242q0 -81 -53 -98l-33 -102q58 0 110 -41t52 -121q0 -90 -57 -143q-56 -52 -144 -52
q-54 0 -111 27q-45 27 -45 63q0 21 17 36q16 15 39 15q11 0 46 -15t62 -15q78 0 78 80q0 69 -90 69h-25q-30 2 -44 32t-3 60l53 127q-24 18 -24 70l2 770q0 106 -1 190t-1 191q-137 0 -393 -2q-76 0 -76 78t80 78q32 0 64 -1t154 -1h261z" />
    <glyph glyph-name="uni0163" unicode="&#x163;" horiz-adv-x="731" 
d="M100 780q-71 0 -71 72q0 76 80 76h127l2 168q0 116 90 116q40 0 55 -21q14 -20 14 -71q0 -83 -4 -192l207 2q76 0 76 -74t-76 -74h-205v-405q0 -123 29 -181q28 -57 102 -57q30 0 58 9q32 10 43 10q28 0 46 -23q17 -21 17 -51q0 -51 -41 -72q-51 -24 -137 -24l-35 -94
q59 0 111 -41q51 -40 51 -121q0 -90 -57 -143q-56 -52 -146 -52q-56 0 -108 27q-45 27 -45 63q0 21 16 36t37 15q12 0 47 -15t63 -15q78 0 78 80q0 69 -92 69h-24q-29 2 -44 32q-16 32 -6 60l50 111q-177 51 -177 348q0 21 2 217q0 48 1.5 120t1.5 95h-136z" />
    <glyph glyph-name="Tcaron" unicode="&#x164;" horiz-adv-x="1165" 
d="M592 1389q15 0 45.5 0.5t87.5 1t105 0.5q52 0 103.5 0.5t77 1t33.5 0.5q89 0 89 -72q0 -45 -23 -65q-22 -19 -74 -19h-370v-123q0 -131 1 -207l3 -342q0 -72 1.5 -229t2.5 -242q0 -100 -92 -100q-42 0 -61 20t-19 72l2 770q0 106 -1 190t-1 191q-137 0 -393 -2
q-76 0 -76 78t80 78q32 0 64 -1t154 -1h261zM367 1825q22 0 47 -25q57 -56 168 -172q22 22 76 80q40 43 61 64q20 20 35 32q22 19 47 19q18 0 38 -20q19 -19 19 -38q0 -22 -22 -51l-179 -196q-30 -37 -75 -37q-41 0 -70 32l-178 201q-27 35 -27 55q0 18 19 37t41 19z" />
    <glyph glyph-name="tcaron" unicode="&#x165;" horiz-adv-x="964" 
d="M817 1233h-2q-29 1 -56 27q-27 25 -28 65q0 44 31 77q30 32 76 32q55 0 88 -38q32 -36 32 -102q0 -65 -44 -135q-43 -68 -107 -106q-31 -11 -33 -11q-17 0 -33 14q-14 13 -14 31q0 25 21 41q69 46 69 97v8zM100 780q-71 0 -71 72q0 76 80 76h127l2 168q0 116 90 116
q40 0 55 -21q14 -20 14 -71q0 -83 -4 -192l207 2q76 0 76 -74t-76 -74h-205v-405q0 -123 29 -181q28 -57 102 -57q30 0 58 9q32 10 43 10q28 0 46 -23q17 -21 17 -51q0 -51 -41 -72q-51 -24 -131 -24q-149 0 -218 85q-69 86 -69 275q0 21 2 217q0 48 1.5 120t1.5 95h-136z
" />
    <glyph glyph-name="Tbar" unicode="&#x166;" horiz-adv-x="1157" 
d="M588 1389q15 0 45.5 0.5t87 1t103.5 0.5q51 0 102 0.5t76.5 1t33.5 0.5q88 0 88 -72q0 -84 -96 -84h-364v-492h204q76 0 76 -71q0 -39 -19 -57q-18 -17 -69 -17h-192l4 -506q0 -100 -90 -100q-42 0 -61 20t-19 72l2 514h-205q-78 0 -78 70q0 75 90 75h193l-2 492
q-133 0 -389 -2q-76 0 -76 80q0 34 20 54q22 22 60 22q32 0 63 -1t152 -1h260z" />
    <glyph glyph-name="tbar" unicode="&#x167;" horiz-adv-x="731" 
d="M100 780q-71 0 -71 72q0 76 80 76h127l2 168q0 116 90 116q40 0 55 -21q14 -20 14 -71q0 -83 -4 -192l207 2q76 0 76 -74t-76 -74h-205v-229l176 2q78 0 78 -63q0 -70 -90 -70h-164v-55q0 -123 29 -176q28 -52 102 -52q30 0 58 9q32 10 43 10q28 0 46 -23q17 -21 17 -51
q0 -51 -41 -72q-51 -24 -131 -24q-147 0 -215 83q-67 82 -67 271v78h-115q-70 0 -70 63q0 70 84 70h98v227h-133z" />
    <glyph glyph-name="Utilde" unicode="&#x168;" horiz-adv-x="1396" 
d="M168 563q0 238 1 410t1 317q0 94 80 94q46 0 67 -21t21 -67q-2 -136 -2 -733q0 -211 96 -313q97 -103 273 -103q158 0 260 117q103 118 104 299q2 122 -1 384q-3 282 -3 362q0 82 86 82q84 0 84 -101l2 -672q2 -299 -143 -464q-145 -166 -408 -166q-242 0 -380 150
t-138 425zM522 1587q-8 -47 -63 -47q-28 0 -45 20q-16 19 -15 52q4 74 55 122q49 46 128 46q53 0 98 -31q34 -23 79 -61q38 -32 75 -33q54 0 59 80q1 21 21 35t40 14q23 0 42 -17q18 -17 18 -41q0 -96 -48 -144t-128 -48q-43 1 -82 20q-37 18 -59 40q-23 24 -51 40
q-33 20 -58 21q-61 0 -66 -68z" />
    <glyph glyph-name="utilde" unicode="&#x169;" horiz-adv-x="1146" 
d="M238 936q73 0 73 -86q0 -19 -2 -193t-2 -215q0 -134 52 -220q52 -87 167 -87q161 0 227 110t66 308l2 293q0 43 25 68q24 24 63 24q84 0 84 -90v-4q0 -4 -0.5 -11.5t-0.5 -17.5t-0.5 -25.5t-0.5 -31.5l-3 -177q-1 -54 1 -210q0 -160 12 -301q0 -74 -81 -74q-68 0 -80 67
q-4 70 -4 81q0 15 -0.5 29t-1 21t-0.5 9q-100 -219 -328 -219q-184 0 -274 117q-91 118 -91 319q0 107 1 211t1 209q0 96 95 96zM385 1198q-8 -47 -63 -47q-30 0 -46 19q-16 18 -14 53q4 75 54 122q49 46 128 46q54 0 99 -31q27 -18 79 -62q37 -31 74 -32q55 0 60 80
q1 21 21 35t40 14q23 0 42 -17q18 -17 18 -41q0 -95 -49 -144q-48 -48 -128 -48q-43 1 -82 20q-35 17 -58 40q-24 23 -51 40q-33 20 -58 21q-61 0 -66 -68z" />
    <glyph glyph-name="Umacron" unicode="&#x16a;" horiz-adv-x="1396" 
d="M168 563q0 238 1 410t1 317q0 94 80 94q46 0 67 -21t21 -67q-2 -136 -2 -733q0 -211 96 -313q97 -103 273 -103q158 0 260 117q103 118 104 299q2 122 -1 384q-3 282 -3 362q0 82 86 82q84 0 84 -101l2 -672q2 -299 -143 -464q-145 -166 -408 -166q-242 0 -380 150
t-138 425zM500 1599q-74 0 -74 70q0 74 96 74q44 0 82 -1t86 -1q24 0 126 2q20 0 43.5 0.5t36 1t19.5 0.5q73 0 78 -66q0 -77 -102 -77q-52 0 -99 1t-108 1q-15 0 -99 -2q-22 -1 -50 -2t-35 -1z" />
    <glyph glyph-name="umacron" unicode="&#x16b;" horiz-adv-x="1146" 
d="M238 936q73 0 73 -86q0 -19 -2 -193t-2 -215q0 -134 52 -220q52 -87 167 -87q161 0 227 110t66 308l2 293q0 43 25 68q24 24 63 24q84 0 84 -90v-4q0 -4 -0.5 -11.5t-0.5 -17.5t-0.5 -25.5t-0.5 -31.5l-3 -177q-1 -54 1 -210q0 -160 12 -301q0 -74 -81 -74q-68 0 -80 67
q-4 70 -4 81q0 15 -0.5 29t-1 21t-0.5 9q-100 -219 -328 -219q-184 0 -274 117q-91 118 -91 319q0 107 1 211t1 209q0 96 95 96zM362 1210q-73 0 -73 70q0 74 96 74q44 0 82 -1t86 -1q24 0 126 2q20 0 43.5 0.5t36 1t19.5 0.5q74 0 78 -66q0 -78 -102 -78q-53 0 -100 1
t-107 1q-16 0 -100 -2t-85 -2z" />
    <glyph glyph-name="Ubreve" unicode="&#x16c;" horiz-adv-x="1396" 
d="M168 563q0 238 1 410t1 317q0 94 80 94q46 0 67 -21t21 -67q-2 -136 -2 -733q0 -211 96 -313q97 -103 273 -103q158 0 260 117q103 118 104 299q2 122 -1 384q-3 282 -3 362q0 82 86 82q84 0 84 -101l2 -672q2 -299 -143 -464q-145 -166 -408 -166q-242 0 -380 150
t-138 425zM918 1800q27 0 43 -17t16 -42q0 -107 -76 -183q-77 -77 -190 -77q-107 0 -186 72t-81 176q0 30 17 49q17 18 45 18q25 0 40 -15q14 -14 19 -38q5 -65 43 -102t105 -37q63 0 103 42q40 41 40 99q4 55 62 55z" />
    <glyph glyph-name="ubreve" unicode="&#x16d;" horiz-adv-x="1146" 
d="M238 936q73 0 73 -86q0 -19 -2 -193t-2 -215q0 -134 52 -220q52 -87 167 -87q161 0 227 110t66 308l2 293q0 43 25 68q24 24 63 24q84 0 84 -90v-4q0 -4 -0.5 -11.5t-0.5 -17.5t-0.5 -25.5t-0.5 -31.5l-3 -177q-1 -54 1 -210q0 -160 12 -301q0 -74 -81 -74q-68 0 -80 67
q-4 70 -4 81q0 15 -0.5 29t-1 21t-0.5 9q-100 -219 -328 -219q-184 0 -274 117q-91 118 -91 319q0 107 1 211t1 209q0 96 95 96zM780 1411q27 0 43 -17q17 -19 17 -42q0 -108 -76 -184t-191 -76q-105 0 -185 72q-79 72 -81 175q0 31 17 50q16 18 45 18q25 0 40 -15
q14 -14 19 -38q5 -65 43 -102q40 -38 104 -38q63 0 104 42q40 41 40 100q4 55 61 55z" />
    <glyph glyph-name="Uring" unicode="&#x16e;" horiz-adv-x="1396" 
d="M168 563q0 238 1 410t1 317q0 94 80 94q46 0 67 -21t21 -67q-2 -136 -2 -733q0 -211 96 -313q97 -103 273 -103q158 0 260 117q103 118 104 299q2 122 -1 384q-3 282 -3 362q0 82 86 82q84 0 84 -101l2 -672q2 -299 -143 -464q-145 -166 -408 -166q-242 0 -380 150
t-138 425zM707 1847q93 0 156 -56q65 -57 65 -149t-64 -159q-63 -66 -159 -66q-87 0 -156 61q-68 60 -68 152q0 96 70 157q69 60 156 60zM821 1640q-1 51 -35 81q-33 30 -84 30q-45 0 -80 -32q-34 -31 -34 -83q0 -56 33 -87q32 -31 86 -31q52 0 84 35q32 34 30 87z" />
    <glyph glyph-name="uring" unicode="&#x16f;" horiz-adv-x="1146" 
d="M238 936q73 0 73 -86q0 -19 -2 -193t-2 -215q0 -134 52 -220q52 -87 167 -87q161 0 227 110t66 308l2 293q0 43 25 68q24 24 63 24q84 0 84 -90v-4q0 -4 -0.5 -11.5t-0.5 -17.5t-0.5 -25.5t-0.5 -31.5l-3 -177q-1 -54 1 -210q0 -160 12 -301q0 -74 -81 -74q-68 0 -80 67
q-4 70 -4 81q0 15 -0.5 29t-1 21t-0.5 9q-100 -219 -328 -219q-184 0 -274 117q-91 118 -91 319q0 107 1 211t1 209q0 96 95 96zM569 1499q94 0 157 -56q65 -57 65 -149t-64 -159q-63 -66 -160 -66q-87 0 -155 60t-68 153q0 96 70 157q69 60 155 60zM684 1292q-1 51 -35 81
q-33 30 -84 30q-46 0 -81 -32q-33 -30 -33 -83q0 -56 32 -87q34 -32 86 -32q51 0 84 36q33 35 31 87z" />
    <glyph glyph-name="Uhungarumlaut" unicode="&#x170;" horiz-adv-x="1396" 
d="M168 563q0 238 1 410t1 317q0 94 80 94q46 0 67 -21t21 -67q-2 -136 -2 -733q0 -211 96 -313q97 -103 273 -103q158 0 260 117q103 118 104 299q2 122 -1 384q-3 282 -3 362q0 82 86 82q84 0 84 -101l2 -672q2 -299 -143 -464q-145 -166 -408 -166q-242 0 -380 150
t-138 425zM758 1716l-170 -209q-22 -28 -47 -28t-42 16q-18 17 -18 41t15 41l145 219q24 39 59 39q32 0 54 -19t22 -51q0 -21 -18 -49zM1075 1706l-184 -213q-25 -25 -43 -25q-23 0 -44 16q-20 15 -20 42q0 17 15 41l162 219q24 41 57 41q29 0 53 -18q25 -19 25 -46
q0 -30 -21 -57z" />
    <glyph glyph-name="uhungarumlaut" unicode="&#x171;" horiz-adv-x="1146" 
d="M238 936q73 0 73 -86q0 -19 -2 -193t-2 -215q0 -134 52 -220q52 -87 167 -87q161 0 227 110t66 308l2 293q0 43 25 68q24 24 63 24q84 0 84 -90v-4q0 -4 -0.5 -11.5t-0.5 -17.5t-0.5 -25.5t-0.5 -31.5l-3 -177q-1 -54 1 -210q0 -160 12 -301q0 -74 -81 -74q-68 0 -80 67
q-4 70 -4 81q0 15 -0.5 29t-1 21t-0.5 9q-100 -219 -328 -219q-184 0 -274 117q-91 118 -91 319q0 107 1 211t1 209q0 96 95 96zM610 1327l-170 -209q-22 -28 -47 -28t-42 16t-17 41q0 26 14 41l146 219q24 39 59 39q30 0 53 -20t23 -50q0 -19 -19 -49zM928 1317l-185 -213
q-25 -25 -43 -25q-23 0 -44 16q-19 15 -19 42q0 19 14 41l162 219q24 41 57 41q30 0 54 -18t24 -46q0 -31 -20 -57z" />
    <glyph glyph-name="Uogonek" unicode="&#x172;" horiz-adv-x="1396" 
d="M662 -225q0 -43 20 -64q21 -22 53 -22q20 0 48 5t40 5q24 0 39 -18t15 -46q0 -81 -140 -81q-84 0 -143 52t-59 144q0 143 143 238q-244 11 -377 157t-133 418q0 238 1 410t1 317q0 94 80 94q46 0 67 -21t21 -67q-2 -136 -2 -733q0 -211 96 -313q97 -103 273 -103
q158 0 260 117q103 118 104 299q2 122 -1 384q-3 282 -3 362q0 82 86 82q84 0 84 -101l2 -672q1 -253 -110 -417t-306 -203q-159 -91 -159 -223z" />
    <glyph glyph-name="uogonek" unicode="&#x173;" horiz-adv-x="1146" 
d="M793 -225q0 -86 73 -86q20 0 47 5t39 5q24 0 39 -18t15 -46q0 -81 -138 -81q-85 0 -144 52q-60 52 -60 144q0 140 196 270q-11 16 -16 43l-10 140q-100 -219 -328 -219q-184 0 -274 117q-91 118 -91 319q0 107 1 211t1 209q0 96 95 96q73 0 73 -86q0 -19 -2 -199t-2 -209
q0 -134 52 -220q52 -87 167 -87q161 0 227 110t66 308l2 293q0 43 25 68q24 24 63 24q84 0 84 -90v-4q0 -4 -0.5 -11.5t-0.5 -17.5t-0.5 -25.5t-0.5 -31.5l-3 -177q-1 -54 1 -210q0 -160 12 -301q0 -52 -40 -70q-77 -59 -125 -115q-43 -50 -43 -110z" />
    <glyph glyph-name="Wcircumflex" unicode="&#x174;" horiz-adv-x="1730" 
d="M82 1305q-8 39 16 66q25 28 68 28q71 0 86 -72l203 -1061q61 161 297 920q30 104 108 104q35 0 58 -19q24 -19 34 -46l314 -934q142 661 204 1007q11 56 31 78q21 23 64 23q35 0 63 -26q26 -25 19 -64l-265 -1215q-11 -55 -29 -77q-19 -23 -71 -23q-30 0 -53 15t-32 34
q-6 13 -19 47l-316 932q-89 -288 -303 -899q-22 -56 -24 -61q-11 -22 -37 -45t-60 -23q-65 1 -89 47q-24 45 -48 172q-7 40 -10 51zM1079 1483q-11 0 -49 24l-168 172q-150 -158 -170 -176q-21 -18 -47 -18q-19 0 -38 18t-19 39q0 25 22 51l176 197q30 37 78 37q40 0 70 -33
l178 -201q27 -35 27 -53q0 -17 -19 -38q-18 -19 -41 -19z" />
    <glyph glyph-name="wcircumflex" unicode="&#x175;" horiz-adv-x="1529" 
d="M72 852q0 7 -1 12t-1 10q0 31 30 52q29 20 64 20q54 0 72 -55q162 -619 184 -696q83 209 258 686q21 53 84 53q69 0 96 -74l252 -657l141 524l43 154q16 55 72 55q32 0 62 -21t30 -51q0 -18 -2 -28q-17 -47 -90 -290q-85 -283 -98 -323q-3 -10 -10.5 -32.5l-10.5 -31.5
q-3 -11 -10 -32l-10 -30t-8.5 -23.5t-6.5 -16.5q-27 -65 -98 -65q-74 0 -102 88q-18 41 -246 631l-219 -574q-33 -83 -60 -115t-79 -32q-50 0 -73 22q-23 21 -38 72q-82 266 -139 470q-65 233 -86 298zM977 1094q-12 0 -49 24l-168 172q-150 -158 -170 -176q-21 -18 -47 -18
q-19 0 -38 18q-20 18 -20 39q0 23 23 51l176 197q30 37 78 37q39 0 69 -33l179 -201q26 -33 26 -53q0 -19 -18 -38t-41 -19z" />
    <glyph glyph-name="Ycircumflex" unicode="&#x176;" horiz-adv-x="1226" 
d="M528 549l-10 24l-436 664q-31 51 -31 76q0 31 28 56q27 24 62 24q39 0 84 -68q388 -620 393 -625q9 13 42 68q30 50 126 204q35 56 112.5 179.5t115.5 183.5q39 60 80 60q34 0 60 -23t26 -53q0 -26 -29 -70l-453 -694q0 -139 -1 -243t-1 -242q0 -36 -24 -55
q-23 -19 -62 -19q-38 0 -61 22q-25 23 -25 62t1 71t1 72q0 102 1 170t1 156zM834 1483q-12 0 -50 24l-168 172q-150 -158 -170 -176q-21 -18 -47 -18q-19 0 -38 18t-19 39q0 23 23 51l176 197q30 37 77 37q40 0 70 -33l178 -201q27 -35 27 -53q0 -17 -19 -38
q-18 -19 -40 -19z" />
    <glyph glyph-name="ycircumflex" unicode="&#x177;" horiz-adv-x="1009" 
d="M510 197q124 278 276 667q16 42 32 58q18 18 50 18q36 0 63 -21t27 -53q0 -28 -14 -59q-166 -397 -473 -1032q-127 -234 -297 -234q-139 0 -139 86q0 78 88 78q69 0 105 24q37 25 83 103q45 74 111 211l-80 166l-250 559q-33 69 -33 100q0 32 28 54q26 20 60 20
q44 0 68 -41zM723 1094q-11 0 -49 24l-168 172q-150 -158 -170 -176q-21 -18 -47 -18q-19 0 -38 18q-20 18 -20 39q0 23 23 51l176 197q30 37 78 37q40 0 70 -33l178 -201q26 -33 26 -53q0 -19 -18 -38t-41 -19z" />
    <glyph glyph-name="Ydieresis" unicode="&#x178;" horiz-adv-x="1226" 
d="M528 549l-10 24l-436 664q-31 51 -31 76q0 31 28 56q27 24 62 24q39 0 84 -68q388 -620 393 -625q9 13 42 68q30 50 126 204q35 56 112.5 179.5t115.5 183.5q39 60 80 60q34 0 60 -23t26 -53q0 -26 -29 -70l-453 -694q0 -139 -1 -243t-1 -242q0 -36 -24 -55
q-23 -19 -62 -19q-38 0 -61 22q-25 23 -25 62t1 71t1 72q0 102 1 170t1 156zM444 1546q-40 0 -69 30q-29 31 -29 73q0 43 32 73q33 31 77 31q45 0 73 -30q29 -31 29 -72q0 -47 -31 -76t-82 -29zM770 1550q-42 0 -70 30q-28 29 -28 73q0 42 30 72t78 30q46 0 73 -30
q28 -31 28 -74q0 -45 -31 -73t-80 -28z" />
    <glyph glyph-name="Zacute" unicode="&#x179;" 
d="M156 1231q-76 0 -76 76q0 82 84 82h434q11 0 179 2t184 2q88 0 88 -78q0 -31 -48 -105l-86 -135l-485 -704l-149 -219q166 0 419 5t281 5q84 0 84 -82q0 -78 -107 -78q-166 -2 -761 -2q-113 0 -119 66q-4 25 2 47q18 69 106 186l123 174l398 561l129 201q-190 0 -341 -1
q-227 -2 -339 -3zM537 1516q-27 -21 -48 -21q-23 0 -45 19t-22 42q0 25 18 46q3 4 13 15t29.5 32.5t37.5 42.5q84 95 113 131q29 35 59 35q31 0 57 -26q25 -25 25 -56q0 -23 -29 -52q-85 -96 -208 -208z" />
    <glyph glyph-name="zacute" unicode="&#x17a;" horiz-adv-x="917" 
d="M530 786q-45 0 -169 -3q-113 -3 -197 -1q-70 0 -70 76q0 78 109 78q18 0 174 -2t172 -2q9 0 93 2t95 2q90 -2 92 -62q4 -26 -2 -49q-23 -51 -106 -151l-404 -481l-34 -48l370 9q111 6 117 6q78 0 78 -78q0 -80 -84 -82q-25 0 -54 1t-71 1q-11 0 -35 -0.5t-68.5 -1
t-83.5 -0.5q-198 -2 -251 -2q-60 0 -87 21q-28 22 -28 75q0 34 29 78q25 39 102 131l410 485zM442 1126q-26 -20 -47 -20q-23 0 -45 19t-22 42q0 24 18 45q3 4 80 91q84 95 113 131q28 34 59 34t56 -25q26 -26 26 -57q0 -22 -29 -51q-86 -96 -209 -209z" />
    <glyph glyph-name="Zdotaccent" unicode="&#x17b;" 
d="M156 1231q-76 0 -76 76q0 82 84 82h434q11 0 179 2t184 2q88 0 88 -78q0 -31 -48 -105l-86 -135l-485 -704l-149 -219q166 0 419 5t281 5q84 0 84 -82q0 -78 -107 -78q-166 -2 -761 -2q-113 0 -119 66q-4 25 2 47q18 69 106 186l123 174l398 561l129 201q-190 0 -341 -1
q-227 -2 -339 -3zM555 1559q-49 0 -78 33q-30 34 -28 85q5 52 37 77q36 28 81 28q51 0 80 -32t29 -79q0 -53 -34 -83q-33 -29 -87 -29z" />
    <glyph glyph-name="zdotaccent" unicode="&#x17c;" horiz-adv-x="917" 
d="M530 786q-45 0 -169 -3q-113 -3 -197 -1q-70 0 -70 76q0 78 109 78q18 0 174 -2t172 -2q9 0 93 2t95 2q90 -2 92 -62q4 -26 -2 -49q-23 -51 -106 -151l-404 -481l-34 -48l370 9q111 6 117 6q78 0 78 -78q0 -80 -84 -82q-25 0 -54 1t-71 1q-11 0 -35 -0.5t-68.5 -1
t-83.5 -0.5q-198 -2 -251 -2q-60 0 -87 21q-28 22 -28 75q0 34 29 78q25 39 102 131l410 485zM461 1169q-48 0 -78 34q-30 35 -29 85q5 51 38 77q36 28 81 28q51 0 80 -32t29 -79q0 -53 -34 -83t-87 -30z" />
    <glyph glyph-name="Zcaron" unicode="&#x17d;" 
d="M156 1231q-76 0 -76 76q0 82 84 82h434q11 0 179 2t184 2q88 0 88 -78q0 -31 -48 -105l-86 -135l-485 -704l-149 -219q166 0 419 5t281 5q84 0 84 -82q0 -78 -107 -78q-166 -2 -761 -2q-113 0 -119 66q-4 25 2 47q18 69 106 186l123 174l398 561l129 201q-190 0 -341 -1
q-227 -2 -339 -3zM350 1825q22 0 47 -25q57 -56 168 -172q37 36 77 80q54 58 60 64q20 20 35 32q22 19 47 19q18 0 38 -20t20 -38q0 -20 -23 -51l-178 -196q-30 -37 -76 -37q-40 0 -69 32l-179 201q-26 33 -26 55q0 19 18 37q19 19 41 19z" />
    <glyph glyph-name="zcaron" unicode="&#x17e;" horiz-adv-x="917" 
d="M530 786q-45 0 -169 -3q-113 -3 -197 -1q-70 0 -70 76q0 78 109 78q18 0 174 -2t172 -2q9 0 93 2t95 2q90 -2 92 -62q4 -26 -2 -49q-23 -51 -106 -151l-404 -481l-34 -48l370 9q111 6 117 6q78 0 78 -78q0 -80 -84 -82q-25 0 -54 1t-71 1q-11 0 -35 -0.5t-68.5 -1
t-83.5 -0.5q-198 -2 -251 -2q-60 0 -87 21q-28 22 -28 75q0 34 29 78q25 39 102 131l410 485zM256 1436q22 0 47 -25q57 -56 168 -172q36 36 77 80q40 43 60 63q25 25 35 33q22 19 47 19q18 0 38 -20t20 -38q0 -20 -23 -51l-178 -197q-29 -36 -76 -36q-41 0 -70 32l-178 201
q-26 33 -26 55q0 19 18 37q19 19 41 19z" />
    <glyph glyph-name="florin" unicode="&#x192;" horiz-adv-x="886" 
d="M725 772h-225l-94 -786q-12 -99 -32 -174q-19 -71 -59 -143q-38 -69 -109 -107q-70 -37 -171 -37q-48 0 -90 16q-51 21 -51 76q0 36 20 56q22 22 53 22q16 0 43 -6t41 -6q54 0 89 25q37 26 56 78q18 49 28 96q12 57 18 114l94 778h-131q-55 0 -76 14q-23 15 -23 56
q0 82 101 82h149q11 93 26 169q13 68 45 151q31 82 79 133t126 85q81 35 185 35q121 0 121 -84q0 -29 -17 -49t-47 -20q-20 0 -53 5q-30 5 -57 3q-67 -1 -115 -40q-46 -37 -72 -112q-27 -78 -38 -130q-13 -64 -23 -146h215q78 0 78 -78q2 -33 -22 -54q-25 -22 -62 -22z" />
    <glyph glyph-name="AEacute" unicode="&#x1fc;" horiz-adv-x="1855" 
d="M37 82q0 36 47 94q168 234 411 603q247 376 351 521q63 87 149 87q69 0 158 1q47 1 147 1.5t152 0.5q111 1 236 1q92 0 92 -74q0 -69 -60 -76q-299 -4 -594 -4q0 -72 -1 -126t-1 -118l-2 -192v-49h103q82 0 165 1t214 1q86 0 86 -72q0 -74 -84 -74q-125 0 -259 -1
t-227 -1v-141q0 -87 -1 -158t-1 -157q95 0 580 8q84 0 84 -76q0 -81 -92 -86h-516q-144 0 -183 20q-42 22 -43 105l2 252l-520 4q-39 -53 -207 -314q-46 -69 -100 -69q-36 0 -62 25q-26 24 -24 63zM956 1184l-446 -666l444 2q0 107 2 191v164q0 85 -1 153q-1 80 1 156z
M1102 1516q-27 -21 -47 -21q-22 0 -45 20t-23 41q0 24 19 46q4 5 79 90q84 95 113 131q29 35 59 35q31 0 57 -26q25 -25 25 -56q0 -24 -28 -52q-81 -91 -209 -208z" />
    <glyph glyph-name="aeacute" unicode="&#x1fd;" horiz-adv-x="1679" 
d="M1042 420h-120q0 -113 78 -194q80 -83 204 -83q118 0 226 64q42 26 67 26q27 0 49 -26q23 -28 23 -55q0 -64 -114 -115t-267 -51q-111 0 -209 61t-148 156q-114 -217 -354 -217q-168 0 -275 73q-108 73 -108 207t100 207t273 74q94 2 285 -8q-1 111 -76 184
q-74 72 -189 72q-26 0 -68 -7q-36 -6 -57 -12q-16 -5 -58 -18q-33 -11 -48 -17q-34 -7 -63 12q-29 20 -29 56q0 45 45 72q112 65 293 65q117 -2 208 -58q92 -57 138 -153q56 95 150 153t204 58q166 0 280 -119q113 -117 113 -262q0 -82 -25 -111q-26 -30 -128 -32h-210
q-116 0 -190 -2zM1210 801q-116 0 -196 -80t-90 -184q272 0 430 2q86 0 86 12q0 104 -68 177t-162 73zM481 131q104 0 184 71q78 70 83 177l2 43q-102 6 -275 6q-221 2 -221 -149q0 -73 64 -110q65 -38 163 -38zM846 1126q-26 -20 -47 -20q-23 0 -45 19q-23 20 -23 42
q0 23 19 45q13 16 79 91q84 95 113 131q28 34 59 34q32 0 57 -25t25 -57q0 -23 -28 -51q-86 -96 -209 -209z" />
    <glyph glyph-name="Oslashacute" unicode="&#x1fe;" horiz-adv-x="1527" 
d="M774 1405q162 0 313 -82l56 80q19 31 49 31q23 0 41 -18t18 -40q0 -19 -10 -35l-55 -84q116 -96 181 -235q67 -143 67 -309q0 -307 -190 -520q-189 -211 -478 -211q-188 0 -346 96l-68 -103q-22 -32 -47 -32q-23 0 -43 17t-20 40q0 17 16 43l68 104q-222 198 -222 512
q0 165 58 312q56 141 152 237q94 94 215 147q118 52 245 50zM1266 707q-1 247 -176 403l-580 -891q122 -76 270 -76q203 0 345 169q143 170 141 395zM272 680q0 -234 150 -387l575 887q-112 65 -245 65q-192 0 -336 -162t-144 -403zM737 1516q-27 -21 -47 -21q-23 0 -45 19
t-22 42q0 25 18 46q3 4 13 15t29.5 32.5t37.5 42.5q84 95 113 131q29 35 59 35t56 -26t26 -56q0 -23 -29 -52q-81 -91 -209 -208z" />
    <glyph glyph-name="oslashacute" unicode="&#x1ff;" 
d="M600 952q32 0 53 -14q67 -12 125 -43l41 66q20 36 49 36q20 0 37 -14q19 -16 19 -33q0 -19 -29 -65l-29 -45q162 -136 162 -375q0 -210 -139 -346q-140 -137 -346 -137q-86 0 -181 43l-45 -74q-17 -31 -43 -31q-20 0 -38 15q-19 16 -19 36q0 16 19 45l34 58
q-182 136 -182 364t139 370q140 143 373 144zM256 436q0 -132 102 -221l340 549q-57 31 -141 35q-135 -6 -218 -103t-83 -260zM858 469q0 141 -80 227l-332 -538q57 -23 93 -23q130 0 225 92q94 91 94 242zM526 1126q-26 -20 -47 -20q-23 0 -45 19t-22 42q0 24 18 45
q3 4 80 91q84 95 113 131q28 34 59 34t56 -25q26 -26 26 -57q0 -22 -29 -51q-86 -96 -209 -209z" />
    <glyph glyph-name="uni0218" unicode="&#x218;" horiz-adv-x="1153" 
d="M954 1329q56 -27 56 -82q0 -28 -22 -53t-54 -25q-30 0 -76 23q-128 57 -262 57q-125 0 -212 -69t-87 -176q0 -38 9 -66q9 -29 38 -50l45 -34q16 -12 68 -27q15 -4 29 -8t24.5 -6.5t13.5 -3.5q4 -1 15 -3.5t29 -6.5l36 -8q83 -19 176 -50q76 -25 139 -67q65 -43 100 -111
q34 -67 34 -157q0 -190 -135 -305q-134 -115 -355 -115q-213 -1 -379 84q-75 34 -75 90q0 35 22 61q23 27 55 27q27 0 72 -21q155 -82 303 -82q139 0 230 68q90 67 90 182q0 110 -85 162q-89 55 -241 84q-92 18 -159 41q-70 24 -133 61q-67 39 -101 102q-35 64 -35 146
q0 177 143 295q145 119 334 119q195 0 350 -76zM481 -399q0 13 29 44q30 32 37 58q5 7 -6 18q-9 9 -24 29q-13 17 -13 41q0 38 26 63t64 25q42 0 69 -27t27 -69q0 -112 -125 -207q-20 -14 -45 -14q-39 0 -39 39z" />
    <glyph glyph-name="uni0219" unicode="&#x219;" horiz-adv-x="929" 
d="M481 946q166 0 271 -49q55 -28 55 -66q0 -75 -70 -75q-18 0 -96 25q-81 26 -164 26q-82 0 -143 -41q-60 -40 -60 -104q0 -31 14 -51q13 -19 48 -31q38 -13 57 -17q23 -5 78 -12q2 0 29 -4q162 -21 250 -80q90 -60 90 -188q0 -138 -104 -216q-102 -77 -271 -77
q-125 0 -244 38q-117 37 -117 85q0 86 72 86q15 0 116 -32t185 -32q87 0 146 37t59 102q0 68 -53 97q-54 29 -170 47q-64 8 -100 15q-35 7 -89 26q-51 18 -81 42t-51 64q-21 41 -21 94q0 126 110 208q112 83 254 83zM369 -399q0 15 28 44q30 32 37 58q4 7 -6 18q-9 9 -24 29
q-13 17 -13 41q0 37 26 63q25 25 64 25q42 0 69 -27q28 -28 28 -69q0 -112 -125 -207q-21 -14 -45 -14q-39 0 -39 39z" />
    <glyph glyph-name="uni021A" unicode="&#x21a;" horiz-adv-x="1165" 
d="M592 1389q15 0 45.5 0.5t87.5 1t105 0.5q52 0 103.5 0.5t77 1t33.5 0.5q89 0 89 -72q0 -45 -23 -65q-22 -19 -74 -19h-370v-123q0 -131 1 -207l3 -342q0 -72 1.5 -229t2.5 -242q0 -100 -92 -100q-42 0 -61 20t-19 72l2 770q0 106 -1 190t-1 191q-137 0 -393 -2
q-76 0 -76 78t80 78q32 0 64 -1t154 -1h261zM471 -399q0 13 29 44q30 32 37 58q4 7 -7 18q-5 5 -23 29q-13 17 -13 41q0 38 25 63t65 25q41 0 68 -27q28 -28 28 -69q0 -112 -125 -207q-21 -14 -45 -14q-39 0 -39 39z" />
    <glyph glyph-name="uni021B" unicode="&#x21b;" horiz-adv-x="731" 
d="M100 780q-71 0 -71 72q0 76 80 76h127l2 168q0 116 90 116q40 0 55 -21q14 -20 14 -71q0 -83 -4 -192l207 2q76 0 76 -74t-76 -74h-205v-405q0 -123 29 -181q28 -57 102 -57q30 0 58 9q32 10 43 10q28 0 46 -23q17 -21 17 -51q0 -51 -41 -72q-51 -24 -131 -24
q-149 0 -218 85q-69 86 -69 275q0 21 2 217q0 48 1.5 120t1.5 95h-136zM328 -399q0 15 28 44q30 32 37 58q5 7 -6 18q-5 5 -23 29q-14 19 -14 41q0 37 26 63q25 25 64 25q42 0 69 -27q28 -28 28 -69q0 -112 -125 -207q-21 -14 -45 -14q-39 0 -39 39z" />
    <glyph glyph-name="dotlessj" unicode="&#x237;" horiz-adv-x="468" 
d="M154 868q0 34 24 53q23 19 60 19q84 0 84 -70v-522q0 -259 -7 -532q-5 -120 -94 -205q-91 -87 -223 -88q-174 0 -174 94q0 39 19 62q19 24 46 24q21 0 54 -10t63 -10q136 0 146 198q6 89 6 633q-6 273 -4 354z" />
    <glyph glyph-name="circumflex" unicode="&#x2c6;" horiz-adv-x="712" 
d="M573 1094q-11 0 -49 24l-168 172q-150 -158 -170 -176q-23 -18 -47 -18q-19 0 -38 18t-19 39q0 25 22 51l177 197q30 37 77 37q40 0 70 -33l178 -201q27 -34 27 -53q0 -17 -19 -38q-18 -19 -41 -19z" />
    <glyph glyph-name="caron" unicode="&#x2c7;" horiz-adv-x="700" 
d="M135 1438q22 0 47 -25q57 -56 168 -172q37 36 77 80q40 43 60 63q25 25 35 33q24 19 47 19q18 0 38 -20t20 -38q0 -20 -23 -51l-178 -197q-29 -36 -76 -36q-40 0 -69 32l-179 201q-26 33 -26 55q0 19 18 37q19 19 41 19z" />
    <glyph glyph-name="breve" unicode="&#x2d8;" horiz-adv-x="708" 
d="M563 1413q27 0 43 -17q17 -19 17 -42q0 -108 -76 -184t-191 -76q-106 0 -185 72t-81 175q0 33 16 50q16 18 46 18q24 0 39 -15q15 -16 20 -38q5 -65 43 -102t104 -37q64 0 104 41t40 100q4 55 61 55z" />
    <glyph glyph-name="dotaccent" unicode="&#x2d9;" horiz-adv-x="385" 
d="M184 1169q-48 0 -78 34t-28 85q5 51 38 77q36 28 81 28q50 0 79 -32t29 -79q0 -53 -34 -83q-35 -30 -87 -30z" />
    <glyph glyph-name="ring" unicode="&#x2da;" horiz-adv-x="610" 
d="M307 1499q94 0 157 -56q64 -57 64 -149q0 -93 -63 -159t-160 -66q-87 0 -155 60t-68 153q0 96 70 157q69 60 155 60zM422 1292q-1 51 -35 81q-33 30 -84 30q-46 0 -81 -32q-34 -31 -34 -83q0 -56 33 -87q34 -32 86 -32q51 0 84 36q33 35 31 87z" />
    <glyph glyph-name="ogonek" unicode="&#x2db;" horiz-adv-x="503" 
d="M209 -225q0 -43 20 -64q21 -22 54 -22q20 0 48 5t40 5q22 0 37 -18q14 -17 14 -46q0 -81 -137 -81q-85 0 -144 52t-59 144q0 144 201 275l123 -2q-80 -64 -103 -84q-30 -27 -62 -74t-32 -90z" />
    <glyph glyph-name="tilde" unicode="&#x2dc;" horiz-adv-x="780" 
d="M207 1198q-8 -47 -64 -47q-29 0 -45 19q-16 18 -14 53q4 75 54 122q49 46 128 46q54 0 99 -31q21 -14 78 -62q37 -31 75 -32q55 0 60 80q1 21 21 35t40 14q23 0 42 -17q17 -16 17 -41q0 -96 -48 -144t-128 -48q-43 1 -82 20q-35 17 -58 40q-24 23 -51 40q-33 20 -59 21
q-60 0 -65 -68z" />
    <glyph glyph-name="hungarumlaut" unicode="&#x2dd;" horiz-adv-x="765" 
d="M352 1327l-170 -209q-22 -28 -47 -28t-42 16t-17 41q0 26 14 41l146 219q24 39 59 39q30 0 53 -20t23 -50q0 -19 -19 -49zM670 1317l-185 -213q-25 -25 -43 -25q-23 0 -44 16q-19 15 -19 42q0 19 14 41l162 219q24 41 57 41q30 0 54 -18t24 -46q0 -31 -20 -57z" />
    <glyph glyph-name="pi" unicode="&#x3c0;" horiz-adv-x="1339" 
d="M903 1243h-174l-260 -2v-127q0 -153 8 -1020q0 -100 -92 -100q-41 0 -60 20q-20 22 -20 72q0 41 2 385t2 385q0 108 -1 192t-1 191q-36 -2 -89 -2q-55 0 -87 -2q-76 0 -76 76q0 35 21 56q23 23 59 24q54 -2 133 -2q53 0 131 -3q540 9 807 9q76 0 76 -74q0 -43 -15 -61
q-16 -19 -55 -19h-147l-2 -127q0 -128 4 -393q4 -298 6 -627q1 -100 -92 -100q-79 0 -78 94v768v387z" />
    <glyph glyph-name="Wgrave" unicode="&#x1e80;" horiz-adv-x="1730" 
d="M82 1305q-8 39 16 66q25 28 68 28q71 0 86 -72l203 -1061q61 161 297 920q30 104 108 104q35 0 58 -19q24 -19 34 -46l314 -934q142 661 204 1007q11 56 31 78q21 23 64 23q35 0 63 -26q26 -25 19 -64l-265 -1215q-11 -55 -29 -77q-19 -23 -71 -23q-30 0 -53 15t-32 34
q-6 13 -19 47l-316 932q-89 -288 -303 -899q-22 -56 -24 -61q-11 -22 -37 -45t-60 -23q-65 1 -89 47q-24 45 -48 172q-7 40 -10 51zM903 1518q-146 143 -205 211q-26 32 -26 59t25 49q26 23 53 23q39 0 63 -35l180 -223q19 -22 19 -46q0 -19 -20 -39t-42 -20q-20 0 -47 21z
" />
    <glyph glyph-name="wgrave" unicode="&#x1e81;" horiz-adv-x="1529" 
d="M72 852q0 7 -1 12t-1 10q0 31 30 52q29 20 64 20q54 0 72 -55q162 -619 184 -696q83 209 258 686q21 53 84 53q69 0 96 -74l252 -657l141 524l43 154q16 55 72 55q32 0 62 -21t30 -51q0 -18 -2 -28q-17 -47 -90 -290q-85 -283 -98 -323q-3 -10 -10.5 -32.5l-10.5 -31.5
q-3 -11 -10 -32l-10 -30t-8.5 -23.5t-6.5 -16.5q-27 -65 -98 -65q-74 0 -102 88q-18 41 -246 631l-219 -574q-33 -83 -60 -115t-79 -32q-50 0 -73 22q-23 21 -38 72q-82 266 -139 470q-65 233 -86 298zM801 1128q-146 143 -205 211q-27 33 -27 60q0 26 26 49q25 22 52 22
q40 0 64 -34l180 -224q18 -22 18 -45q0 -21 -19 -40t-42 -19q-21 0 -47 20z" />
    <glyph glyph-name="Wacute" unicode="&#x1e82;" horiz-adv-x="1730" 
d="M82 1305q-8 39 16 66q25 28 68 28q71 0 86 -72l203 -1061q61 161 297 920q30 104 108 104q35 0 58 -19q24 -19 34 -46l314 -934q142 661 204 1007q11 56 31 78q21 23 64 23q35 0 63 -26q26 -25 19 -64l-265 -1215q-11 -55 -29 -77q-19 -23 -71 -23q-30 0 -53 15t-32 34
q-6 13 -19 47l-316 932q-89 -288 -303 -899q-22 -56 -24 -61q-11 -22 -37 -45t-60 -23q-65 1 -89 47q-24 45 -48 172q-7 40 -10 51zM834 1516q-27 -21 -48 -21q-23 0 -45 19t-22 42q0 25 18 46q3 4 13 15t29.5 32.5t37.5 42.5q84 95 113 131q29 35 59 35q31 0 57 -26
q25 -25 25 -56q0 -23 -29 -52q-85 -96 -208 -208z" />
    <glyph glyph-name="wacute" unicode="&#x1e83;" horiz-adv-x="1529" 
d="M72 852q0 7 -1 12t-1 10q0 31 30 52q29 20 64 20q54 0 72 -55q162 -619 184 -696q83 209 258 686q21 53 84 53q69 0 96 -74l252 -657l141 524l43 154q16 55 72 55q32 0 62 -21t30 -51q0 -18 -2 -28q-17 -47 -90 -290q-85 -283 -98 -323q-3 -10 -10.5 -32.5l-10.5 -31.5
q-3 -11 -10 -32l-10 -30t-8.5 -23.5t-6.5 -16.5q-27 -65 -98 -65q-74 0 -102 88q-18 41 -246 631l-219 -574q-33 -83 -60 -115t-79 -32q-50 0 -73 22q-23 21 -38 72q-82 266 -139 470q-65 233 -86 298zM731 1126q-26 -20 -47 -20q-23 0 -45 19q-23 20 -23 42q0 23 19 45
q3 4 80 91q71 81 112 131q28 34 60 34q31 0 56 -25q26 -26 26 -57q0 -22 -29 -51q-86 -96 -209 -209z" />
    <glyph glyph-name="Wdieresis" unicode="&#x1e84;" horiz-adv-x="1730" 
d="M82 1305q-8 39 16 66q25 28 68 28q71 0 86 -72l203 -1061q61 161 297 920q30 104 108 104q35 0 58 -19q24 -19 34 -46l314 -934q142 661 204 1007q11 56 31 78q21 23 64 23q35 0 63 -26q26 -25 19 -64l-265 -1215q-11 -55 -29 -77q-19 -23 -71 -23q-30 0 -53 15t-32 34
q-6 13 -19 47l-316 932q-89 -288 -303 -899q-22 -56 -24 -61q-11 -22 -37 -45t-60 -23q-65 1 -89 47q-24 45 -48 172q-7 40 -10 51zM690 1546q-40 0 -69 30q-29 31 -29 73q0 43 32 73q33 31 76 31q46 0 74 -30q29 -31 29 -72q0 -47 -31 -76t-82 -29zM1016 1550q-42 0 -70 30
q-28 29 -28 73q0 42 30 72t78 30q46 0 73 -30t27 -74q0 -46 -30 -73q-31 -28 -80 -28z" />
    <glyph glyph-name="wdieresis" unicode="&#x1e85;" horiz-adv-x="1529" 
d="M72 852q0 7 -1 12t-1 10q0 31 30 52q29 20 64 20q54 0 72 -55q162 -619 184 -696q83 209 258 686q21 53 84 53q69 0 96 -74l252 -657l141 524l43 154q16 55 72 55q32 0 62 -21t30 -51q0 -18 -2 -28q-17 -47 -90 -290q-85 -283 -98 -323q-3 -10 -10.5 -32.5l-10.5 -31.5
q-3 -11 -10 -32l-10 -30t-8.5 -23.5t-6.5 -16.5q-27 -65 -98 -65q-74 0 -102 88q-18 41 -246 631l-219 -574q-33 -83 -60 -115t-79 -32q-50 0 -73 22q-23 21 -38 72q-82 266 -139 470q-65 233 -86 298zM588 1157q-42 0 -70 30q-29 31 -29 73q0 43 32 73q33 31 77 31
q46 0 74 -30q28 -29 28 -72q0 -48 -30 -76q-31 -29 -82 -29zM913 1161q-41 0 -69 30q-29 31 -29 73q0 41 31 72q30 30 78 30q45 0 72 -30q28 -31 28 -74q0 -45 -31 -73t-80 -28z" />
    <glyph glyph-name="uni1E9E" unicode="&#x1e9e;" horiz-adv-x="1370" 
d="M686 823l287 383q-25 13 -118 29q-83 14 -148 14q-166 0 -268 -125q-101 -123 -101 -325q0 -155 1 -328t1 -362q0 -61 -21 -87t-73 -26q-45 -2 -62 23q-18 25 -18 85q0 47 1 82t1 200v396q0 294 156 461q156 166 399 166q99 0 220 -26q119 -26 163 -52q55 -30 55 -90
q0 -37 -18 -61l-309 -389q436 -99 436 -406q-1 -161 -118 -279q-115 -116 -296 -116q-124 0 -215 36q-92 36 -92 85q0 38 20 61q22 25 58 25q15 0 88 -26t147 -26q102 0 172 68t70 162q0 127 -88 194q-91 70 -256 99q-98 18 -98 86q0 39 24 69z" />
    <glyph glyph-name="Ygrave" unicode="&#x1ef2;" horiz-adv-x="1226" 
d="M528 549l-10 24l-436 664q-31 51 -31 76q0 31 28 56q27 24 62 24q39 0 84 -68q388 -620 393 -625q9 13 42 68q30 50 126 204q35 56 112.5 179.5t115.5 183.5q39 60 80 60q34 0 60 -23t26 -53q0 -26 -29 -70l-453 -694q0 -139 -1 -243t-1 -242q0 -36 -24 -55
q-23 -19 -62 -19q-38 0 -61 22q-25 23 -25 62t1 71t1 72q0 102 1 170t1 156zM657 1518q-139 136 -204 211q-27 33 -27 59t26 49t52 23q39 0 63 -35l181 -223q18 -21 18 -46q0 -19 -20 -39t-41 -20t-48 21z" />
    <glyph glyph-name="ygrave" unicode="&#x1ef3;" horiz-adv-x="1009" 
d="M510 197q124 278 276 667q16 42 32 58q18 18 50 18q36 0 63 -21t27 -53q0 -28 -14 -59q-166 -397 -473 -1032q-127 -234 -297 -234q-139 0 -139 86q0 78 88 78q69 0 105 24q37 25 83 103q45 74 111 211l-80 166l-250 559q-33 69 -33 100q0 32 28 54q26 20 60 20
q44 0 68 -41zM547 1128q-146 143 -205 211q-27 33 -27 60q0 26 26 49q25 22 52 22q40 0 64 -34l180 -224q18 -22 18 -45q0 -21 -19 -40t-42 -19q-21 0 -47 20z" />
    <glyph glyph-name="endash" unicode="&#x2013;" horiz-adv-x="1024" 
d="M98 414q-39 0 -58 23t-17 57q0 75 102 75q187 0 417 -1t382 -1q77 0 77 -73q0 -80 -108 -80h-795z" />
    <glyph glyph-name="emdash" unicode="&#x2014;" horiz-adv-x="2048" 
d="M131 416q-39 0 -58 22q-20 23 -18 56q0 77 103 77q347 0 897 -1t862 -1q76 0 76 -75q0 -41 -25 -60q-24 -18 -84 -18h-1753z" />
    <glyph glyph-name="quoteleft" unicode="&#x2018;" horiz-adv-x="411" 
d="M219 1237h4q31 -2 58 -29q26 -26 26 -67q2 -47 -32 -81t-78 -34q-57 0 -91 40t-34 105q0 68 45 140t112 112q22 11 33 11q18 0 35 -15q16 -15 16 -33q0 -21 -22 -43q-72 -51 -72 -98v-8z" />
    <glyph glyph-name="quoteright" unicode="&#x2019;" horiz-adv-x="411" 
d="M178 1225h-2q-32 1 -59 28t-27 68q0 47 33 80t78 33q57 0 91 -39q34 -38 34 -105q0 -68 -45 -140q-46 -74 -111 -112q-29 -10 -35 -10q-20 0 -34 13q-15 13 -15 34q0 26 23 41q69 51 69 101v8z" />
    <glyph glyph-name="quotesinglbase" unicode="&#x201a;" horiz-adv-x="411" 
d="M178 0h-2q-31 1 -59 29q-27 27 -27 69q0 44 33 79q33 34 78 34q57 0 91 -39q34 -38 34 -106t-45 -140q-44 -70 -111 -110q-20 -13 -35 -13q-19 0 -34 15t-15 32q0 29 23 44q69 52 69 98v8z" />
    <glyph glyph-name="quotedblleft" unicode="&#x201c;" horiz-adv-x="716" 
d="M219 1237h4q31 -2 58 -29q26 -26 26 -69q2 -45 -32 -79t-78 -34q-56 0 -91 39q-34 38 -34 106t45 140q44 71 112 110q13 13 33 13q18 0 35 -15q16 -15 16 -33q0 -25 -22 -43q-72 -51 -72 -98v-8zM528 1237h4q31 -2 58 -29q26 -26 26 -69q2 -46 -31 -79q-34 -34 -79 -34
q-56 0 -90 39q-35 40 -35 106q0 68 45 140q44 70 113 110q13 13 32 13t35 -15q17 -15 17 -33q0 -25 -23 -43q-72 -51 -72 -98v-8z" />
    <glyph glyph-name="quotedblright" unicode="&#x201d;" horiz-adv-x="720" 
d="M178 1223h-2q-32 1 -59 28t-27 68q0 47 33 81t78 34q57 0 91 -40t34 -106q0 -67 -45 -139q-46 -73 -111 -113q-29 -10 -35 -10q-20 0 -34 13q-15 13 -15 34q0 25 23 43q69 51 69 98v9zM487 1223h-2q-32 1 -59 28t-27 68q0 47 33 81t78 34q57 0 91 -40t34 -106
q0 -67 -45 -139q-46 -73 -111 -113q-29 -10 -35 -10q-19 0 -33 13q-16 14 -16 34q0 25 23 43q69 51 69 98v9z" />
    <glyph glyph-name="quotedblbase" unicode="&#x201e;" horiz-adv-x="718" 
d="M178 0h-2q-31 1 -59 29q-27 27 -27 69q0 44 33 79q33 34 78 34q57 0 91 -39q34 -38 34 -106t-45 -140q-44 -70 -111 -110q-20 -13 -35 -13q-19 0 -34 15t-15 32q0 29 23 44q69 52 69 98v8zM487 0h-4q-32 1 -58 29q-27 28 -28 69q0 45 34 79t79 34q54 0 89 -39
q34 -38 34 -106t-45 -140q-44 -70 -111 -110q-19 -13 -33 -13q-18 0 -34 15q-17 15 -17 32q0 26 23 44q71 50 71 98v8z" />
    <glyph glyph-name="dagger" unicode="&#x2020;" horiz-adv-x="1054" 
d="M141 821q-35 0 -57 22q-20 20 -18 56q2 41 22 59q22 19 72 19q40 0 286 -2l-4 416q0 90 80 90q51 0 69 -21q17 -20 17 -86q0 -78 -3 -217q-3 -140 -3 -184l311 2q78 0 78 -74q0 -43 -23 -62q-25 -20 -83 -20l-283 2q0 -176 3 -560t3 -556q0 -92 -82 -92q-84 0 -84 90
q0 155 1 307t1 307q0 138 1 251t1 253h-305z" />
    <glyph glyph-name="daggerdbl" unicode="&#x2021;" horiz-adv-x="1054" 
d="M141 821q-36 0 -57 23q-20 21 -18 59q1 36 22 54t74 18q20 0 284 -2l-4 424q0 82 82 82q46 0 65 -21q19 -20 19 -78q0 -69 -3 -204t-3 -205l311 4q78 0 78 -74q0 -43 -23 -62q-25 -20 -83 -20l-283 4q0 -3 2 -259t2 -337l307 4q78 0 78 -73q0 -45 -23 -62
q-24 -18 -83 -18l-281 4q0 -7 2 -181t2 -182q0 -62 -19 -85t-67 -23q-44 0 -62 24t-18 78l2 369l-254 -2q-66 0 -94 17q-30 18 -30 61q0 75 102 75l278 -4q0 36 -1 66t-1 67q0 128 1 231t1 232z" />
    <glyph glyph-name="bullet" unicode="&#x2022;" horiz-adv-x="692" 
d="M338 201q-129 0 -205 75q-78 76 -78 205q0 131 84 210q83 79 213 79q125 0 204 -82t79 -207q0 -128 -83 -205q-81 -75 -214 -75z" />
    <glyph glyph-name="ellipsis" unicode="&#x2026;" horiz-adv-x="1263" 
d="M203 -8q-48 0 -79 33q-32 34 -32 79q0 49 35 82t88 33q49 0 81 -33q32 -34 32 -82q0 -52 -35 -82t-90 -30zM625 -8q-47 0 -79 33q-32 34 -32 79q0 49 35 82t86 33t83 -33q32 -34 32 -82q0 -52 -35 -82t-90 -30zM1047 -8q-47 0 -80 33t-33 79q0 49 35 82t88 33
q51 0 83 -33q31 -32 31 -82q0 -52 -34 -82q-35 -30 -90 -30z" />
    <glyph glyph-name="perthousand" unicode="&#x2030;" horiz-adv-x="2304" 
d="M1102 1348q16 28 42 37t54 -3q62 -34 21 -108q-11 -19 -130 -209q-126 -201 -186 -309q-51 -98 -137 -239q-84 -138 -90 -150l-195 -336q-15 -27 -43 -36q-30 -9 -57 5q-25 15 -32 40q-7 26 9 54l383 631zM68 1008q0 156 72 270q73 115 218 115q136 0 219 -100
q82 -98 82 -259q0 -159 -88 -257q-89 -99 -217 -99q-114 0 -200 96q-86 97 -86 234zM358 1270q-157 0 -157 -248q0 -89 41 -156q40 -65 110 -65q80 0 126 62t46 175q0 106 -43 168q-44 64 -123 64zM936 317q0 155 75 264t222 109q137 0 219 -99q82 -98 82 -257
q0 -155 -86 -253q-85 -97 -219 -97q-121 0 -207 96q-86 97 -86 237zM1233 573q-84 0 -124 -70t-40 -175q0 -98 41 -162t117 -64q84 0 129 60q45 61 41 168q-5 243 -164 243zM1636 317q0 155 75 264t222 109q137 0 219 -99q82 -98 82 -257q0 -155 -86 -253q-85 -97 -219 -97
q-121 0 -207 96q-86 97 -86 237zM1935 573q-85 0 -125 -70q-41 -71 -41 -175q0 -99 42 -162q43 -64 118 -64q85 0 128 60t42 168q-7 243 -164 243z" />
    <glyph glyph-name="guilsinglleft" unicode="&#x2039;" horiz-adv-x="565" 
d="M451 727l-209 -240l215 -239q35 -35 35 -62q0 -20 -22 -40q-20 -19 -44 -19q-23 0 -57 29l-252 243q-43 46 -43 88q0 39 39 80q57 60 73 76q26 26 102 100q38 37 79 78q28 23 49 23q22 0 44 -19q21 -18 21 -41q0 -24 -30 -57z" />
    <glyph glyph-name="guilsinglright" unicode="&#x203a;" horiz-adv-x="565" 
d="M322 483l-209 240q-31 36 -31 57q0 23 21 41q22 19 44 19q24 0 52 -23q18 -19 122 -123q107 -107 132 -133q39 -43 39 -78q0 -42 -46 -88l-251 -243q-31 -31 -58 -29q-23 0 -43 19t-20 40q0 30 32 62z" />
    <glyph glyph-name="fraction" unicode="&#x2044;" horiz-adv-x="886" 
d="M760 1348q24 43 61 43q23 0 42 -17q18 -16 18 -41q0 -23 -19 -55l-315 -522l-424 -725q-21 -39 -55 -39q-23 0 -43 16q-21 16 -21 43q0 21 19 53z" />
    <glyph glyph-name="zerosuperior" unicode="&#x2070;" horiz-adv-x="747" 
d="M70 1118q0 185 76 307q76 123 229 123q143 0 224 -108t81 -295q0 -181 -88 -285t-219 -104q-127 0 -215 99q-88 98 -88 263zM375 1427q-94 0 -135 -86q-41 -87 -41 -211q0 -105 46 -179t122 -74q84 0 135 72t51 194q0 121 -46 203q-46 81 -132 81z" />
    <glyph glyph-name="foursuperior" unicode="&#x2074;" horiz-adv-x="692" 
d="M406 1171q0 70 57 70q63 0 65 -53v-154h78q58 0 58 -53q0 -68 -54 -68h-82v-102q0 -53 -63 -55q-59 0 -59 55v100h-287q-31 0 -53 25q-21 24 -21 51q0 39 33 88l231 428q21 45 62 45q29 0 52 -17t23 -40q0 -14 -10 -37l-237 -424l207 2v139z" />
    <glyph glyph-name="fivesuperior" unicode="&#x2075;" horiz-adv-x="659" 
d="M131 1477q5 31 25 50t49 19h297q63 0 63 -63q0 -62 -67 -62l-250 2l-6 -43l-23 -149q64 35 125 35q115 0 184 -67q68 -66 68 -173q0 -118 -75 -195q-74 -75 -202 -75q-112 0 -198 47q-53 30 -53 74q0 26 17 44q18 19 44 19q17 0 53 -20q73 -39 137 -39q60 0 103 37t43 98
q0 59 -38 95q-37 36 -101 36q-38 0 -95 -23q-54 -22 -77 -22q-33 0 -53 20q-21 21 -17 54q0 4 19 121q24 147 28 180z" />
    <glyph glyph-name="sixsuperior" unicode="&#x2076;" horiz-adv-x="696" 
d="M389 1423q-69 0 -125 -60q-55 -60 -57 -149q0 -11 -1 -19t-1 -17q23 40 75 63q54 23 103 23q110 0 183 -61t73 -181q0 -117 -77 -192q-75 -74 -204 -74q-111 0 -182 64t-88 184q-10 59 -10 131q0 185 87 299t230 114q98 0 154 -28q43 -24 43 -64q0 -24 -15 -42
q-14 -17 -40 -17q-7 0 -50 10q-51 16 -98 16zM358 1153q-65 0 -105 -37t-40 -100q0 -64 41 -102q40 -37 104 -37q65 0 107 38q43 39 43 105t-40 100q-41 35 -110 33z" />
    <glyph glyph-name="sevensuperior" unicode="&#x2077;" horiz-adv-x="632" 
d="M422 1423q-16 0 -152 -2t-159 -2q-66 0 -66 66q0 57 66 57q114 0 210 1t205 1q64 0 64 -61q0 -36 -37 -86q-147 -209 -221 -424q-16 -43 -51 -156q-17 -57 -68 -57q-76 0 -66 67q16 71 54 172q84 221 221 424z" />
    <glyph glyph-name="eightsuperior" unicode="&#x2078;" horiz-adv-x="698" 
d="M606 1335q0 -121 -102 -166q57 -17 96 -62q37 -43 37 -108q1 -121 -77 -183t-208 -62q-128 0 -207 60t-79 169q0 137 135 186q-39 15 -69 60t-30 98q0 100 74 162q73 61 174 61q106 0 181 -60t75 -155zM354 1114q-67 0 -111 -32t-44 -91q0 -56 40 -87q41 -32 105 -32
q74 0 117 33t43 92q0 54 -43 85q-44 32 -107 32zM229 1325q0 -48 35 -78q34 -30 88 -30q56 0 92 33q37 34 37 85q0 45 -38 74t-93 29q-52 0 -87 -30q-34 -30 -34 -83z" />
    <glyph glyph-name="ninesuperior" unicode="&#x2079;" horiz-adv-x="698" 
d="M317 883q83 0 132 60q49 59 47 175q-24 -35 -74 -59q-52 -25 -105 -25q-101 0 -177 66q-77 66 -77 186q0 113 82 188q81 74 199 74q140 0 212 -94q73 -96 73 -272q0 -223 -78 -325q-77 -101 -240 -101q-96 0 -174 35q-37 21 -37 65q0 24 17 44t41 20q12 0 51 -15
q62 -22 108 -22zM342 1145q60 0 104 39q43 39 43 102q0 62 -44 103t-105 41q-62 0 -103 -40q-42 -40 -42 -106q0 -64 39 -100q40 -38 108 -39z" />
    <glyph glyph-name="zeroinferior" unicode="&#x2080;" horiz-adv-x="747" 
d="M70 12q0 185 76 307q76 123 229 123q143 0 224 -108t81 -295q0 -181 -88 -285t-219 -104q-127 0 -215 99q-88 98 -88 263zM375 322q-94 0 -135 -86q-41 -87 -41 -211q0 -106 46 -180t122 -74q84 0 135 72t51 194q0 121 -46 203t-132 82z" />
    <glyph glyph-name="oneinferior" unicode="&#x2081;" horiz-adv-x="518" 
d="M154 197q-21 -15 -41 -15q-19 0 -38 19q-18 18 -18 41q0 28 35 57l162 115q38 24 65 24q23 0 42 -16q20 -17 20 -37v-225q0 -126 -1 -228t-1 -227q0 -53 -64 -53q-65 0 -65 61q0 30 5 262t5 299q-44 -35 -106 -77z" />
    <glyph glyph-name="twoinferior" unicode="&#x2082;" horiz-adv-x="653" 
d="M309 317q-66 0 -123 -61q-28 -31 -61 -31q-24 0 -42 20q-17 18 -17 46q0 37 49 76q84 77 192 77q114 2 191 -64q77 -65 77 -175q0 -15 -2 -39q-1 -16 -10 -37q-12 -28 -13 -32q-4 -12 -20 -31q-2 -2 -21 -29q-10 -14 -28 -32q-8 -8 -17.5 -18t-10.5 -11q-2 -2 -13.5 -12
t-20.5 -19q-17 -16 -34 -33l-143 -137q248 4 297 4q59 0 59 -62q0 -63 -68 -63h-133h-266q-31 0 -50 19q-20 20 -20 51q0 47 50 94l202 198q46 44 68 65q20 20 42 56q21 35 21 66q0 49 -37 82q-36 32 -98 32z" />
    <glyph glyph-name="threeinferior" unicode="&#x2083;" horiz-adv-x="645" 
d="M446 -94q0 62 -44 92q-45 31 -109 31h-49q-56 0 -56 61q0 24 31 55q42 42 80 82q57 60 90 90q-61 0 -125 -1t-127 -1q-65 0 -65 60q0 61 59 61h135h240q61 0 61 -59q0 -33 -39 -72l-174 -178q90 -2 157 -59q67 -58 67 -156q0 -121 -76 -193q-75 -71 -201 -71
q-117 0 -190 45q-52 34 -52 69q0 29 18 47q17 17 40 17q19 0 59 -21q76 -36 125 -36q66 0 105 36q40 37 40 101z" />
    <glyph glyph-name="fourinferior" unicode="&#x2084;" horiz-adv-x="692" 
d="M406 66q0 69 57 69q63 0 65 -53v-154h78q58 0 58 -53q0 -68 -54 -68h-82v-102q0 -53 -63 -55q-59 0 -59 55v100h-89h-112h-86q-31 0 -53 25q-21 24 -21 51q0 39 33 88l231 428q21 45 62 45q29 0 52 -17t23 -40q0 -14 -10 -37l-237 -424l207 2v140z" />
    <glyph glyph-name="fiveinferior" unicode="&#x2085;" horiz-adv-x="659" 
d="M131 371q5 31 25 50t49 19h297q63 0 63 -63t-67 -62l-250 2l-6 -43l-23 -149q64 35 125 35q115 0 184 -67q68 -66 68 -173q0 -118 -75 -194t-202 -76q-112 0 -198 47q-53 30 -53 74q0 26 17 44q18 19 44 19q17 0 53 -20q74 -39 137 -39q60 0 103 37t43 98q0 59 -38 95
q-37 36 -101 36q-38 0 -95 -23q-54 -22 -77 -22q-33 0 -53 20q-21 21 -17 54q0 4 19 121q24 147 28 180z" />
    <glyph glyph-name="sixinferior" unicode="&#x2086;" horiz-adv-x="696" 
d="M389 317q-69 0 -125 -60t-57 -148q0 -12 -1 -20t-1 -17q23 40 75 63q54 23 103 23q110 0 183 -61t73 -181q0 -116 -77 -191q-76 -75 -204 -75q-111 0 -182 64t-88 184q-10 59 -10 131q0 185 87 299t230 114q98 0 154 -28q43 -24 43 -64q0 -24 -15 -42q-14 -17 -40 -17
q-7 0 -50 10q-51 16 -98 16zM358 47q-65 0 -105 -37t-40 -100t41 -101t104 -38q64 0 107 39t43 104q0 66 -40 100q-41 35 -110 33z" />
    <glyph glyph-name="seveninferior" unicode="&#x2087;" horiz-adv-x="632" 
d="M422 317q-16 0 -152 -2t-159 -2q-66 0 -66 66q0 57 66 57q114 0 210 1t205 1q64 0 64 -61q0 -36 -37 -86q-147 -209 -221 -424q-26 -65 -51 -156q-17 -57 -68 -57q-76 0 -66 67q11 61 54 173q83 219 221 423z" />
    <glyph glyph-name="eightinferior" unicode="&#x2088;" horiz-adv-x="698" 
d="M606 229q0 -121 -102 -166q57 -17 96 -62q37 -43 37 -108q1 -121 -77 -183t-208 -62q-128 0 -207 60t-79 167q0 138 135 188q-39 15 -69 60t-30 98q0 100 74 163q72 62 174 62q107 0 181 -61q75 -61 75 -156zM354 8q-66 0 -112 -32q-45 -31 -43 -93q0 -57 40 -87
q39 -29 105 -29q75 0 117 32q43 33 43 92q0 54 -43 85q-44 32 -107 32zM229 219q0 -48 35 -78t88 -30q56 0 92 33q37 34 37 85q0 45 -38 74t-93 29q-50 0 -86 -31q-35 -30 -35 -82z" />
    <glyph glyph-name="nineinferior" unicode="&#x2089;" horiz-adv-x="698" 
d="M317 -223q83 0 132 60q49 59 47 175q-24 -35 -74 -59q-52 -25 -105 -25q-101 0 -177 66q-77 66 -77 186q0 113 82 188q81 74 199 74q140 0 212 -94q73 -96 73 -272q0 -223 -78 -325q-77 -101 -240 -101q-96 0 -174 35q-37 21 -37 65q0 24 17 44t41 20q12 0 51 -15
q62 -22 108 -22zM342 39q60 0 104 39q43 39 43 102q0 62 -44 103t-105 41q-62 0 -103 -40q-42 -41 -42 -106q0 -64 39 -100q40 -38 108 -39z" />
    <glyph glyph-name="franc" unicode="&#x20a3;" horiz-adv-x="1079" 
d="M80 248q-72 0 -72 65q0 72 78 72h117l4 598q0 14 -2 124t-2 126q0 41 6 78q15 78 90 78h119q113 0 225 1t266 1q65 0 95 -16q28 -15 28 -56q0 -46 -24 -64t-82 -18h-553q0 -79 -1 -142t-1 -143v-166l432 2q71 0 71 -77q0 -74 -81 -74l-211 2q-211 0 -213 -2v-252h235
q76 0 76 -63q0 -74 -84 -74h-227v-146q0 -57 -17 -83q-16 -25 -67 -25q-86 0 -86 92q0 37 1 78t1 84h-121z" />
    <glyph glyph-name="lira" unicode="&#x20a4;" horiz-adv-x="1101" 
d="M184 485q-36 0 -54 18q-17 17 -15 48q1 63 90 63h104v121h-100q-49 0 -69 14q-19 13 -19 50q0 36 22 48q21 11 74 11h92q0 58 2 88q7 219 119 335q111 116 285 116q115 0 180 -43q47 -29 47 -74q0 -30 -20 -53q-22 -25 -50 -25q-22 0 -70 18q-45 17 -87 17
q-103 0 -169 -84q-67 -85 -67 -252v-43q88 2 215 2q88 0 88 -57q0 -67 -82 -68h-221v-121h230q65 0 65 -61q0 -39 -20 -53q-21 -15 -72 -15h-203v-278q268 -76 338 -76q47 0 80 49t70 49q33 0 55 -21q22 -20 20 -56q-6 -89 -68 -130q-63 -42 -159 -42q-59 0 -261 50t-232 50
q-66 0 -99 -43l-4 -5q-4 -6 -7 -10q-2 -3 -6 -8.5t-5 -6.5q-3 -3 -13 -11q-8 -6 -19 -9q-12 -3 -28 -3q-44 0 -61 47q-14 21 -8 65q18 57 68 93q49 36 110 42q10 2 31 2q20 0 30 -2l-2 254h-125z" />
    <glyph glyph-name="Euro" unicode="&#x20ac;" horiz-adv-x="1187" 
d="M1055 1358q59 -24 59 -80q0 -80 -70 -80q-16 0 -88 21q-69 20 -139 20q-140 0 -246 -95q-102 -92 -153 -249q204 2 426 2q69 0 69 -66q0 -65 -71 -65h-114h-180h-161q-4 -55 -4 -96v-62h434q68 0 68 -63q0 -70 -101 -70q-182 0 -378 2q88 -325 425 -325q62 0 138 23
q79 24 100 24q26 -1 46 -31q20 -29 20 -57q0 -57 -95 -92q-89 -33 -233 -31q-220 1 -377 130q-156 127 -199 361h-106q-84 0 -84 68q0 61 84 61h90q-2 22 -2 51q0 54 6 105h-78q-73 0 -73 61q0 68 82 68h94q57 234 220 370q162 135 363 134q117 0 228 -39z" />
    <glyph glyph-name="uni20B9" unicode="&#x20b9;" horiz-adv-x="1081" 
d="M152 1239q-37 0 -56 22q-18 21 -18 52q4 71 100 71h748q75 0 75 -67q0 -42 -22 -60q-23 -18 -80 -18h-237q121 -90 133 -229h135q71 0 71 -66q0 -40 -21 -58t-79 -18h-115q-24 -122 -110 -208q-85 -85 -217 -109l389 -408q39 -39 39 -73q0 -36 -24 -58q-23 -22 -60 -22
q-40 -2 -80 41l-444 489l-91 -2q-79 0 -79 80q0 70 77 70h121q264 0 309 200h-462q-37 0 -56 22q-18 21 -18 52q2 70 100 70q215 0 445 -2q-7 104 -83 161q-76 58 -194 68h-196z" />
    <glyph glyph-name="uni20BA" unicode="&#x20ba;" horiz-adv-x="1093" 
d="M725 604l-264 -88q-5 -225 0 -348q140 -2 244 66q107 69 147 174q23 47 42 65q19 17 56 16q88 -6 72 -102q-39 -149 -157 -247q-119 -99 -296 -132q-53 -10 -170 -10q-108 0 -108 92v369l-146 -49q-35 -10 -57 6q-24 18 -31 43q-11 58 76 88l158 53v133l-158 -53
q-35 -12 -57 4q-23 17 -29 45q-15 58 74 88l170 57l2 437q0 84 90 84q36 0 58 -20t22 -52q0 -66 -1 -156t-1 -235l239 82q73 21 91 -39q27 -65 -76 -98l-254 -86v-134l248 86q70 18 92 -38q18 -67 -76 -101z" />
    <glyph glyph-name="uni20BD" unicode="&#x20bd;" horiz-adv-x="1257" 
d="M160 551q-78 0 -78 70q0 77 98 77h84l-4 525q0 83 35 124t129 42q135 4 254 4q226 0 359 -106q132 -105 132 -308q0 -202 -134 -315t-367 -113h-234v-172h332q80 0 80 -68q0 -80 -94 -80h-316v-151q0 -51 -19 -71q-19 -21 -67 -21q-86 0 -86 90v155h-108q-80 0 -80 72
q0 76 92 76h96v170h-104zM434 874v-176h240q160 1 247 67q85 64 85 214q0 264 -334 264q-160 0 -238 -6v-363z" />
    <glyph glyph-name="uni2113" unicode="&#x2113;" horiz-adv-x="888" 
d="M528 -8q-120 0 -204 81t-88 193q0 13 -7 74q-54 -23 -84 -23q-59 6 -59 72q0 23 15 42t42 24q38 6 82 30l-6 150q-17 201 -12 354q1 84 14 153q12 63 43 131q29 63 92 100q62 36 152 36q140 0 209 -96q70 -97 74 -240q1 -141 -72 -283q-74 -144 -193 -258
q-32 -35 -75 -68q-47 -36 -78 -52v-43q0 -101 39 -168q39 -68 125 -68q57 0 131 41q45 25 65 25q26 0 47 -23q21 -22 21 -51q0 -41 -33 -62q-111 -71 -240 -71zM352 963q0 -198 8 -390q49 36 87 72q28 27 81 94q113 173 113 322q0 49 -9 92q-9 44 -43 82q-35 39 -89 39
q-80 0 -114 -93q-34 -92 -34 -218z" />
    <glyph glyph-name="trademark" unicode="&#x2122;" horiz-adv-x="1372" 
d="M299 1384q29 0 74 1t135 1q49 0 49 -45q0 -55 -51 -55h-158l2 -409q0 -29 1 -52t1 -57q0 -57 -59 -57q-51 0 -49 53v364v158h-170q-45 0 -45 49t47 51zM877 780l-150 422l-53 -450q-6 -41 -51 -41q-24 0 -39 15t-13 38q32 212 80 582q7 38 66 38q39 0 57 -49l162 -456
l166 448q22 48 57 59h21q30 0 45 -24l63 -500l12 -96q4 -57 -51 -57q-47 0 -51 45l-49 444l-156 -420q-24 -45 -65 -45q-24 0 -32 11q-8 10 -19 36z" />
    <glyph glyph-name="Omega" unicode="&#x2126;" horiz-adv-x="1435" 
d="M535 0l-365 -2q-86 0 -86 78q0 43 26 64q27 22 64 22q6 0 22 -0.5t47 -1t62 -0.5q32 0 61.5 -0.5t44.5 -1t19 -0.5q-143 93 -244 241q-102 150 -102 342q0 286 179 473t450 187q281 0 459 -182q180 -185 176 -463q0 -183 -94 -339q-94 -155 -234 -257q56 0 117 1t108 1
q55 0 81 -18t26 -60q0 -82 -95 -82q-80 0 -182 -1t-174 -1q-39 0 -65 20q-27 21 -27 60q0 55 51 100q148 117 238 254q88 134 88 324q0 211 -133 350t-334 139q-205 0 -338 -139t-133 -369q0 -122 50 -231q49 -107 118 -179t168 -149q55 -43 55 -92q0 -40 -28 -65
q-28 -24 -76 -23z" />
    <glyph glyph-name="estimated" unicode="&#x212e;" horiz-adv-x="1415" 
d="M1315 600h-922v-434q147 -103 314 -103q143 0 262 77q117 76 186 184q10 10 25 4l47 -33q4 -4 2 -12q-89 -134 -224 -217q-137 -84 -298 -84q-263 0 -439 192q-176 193 -176 461t176 459q175 190 439 190q262 0 439 -189t177 -460v-25q0 -10 -8 -10zM393 676h625v428
q-140 104 -311 104q-175 0 -314 -108v-424z" />
    <glyph glyph-name="onethird" unicode="&#x2153;" horiz-adv-x="1560" 
d="M1036 1348q24 43 60 43q24 0 43 -17q18 -16 18 -41q0 -17 -18 -55l-316 -522l-424 -725q-21 -39 -57 -39q-23 0 -42 16t-19 43q0 23 18 53zM1358 246q0 62 -43 92q-45 31 -109 31h-49q-55 0 -55 61q0 27 31 55l170 172q-172 0 -252 -2q-66 0 -66 60q0 61 59 61h134
q67 0 122 -1t119 -1q62 0 62 -57q0 -33 -39 -72l-174 -178q88 -1 155 -59q66 -57 68 -154q0 -123 -76 -195q-75 -71 -201 -71q-112 0 -192 47q-49 27 -49 69q0 27 17 43q19 17 40 17q17 0 60 -19q61 -34 124 -34q65 0 104 36q40 37 40 99zM168 1153q-21 -12 -39 -12
q-23 0 -40 17t-17 40q0 29 34 57l162 117q35 23 68 23q22 0 42 -17q19 -16 19 -37q0 -61 -1 -111t-1 -114v-452q0 -56 -65 -56q-28 0 -47 17t-19 45q0 27 5 262t5 299q-65 -52 -106 -78z" />
    <glyph glyph-name="twothirds" unicode="&#x2154;" horiz-adv-x="1642" 
d="M1149 1348q24 43 59 43q23 0 42 -17q18 -16 18 -41q0 -23 -19 -55q-14 -25 -134 -222q-97 -159 -181 -300l-422 -725q-21 -39 -57 -39q-23 0 -42 16q-20 17 -20 43q0 25 19 53zM1440 246q0 62 -43 92q-45 31 -109 31h-49q-55 0 -55 61q0 28 30 55l170 172q-171 0 -251 -2
q-66 0 -66 60q0 61 59 61h134q67 0 122 -1t119 -1q62 0 62 -57q0 -33 -39 -72l-174 -178q88 -1 155 -59q66 -57 68 -154q0 -123 -76 -195q-75 -71 -201 -71q-112 0 -192 47q-49 27 -49 69q0 27 17 43q19 17 40 17q16 0 59 -19q61 -34 125 -34q65 0 104 36q40 37 40 99z
M326 1274q-72 0 -123 -60q-27 -30 -64 -30q-24 0 -42 18q-17 17 -17 45q0 38 49 78q83 78 195 78t189 -66t77 -174q0 -18 -3 -36q-1 -6 -6 -31q-2 -10 -13 -32q-2 -4 -5.5 -10.5t-5.5 -10.5t-3 -7q-4 -8 -20 -28q-17 -21 -21 -27q-5 -9 -26 -28q-14 -13 -26 -25
q-1 -1 -11.5 -11t-19.5 -19q-10 -9 -20.5 -19t-10.5 -11l-143 -135q46 0 186 2q31 0 58 0.5t39.5 1t13.5 0.5q29 0 45 -17t16 -46q0 -64 -67 -64q-31 0 -64 1t-71 1h-269q-67 0 -67 68q0 48 49 94l203 199q49 45 68 65q20 22 41 56q22 36 22 65q0 49 -38 82q-37 33 -95 33z
" />
    <glyph glyph-name="oneeighth" unicode="&#x215b;" horiz-adv-x="1601" 
d="M1047 1348q24 43 61 43q23 0 42 -17q17 -16 17 -41t-18 -55l-315 -522l-424 -725q-21 -39 -56 -39q-23 0 -43 16t-20 43q0 23 18 53zM1489 569q0 -122 -103 -163q58 -17 97 -64q37 -44 37 -106q2 -123 -77 -185q-79 -63 -208 -63q-128 0 -207 61q-80 62 -80 168
q0 137 135 186q-38 14 -68 60q-30 45 -30 98q0 102 74 164q73 61 174 61q106 0 181 -60t75 -157zM1237 348q-68 0 -112 -32t-44 -91q0 -56 40 -87q41 -32 106 -32q73 0 116 33t43 92q0 56 -43 86q-45 31 -106 31zM1112 559q0 -47 35 -77q33 -29 88 -29q56 0 92 32
q37 33 37 84q0 45 -38 74t-93 29q-53 0 -87 -30t-34 -83zM178 1153q-22 -12 -39 -12q-23 0 -40 17t-17 40q0 28 35 57l162 117q34 23 67 23q22 0 42 -17t20 -37q0 -61 -1 -111t-1 -114v-452q0 -56 -64 -56q-68 0 -68 62q0 15 1 48t2.5 95t2.5 119q5 235 5 299
q-61 -50 -107 -78z" />
    <glyph glyph-name="threeeighths" unicode="&#x215c;" horiz-adv-x="1662" 
d="M1128 1348q24 43 62 43q23 0 42 -17q17 -16 17 -41t-18 -55l-316 -522l-423 -725q-21 -39 -56 -39q-23 0 -43 16t-20 43q0 23 18 53zM1540 569q0 -122 -102 -163q55 -17 94 -64q37 -44 37 -106q2 -122 -76 -185t-207 -63q-128 0 -207 61q-80 62 -80 168q0 136 136 186
q-39 15 -69 60t-30 98q0 102 74 164q73 61 174 61q106 0 181 -60t75 -157zM1288 348q-66 0 -112 -32t-46 -91q0 -55 41 -87t107 -32q74 0 117 33t43 92q0 56 -43 86q-45 31 -107 31zM1161 559q1 -46 37 -77q33 -29 88 -29q56 0 91 32q36 33 36 84q0 46 -37 74q-38 29 -92 29
q-52 0 -88 -31q-35 -30 -35 -82zM461 862q0 62 -43 92q-45 31 -111 31h-49q-55 0 -55 62q0 27 30 57l170 170q-173 0 -249 -2q-68 0 -68 59q0 62 59 62h136q65 0 120 -1t121 -1q62 0 62 -56q0 -37 -39 -71l-174 -181q87 -1 154 -59t67 -154q0 -122 -76 -194t-201 -72
q-113 0 -190 47q-49 28 -49 70q0 27 17 44t38 17t59 -18q68 -37 125 -37q65 0 105 37q41 38 41 98z" />
    </font>
</defs>
</svg>
