<svg xmlns="http://www.w3.org/2000/svg" width="73" height="43" viewBox="0 0 73 43">
  <g id="Group_2745" data-name="Group 2745" transform="translate(-1 -22.5)">
    <g id="Group_2744" data-name="Group 2744" transform="translate(1 22.5)">
      <path id="Path_11054" data-name="Path 11054" d="M36.809,44,29.6,65.5,79.979,44,29.6,22.5Z" transform="translate(-6.979 -22.5)" fill="#707070"/>
      <path id="Path_11055" data-name="Path 11055" d="M20.008,47.7a1.706,1.706,0,0,0-1.7-1.7H4.7a1.7,1.7,0,1,0,0,3.4H18.307A1.706,1.706,0,0,0,20.008,47.7Z" transform="translate(-3 -26.201)" fill="#707070"/>
      <path id="Path_11056" data-name="Path 11056" d="M23.307,29H9.7a1.7,1.7,0,0,0,0,3.4H23.307a1.7,1.7,0,0,0,0-3.4Z" transform="translate(-3.748 -23.472)" fill="#707070"/>
      <path id="Path_11057" data-name="Path 11057" d="M23.307,64H9.7a1.7,1.7,0,0,0,0,3.4H23.307a1.7,1.7,0,0,0,0-3.4Z" transform="translate(-3.748 -29.079)" fill="#707070"/>
    </g>
  </g>
</svg>
