<svg xmlns="http://www.w3.org/2000/svg" xmlns:xlink="http://www.w3.org/1999/xlink" width="199" height="199" viewBox="0 0 199 199">
  <defs>
    <radialGradient id="radial-gradient" cx="0.5" cy="0.5" r="0.607" gradientUnits="objectBoundingBox">
      <stop offset="0" stop-color="#fff"/>
      <stop offset="0.662" stop-color="#2aac91"/>
      <stop offset="1" stop-color="#2574c4"/>
    </radialGradient>
    <filter id="Ellipse_44" x="0" y="0" width="199" height="199" filterUnits="userSpaceOnUse">
      <feOffset dx="3" dy="3" input="SourceAlpha"/>
      <feGaussianBlur stdDeviation="7.5" result="blur"/>
      <feFlood flood-opacity="0.231"/>
      <feComposite operator="in" in2="blur"/>
      <feComposite in="SourceGraphic"/>
    </filter>
    <filter id="Path_23833" x="45.845" y="49.537" width="100.245" height="100.247" filterUnits="userSpaceOnUse">
      <feOffset dy="3" input="SourceAlpha"/>
      <feGaussianBlur stdDeviation="3" result="blur-2"/>
      <feFlood flood-opacity="0.702"/>
      <feComposite operator="in" in2="blur-2"/>
      <feComposite in="SourceGraphic"/>
    </filter>
  </defs>
  <g id="Component_46_1" data-name="Component 46 – 1" transform="translate(19.5 19.5)">
    <g id="Group_5" data-name="Group 5" transform="translate(-861 -564)">
      <g transform="matrix(1, 0, 0, 1, 841.5, 544.5)" filter="url(#Ellipse_44)">
        <circle id="Ellipse_44-2" data-name="Ellipse 44" cx="77" cy="77" r="77" transform="translate(19.5 19.5)" fill="url(#radial-gradient)"/>
      </g>
    </g>
    <g id="Group_3760" data-name="Group 3760" transform="translate(-2367.571 -1037.511)">
      <g transform="matrix(1, 0, 0, 1, 2348.07, 1018.01)" filter="url(#Path_23833)">
        <path id="Path_23833-2" data-name="Path 23833" d="M2497.962,1181.411a41.119,41.119,0,1,1,12.64-56.763A41.121,41.121,0,0,1,2497.962,1181.411Z" transform="translate(-2379.93 -1050.05)" fill="#fff"/>
      </g>
      <g id="Group_3755" data-name="Group 3755" transform="translate(2390.129 1058.668)">
        <path id="Path_23834" data-name="Path 23834" d="M2557.248,1284.906a4.443,4.443,0,0,1,2.18-5.222,4.078,4.078,0,0,1,5.28,1.91,4.12,4.12,0,0,1-2.053,5.59A3.816,3.816,0,0,1,2557.248,1284.906Z" transform="translate(-2486.349 -1182.157)" fill="#004990"/>
        <path id="Path_23835" data-name="Path 23835" d="M2532.168,1291.276a4.086,4.086,0,0,1,8.026-1.317,4.085,4.085,0,1,1-8.026,1.317Z" transform="translate(-2473.254 -1186.135)" fill="#004990"/>
        <path id="Path_23836" data-name="Path 23836" d="M2506.318,1291.261a4.144,4.144,0,0,1,4.388-3.562,4.5,4.5,0,0,1,3.745,4.286,3.773,3.773,0,0,1-4.391,3.848A4.045,4.045,0,0,1,2506.318,1291.261Z" transform="translate(-2459.623 -1186.559)" fill="#004990"/>
        <path id="Path_23837" data-name="Path 23837" d="M2481.131,1285.349a4.427,4.427,0,0,1,5.166-2.606,4.375,4.375,0,0,1,2.612,5.141,4.09,4.09,0,0,1-7.778-2.536Z" transform="translate(-2446.23 -1183.876)" fill="#004990"/>
        <path id="Path_23838" data-name="Path 23838" d="M2458.259,1273.585a4.442,4.442,0,0,1,5.533-1.166,4.08,4.08,0,1,1-4.339,6.911A3.817,3.817,0,0,1,2458.259,1273.585Z" transform="translate(-2433.924 -1178.275)" fill="#004990"/>
        <path id="Path_23839" data-name="Path 23839" d="M2439.047,1256.367a4.093,4.093,0,0,1,5.64,5.871,4.09,4.09,0,1,1-5.64-5.871Z" transform="translate(-2423.472 -1169.578)" fill="#004990"/>
        <path id="Path_23840" data-name="Path 23840" d="M2424.367,1235.2a4.069,4.069,0,0,1,5.365,1.6,4.426,4.426,0,0,1-1.336,5.488,3.845,3.845,0,0,1-5.722-1.383A4.107,4.107,0,0,1,2424.367,1235.2Z" transform="translate(-2415.346 -1158.717)" fill="#004990"/>
        <path id="Path_23841" data-name="Path 23841" d="M2415.038,1211.181a4.294,4.294,0,0,1,4.984,2.8,4.532,4.532,0,0,1-2.831,5.1,3.759,3.759,0,0,1-5-2.8A3.923,3.923,0,0,1,2415.038,1211.181Z" transform="translate(-2410.012 -1146.25)" fill="#004990"/>
        <path id="Path_23842" data-name="Path 23842" d="M2411.7,1185.542a4.544,4.544,0,0,1,4.245,3.906,4.238,4.238,0,0,1-3.792,4.257,3.957,3.957,0,0,1-4.363-3.914A3.744,3.744,0,0,1,2411.7,1185.542Z" transform="translate(-2407.779 -1132.792)" fill="#004990"/>
        <path id="Path_23843" data-name="Path 23843" d="M2414.77,1159.916a4.156,4.156,0,0,1,2.919,4.74,3.988,3.988,0,0,1-4.5,3.263,4.183,4.183,0,0,1-3.493-4.878A4.02,4.02,0,0,1,2414.77,1159.916Z" transform="translate(-2408.767 -1119.223)" fill="#004990"/>
        <path id="Path_23844" data-name="Path 23844" d="M2423.684,1135.775a4.007,4.007,0,0,1,1.7,5.308c-1.133,1.734-2.978,2.854-5.209,2.04-2.012-.707-3.485-3.4-2.172-5.517A4.139,4.139,0,0,1,2423.684,1135.775Z" transform="translate(-2412.897 -1106.322)" fill="#004990"/>
        <path id="Path_23845" data-name="Path 23845" d="M2438.229,1114.415a4.285,4.285,0,0,1,.519,5.693,4.539,4.539,0,0,1-5.79.568,3.746,3.746,0,0,1-.545-5.712A3.929,3.929,0,0,1,2438.229,1114.415Z" transform="translate(-2420.188 -1094.802)" fill="#004990"/>
        <path id="Path_23846" data-name="Path 23846" d="M2457.45,1097.076a4.5,4.5,0,0,1-.755,5.782,4.286,4.286,0,0,1-5.672-.724,3.928,3.928,0,0,1,.755-5.785A3.754,3.754,0,0,1,2457.45,1097.076Z" transform="translate(-2430.042 -1085.337)" fill="#004990"/>
        <path id="Path_23847" data-name="Path 23847" d="M2480.328,1085.03a4.439,4.439,0,0,1-2.184,5.21,4.046,4.046,0,0,1-5.263-1.906,4.093,4.093,0,0,1,2.036-5.586A3.816,3.816,0,0,1,2480.328,1085.03Z" transform="translate(-2441.808 -1078.436)" fill="#004990"/>
        <path id="Path_23848" data-name="Path 23848" d="M2505.361,1078.83a4.094,4.094,0,0,1-8.04,1.325,4.091,4.091,0,1,1,8.04-1.325Z" transform="translate(-2454.851 -1074.641)" fill="#004990"/>
        <path id="Path_23849" data-name="Path 23849" d="M2531.181,1078.8a4.149,4.149,0,0,1-4.388,3.561,4.517,4.517,0,0,1-3.741-4.286,3.769,3.769,0,0,1,4.388-3.851A4.043,4.043,0,0,1,2531.181,1078.8Z" transform="translate(-2468.461 -1074.164)" fill="#004990"/>
        <path id="Path_23850" data-name="Path 23850" d="M2556.346,1084.789a4.411,4.411,0,0,1-5.156,2.6,4.359,4.359,0,0,1-2.621-5.136,3.865,3.865,0,0,1,5.168-2.609A3.82,3.82,0,0,1,2556.346,1084.789Z" transform="translate(-2481.832 -1076.927)" fill="#004990"/>
        <path id="Path_23851" data-name="Path 23851" d="M2579.185,1096.723a4.45,4.45,0,0,1-5.537,1.165,4.081,4.081,0,1,1,4.342-6.911A3.817,3.817,0,0,1,2579.185,1096.723Z" transform="translate(-2494.1 -1082.694)" fill="#004990"/>
        <path id="Path_23852" data-name="Path 23852" d="M2598.505,1113.757a4.1,4.1,0,0,1-5.647-5.872,4.093,4.093,0,1,1,5.647,5.872Z" transform="translate(-2504.657 -1091.206)" fill="#004990"/>
        <path id="Path_23853" data-name="Path 23853" d="M2613.354,1134.846a4.052,4.052,0,0,1-5.36-1.606,4.423,4.423,0,0,1,1.341-5.484,3.829,3.829,0,0,1,5.712,1.386A4.1,4.1,0,0,1,2613.354,1134.846Z" transform="translate(-2512.959 -1101.992)" fill="#004990"/>
        <path id="Path_23854" data-name="Path 23854" d="M2622.545,1158.858a4.277,4.277,0,0,1-4.989-2.806,4.521,4.521,0,0,1,2.83-5.087,3.756,3.756,0,0,1,5,2.8A3.928,3.928,0,0,1,2622.545,1158.858Z" transform="translate(-2518.146 -1114.455)" fill="#004990"/>
        <path id="Path_23855" data-name="Path 23855" d="M2625.81,1184.538a4.547,4.547,0,0,1-4.253-3.906,4.246,4.246,0,0,1,3.8-4.252,3.951,3.951,0,0,1,4.364,3.9A3.746,3.746,0,0,1,2625.81,1184.538Z" transform="translate(-2520.312 -1127.953)" fill="#004990"/>
        <path id="Path_23856" data-name="Path 23856" d="M2622.856,1210.193a4.158,4.158,0,0,1-2.919-4.743,3.978,3.978,0,0,1,4.5-3.255,4.181,4.181,0,0,1,3.493,4.875A4.028,4.028,0,0,1,2622.856,1210.193Z" transform="translate(-2519.439 -1141.55)" fill="#004990"/>
        <path id="Path_23857" data-name="Path 23857" d="M2613.668,1234.373a4.018,4.018,0,0,1-1.709-5.308c1.142-1.738,2.99-2.859,5.227-2.049,2,.72,3.476,3.4,2.162,5.521A4.137,4.137,0,0,1,2613.668,1234.373Z" transform="translate(-2515.032 -1154.487)" fill="#004990"/>
        <path id="Path_23858" data-name="Path 23858" d="M2599.21,1255.8a4.262,4.262,0,0,1-.527-5.684,4.533,4.533,0,0,1,5.787-.573,3.75,3.75,0,0,1,.549,5.712A3.916,3.916,0,0,1,2599.21,1255.8Z" transform="translate(-2507.823 -1166.078)" fill="#004990"/>
        <path id="Path_23859" data-name="Path 23859" d="M2580.158,1272.969a4.529,4.529,0,0,1,.757-5.787,4.284,4.284,0,0,1,5.675.717,3.936,3.936,0,0,1-.76,5.8A3.764,3.764,0,0,1,2580.158,1272.969Z" transform="translate(-2498.153 -1175.365)" fill="#004990"/>
      </g>
      <g id="Group_3756" data-name="Group 3756" transform="translate(2374.251 1044.727)">
        <path id="Path_23860" data-name="Path 23860" d="M2573.16,1313.745a4.411,4.411,0,0,1,1.861-5.5,4.187,4.187,0,0,1,5.382,1.86,3.98,3.98,0,0,1-1.878,5.509A3.768,3.768,0,0,1,2573.16,1313.745Z" transform="translate(-2478.793 -1183.246)" fill="#ff5b00"/>
        <path id="Path_23861" data-name="Path 23861" d="M2548.828,1321.783a4.33,4.33,0,0,1,2.871-5,4.245,4.245,0,0,1,4.948,2.879,3.894,3.894,0,0,1-2.862,5.009A3.851,3.851,0,0,1,2548.828,1321.783Z" transform="translate(-2466.112 -1187.877)" fill="#ff5b00"/>
        <path id="Path_23862" data-name="Path 23862" d="M2523.45,1325.219a4.052,4.052,0,1,1,8.085-.561,3.853,3.853,0,0,1-3.742,4.351A3.893,3.893,0,0,1,2523.45,1325.219Z" transform="translate(-2452.792 -1190.091)" fill="#ff5b00"/>
        <path id="Path_23863" data-name="Path 23863" d="M2497.9,1323.955a4.231,4.231,0,0,1,4.469-3.555,4.363,4.363,0,0,1,3.571,4.556,3.826,3.826,0,0,1-4.478,3.554A3.924,3.924,0,0,1,2497.9,1323.955Z" transform="translate(-2439.306 -1189.833)" fill="#ff5b00"/>
        <path id="Path_23864" data-name="Path 23864" d="M2473.023,1318.055a4.181,4.181,0,0,1,5.033-2.654,4.407,4.407,0,0,1,2.667,5.16,3.8,3.8,0,0,1-5.042,2.646A3.946,3.946,0,0,1,2473.023,1318.055Z" transform="translate(-2426.111 -1187.123)" fill="#ff5b00"/>
        <path id="Path_23865" data-name="Path 23865" d="M2449.667,1307.7a4.149,4.149,0,0,1,5.427-1.652,4.458,4.458,0,0,1,1.656,5.586,3.753,3.753,0,0,1-5.427,1.648A3.986,3.986,0,0,1,2449.667,1307.7Z" transform="translate(-2413.654 -1182.055)" fill="#ff5b00"/>
        <path id="Path_23866" data-name="Path 23866" d="M2428.658,1293.232a4.088,4.088,0,0,1,5.6-.589,4.528,4.528,0,0,1,.584,5.823,3.708,3.708,0,0,1-5.614.6A4.038,4.038,0,0,1,2428.658,1293.232Z" transform="translate(-2402.369 -1174.784)" fill="#ff5b00"/>
        <path id="Path_23867" data-name="Path 23867" d="M2410.694,1275.114a4.016,4.016,0,0,1,5.57.495,4.572,4.572,0,0,1-.438,5.763,3.684,3.684,0,0,1-5.7-.377A4.127,4.127,0,0,1,2410.694,1275.114Z" transform="translate(-2392.628 -1165.54)" fill="#ff5b00"/>
        <path id="Path_23868" data-name="Path 23868" d="M2396.277,1254.049a3.913,3.913,0,0,1,5.32,1.533,4.366,4.366,0,0,1-1.346,5.483c-1.795,1.26-4.719.917-5.667-1.309A4.188,4.188,0,0,1,2396.277,1254.049Z" transform="translate(-2384.692 -1154.673)" fill="#ff5b00"/>
        <path id="Path_23869" data-name="Path 23869" d="M2385.833,1230.716a3.848,3.848,0,0,1,4.9,2.5,4.029,4.029,0,0,1-2.172,5.092,4.1,4.1,0,0,1-5.488-2.282A4.258,4.258,0,0,1,2385.833,1230.716Z" transform="translate(-2378.805 -1142.545)" fill="#ff5b00"/>
        <path id="Path_23870" data-name="Path 23870" d="M2379.866,1205.827a4.05,4.05,0,0,1,1.329,7.958,4.056,4.056,0,1,1-1.329-7.958Z" transform="translate(-2375.225 -1129.524)" fill="#ff5b00"/>
        <path id="Path_23871" data-name="Path 23871" d="M2378.732,1180.28a3.929,3.929,0,0,1,3.672,4.1,3.817,3.817,0,0,1-3.791,3.957,4.275,4.275,0,0,1-4.362-4.121A4.164,4.164,0,0,1,2378.732,1180.28Z" transform="translate(-2374.251 -1116.076)" fill="#ff5b00"/>
        <path id="Path_23872" data-name="Path 23872" d="M2382.4,1154.931a4.09,4.09,0,0,1,2.923,4.719,3.875,3.875,0,0,1-4.49,3.2,4.248,4.248,0,0,1-3.5-4.849A4.044,4.044,0,0,1,2382.4,1154.931Z" transform="translate(-2375.854 -1102.664)" fill="#ff5b00"/>
        <path id="Path_23873" data-name="Path 23873" d="M2390.6,1130.655c2.135,1.056,2.568,3.162,2.074,5.195a3.905,3.905,0,0,1-5.025,2.318,4.2,4.2,0,0,1-2.531-5.4C2385.741,1130.436,2388.693,1129.708,2390.6,1130.655Z" transform="translate(-2379.849 -1089.749)" fill="#ff5b00"/>
        <path id="Path_23874" data-name="Path 23874" d="M2403.092,1108.247a4.358,4.358,0,0,1,1.145,5.524,3.949,3.949,0,0,1-5.4,1.329,4.166,4.166,0,0,1-1.456-5.749C2398.435,1107.167,2401.333,1106.909,2403.092,1108.247Z" transform="translate(-2386.118 -1077.734)" fill="#ff5b00"/>
        <path id="Path_23875" data-name="Path 23875" d="M2419.452,1088.473a4.545,4.545,0,0,1,.176,5.721,3.992,3.992,0,0,1-5.579.286,4.123,4.123,0,0,1-.343-5.9A3.7,3.7,0,0,1,2419.452,1088.473Z" transform="translate(-2394.455 -1067.064)" fill="#ff5b00"/>
        <path id="Path_23876" data-name="Path 23876" d="M2439.13,1072.167a4.528,4.528,0,0,1-.786,5.8,4.085,4.085,0,0,1-5.583-.8,4.04,4.04,0,0,1,.794-5.807A3.7,3.7,0,0,1,2439.13,1072.167Z" transform="translate(-2404.579 -1058.269)" fill="#ff5b00"/>
        <path id="Path_23877" data-name="Path 23877" d="M2461.541,1059.945a4.439,4.439,0,0,1-1.873,5.5,4.173,4.173,0,0,1-5.37-1.873,3.97,3.97,0,0,1,1.869-5.5A3.782,3.782,0,0,1,2461.541,1059.945Z" transform="translate(-2416.129 -1051.506)" fill="#ff5b00"/>
        <path id="Path_23878" data-name="Path 23878" d="M2485.789,1051.959a4.337,4.337,0,0,1-2.863,5.005,4.27,4.27,0,0,1-4.952-2.882,3.9,3.9,0,0,1,2.863-5.01A3.84,3.84,0,0,1,2485.789,1051.959Z" transform="translate(-2428.744 -1046.931)" fill="#ff5b00"/>
        <path id="Path_23879" data-name="Path 23879" d="M2511.144,1048.536a4.275,4.275,0,0,1-3.75,4.343,4.318,4.318,0,0,1-4.334-3.791,3.854,3.854,0,0,1,3.745-4.351A3.9,3.9,0,0,1,2511.144,1048.536Z" transform="translate(-2442.037 -1044.727)" fill="#ff5b00"/>
        <path id="Path_23880" data-name="Path 23880" d="M2536.728,1049.788a4.22,4.22,0,0,1-4.47,3.549,4.363,4.363,0,0,1-3.57-4.555,3.816,3.816,0,0,1,4.474-3.552A3.929,3.929,0,0,1,2536.728,1049.788Z" transform="translate(-2455.548 -1044.972)" fill="#ff5b00"/>
        <path id="Path_23881" data-name="Path 23881" d="M2561.643,1055.652a4.187,4.187,0,0,1-5.038,2.65,4.4,4.4,0,0,1-2.662-5.156,3.786,3.786,0,0,1,5.042-2.649A3.947,3.947,0,0,1,2561.643,1055.652Z" transform="translate(-2468.784 -1047.647)" fill="#ff5b00"/>
        <path id="Path_23882" data-name="Path 23882" d="M2585.044,1065.965a4.153,4.153,0,0,1-5.421,1.651,4.459,4.459,0,0,1-1.653-5.59,3.745,3.745,0,0,1,5.418-1.648A3.993,3.993,0,0,1,2585.044,1065.965Z" transform="translate(-2481.292 -1052.676)" fill="#ff5b00"/>
        <path id="Path_23883" data-name="Path 23883" d="M2606.112,1080.39a4.1,4.1,0,0,1-5.61.585,4.519,4.519,0,0,1-.581-5.815,3.712,3.712,0,0,1,5.623-.6A4.037,4.037,0,0,1,2606.112,1080.39Z" transform="translate(-2492.632 -1059.9)" fill="#ff5b00"/>
        <path id="Path_23884" data-name="Path 23884" d="M2624.128,1098.465a4.007,4.007,0,0,1-5.57-.491,4.57,4.57,0,0,1,.437-5.758,3.694,3.694,0,0,1,5.706.377A4.121,4.121,0,0,1,2624.128,1098.465Z" transform="translate(-2502.427 -1069.11)" fill="#ff5b00"/>
        <path id="Path_23885" data-name="Path 23885" d="M2638.542,1119.654a3.919,3.919,0,0,1-5.324-1.542,4.369,4.369,0,0,1,1.337-5.48c1.8-1.259,4.723-.916,5.675,1.318A4.193,4.193,0,0,1,2638.542,1119.654Z" transform="translate(-2510.354 -1080.092)" fill="#ff5b00"/>
        <path id="Path_23886" data-name="Path 23886" d="M2648.826,1143.1a3.832,3.832,0,0,1-4.882-2.5,4.017,4.017,0,0,1,2.164-5.083,4.1,4.1,0,0,1,5.5,2.274A4.263,4.263,0,0,1,2648.826,1143.1Z" transform="translate(-2516.103 -1092.342)" fill="#ff5b00"/>
        <path id="Path_23887" data-name="Path 23887" d="M2654.668,1168.01a4.049,4.049,0,0,1-1.341-7.953,4.054,4.054,0,1,1,1.341,7.953Z" transform="translate(-2519.539 -1105.381)" fill="#ff5b00"/>
        <path id="Path_23888" data-name="Path 23888" d="M2655.812,1193.567a3.952,3.952,0,0,1-3.687-4.1,3.842,3.842,0,0,1,3.807-3.958,4.272,4.272,0,0,1,4.359,4.117A4.168,4.168,0,0,1,2655.812,1193.567Z" transform="translate(-2520.524 -1118.833)" fill="#ff5b00"/>
        <path id="Path_23889" data-name="Path 23889" d="M2652.256,1218.89a4.087,4.087,0,0,1-2.936-4.714,3.88,3.88,0,0,1,4.5-3.2,4.235,4.235,0,0,1,3.5,4.845A4.035,4.035,0,0,1,2652.256,1218.89Z" transform="translate(-2519.028 -1132.225)" fill="#ff5b00"/>
        <path id="Path_23890" data-name="Path 23890" d="M2644.167,1243.129c-2.135-1.055-2.571-3.157-2.069-5.2a3.9,3.9,0,0,1,5.025-2.311,4.211,4.211,0,0,1,2.527,5.4C2649.026,1243.359,2646.073,1244.087,2644.167,1243.129Z" transform="translate(-2515.152 -1145.104)" fill="#ff5b00"/>
        <path id="Path_23891" data-name="Path 23891" d="M2631.719,1265.462a4.365,4.365,0,0,1-1.141-5.533,3.934,3.934,0,0,1,5.385-1.333,4.168,4.168,0,0,1,1.464,5.758C2636.385,1266.535,2633.477,1266.783,2631.719,1265.462Z" transform="translate(-2508.919 -1157.029)" fill="#ff5b00"/>
        <path id="Path_23892" data-name="Path 23892" d="M2615.375,1285.118a4.565,4.565,0,0,1-.18-5.73,4.007,4.007,0,0,1,5.586-.282,4.126,4.126,0,0,1,.343,5.9A3.708,3.708,0,0,1,2615.375,1285.118Z" transform="translate(-2500.603 -1167.585)" fill="#ff5b00"/>
        <path id="Path_23893" data-name="Path 23893" d="M2595.653,1301.449a4.521,4.521,0,0,1,.789-5.8,4.078,4.078,0,0,1,4.792,6.6A3.711,3.711,0,0,1,2595.653,1301.449Z" transform="translate(-2490.432 -1176.406)" fill="#ff5b00"/>
      </g>
    </g>
    <text id="Let_s_Test" data-name="Let&apos;s Test" transform="translate(77 84)" fill="#4e3e3c" font-size="16" font-family="SegoeUI-Semibold, Segoe UI" font-weight="600"><tspan x="-32.672" y="0">Let&apos;s Test</tspan></text>
  </g>
</svg>
